<?xml version="1.0" encoding="UTF-8"?>
<!DOCTYPE svg PUBLIC "-//W3C//DTD SVG 1.1//EN" "http://www.w3.org/Graphics/SVG/1.1/DTD/svg11.dtd">
<!-- Creator: CorelDRAW -->
<svg xmlns="http://www.w3.org/2000/svg" xml:space="preserve" width="80px" height="80px" style="shape-rendering:geometricPrecision; text-rendering:geometricPrecision; image-rendering:optimizeQuality; fill-rule:evenodd; clip-rule:evenodd"
viewBox="0 0 12.9808 13.0118"
 xmlns:xlink="http://www.w3.org/1999/xlink">
 <defs>
  <style type="text/css">
   <![CDATA[
    .fil0 {fill:white;fill-rule:nonzero}
   ]]>
  </style>
 </defs>
 <g id="Layer_x0020_1">
  <metadata id="CorelCorpID_0Corel-Layer"/>
  <path class="fil0" d="M6.49039 0c-3.58488,0 -6.49039,2.9124 -6.49039,6.50591 0,3.59274 2.90551,6.50591 6.49039,6.50591 3.58431,0 6.49039,-2.91317 6.49039,-6.50591 0,-3.59351 -2.90608,-6.50591 -6.49039,-6.50591zm2.57626 7.11591l0 0c-0.921613,0.869103 -1.84361,1.73897 -2.76503,2.60807 -0.683975,0.644688 -1.64085,-0.0272134 -1.59677,-0.743768l0 -5.01512 0.00517437 0c0.0116902,-0.684933 0.93292,-1.29819 1.60348,-0.68455 0.917589,0.84074 1.83556,1.68033 2.75315,2.52107 0.365081,0.334034 0.35569,0.978723 0,1.31429z"/>
 </g>
</svg>
