<?xml version="1.0" encoding="utf-8"?>
<!-- Generator: Adobe Illustrator 17.0.0, SVG Export Plug-In . SVG Version: 6.00 Build 0)  -->
<!DOCTYPE svg PUBLIC "-//W3C//DTD SVG 1.1 Basic//EN" "http://www.w3.org/Graphics/SVG/1.1/DTD/svg11-basic.dtd">
<svg version="1.1" baseProfile="basic" id="Слой_1"
	 xmlns="http://www.w3.org/2000/svg" xmlns:xlink="http://www.w3.org/1999/xlink" x="0px" y="0px" width="20px" height="20px"
	 viewBox="0 0 20 20" xml:space="preserve">
<g>
	<path fill-rule="evenodd" clip-rule="evenodd" fill="#FFFFFF" d="M10,0C4.4771118,0,0,4.4769897,0,9.9998779
		C0,15.5228882,4.4771118,20,10,20c5.5227051,0,10-4.4771118,10-10.0001221C20,4.4769897,15.5227051,0,10,0z M9.9608765,17.4998779
		c-4.1366577,0-7.4902954-3.3577881-7.4902954-7.5C2.4705811,5.8577271,5.8242188,2.5,9.9608765,2.5
		c4.1368408,0,7.4902954,3.3577271,7.4902954,7.4998779C17.4511719,14.1420898,14.0977173,17.4998779,9.9608765,17.4998779z
		 M10.6652832,6.6325073c-0.5114746-0.5435181-1.4945679-0.5578003-2.0037842,0
		c-1.2819824,1.4028931-2.5618286,2.8054199-3.843689,4.2080078c-1.2288208,1.3458862,0.7694702,3.3562622,2.0037842,2.003479
		c0.0098877-0.0111084,0.0209961-0.0222778,0.0310059-0.0335083c0.0919189-0.0521851,0.1826172-0.114502,0.2680054-0.1989746
		c0.5046997-0.4985352,1.0084229-1.1380005,1.5142822-1.7518921c0.3475952-0.3806152,0.6951904-0.7615356,1.0440063-1.1419067
		c0.3762817,0.4005127,0.7528076,0.8004761,1.1292114,1.2015991c0.5136108,0.6026001,1.0272217,1.2258911,1.5410156,1.7142944
		c0.0785522,0.0736694,0.1582642,0.1314697,0.241394,0.1795654c0.0153809,0.0164185,0.0307617,0.0336304,0.0474854,0.0498047
		c1.2542725,1.3338013,3.2548218-0.6740723,2.0037231-2.0044556C13.3165894,9.4503174,11.9904175,8.0410767,10.6652832,6.6325073z"
		/>
</g>
<path opacity="0.1" fill-rule="evenodd" clip-rule="evenodd" d="M10.0000496,0C4.4772501,0,0.00025,4.4773002,0.00025,10.0001001
	c0,0.0945997,0.0017,0.1892996,0.0042,0.2831001C0.15415,4.8912001,4.57195,0.5661,10.0000496,0.5661
	c5.4277,0,9.8458004,4.3250999,9.9955006,9.7171001c0.0025005-0.0938005,0.0042-0.1885004,0.0042-0.2831001
	C19.9997501,4.4773002,15.5224504,0,10.0000496,0L10.0000496,0z M9.9611502,17.5c4.0416994,0,7.3352003-3.2062998,7.4840994-7.217
	c0.0034008,0.0937996,0.0059013,0.1885004,0.0059013,0.2831001c0,4.1420002-3.3537006,7.4998999-7.4900007,7.4998999l0,0
	c-4.1368999,0-7.4902-3.3578997-7.4902-7.4998999c0-0.0945997,0.0025001-0.1893005,0.0059001-0.2831001
	C2.6256499,14.2937002,5.9189501,17.5,9.9611502,17.5L9.9611502,17.5L9.9611502,17.5z M10.66535,6.6328001
	c1.3248997,1.4084997,2.6512003,2.8176003,3.9761,4.2256002c0.3631001,0.3860998,0.4520998,0.8290997,0.3650999,1.2311001
	c-0.0509996-0.2279005-0.1674995-0.4550009-0.3650999-0.665c-1.3248997-1.408-2.6512003-2.8171005-3.9761-4.2256002l0,0
	c-0.5114002-0.5437002-1.4945002-0.5579004-2.0036001,0C7.3796501,8.6016998,6.0998502,10.0043001,4.8179498,11.4066
	c-0.1912999,0.2095003-0.3044,0.4357004-0.3542995,0.6622c-0.0847001-0.4007998,0.0014-0.8418999,0.3542995-1.2283001
	c1.2819004-1.4022999,2.5617003-2.8048,3.8438001-4.2076998C9.1708498,6.0749002,10.1539497,6.0890999,10.66535,6.6328001
	L10.66535,6.6328001z"/>
</svg>
