<svg id="Layer_1" data-name="Layer 1" xmlns="http://www.w3.org/2000/svg" viewBox="0 0 234.44 27.37"><defs><style>.cls-1{fill:#afb2b2;fill-rule:evenodd;}</style></defs><title>Creative_Commons for site</title><path class="cls-1" d="M237.55,33.57a13,13,0,0,1-9.42,3.91,12.64,12.64,0,0,1-9.25-3.88A12.65,12.65,0,0,1,215,24.33,12.87,12.87,0,0,1,218.88,15a12.54,12.54,0,0,1,9.25-3.82A13,13,0,0,1,241.3,24.33,12.48,12.48,0,0,1,237.55,33.57ZM235.77,16.7a10.3,10.3,0,0,0-7.61-3.16,10.2,10.2,0,0,0-7.57,3.16,10.5,10.5,0,0,0-3.23,7.63,10.33,10.33,0,0,0,3.19,7.56,10.39,10.39,0,0,0,7.61,3.19,10.56,10.56,0,0,0,7.67-3.22,10,10,0,0,0,3.1-7.53A10.32,10.32,0,0,0,235.77,16.7ZM228,31.55a5.64,5.64,0,0,1-5.81-5.14h3.31c0.1,1.77,1.25,2.39,2.89,2.39,1.87,0,3.08-1.74,3.08-4.39s-1.05-4.26-3-4.26c-1.44,0-2.69.52-3,2.33h1l-2.61,2.61-2.61-2.61h1a5.61,5.61,0,0,1,5.77-5.08c4.2,0,6.76,3,6.76,7.11A6.69,6.69,0,0,1,228,31.55Zm-32.87,5.94a12.64,12.64,0,0,1-9.25-3.88A12.65,12.65,0,0,1,182,24.33,12.87,12.87,0,0,1,185.88,15a12.54,12.54,0,0,1,9.25-3.81,13,13,0,0,1,13.17,13.16,12.48,12.48,0,0,1-3.75,9.24A13,13,0,0,1,195.13,37.48Zm7.64-20.78a10.3,10.3,0,0,0-7.61-3.16,10.2,10.2,0,0,0-7.57,3.16,10.5,10.5,0,0,0-3.23,7.63,10.33,10.33,0,0,0,3.19,7.56,10.39,10.39,0,0,0,7.61,3.19,10.56,10.56,0,0,0,7.67-3.22,10,10,0,0,0,3.1-7.53A10.32,10.32,0,0,0,202.77,16.7Zm-12.22,8.74h9.56V27.7h-9.56V25.44Zm0-4.23h9.56v2.26h-9.56V21.21Zm-28.8,16.31a12.68,12.68,0,0,1-9.28-3.89,12.69,12.69,0,0,1-3.9-9.3,12.9,12.9,0,0,1,3.9-9.37,12.58,12.58,0,0,1,9.28-3.82A13.07,13.07,0,0,1,175,24.33a12.52,12.52,0,0,1-3.76,9.27A13,13,0,0,1,161.76,37.52Zm7.66-20.84a10.73,10.73,0,0,0-15.22,0A10.52,10.52,0,0,0,151,24.33a10.36,10.36,0,0,0,3.2,7.59,10.42,10.42,0,0,0,7.63,3.2,10.59,10.59,0,0,0,7.69-3.23,10.07,10.07,0,0,0,3.1-7.55A10.34,10.34,0,0,0,169.42,16.67Zm-5.6,16.17h-4.09V26.46h-1.5v-5.4a0.85,0.85,0,0,1,.85-0.85h5.4a0.85,0.85,0,0,1,.85.85v5.4h-1.51v6.39Zm-2-13.35a1.85,1.85,0,1,1,1.85-1.85A1.85,1.85,0,0,1,161.77,19.5Zm-54,14.75c0,1.58-1.22,2.7-3.34,2.7a5.13,5.13,0,0,1-2.51-.63l0.41-1.22a4.46,4.46,0,0,0,2.14.63c1.18,0,1.73-.57,1.73-1.33s-0.46-1.18-1.66-1.63c-1.6-.59-2.36-1.48-2.36-2.56,0-1.45,1.17-2.62,3.08-2.62a4.34,4.34,0,0,1,2.18.55l-0.39,1.18a3.71,3.71,0,0,0-1.83-.54A1.31,1.31,0,0,0,103.77,30c0,0.74.51,1.07,1.69,1.54C107,32.14,107.81,32.9,107.81,34.25ZM99,31.6c0-1.46-.56-2.66-2.08-2.66a2.45,2.45,0,0,0-2.32,2.42v5.38H93V30.2c0-.92,0-1.67-0.07-2.43H94.4l0.07,1.5h0.06a3.35,3.35,0,0,1,3-1.68c1.23,0,3.15.76,3.15,3.8v5.34H99V31.6ZM87.2,36.94c-2.36,0-4.25-1.74-4.25-4.63a4.39,4.39,0,0,1,4.45-4.72c2.51,0,4.29,1.81,4.29,4.68A4.37,4.37,0,0,1,87.2,36.94Zm0.11-8.11c-2,0-2.72,1.89-2.72,3.47,0,1.78.92,3.44,2.72,3.44S90,34.11,90,32.3C90,30.74,89.31,28.84,87.32,28.84Zm-2.72-10a2.85,2.85,0,0,0,3,3.11,5.93,5.93,0,0,0,2.5-.46l0.28,1.16a7.26,7.26,0,0,1-3,.57A4.16,4.16,0,0,1,83,18.75c0-2.72,1.59-4.84,4.21-4.84,2.9,0,3.68,2.57,3.68,4.21a2.63,2.63,0,0,1-.07.76H84.59ZM87.1,15.1a2.68,2.68,0,0,0-2.5,2.62h4.75A2.31,2.31,0,0,0,87.1,15.1Zm-9.13,8-3.4-9H76.3l1.77,5c0.29,0.83.52,1.58,0.74,2.31h0c0.2-.74.46-1.5,0.74-2.32l1.76-5H83l-3.51,9H78ZM72.86,12.59a1,1,0,0,1-1-1,1,1,0,0,1,1-1A1,1,0,1,1,72.86,12.59Zm-4.21,7.58c0,1.11.31,1.74,1.22,1.74a3,3,0,0,0,.95-0.13L70.88,23a3.9,3.9,0,0,1-1.44.24,2.3,2.3,0,0,1-1.77-.68A3.55,3.55,0,0,1,67,20.23v-4.9H65.65V14.09H67V11.95l1.61-.42v2.57H71v1.24H68.64v4.84Zm-5.28,1.77h0a3.4,3.4,0,0,1-2.74,1.32,2.55,2.55,0,0,1-2.74-2.56c0-2.17,1.93-3.35,5.38-3.32v-0.2a1.85,1.85,0,0,0-2-2.08,4.48,4.48,0,0,0-2.33.66L58.48,14.7a5.77,5.77,0,0,1,3-.79c2.74,0,3.4,1.86,3.4,3.68v3.32A15.26,15.26,0,0,0,65,23.05H63.51Zm-0.09-3.44c-1.77,0-3.79.28-3.79,2A1.43,1.43,0,0,0,61,22.07a2.25,2.25,0,0,0,2.18-1.5,2.75,2.75,0,0,0,.07-0.5V18.49Zm-12.36.39A2.85,2.85,0,0,0,54,22a5.93,5.93,0,0,0,2.5-.46l0.28,1.16a7.26,7.26,0,0,1-3,.57,4.16,4.16,0,0,1-4.4-4.51c0-2.72,1.59-4.84,4.21-4.84,2.9,0,3.68,2.57,3.68,4.21a2.64,2.64,0,0,1-.07.76H50.91Zm2.51-3.79a2.68,2.68,0,0,0-2.5,2.62h4.75A2.31,2.31,0,0,0,53.42,15.1Zm-4.71.34a2.28,2.28,0,0,0-2.18,2.08,3.29,3.29,0,0,0-.07.76v4.77H44.83V16.89c0-1.06,0-1.94-.07-2.8H46.2l0.05,1.79h0.06a2.72,2.72,0,0,1,2.5-2,2.1,2.1,0,0,1,.46.05v1.53A2.64,2.64,0,0,0,48.71,15.44ZM48.55,27.59c2.51,0,4.29,1.81,4.29,4.68a4.37,4.37,0,0,1-4.49,4.67c-2.36,0-4.25-1.74-4.25-4.63A4.39,4.39,0,0,1,48.55,27.59Zm-2.81,4.72c0,1.78.92,3.44,2.72,3.44s2.73-1.64,2.73-3.46c0-1.55-.74-3.46-2.73-3.46S45.75,30.72,45.75,32.31Zm-4.29-3.42a3.11,3.11,0,0,0-3.16,3.39,3.08,3.08,0,0,0,3.13,3.35,4.92,4.92,0,0,0,2-.43l0.28,1.2a6,6,0,0,1-2.57.54,4.26,4.26,0,0,1-4.46-4.57,4.56,4.56,0,0,1,4.8-4.77,5.59,5.59,0,0,1,2.27.46l-0.37,1.26A4,4,0,0,0,41.46,28.89Zm0-13.68a3.11,3.11,0,0,0-3.16,3.39,3.08,3.08,0,0,0,3.13,3.35,4.92,4.92,0,0,0,2-.43l0.28,1.2a6,6,0,0,1-2.57.54,4.26,4.26,0,0,1-4.46-4.57,4.56,4.56,0,0,1,4.8-4.77,5.59,5.59,0,0,1,2.27.46l-0.37,1.26A4,4,0,0,0,41.46,15.21Zm-21.11,22a13,13,0,0,1-9.51-4,13,13,0,0,1-4-9.54,13,13,0,0,1,3.94-9.57,13,13,0,0,1,9.55-3.93A13.33,13.33,0,0,1,33.9,23.66,13,13,0,0,1,30,33.25,13.1,13.1,0,0,1,20.35,37.17ZM28.23,15.8a10.7,10.7,0,0,0-7.86-3.23,10.67,10.67,0,0,0-7.83,3.26,10.66,10.66,0,0,0-3.26,7.82,10.6,10.6,0,0,0,3.28,7.79,10.69,10.69,0,0,0,7.81,3.26,10.94,10.94,0,0,0,7.91-3.31,10.38,10.38,0,0,0,3.18-7.74A10.69,10.69,0,0,0,28.23,15.8ZM24.75,26a1.67,1.67,0,0,0,1.65-1.17l1.69,0.88a3.84,3.84,0,0,1-3.55,2.09,3.86,3.86,0,0,1-3-1.13,4.3,4.3,0,0,1-1.05-3.05,4.31,4.31,0,0,1,1.07-3,3.71,3.71,0,0,1,2.9-1.18,3.78,3.78,0,0,1,3.59,1.95l-1.82.91a1.6,1.6,0,0,0-1.48-1.09q-1.82,0-1.82,2.4T24.75,26Zm-7.86,0a1.74,1.74,0,0,0,1.7-1.17l1.66,0.88a3.83,3.83,0,0,1-3.55,2.09,3.87,3.87,0,0,1-3-1.13,4.27,4.27,0,0,1-1.07-3.05,4.26,4.26,0,0,1,1.08-3,3.71,3.71,0,0,1,2.87-1.18,3.78,3.78,0,0,1,3.58,1.95l-1.8.91a1.63,1.63,0,0,0-1.53-1.09q-1.8,0-1.8,2.4T16.89,26Zm38.7,3.2h0a3.1,3.1,0,0,1,2.83-1.64A2.68,2.68,0,0,1,61,29.38h0a3.72,3.72,0,0,1,1-1.16,3.13,3.13,0,0,1,2-.63c1.19,0,2.93.77,2.93,3.88v5.27H65.37v-5c0-1.74-.63-2.75-1.94-2.75a2.11,2.11,0,0,0-1.93,1.44,3.06,3.06,0,0,0-.15.83v5.53H59.78V31.38c0-1.42-.65-2.44-1.87-2.44a2.25,2.25,0,0,0-2,1.61,2.87,2.87,0,0,0-.11.79v5.4H54.18V30.2c0-.92,0-1.67-0.07-2.43h1.41ZM72.08,14.09h1.61v9H72.08v-9ZM70.3,29.24h0a3.1,3.1,0,0,1,2.83-1.64,2.68,2.68,0,0,1,2.54,1.79h0a3.72,3.72,0,0,1,1-1.16,3.13,3.13,0,0,1,2-.63c1.19,0,2.93.77,2.93,3.88v5.27H80.08v-5c0-1.74-.63-2.75-1.94-2.75a2.11,2.11,0,0,0-1.93,1.44,3.07,3.07,0,0,0-.15.83v5.53H74.49V31.38c0-1.42-.65-2.44-1.87-2.44a2.25,2.25,0,0,0-2,1.61,2.86,2.86,0,0,0-.11.79v5.4H68.89V30.2c0-.92,0-1.67-0.07-2.43h1.41Z" transform="translate(-6.86 -10.15)"/></svg>