<svg id="Слой_1" data-name="Слой 1" xmlns="http://www.w3.org/2000/svg" viewBox="0 0 130 15.6">
  <defs>
    <style>
      .cls-1 {
        fill: #ffffff;
        fill-rule: evenodd;
      }
    </style>
  </defs>
  <title>dolby-logo</title>
  <path class="cls-1" d="M370.74,424.1a3.1,3.1,0,1,1,3.14-3.1A3.12,3.12,0,0,1,370.74,424.1Zm0-5.71a2.61,2.61,0,1,0,2.52,2.61A2.54,2.54,0,0,0,370.74,418.39Zm1.49,4.39h-0.58l-1-1.53h-0.62v1.53h-0.54v-3.56h1.37c0.83,0,1.24.29,1.24,1a0.89,0.89,0,0,1-.91,1Zm-0.62-2.61c0-.41-0.41-0.5-0.79-0.5h-0.74v1.12h0.62C371.2,420.79,371.61,420.75,371.61,420.17Zm-101-2.73h93.88V433H270.65v-15.6Zm1.41,14.19h91.07V418.88H272.06v12.74Zm87.43-2.48h-3.27v-7.53h3.31c2.52,0,3.06,2.15,3.06,3.6C362.59,426.83,362,429.14,359.49,429.14Zm-0.21-6.25h-1.53v4.92h1.53c1.28,0,1.7-1.28,1.7-2.52C361,423.1,359.94,422.9,359.28,422.9Zm-8.48.87v5.38h-1.49v-7.53H351l3,5.25v-5.25h1.49v7.53H353.9Zm-5.3,5.54a3.13,3.13,0,0,1-2.36-.87,3,3,0,0,1-.62-1.86v-5h1.61v4.88A1.32,1.32,0,0,0,345.5,428a1.26,1.26,0,0,0,1.49-1.41v-5h1.61v4.88C348.6,428.48,347.4,429.31,345.5,429.31Zm-7,0c-1,0-3.64-.41-3.64-3.93s2.65-4,3.64-4,3.6,0.41,3.6,4S339.46,429.31,338.47,429.31Zm0-6.58c-0.87,0-2.07.54-2.07,2.65s1.2,2.61,2.07,2.61,2-.5,2-2.61S339.3,422.73,338.47,422.73Zm-5.71,4.88c0-1-.08-1.41-1.24-1.41H329.9v2.94h-1.53v-7.53h3.81a2.12,2.12,0,0,1,2.36,2.11,1.83,1.83,0,0,1-1.16,1.82c0.62,0.25,1,.5,1,1.9,0,1.08,0,1.37.33,1.49v0.21h-1.74A6,6,0,0,1,332.76,427.61Zm-0.91-4.72H329.9v2h1.86a1,1,0,0,0,1.2-1A0.94,0.94,0,0,0,331.85,422.9Zm-5.92,4.72c0-1,0-1.41-1.2-1.41h-1.65v2.94h-1.53v-7.53h3.81a2.12,2.12,0,0,1,2.36,2.11,1.83,1.83,0,0,1-1.16,1.82c0.62,0.25,1,.5,1,1.9,0,1.08,0,1.37.33,1.49v0.21H326.1A6,6,0,0,1,325.93,427.61Zm-0.87-4.72h-2v2h1.86a1,1,0,0,0,1.2-1A0.93,0.93,0,0,0,325.06,422.9Zm-7.41,6.41a3.13,3.13,0,0,1-2.36-.87,3,3,0,0,1-.62-1.86v-5h1.61v4.88a1.32,1.32,0,0,0,1.37,1.49,1.26,1.26,0,0,0,1.49-1.41v-5h1.61v4.88C320.76,428.48,319.56,429.31,317.66,429.31Zm-5.34-4.47c1,0.25,2,.66,2,2,0,2.28-2.32,2.44-3,2.44-2.69,0-3.19-1.57-3.19-2.48h1.49c0,0.41.21,1.2,1.57,1.2,0.74,0,1.57-.17,1.57-1,0-.62-0.54-0.74-1.37-1l-0.79-.17c-1.24-.29-2.36-0.58-2.36-2.23,0-.83.46-2.32,2.85-2.32s2.94,1.53,2.94,2.44h-1.53a1.27,1.27,0,0,0-1.53-1.16,1.11,1.11,0,0,0-1.28.91,0.81,0.81,0,0,0,.79.79Zm-8.61,4.3h-1.57v-2.85l-2.61-4.68h1.86l1.53,3.27,1.49-3.27h1.78l-2.48,4.72v2.81Zm-4.92-4.05a1.75,1.75,0,0,1,1.16,1.82,2.23,2.23,0,0,1-.62,1.53c-0.46.41-.87,0.7-2.4,0.7h-3.19v-7.53h3.68c1.82,0,2.28,1.16,2.28,1.9A1.5,1.5,0,0,1,298.79,425.09Zm-1.74-2.19h-1.78v1.66h1.82a0.92,0.92,0,0,0,1.12-.83C298.21,423.1,297.75,422.9,297.05,422.9Zm0.21,2.94h-2v2h1.9a1,1,0,0,0,1.2-1.12A1,1,0,0,0,297.26,425.84Zm-9.31-4.22h1.57v6.16h3.77v1.37h-5.34v-7.53Zm-4,7.7c-1,0-3.6-.41-3.6-3.93s2.61-4,3.6-4,3.6,0.41,3.6,4S285,429.31,284,429.31Zm0-6.58c-0.83,0-2,.54-2,2.65s1.2,2.61,2,2.61,2-.5,2-2.61S284.85,422.73,284,422.73Zm-7.24,6.41h-3.23v-7.53h3.31c2.52,0,3.06,2.15,3.06,3.6C279.88,426.83,279.22,429.14,276.74,429.14Zm-0.21-6.25H275v4.92h1.53c1.28,0,1.7-1.28,1.7-2.52C278.27,423.1,277.23,422.9,276.53,422.9Zm-20-5.46H268V433H256.5v-15.6Zm7.45,13.2h1.57V419.88H264A5.38,5.38,0,1,0,264,430.63Zm-20.07-13.2h11.46V433H243.88v-15.6Zm2.44,13.2h1.57a5.38,5.38,0,1,0,0-10.76h-1.57v10.76Z" transform="translate(-243.88 -417.44)"/>
</svg>
