<?xml version="1.0" encoding="utf-8"?>
<!-- Generator: Adobe Illustrator 17.0.0, SVG Export Plug-In . SVG Version: 6.00 Build 0)  -->
<!DOCTYPE svg PUBLIC "-//W3C//DTD SVG 1.1 Basic//EN" "http://www.w3.org/Graphics/SVG/1.1/DTD/svg11-basic.dtd">
<svg version="1.1" baseProfile="basic" id="Слой_1"
	 xmlns="http://www.w3.org/2000/svg" xmlns:xlink="http://www.w3.org/1999/xlink" x="0px" y="0px" width="11px" height="12px"
	 viewBox="0 0 11 12" xml:space="preserve">
<g>
	<path fill="#FFFFFF" d="M4.5845337,8.3687134c0.9285889,0.9284058,0.9172974,0.9310913,1.8479004,0l2.7717896-2.7716675
		c0.5095825-0.5105591,0.3369141-0.6123047-0.2003784-0.6123047H6.9865723V1.2661133C6.9865723,0.5668335,6.4197388,0,5.7207031,0
		H5.2794189C4.5802612,0,4.0134277,0.5668335,4.0134277,1.2661133v3.7186279H2.0155029
		c-0.595459,0-0.7122192,0.1017456-0.2026367,0.6123047L4.5845337,8.3687134z M9.9859619,8.9838257v1.5944824
		c0,0.2323608-0.189209,0.421875-0.4220581,0.421875H1.4360352c-0.2329102,0-0.4219971-0.1895142-0.4219971-0.421875V8.9838257
		H0.0143433v1.7502441C0.0143433,11.4329834,0.5813599,12,1.2802124,12h8.4395752
		c0.6989746,0,1.2658691-0.5670166,1.2658691-1.2659302V8.9838257H9.9859619z"/>
</g>
</svg>
