<?xml version="1.0" encoding="utf-8"?>
<!-- Generator: Adobe Illustrator 17.0.0, SVG Export Plug-In . SVG Version: 6.00 Build 0)  -->
<!DOCTYPE svg PUBLIC "-//W3C//DTD SVG 1.1 Basic//EN" "http://www.w3.org/Graphics/SVG/1.1/DTD/svg11-basic.dtd">
<svg version="1.1" baseProfile="basic" id="Слой_1"
	 xmlns="http://www.w3.org/2000/svg" xmlns:xlink="http://www.w3.org/1999/xlink" x="0px" y="0px" width="109px" height="25px"
	 viewBox="0 0 109 25" xml:space="preserve">
<g opacity="0.6">
	<path fill-rule="evenodd" clip-rule="evenodd" fill="#FFFFFF" d="M104.9603271,7.3312988
		c-2.8045044,0-4.1400146,2.4872437-4.1400146,5.6256104c0.0167236,3.0715332,1.2519531,5.5921631,4.0564575,5.5921631
		c2.7711182,0,4.12323-2.3035278,4.12323-5.6589966C109,9.9187012,107.8648682,7.3312988,104.9603271,7.3312988z
		 M104.9436646,16.6293945c-0.9849243,0-1.5859985-1.1851807-1.5692749-3.6724854
		c-0.0167236-2.5206299,0.6176758-3.7058716,1.5524292-3.7058716c1.0183716,0,1.5358276,1.2686768,1.5358276,3.6724854
		C106.4626465,15.394104,105.9285889,16.6293945,104.9436646,16.6293945z M41.0482788,10.0187988
		c-2.6209106,0-4.3569946,1.6860962-4.3569946,4.3237305c0,2.6375122,1.8362427,4.206543,4.2233887,4.206543
		c2.1867676,0,4.3068237-1.3686523,4.3068237-4.3567505C45.2214966,11.7383423,43.5523071,10.0187988,41.0482788,10.0187988z
		 M40.9813843,16.7295532c-1.0849609,0-1.6691895-1.0517578-1.6691895-2.4539795
		c0-1.2017822,0.4506226-2.4538574,1.6691895-2.4538574c1.1518555,0,1.6193237,1.2352905,1.6193237,2.4538574
		C42.600708,15.7446289,41.9663086,16.7295532,40.9813843,16.7295532z M29.3013306,18.3655396h2.4041138v-4.8049927h4.208374
		v-1.826355h-4.208374V8.7886353h4.7733765V6.9642334h-7.1774902V18.3655396z M11.9932861,0.5066528
		C5.380249,0.5066528,0,5.8869019,0,12.5001221c0,6.6129761,5.380249,11.9932251,11.9932861,11.9932251
		c6.6131592,0,11.9932861-5.380249,11.9932861-11.9932251C23.9865723,5.8869019,18.6064453,0.5066528,11.9932861,0.5066528z
		 M11.9932861,22.9077148c-5.7387695,0-10.4077148-4.6690063-10.4077148-10.4075928
		c0-5.7389526,4.6689453-10.4078369,10.4077148-10.4078369c5.7388916,0,10.4077759,4.6688843,10.4077759,10.4078369
		C22.401062,18.2387085,17.7321777,22.9077148,11.9932861,22.9077148z M14.5127563,3.5181885l-1.7023926,3.7653809
		c-0.5459595-0.0737915-1.1008911-0.0737915-1.6466675,0L9.4613037,3.5181885l-2.7728271,7.2043457
		c-0.3010254,0.9846802-0.2383423,2.1195068,0.3480835,3.3275146l4.9503784,7.4320679l4.9502563-7.4320679
		c0.50177-1.0333252,0.7120972-2.1929321,0.3703003-3.3114624L14.5127563,3.5181885z M8.331665,13.5429688
		c-0.9238892-1.0588379-1.2456665-2.2905884-0.718689-2.7504883c0.5272217-0.4598999,1.7038574,0.0258789,2.6277466,1.0846558
		c0.9240112,1.059021,1.2457886,2.2906494,0.71875,2.7507324C10.4324341,15.0876465,9.2556152,14.6018677,8.331665,13.5429688z
		 M13.3679199,18.170166c-0.1315918,0.0821533-0.3048096,0.0421753-0.3869629-0.0892334l-0.0887451-0.1416016l-0.9017334-1.4385986
		l-0.9013672,1.4753418l-0.09375,0.1535034c-0.0809937,0.1328125-0.2542725,0.1748657-0.3868408,0.09375
		c-0.1328125-0.0808716-0.1746826-0.2541504-0.0938721-0.3870239l1.2319946-2.0165405l0.0006104,0.0003052
		c0.0220337-0.0361328,0.0524292-0.0679932,0.0908813-0.0919189c0.1314087-0.0819702,0.3047485-0.0421753,0.3870239,0.0894165
		l1.2320557,1.9656982C13.5393677,17.9145508,13.4993286,18.0878906,13.3679199,18.170166z M15.680481,13.5429688
		c-0.9238281,1.0588989-2.100708,1.5446777-2.6277466,1.0848999c-0.5270386-0.460083-0.2053223-1.6917114,0.7186279-2.7507324
		c0.9240112-1.0587769,2.100708-1.5445557,2.6278687-1.0846558C16.9262695,11.2523804,16.6043701,12.4841309,15.680481,13.5429688z
		 M88.4442749,7.3312988c-2.8045654,0-4.1400146,2.4872437-4.1400146,5.6256104
		c0.0166626,3.0715332,1.2520142,5.5921631,4.0565186,5.5921631c2.7711182,0,4.12323-2.3035278,4.12323-5.6589966
		C92.4840088,9.9187012,91.3487549,7.3312988,88.4442749,7.3312988z M88.4275513,16.6293945
		c-0.9849243,0-1.5858765-1.1851807-1.5692749-3.6724854c-0.0166016-2.5206299,0.6177979-3.7058716,1.5525513-3.7058716
		c1.0183716,0,1.5357056,1.2686768,1.5357056,3.6724854C89.9465332,15.394104,89.4124756,16.6293945,88.4275513,16.6293945z
		 M70.1951294,13.5412598c0-1.9197998-0.868042-3.5224609-3.5890503-3.5224609c-1.4857788,0-2.604187,0.4007568-3.171814,0.7180176
		l0.4674683,1.6358032c0.5341797-0.3338623,1.4189453-0.6175537,2.25354-0.6175537
		c1.2520142,0,1.4856567,0.6175537,1.4856567,1.0515137v0.1169434c-2.8878784-0.0167236-4.7908936,1.0015259-4.7908936,3.121521
		c0,1.3023071,0.9849243,2.5040283,2.6375732,2.5040283c0.9682007,0,1.8029175-0.3504028,2.3370972-1.0015259h0.0500488
		l0.1502075,0.8179932h2.2870483c-0.0834351-0.4506836-0.1168823-1.2019653-0.1168823-1.9865112V13.5412598z M67.7244263,15.394104
		c0,0.1503296-0.0166016,0.300415-0.0499268,0.4338989c-0.1669312,0.5177002-0.6845093,0.9349976-1.3187866,0.9349976
		c-0.567627,0-1.001709-0.3171387-1.001709-0.9682007c0-0.9850464,1.0350342-1.3021851,2.3704224-1.2853394V15.394104z
		 M73.4622803,11.704895h-0.0668335l-0.0834961-1.5022583h-2.1867676c0.0333252,0.7008667,0.0667114,1.4855347,0.0667114,2.687439
		v5.4754639h2.5374756V14.225647c0-0.2003174,0.0166016-0.4006958,0.0499268-0.567627
		c0.1670532-0.7845459,0.8013916-1.2854004,1.7362671-1.2854004c0.2836914,0,0.5007935,0.0335083,0.6843262,0.0835571v-2.4039917
		c-0.1835327-0.0333862-0.300415-0.0333862-0.5341797-0.0333862C74.8811035,10.0187988,73.8795776,10.5197144,73.4622803,11.704895z
		 M49.6733398,10.0187988c-2.6208496,0-4.3569946,1.6860962-4.3569946,4.3237305c0,2.6375122,1.8363037,4.206543,4.2234497,4.206543
		c2.1868286,0,4.3068848-1.3686523,4.3068848-4.3567505C53.8466797,11.7383423,52.1773682,10.0187988,49.6733398,10.0187988z
		 M49.6065674,16.7295532c-1.085083,0-1.6694336-1.0517578-1.6694336-2.4539795
		c0-1.2017822,0.4508667-2.4538574,1.6694336-2.4538574c1.1518555,0,1.6192627,1.2352905,1.6192627,2.4538574
		C51.2258301,15.7446289,50.5914917,16.7295532,49.6065674,16.7295532z M79.8189087,16.2455444l1.001709-0.8346558
		c1.5691528-1.4022827,2.8879395-2.8546753,2.8879395-4.6740723c0-1.9698486-1.3522949-3.4055176-3.8062134-3.4055176
		c-1.4689331,0-2.7376099,0.5006714-3.555603,1.1185303l0.7178345,1.819458
		c0.567627-0.4341431,1.385498-0.9014893,2.3203125-0.9014893c1.2520142,0,1.7861938,0.7011108,1.7861938,1.5858765
		c-0.0334473,1.2687378-1.1852417,2.4874268-3.5556641,4.6073608l-1.4022217,1.2687378v1.5357666h7.6955566v-2.0866699h-4.0898438
		V16.2455444z M96.7022705,7.3312988c-2.8045654,0-4.1399536,2.4872437-4.1399536,5.6256104
		c0.0166016,3.0715332,1.2519531,5.5921631,4.0564575,5.5921631c2.7711182,0,4.12323-2.3035278,4.12323-5.6589966
		C100.7420044,9.9187012,99.6068726,7.3312988,96.7022705,7.3312988z M96.6856689,16.6293945
		c-0.9849243,0-1.5859985-1.1851807-1.569397-3.6724854c-0.0166016-2.5206299,0.6177979-3.7058716,1.5525513-3.7058716
		c1.0183716,0,1.5358276,1.2686768,1.5358276,3.6724854C98.2046509,15.394104,97.6704712,16.6293945,96.6856689,16.6293945z
		 M59.4501953,10.0187988c-1.1351318,0-2.0427246,0.4508057-2.5267334,1.1519165h-0.0334473V6.4758911h-2.406189v9.4523926
		c0,0.9181519-0.0333862,2.0529785-0.0667114,2.5872192h2.0784302l0.1000977-1.2850342h0.0335083
		c0.5842285,0.9682007,1.5023193,1.3186035,2.4539185,1.3186035c1.8696289,0,3.7391968-1.4689331,3.7391968-4.4069824
		C62.8389893,11.6381836,61.4033203,10.0187988,59.4501953,10.0187988z M58.4819946,16.5459595
		c-0.7344971,0-1.3187256-0.5175171-1.4856567-1.2019043c-0.0333252-0.1334839-0.0500488-0.2838135-0.0500488-0.4507446v-1.2019653
		c0-0.1668091,0.0167236-0.3171387,0.0500488-0.4673462c0.1669312-0.734436,0.8012695-1.2520142,1.4856567-1.2520142
		c1.1853027,0,1.7528687,1.0016479,1.7528687,2.2703857C60.2348633,15.7112427,59.5670776,16.5459595,58.4819946,16.5459595z"/>
</g>
</svg>
