<svg id="Layer_1" data-name="Layer 1" xmlns="http://www.w3.org/2000/svg" viewBox="0 0 62 62"><defs><style>.cls-1{fill:#fff;}</style></defs><title>Google_play-LOGO</title><path class="cls-1" d="M26.15,20a1.69,1.69,0,0,0-.71-0.2L37.9,32.28l3.76-3.77ZM41.08,36.76L37.9,33.56,27,44.47C29.49,43.12,36.18,39.45,41.08,36.76Zm-16,8.37,12.17-12.2L24.45,20.09a1.41,1.41,0,0,0-.57,1.12V43.76A1.37,1.37,0,0,0,25.09,45.12Zm13.45-12.2,3.37,3.38,4.74-2.61a1.37,1.37,0,0,0,0-2.44L42.49,29Zm-33.76.36V33.22q0-.89.06-1.83a1,1,0,1,0-2-.13c0,0.62-.06,1.28-0.06,2v0.07A1,1,0,0,0,4.78,33.28Zm3.9,14.47c-0.32-.54-0.62-1.1-0.89-1.66a1,1,0,0,0-1.34-.45,1,1,0,0,0-.51.58A1,1,0,0,0,6,47c0.29,0.6.62,1.2,1,1.78a1,1,0,0,0,.86.5,1,1,0,0,0,.5-0.14,1,1,0,0,0,.5-0.87,1.09,1.09,0,0,0-.13-0.5h0Zm4.62,6c-0.46-.45-0.89-0.92-1.29-1.38a1,1,0,0,0-1.41-.08,0.92,0.92,0,0,0-.34.68,1,1,0,0,0,.25.73c0.44,0.5.91,1,1.38,1.47a1,1,0,0,0,1.71-.71,1,1,0,0,0-.29-0.7h0ZM4.52,26.49a1.09,1.09,0,0,0,.26,0,1,1,0,0,0,1-.74c0.17-.62.35-1.23,0.55-1.82a1,1,0,0,0-1.9-.64c-0.21.63-.4,1.28-0.58,2A1,1,0,0,0,4.52,26.49ZM5.34,38.94a1,1,0,1,0-2,.39c0.13,0.65.29,1.31,0.47,2a1,1,0,0,0,1,.74,1.12,1.12,0,0,0,.26,0,1,1,0,0,0,.74-1,1.13,1.13,0,0,0,0-.25C5.61,40.17,5.47,39.55,5.34,38.94ZM61.77,25.6c0.16,0.58.3,1.18,0.44,1.84a1,1,0,0,0,1,.8,0.68,0.68,0,0,0,.2,0A1,1,0,0,0,64.17,27c-0.14-.65-0.3-1.31-0.47-2a1,1,0,0,0-1.23-.7,1,1,0,0,0-.74,1,0.87,0.87,0,0,0,0,.23v0ZM41.19,5.18c0.61,0.16,1.23.34,1.82,0.54a1.13,1.13,0,0,0,.31,0,1,1,0,0,0,1-.68,1,1,0,0,0-.05-0.76,1,1,0,0,0-.58-0.51C43,3.6,42.34,3.41,41.7,3.24A1,1,0,0,0,40.48,4a1.1,1.1,0,0,0,0,.25A1,1,0,0,0,41.19,5.18Zm-15.26.08a0.83,0.83,0,0,0,.26,0c0.62-.16,1.24-0.31,1.84-0.43a1,1,0,1,0-.39-2c-0.68.14-1.34,0.29-2,.46a1,1,0,0,0-.73,1,0.82,0.82,0,0,0,0,.27A1,1,0,0,0,25.93,5.26Zm7.76-1h0.09c0.6,0,1.21,0,1.8,0h0.06a1,1,0,0,0,.06-2q-0.93-.06-1.92-0.06h-0.1a1,1,0,0,0-.71.29A1,1,0,0,0,33.69,4.22ZM8,16.06c-0.38.57-.74,1.15-1.07,1.73a1,1,0,0,0-.13.49,1,1,0,0,0,.5.87,1,1,0,0,0,.5.13,1,1,0,0,0,.86-0.5c0.3-.52.63-1.05,1-1.61a1,1,0,0,0-.27-1.39A1,1,0,0,0,8,16.06Zm47.7-4.8,0,0a0,0,0,0,0,0,0,1,1,0,0,0-1.7.72,1.07,1.07,0,0,0,.29.7h0c0.43,0.43.87,0.89,1.3,1.38a1,1,0,0,0,.75.33,0.94,0.94,0,0,0,.66-0.25A1,1,0,0,0,57,12.69C56.59,12.22,56.15,11.75,55.66,11.26Zm4.61,36.09a1,1,0,0,0-1.36.36c-0.32.54-.66,1.08-1,1.61a1,1,0,0,0-.15.75,1,1,0,0,0,1.81.36c0.37-.54.73-1.11,1.08-1.72a1.06,1.06,0,0,0,.13-0.5A1,1,0,0,0,60.27,47.35Zm-9.36-40C50.35,7,49.77,6.65,49.18,6.31a1,1,0,0,0-1.36.37,1,1,0,0,0-.13.5,1,1,0,0,0,.49.86h0c0.56,0.32,1.1.65,1.61,1a1,1,0,0,0,.56.16A1,1,0,0,0,50.91,7.38ZM54.3,53.71h0q-0.68.68-1.38,1.29a1,1,0,0,0-.34.69,1,1,0,0,0,.25.73,1,1,0,0,0,.75.33,1,1,0,0,0,.66-0.24c0.5-.45,1-0.91,1.48-1.39a1,1,0,0,0,0-1.42A1,1,0,0,0,54.3,53.71Zm9.47-21.62a1,1,0,0,0-.7.3,1,1,0,0,0-.29.7v0.13c0,0.63,0,1.28-.06,1.91a1,1,0,0,0,.25.73,0.94,0.94,0,0,0,.68.36h0.07a1,1,0,0,0,1-1c0-.67.07-1.37,0.07-2V33.09A1,1,0,0,0,63.77,32.09Zm-2.24-12.7c-0.29-.58-0.6-1.16-1-1.78a1,1,0,0,0-1.37-.36,1,1,0,0,0-.49.87,1,1,0,0,0,.13.5c0.32,0.54.62,1.1,0.9,1.67a1,1,0,0,0,.9.55,1.18,1.18,0,0,0,.45-0.1A1,1,0,0,0,61.53,19.39ZM63,40a1,1,0,0,0-1.22.71c-0.16.61-.35,1.22-0.55,1.82a1,1,0,0,0,.63,1.27,1.12,1.12,0,0,0,.32,0,1,1,0,0,0,1-.68c0.21-.65.41-1.3,0.58-1.94a2.46,2.46,0,0,0,0-.25A1,1,0,0,0,63,40ZM48.31,58.22h0c-0.58,0-1.14.69-1.67,1a1.1,1.1,0,0,0-.51.63,1.08,1.08,0,0,0,0,.77,1,1,0,0,0,.9.55,1,1,0,0,0,.45-0.1c0.61-.31,1.19-0.62,1.73-0.93l0,0v0a1,1,0,0,0,.49-0.87,1.06,1.06,0,0,0-.14-0.52A1.44,1.44,0,0,0,48.31,58.22ZM20,5.45c-0.6.3-1.2,0.63-1.78,1a1,1,0,0,0-.5.87,1.07,1.07,0,0,0,.14.5,1,1,0,0,0,1.37.36c0.55-.32,1.11-0.62,1.67-0.9a1,1,0,0,0,.5-0.57,1,1,0,0,0-.06-0.77A1,1,0,0,0,20,5.45Zm6.33,55.8c-0.6-.16-1.21-0.34-1.82-0.55a1,1,0,0,0-1.26.63,1,1,0,0,0,.05.76,1,1,0,0,0,.57.51c0.66,0.22,1.32.41,1.94,0.58l0.26,0A1,1,0,0,0,26.31,61.25ZM13.28,10c-0.53.47-1,.94-1.48,1.39a1,1,0,0,0-.29.71,1,1,0,0,0,.29.7,1,1,0,0,0,.71.29,1,1,0,0,0,.7-0.28,0,0,0,0,1,0,0c0.43-.43.89-0.87,1.38-1.3a1,1,0,0,0,.34-0.69,1,1,0,0,0-.25-0.72A1,1,0,0,0,13.28,10Zm6,48.39c-0.56-.32-1.1-0.66-1.62-1a1,1,0,0,0-1.38.28,0.94,0.94,0,0,0-.15.75,1,1,0,0,0,.42.63c0.57,0.38,1.15.74,1.73,1.07a1,1,0,0,0,.5.14,1,1,0,0,0,.86-0.5A1,1,0,0,0,19.32,58.36Zm14.49,3.86h0c-0.61,0-1.24,0-1.86-.06a1,1,0,0,0-1.07.94,1,1,0,0,0,.94,1.06c0.64,0,1.31.06,2,.06h0a1,1,0,0,0,1-1v0A1,1,0,0,0,33.81,62.22Zm7.5-1c-0.58.16-1.18,0.3-1.84,0.43a1,1,0,0,0-.79,1.18,1,1,0,0,0,1,.8,0.6,0.6,0,0,0,.19,0c0.66-.13,1.33-0.28,2-0.46a1,1,0,0,0,.74-1,1,1,0,0,0,0-.25A1,1,0,0,0,41.31,61.23Z" transform="translate(-2.78 -2.22)"/></svg>