<?xml version="1.0" encoding="utf-8"?>
<!-- Generator: Adobe Illustrator 17.0.0, SVG Export Plug-In . SVG Version: 6.00 Build 0)  -->
<!DOCTYPE svg PUBLIC "-//W3C//DTD SVG 1.1 Basic//EN" "http://www.w3.org/Graphics/SVG/1.1/DTD/svg11-basic.dtd">
<svg version="1.1" baseProfile="basic" id="Слой_1"
	 xmlns="http://www.w3.org/2000/svg" xmlns:xlink="http://www.w3.org/1999/xlink" x="0px" y="0px" width="121px" height="35px"
	 viewBox="0 0 121 35" xml:space="preserve">
<path opacity="0.6" fill="#FFFFFF" d="M119.1609955,3.0079069h-1.9914017V0h-2.0365601v4.9755602h4.0279617V3.0079069z
	 M104.2714996,4.9755602h1.9740067V1.9728357h1.0107346V0h-4.0260239v1.9728357h1.0412827V4.9755602z M110.226181,2.383584
	l0.9881821,1.6803675h0.0270386l0.9873962-1.6803675v2.5919762h1.9673309V0H112.15448l-0.9130783,1.6605524L110.3271713,0
	h-2.0720215v4.9755602h1.9710312V2.383584z M99.3232498,2.9874213h0.9712143v1.9881389h2.0051575V0h-2.0051575v0.9989165h-0.9712143
	V0h-2.0047913v4.9755602h2.0047913V2.9874213z M95.3030548,6.997293l1.9984283,24.9998608L108.2540588,35l10.9310608-3.0014439
	L121,6.997293H95.3030548z M116.0979996,14.9888077l-11.7970963-0.0145712l0.2824783,3.9944468l11.2332306-0.0165844
	l-0.8478546,8.9501305l-6.7086334,1.7514572l-0.0049744,0.0013428l-5.9270401-1.7676144l-0.442627-4.9283695h3.102211
	l0.2296829,2.5268612l3.0139542,0.9283142l3.8487701-0.9155121l0.3586121-3.5318737l-10.6814346-0.0147552l-0.8336716-9.9925785
	l15.4511108,0.0145712L116.0979996,14.9888077z"/>
<path opacity="0.6" fill="#FFFFFF" d="M118.7186356,8.9593582h-10.4252319v0.0002003v3.0457964h8.0812912l-0.2766953,2.9834633
	h-7.8045959v3.9945669h7.5232391l-0.8478546,8.9188251l-6.7374573,1.7660847v3.2256031l8.5650558-2.275732L118.7186356,8.9593582
	 M112.4387283,21.9980145L112.4387283,21.9980145 M112.4387283,21.9980145h-4.1453247v4.4361897l3.7866974-0.9354858
	L112.4387283,21.9980145 M118.7186356,8.9593582L118.7186356,8.9593582"/>
<path opacity="0.6" fill="#FFFFFF" d="M15.0962372,14.9885187l4.2725487-3.985177h-4.5796318l-4.4345312,4.1793661
	l-4.443172-4.1793661H1.3318194l4.2726474,3.985177H0v16.0004425h7.4294863l2.9080544-2.9249268l2.9081526,2.9249268h7.6239471
	V14.9885187H15.0962372z M10.3459826,23.6679039l-4.2469254,4.3113232H2.9924719V17.998354h14.9016781v9.9808731h-3.2926025
	L10.3459826,23.6679039z"/>
<path opacity="0.6" fill="#FFFFFF" d="M31.3065166,27.6690845v3.3276901l9.954874-5.0603085l9.9503937,5.0603085v-3.3276901
	l-9.9503937-5.0603065L31.3065166,27.6690845z M41.2613907,10.9899712l-9.954874,5.0603065v3.3277512l9.954874-5.0603075
	l9.9503937,5.0603075v-3.3277512L41.2613907,10.9899712z M31.3065166,21.858736v3.3277512l9.954874-5.0601254l9.9503937,5.0601254
	V21.858736l-9.9503937-5.0603676L31.3065166,21.858736z"/>
<path opacity="0.6" fill="#FFFFFF" d="M64.7578049,10.9944506l-0.7374191,3.9582071h15.0073547l-0.4684753,2.0520744H63.5421867
	l-0.7275848,3.9582062h15.0073509l-0.8369293,4.0734806l-6.0489044,2.014616l-5.2415695-2.014616l0.3587265-2.0526733h-3.686985
	l-0.8769531,4.6687355l8.6695366,3.3374805l9.9949036-3.3374805l1.3253632-6.6953373l0.269043-1.3431416l1.7039566-8.6195517
	H64.7578049z"/>
</svg>
