<svg id="Слой_1" data-name="Слой 1" xmlns="http://www.w3.org/2000/svg" viewBox="0 0 121 35"><defs><style>.cls-1{fill:#afb2b2;opacity:0.6;}</style></defs><title>HTML5 LOGO</title><path class="cls-1" d="M119.16,3h-2V0h-2V5h4V3ZM104.27,5h2V2h1V0h-4V2h1V5Zm6-2.59,1,1.68h0l1-1.68V5h2V0h-2l-0.91,1.66L110.33,0h-2.07V5h2V2.38ZM99.32,3h1V5h2V0h-2V1h-1V0h-2V5h2V3Zm-4,4,2,25,11,3,10.93-3L121,7H95.3Zm20.79,8H104.3l0.28,4,11.23,0-0.85,9-6.71,1.75h0l-5.93-1.77L101.89,23H105l0.23,2.53,3,0.93,3.85-.92L112.44,22H101.76l-0.83-10h15.45Z"/><path class="cls-1" d="M118.72,9H108.29v3h8.08l-0.28,3h-7.8v4h7.52L115,27.9l-6.74,1.77v3.23l8.57-2.28L118.72,9m-6.28,13h0m0,0h-4.15v4.44l3.79-.94,0.36-3.5m6.28-13h0"/><path class="cls-1" d="M15.1,15l4.27-4H14.79l-4.43,4.18L5.91,11H1.33L5.6,15H0V31H7.43l2.91-2.92L13.25,31h7.62V15H15.1Zm-4.75,8.68L6.1,28H3V18h14.9V28H14.6Z"/><path class="cls-1" d="M31.31,27.67V31l10-5.06,10,5.06V27.67l-10-5.06ZM41.26,11l-10,5.06v3.33l10-5.06,10,5.06V16.05Zm-10,10.87v3.33l10-5.06,10,5.06V21.86l-10-5.06Z"/><path class="cls-1" d="M64.76,11L64,15H79L78.56,17h-15l-0.73,4h15L77,25l-6,2-5.24-2L66.05,23H62.37l-0.88,4.67L70.16,31l10-3.34L81.48,21l0.27-1.34L83.45,11H64.76Z"/></svg>