<?xml version="1.0" encoding="utf-8"?>
<!-- Generator: Adobe Illustrator 17.0.0, SVG Export Plug-In . SVG Version: 6.00 Build 0)  -->
<!DOCTYPE svg PUBLIC "-//W3C//DTD SVG 1.1 Basic//EN" "http://www.w3.org/Graphics/SVG/1.1/DTD/svg11-basic.dtd">
<svg version="1.1" baseProfile="basic" id="Слой_1"
	 xmlns="http://www.w3.org/2000/svg" xmlns:xlink="http://www.w3.org/1999/xlink" x="0px" y="0px" width="120px" height="34px"
	 viewBox="0 0 120 34" xml:space="preserve">
<g opacity="0.6">
	<path fill-rule="evenodd" clip-rule="evenodd" fill="#FFFFFF" d="M45.664978,18.1994629H35.4502563v15.3204346h1.5878906
		v-6.4535522h8.6719971c1.4642944,0,2.6245728,0.5656738,2.6245728,2.5370483v3.9165039h1.6118164v-3.7441406
		c0-2.2191162-1.5683594-3.3307495-2.1574707-3.4712524C51.093689,26.3045044,51.093689,18.1994629,45.664978,18.1994629z
		 M45.6175537,25.4719238H37.038147v-5.652832h8.6087036C49.6989746,19.8190918,49.6989746,25.4719238,45.6175537,25.4719238z
		 M5.5341187,19.8106079h5.84198c2.7008057,0,3.1401367,1.6086426,3.1401367,3.253418h1.6405029
		c0-2.8067017-1.484436-4.8226318-4.7615967-4.8226318H5.378418C1.708374,18.241394,0,19.7252197,0,23.638916v4.4354858
		c0,3.3973999,1.5143433,5.4470215,5.3641968,5.4470215h6.0045776c3.9274902,0,4.7628174-1.4512329,4.7628174-6.0695801v-1.9733276
		H8.0587769v1.6452026h6.4597778l0.0252075,1.267395c0,2.7041016-0.3161011,3.538269-3.1390381,3.538269H5.5438232
		c-2.7330322,0-3.9057617-1.2584229-3.9057617-4.0060425V23.789917C1.6380615,20.7813721,2.7280273,19.8106079,5.5341187,19.8106079
		z M90.1052246,11.755188h9.0794678l2.3538208,4.0545044h1.5373535L95.697998,0.4608765h-2.0706177l-7.4223633,15.3488159h1.5501099
		L90.1052246,11.755188z M94.6636963,2.1013794l3.7634888,8.0866089h-7.7545776L94.6636963,2.1013794z M65.2323608,25.8551025
		c-0.2750244-0.2128296-0.5568848-0.3536377-0.8461914-0.4252319c0.4470825-0.1412354,0.8128052-0.4160156,1.1018066-0.8270264
		c0.4065552-0.5670166,0.6098633-1.3532104,0.6098633-2.3595581c0-2.5220947-1.5873413-4.0126953-4.7595825-4.0126953h-9.7927856
		v15.2908325h10.1468506c1.6396484,0,2.8324585-0.3108521,3.5783691-0.9345093
		c0.8151245-0.6791992,1.6167603-2.1275635,1.6167603-3.7124634C66.8874512,27.5140381,66.0714111,26.5078735,65.2323608,25.8551025
		z M53.1571045,19.8453369h8.7310181c0.9970093,0,1.718811,0.2128296,2.163269,0.638855
		c0.7470093,0.697937,0.9038696,2.9578247-0.0762329,3.7131348c-0.406311,0.3134766-1.1021729,0.46875-2.0870361,0.46875h-8.7310181
		V19.8453369z M64.3668213,31.2504883c-0.4707642,0.451416-1.1781006,0.678894-2.1248779,0.678894h-9.0848389v-5.645752h8.9677124
		c0.9706421,0,1.7043457,0.3059082,2.2039795,0.71698C65.2615356,27.7723999,65.3721924,30.2810669,64.3668213,31.2504883z
		 M101.4736328,28.9384155c0,2.0042114-1.3012085,2.9909668-3.6707764,2.9909668h-6.3887939
		c-2.935791,0-3.6368408-1.0740356-3.6368408-2.9990845v-10.699707h-1.6118164v10.2301025
		c0,3.9716187,1.6621704,5.0584106,5.1204224,5.0584106h6.6465454c3.3046875,0,5.1533203-0.9650879,5.1533203-5.0986328V18.2305908
		h-1.6120605V28.9384155z M118.3881226,32.1766357L107.02948,18.2327881h-2.3362427v15.3134155h1.6117554V19.7008057
		l11.3399658,13.8225098H120V18.2305908h-1.6118774V32.1766357z M82.9575806,15.8128662h1.6161499V0.498291h-1.6161499V15.8128662z
		 M79.6379395,18.2186279H73.545105c-3.8052368,0-5.0725098,1.4665527-5.0725098,5.2914429v4.9532471
		c0,3.7733765,1.3501587,5.0581055,5.0725098,5.0581055h6.0928345c3.6178589,0,4.9170532-0.8635254,4.9170532-5.0581055v-4.9532471
		C84.5549927,19.2012939,82.9429321,18.2186279,79.6379395,18.2186279z M82.9660645,28.3582153
		c0,2.8936768-0.6633911,3.571167-3.5187988,3.571167h-5.7496948c-2.7543335,0-3.6381836-0.7667236-3.6381836-3.571167v-4.8924561
		c0-2.8078003,0.9864502-3.6551514,3.6381836-3.6551514h5.7496948c2.7791748,0,3.5187988,0.732666,3.5187988,3.6551514V28.3582153z
		 M118.3881226,0.4537964v14.008606L107.02948,0.4559937h-2.3362427v15.3759766h1.6117554V1.9865723l11.3399658,13.8226318H120
		V0.4537964H118.3881226z M28.9109497,18.2186279h-6.0928955c-3.8051758,0-5.0725708,1.4665527-5.0725708,5.2914429v4.9532471
		c0,3.7733765,1.3503418,5.0581055,5.0725708,5.0581055h6.0928955c3.6177979,0,4.9170532-0.8635254,4.9170532-5.0581055v-4.9532471
		C33.8280029,19.2012939,32.2159424,18.2186279,28.9109497,18.2186279z M32.2389526,28.3582153
		c0,2.8936768-0.6633301,3.571167-3.5187988,3.571167H22.970459c-2.7543335,0-3.6381836-0.7667236-3.6381836-3.571167v-4.8924561
		c0-2.8078003,0.9864502-3.6551514,3.6381836-3.6551514h5.7496948c2.7791748,0,3.5187988,0.732666,3.5187988,3.6551514V28.3582153z"
		/>
</g>
</svg>
