<svg id="Слой_1" data-name="Слой 1" xmlns="http://www.w3.org/2000/svg" viewBox="0 0 120 33.09"><defs><style>.cls-1{opacity:0.6;}.cls-2{fill:#afb2b2;fill-rule:evenodd;}</style></defs><title>Ian Gorboun LOGO</title><g class="cls-1"><path class="cls-2" d="M118.39,32.18L107,18.23h-2.34V33.55h1.61V19.7l11.34,13.82H120V18.23h-1.61V32.18ZM5.53,19.81h5.84c2.7,0,3.14,1.61,3.14,3.25h1.64c0-2.81-1.48-4.82-4.76-4.82h-6C1.71,18.24,0,19.73,0,23.64v4.44c0,3.4,1.51,5.45,5.36,5.45h6c3.93,0,4.76-1.45,4.76-6.07v-2H8.06v1.65h6.46l0,1.27c0,2.7-.32,3.54-3.14,3.54H5.54c-2.73,0-3.91-1.26-3.91-4V23.79C1.64,20.78,2.73,19.81,5.53,19.81Zm74.1-1.59H73.55c-3.81,0-5.07,1.47-5.07,5.29v5c0,3.77,1.35,5.06,5.07,5.06h6.09c3.62,0,4.92-.86,4.92-5.06v-5C84.55,19.2,82.94,18.22,79.64,18.22ZM83,28.36c0,2.89-.66,3.57-3.52,3.57H73.7c-2.75,0-3.64-.77-3.64-3.57V23.47c0-2.81,1-3.66,3.64-3.66h5.75c2.78,0,3.52.73,3.52,3.66v4.89Zm7.14-16.6h9.08l2.35,4.05h1.54L95.7,0.46H93.63L86.21,15.81h1.55ZM94.66,2.1l3.76,8.09H90.67ZM83,15.81h1.62V0.5H83V15.81Zm18.52,13.13c0,2-1.3,3-3.67,3H91.41c-2.94,0-3.64-1.07-3.64-3V18.23H86.17V28.46c0,4,1.66,5.06,5.12,5.06h6.65c3.3,0,5.15-1,5.15-5.1V18.23h-1.61V28.94ZM65.23,25.86a2.28,2.28,0,0,0-.85-0.43,2.09,2.09,0,0,0,1.1-.83,4,4,0,0,0,.61-2.36c0-2.52-1.59-4-4.76-4H51.55V33.52H61.69a5.55,5.55,0,0,0,3.58-.93,5.1,5.1,0,0,0,1.62-3.71A3.87,3.87,0,0,0,65.23,25.86Zm-12.08-6h8.73a3.06,3.06,0,0,1,2.16.64c0.75,0.7.9,3-.08,3.71a3.5,3.5,0,0,1-2.09.47H53.16V19.85ZM64.37,31.25a3,3,0,0,1-2.12.68H53.16V26.28h9a3.4,3.4,0,0,1,2.2.72A3.47,3.47,0,0,1,64.37,31.25ZM45.66,18.2H35.45V33.52H37V27.07h8.67c1.46,0,2.62.57,2.62,2.54v3.92h1.61V29.78a3.58,3.58,0,0,0-2.16-3.47C51.09,26.3,51.09,18.2,45.66,18.2Zm0,7.27H37V19.82h8.61A2.83,2.83,0,1,1,45.62,25.47Zm72.77-25v14L107,0.46h-2.34V15.83h1.61V2l11.34,13.82H120V0.45h-1.61ZM28.91,18.22H22.82c-3.81,0-5.07,1.47-5.07,5.29v5c0,3.77,1.35,5.06,5.07,5.06h6.09c3.62,0,4.92-.86,4.92-5.06v-5C33.83,19.2,32.22,18.22,28.91,18.22Zm3.33,10.14c0,2.89-.66,3.57-3.52,3.57H23c-2.75,0-3.64-.77-3.64-3.57V23.47c0-2.81,1-3.66,3.64-3.66h5.75c2.78,0,3.52.73,3.52,3.66v4.89Z" transform="translate(0 -0.45)"/></g></svg>