<svg id="Слой_1" data-name="Слой 1" xmlns="http://www.w3.org/2000/svg" viewBox="0 0 40 40.01"><defs><style>.cls-1{fill:#b9c0c1;}</style></defs><title>ico-google</title><path class="cls-1" d="M297.26,414.1a1.81,1.81,0,0,0-1.43.61,2.49,2.49,0,0,0-.53,1.7,4.67,4.67,0,0,0,.53,2.58,1.73,1.73,0,0,0,1.51.75,1.65,1.65,0,0,0,1.4-.65,3.4,3.4,0,0,0,.5-2.05,3.8,3.8,0,0,0-.52-2.23A1.7,1.7,0,0,0,297.26,414.1Zm-3,12.26a2.18,2.18,0,0,0-.3,1.15,2.34,2.34,0,0,0,.89,1.9,4.09,4.09,0,0,0,2.63.73,5.09,5.09,0,0,0,2.13-.4,2.86,2.86,0,0,0,1.76-2.69,2.42,2.42,0,0,0-.36-1.35,1.18,1.18,0,0,0-.72-0.49,17.25,17.25,0,0,0-2.65-.11h-2.08A5.34,5.34,0,0,0,294.27,426.36ZM297.72,402a20,20,0,1,0,20,20A20,20,0,0,0,297.72,402Zm4.46,14.48a3.83,3.83,0,0,1-1.56,3.36,6.18,6.18,0,0,1-3.66,1.1q-0.33,0-1,0a2.73,2.73,0,0,0-.7.53,0.71,0.71,0,0,0-.15.44,0.75,0.75,0,0,0,.8.71q0.44,0.07,4.84.07a5.43,5.43,0,0,1,2,.26,2.09,2.09,0,0,1,.93.93,3.59,3.59,0,0,1,.37,1.74,5.26,5.26,0,0,1-1.89,4.12,7.49,7.49,0,0,1-5.12,1.66,6.93,6.93,0,0,1-4.09-1,3,3,0,0,1-1.35-2.51,2.46,2.46,0,0,1,.42-1.47,5.38,5.38,0,0,1,1.31-.93l0.86-.5a2.62,2.62,0,0,1-1.29-.52,1.25,1.25,0,0,1-.32-0.92,3.75,3.75,0,0,1,.46-1.59l0.39-.26a12.86,12.86,0,0,0,1.29-1,4,4,0,0,1-2-1.36,3.64,3.64,0,0,1-.6-2.15,3.87,3.87,0,0,1,1.4-3.07,5.85,5.85,0,0,1,3.93-1.2,8.47,8.47,0,0,1,2.2.26,4.51,4.51,0,0,1,1.4.7q2.62,0,3.42-.07l0.2,0.25a13.56,13.56,0,0,0-.79,1.32h-2A4.19,4.19,0,0,1,302.18,416.48Z" transform="translate(-277.72 -401.99)"/></svg>