<svg id="Слой_1" data-name="Слой 1" xmlns="http://www.w3.org/2000/svg" viewBox="0 0 40 40"><defs><style>.cls-1{fill:#b9c0c1;fill-rule:evenodd;}</style></defs><title>ico-vk</title><path class="cls-1" d="M297.73,402a20,20,0,1,0,20,20A20,20,0,0,0,297.73,402Zm10.67,25.38h0a0.67,0.67,0,0,1,0,.09v0l0,0.07v0l0,0.06h0l-0.05.07h0v0h0l0,0h0l0,0h0l-0.07.05h0l-0.08,0h0l-0.08,0h0l-0.09,0h0l-0.11,0h-3.09l-0.07,0h-0.1a4.24,4.24,0,0,1-2.4-1.66h0l0,0h0l0,0h0l0,0h0l0,0h0l0,0-0.05-.07h0l0,0h0l0,0h0l-0.1-.13,0,0,0,0,0,0,0,0,0,0,0,0,0,0,0,0,0,0,0,0,0,0,0,0,0,0,0,0,0,0,0,0,0,0,0,0,0,0,0,0,0,0,0,0,0,0h0l0,0h-0.46c-0.91.15-.46,1.74-0.83,2.42h0l0,0h0l0,0,0,0h0l0,0h0l0,0h0l-0.05,0h0l-0.06,0h0l0,0h0l-0.06,0h0l-0.08,0h0L299,428h-0.11l-0.13,0H297.7l-0.59-.05c-2.83-.31-4.28-1.86-5.55-3.52h0l-0.12-.16-0.12-.16,0,0-0.09-.13h0l-0.11-.16-0.07-.1-0.1-.14-0.07-.1-0.12-.18-0.08-.12,0,0-0.13-.19-0.09-.14v0l-0.12-.19-0.09-.15,0,0-0.07-.12,0,0-0.09-.14-0.06-.11-0.08-.13-0.07-.11-0.1-.18-0.07-.12,0-.06-0.12-.22-0.06-.11v0h0l-0.12-.22-0.08-.14-0.12-.22-0.08-.14-0.12-.22-0.07-.14-0.12-.23-0.07-.14-0.12-.25-0.06-.13-0.18-.38a5.26,5.26,0,0,1-.74-2.21l0,0h0l0,0h0l0,0h0l0,0h0l0,0h0l0.06,0h3.54l0.07,0h0l0.09,0a4,4,0,0,1,.79,1.41l0.09,0.19,0,0,0.07,0.16v0l0.08,0.17,0,0,0.07,0.14,0,0,0.09,0.16,0,0,0.07,0.14,0,0L293,419.2v0l0.08,0.14,0,0,0.18,0.31,0,0,0.08,0.13v0l0,0.06,0.07,0.12,0,0,0.09,0.14,0,0.06,0,0.06,0,0.07,0,0.07,0.09,0.13,0.05,0.08h0l0.07,0.1h0l0,0h0v0l0,0,0,0,0,0,0,0v0l0,0v0l0,0v0l0,0,0,0,0,0,0,0,0,0,0,0,0,0,0,0,0,0,0,0,0,0,0,0,0,0,0,0,0,0,0,0,0,0h0l0,0h0l0,0h0l0,0h0l0,0h0l0,0h0.4c0.47-.1.52-1.3,0.54-2.06v0s0-.08,0-0.12v-2.24l0,0a2.22,2.22,0,0,0-1.08-.7c0.36-.73,1.33-0.81,2.5-0.81h1.71l0.11,0h0l0.12,0h0l0.1,0h0l0.11,0h0l0.09,0h0l0.09,0h0l0.08,0.05h0l0.07,0.06h0l0.06,0.07v0l0.05,0.08c0.39,0.68.12,1.9,0.1,2.82v0.31h0v0.6h0c0,0.06,0,.11,0,0.17h0v0s0,0.07,0,.1v0.5l0,0.08v0.06l0,0.08,0,0.05,0,0.08,0,0h0l0.06,0.11,0.08,0.11h0l0,0.05h0l0.05,0.05h0l0.06,0h0l0.06,0a1.91,1.91,0,0,0,1.13-1l0-.07,0,0,0.13-.18,0,0,0.08-.11,0.08-.12v0l0.31-.49h0l0.07-.11v0l0.08-.14v0l0.08-.15,0,0,0.08-.15v0l0.08-.15,0,0,0.08-.16,0,0,0.08-.17v0l0.08-.16,0,0,0.08-.18,0,0,0.09-.19a3,3,0,0,1,.83-1.46l0.1,0h0l0.08,0h3.93l0.07,0h0.15l0,0h0l0,0h0l0,0,0,0,0,0v0l0,0h0l0,0a3,3,0,0,1-.54,1.76l-0.11.18,0,0.06-0.08.12,0,0.06-0.08.12,0,0-0.11.16,0,0-0.09.13,0,0.05-0.08.11,0,0.05-0.08.11,0,0-0.11.15,0,0-0.08.11,0,0.05-0.08.1,0,0.05-0.1.12-0.12.16,0,0-0.06.08-0.35.46-0.09.12-0.12.15h0l0,0-0.06.07,0,0,0,0,0,0.05,0,0,0,0.05,0,0,0,0.05h0l0,0,0,0.05h0l0,0,0,0.05v0l0,0,0,0.06,0,0.05,0,0.06,0,0.05h0l0,0.06,0,0.05,0,0.06v0.27h0s0,0.06,0,.08a2.05,2.05,0,0,0,.83,1.16,16.22,16.22,0,0,1,1.91,2.06l0.16,0.21,0,0,0,0,0,0,0.1,0.14,0,0,0.14,0.23v0l0,0.07,0,0a1.56,1.56,0,0,1,.1.26h0l0,0.07h0s0,0,0,.06v0h0A0.44,0.44,0,0,1,308.4,427.38Z" transform="translate(-277.73 -402)"/></svg>