<?xml version="1.0" encoding="utf-8"?>
<!-- Generator: Adobe Illustrator 17.1.0, SVG Export Plug-In . SVG Version: 6.00 Build 0)  -->
<!DOCTYPE svg PUBLIC "-//W3C//DTD SVG 1.1//EN" "http://www.w3.org/Graphics/SVG/1.1/DTD/svg11.dtd">
<svg version="1.1" id="Layer_1" xmlns="http://www.w3.org/2000/svg" xmlns:xlink="http://www.w3.org/1999/xlink" x="0px" y="0px"
	 viewBox="0 0 133 26.3600006" enable-background="new 0 0 133 26.3600006" xml:space="preserve">
<g>
	<path opacity="0.6" fill-rule="evenodd" clip-rule="evenodd" fill="#FFFFFF" d="M1.007694,6.7426877
		C0.6890404,4.2799749,1.8992126,2.6413732,4.2905645,2.485209C4.1456022,4.3670182,6.6574702,6.5458026,8.3782396,7.8755026
		c1.0230389-1.2506957,2.9507751-2.8342118,5.6813383-4.504178c0.7510366-0.4593332,1.998373-0.8446693,3.0979118-0.9718409
		c2.5813179-0.2990179,4.3611259,1.3227816,4.0081425,3.9979959c-1.2095776-0.1708579-2.7500019,0.4322515-4.3136845,1.465899
		c-1.7376366,1.1488924-3.5948019,2.6328459-5.4859676,4.898674l0,0c0.0181198,0.6429081-0.3668213,8.2831497,2.7294436,9.1966763
		c-1.8519602,1.5211811-4.348278,1.4897518-5.8805962-0.0380859c-1.500031-1.4955502-2.5837564-4.289238-2.4785929-9.1692648l0,0
		C3.9989924,11.7268896,1.2796961,8.8435879,1.007694,6.7426877L1.007694,6.7426877z M11.1667223,0.1334583
		c-2.3157082,0-4.4655657,0.7089977-6.2452421,1.9212126L4.8849101,2.5294886
		c-0.0583143,0.7559128,0.4673061,1.6291132,1.1972575,2.466403C6.7401648,5.7504864,7.5611129,6.4660735,8.300355,7.0577831
		C8.8164215,6.498558,9.4827213,5.889123,10.2924013,5.247335c0.9525347-0.7553854,2.1091366-1.5596631,3.4572868-2.3841035
		c0.4153833-0.2542112,0.9572783-0.4847014,1.5400276-0.6677494c0.5646286-0.1770518,1.1749849-0.3122621,1.7514086-0.3823053
		C15.3369598,0.7490871,13.3240261,0.1334583,11.1667223,0.1334583L11.1667223,0.1334583z M21.4512081,7.0390701
		l-0.3672142-0.0519233c-0.4867458-0.0687251-1.0545368,0.0183182-1.671154,0.2277231
		c-0.7054386,0.2398467-1.4633942,0.636714-2.2323532,1.1449389c-0.8515224,0.5629807-1.7305222,1.2064161-2.6246758,1.9838095
		c-0.8484917,0.737793-1.7166843,1.6011095-2.5960131,2.6379204l-0.0011196,0.0904036
		c-0.0194387,1.4904766-0.0986404,7.6067686,2.3044405,8.3160295l0.8321495,0.2453823
		c4.1956062-1.5868778,7.1792603-5.6407499,7.1792603-10.3920889C22.2745285,9.7541494,21.9815083,8.3353634,21.4512081,7.0390701
		L21.4512081,7.0390701z M7.1591721,21.6033077c-0.5909853-0.7977543-1.0902491-1.8271198-1.4447479-3.1383038
		c-0.3851385-1.4255085-0.601264-3.1978703-0.5779386-5.3869333c-0.958333-0.6335516-2.1188226-1.7056799-3.0419033-2.8784256
		C1.4595153,9.3925343,0.9286895,8.5256586,0.636195,7.6986489c-0.3741347,1.1126523-0.5771479,2.3039126-0.5771479,3.5426164
		C0.0590471,15.9627552,3.0051436,19.9956741,7.1591721,21.6033077z"/>
	<path opacity="0.6" fill-rule="evenodd" clip-rule="evenodd" fill="#FFFFFF" d="M133.0590515,15.194521
		c0-0.6379004-0.0614777-1.2656536-0.1841736-1.883523c-0.1226959-0.6180668-0.3171387-1.1662216-0.5831451-1.644598
		c-0.2657471-0.4783754-0.6085052-0.8638439-1.0280457-1.1561403c-0.4192657-0.2921648-0.7437286-0.4434528-1.5037231-0.4383793
		c-0.7598572,0.0048103-1.810112,0.706955-1.810112,1.270463v-1.1036901h-1.4271545l-0.0158844,16.2552891h1.4436264v-5.8475189
		c-0.0005875,0.6238651,1.0726624,1.0069618,1.7019196,1.0069618c1.850647,0,2.9237061-2.8321705,3.1995239-4.266243
		C132.9899292,16.6697102,133.0590515,15.9386387,133.0590515,15.194521L133.0590515,15.194521z M131.6013794,15.2344513
		c0,0.4251347-0.0485535,0.906805-0.145813,1.4451427c-0.0971222,0.5381393-0.2428741,1.0463657-0.4372559,1.5248718
		c-0.194458,0.4783115-0.4372559,0.8803177-0.7288361,1.2058239c-0.2915649,0.325573-0.6369171,0.4884567-1.0358887,0.4884567
		c-0.3477783,0-0.6675568-0.0898094-0.9589233-0.2691689c-0.2915802-0.1792908-0.1094513-0.207098-0.3448105-0.5129032v-6.6202326
		c0.4142532-0.7966337,0.8442764-1.0891285,1.4113388-1.0891285c0.8280029,0,1.3318787,0.5394573,1.6876831,1.2458191
		c0.1840363,0.3653717,0.3224182,0.7773943,0.4143372,1.2357388
		C131.5552673,14.3472815,131.6013794,14.7958746,131.6013794,15.2344513z"/>
	<path opacity="0.6" fill-rule="evenodd" clip-rule="evenodd" fill="#FFFFFF" d="M96.5772934,15.194521
		c0-0.6379004-0.0614777-1.2656536-0.184166-1.883523c-0.122757-0.6180668-0.3171387-1.1662216-0.5831451-1.644598
		c-0.2659454-0.4783754-0.6087112-0.8638439-1.0280457-1.1561403c-0.4194717-0.2921648-0.743927-0.4434528-1.5037918-0.4383793
		c-0.7597961,0.0048103-1.810051,0.706955-1.810051,1.270463v-1.1036901h-1.4272232l-0.0160065,16.2552891h1.4436264v-5.8475189
		c-0.0003967,0.6238651,1.0728531,1.0069618,1.7021179,1.0069618c1.8505783,0,2.9236298-2.8321705,3.1995163-4.266243
		C96.5081711,16.6697102,96.5772934,15.9386387,96.5772934,15.194521L96.5772934,15.194521z M95.1194305,15.2344513
		c0,0.4251347-0.0485611,0.906805-0.1456833,1.4451427c-0.0971298,0.5381393-0.2430115,1.0463657-0.4372635,1.5248718
		c-0.1943817,0.4783115-0.4373856,0.8803177-0.7289581,1.2058239c-0.2915726,0.325573-0.6367188,0.4884567-1.0356903,0.4884567
		c-0.3477783,0-0.6675568-0.0898094-0.9591293-0.2691689c-0.2913742-0.1792908-0.1092453-0.207098-0.3446121-0.5129032v-6.6202326
		c0.4142609-0.7966337,0.8442078-1.0891285,1.4111404-1.0891285c0.8281326,0,1.332077,0.5394573,1.6878891,1.2458191
		c0.1839752,0.3653717,0.3222122,0.7773943,0.4143295,1.2357388C95.0735092,14.3472815,95.1194305,14.7958746,95.1194305,15.2344513
		z"/>
	<path opacity="0.6" fill-rule="evenodd" clip-rule="evenodd" fill="#FFFFFF" d="M117.3153458,18.0249767
		c0-0.7308731-0.1713181-1.3155327-0.5140228-1.7540436c-0.3427734-0.4385777-0.7697525-0.7375956-1.2813339-0.8969231
		c0.470665-0.1462793,0.8543549-0.4518213,1.1509323-0.9169521c0.2966461-0.465066,0.4449005-1.0166473,0.4449005-1.6544819
		c0-0.4916201-0.0868454-0.9101658-0.2633667-1.2557039c-0.1764603-0.3455372-0.4015503-0.6279507-0.6751938-0.8472385
		c-0.2736511-0.2192888-0.580513-0.3788137-0.9180069-0.4783764c-0.3376999-0.0996943-0.664917-0.1493769-0.9821243-0.1493769
		c-0.5216675,0-0.9923325,0.0961361-1.4116669,0.2889366c-0.4195404,0.1927338-0.8338013,0.4949799-1.2429886,0.9070024
		l0.2915039,0.956686c0.3580627-0.3056068,0.7059021-0.5248299,1.043602-0.6578655
		c0.3374939-0.1327724,0.7211227-0.1992569,1.1507339-0.1992569c0.1535263,0,0.3222122,0.0332088,0.5063782,0.0996943
		c0.1841049,0.0665512,0.3529892,0.159524,0.5063171,0.2790527c0.1535263,0.1195936,0.2812958,0.2723312,0.3836899,0.4584103
		c0.1023254,0.1862106,0.1535263,0.398778,0.1535263,0.6378345c0,0.3322935-0.0485611,0.6180668-0.1458817,0.8571224
		c-0.0971298,0.239254-0.2275238,0.4385777-0.3913345,0.5981016c-0.1636124,0.1594591-0.355423,0.2790527-0.5752411,0.3587818
		c-0.2200775,0.07973-0.4475327,0.1195288-0.6828995,0.1195288h-0.8593674v1.2757339h0.8747177
		c0.2351074,0,0.4704666,0.0399303,0.7058334,0.1195278c0.2351074,0.0797291,0.4474716,0.1994553,0.6367188,0.3621426
		c0.1891708,0.1595249,0.3427658,0.3622093,0.4603882,0.6113453c0.1176834,0.2458439,0.1765213,0.5383377,0.1765213,0.8704338
		c0,0.3089027-0.0512009,0.5780697-0.1535263,0.8106041c-0.1022034,0.2358932-0.2377396,0.4318562-0.4066238,0.5911827
		c-0.1686783,0.1594582-0.3554153,0.2825451-0.5601425,0.362339c-0.2045288,0.0795326-0.4142685,0.1195278-0.6290741,0.1195278
		c-0.4296112,0-0.8132401-0.0631237-1.1507339-0.189373c-0.3376999-0.1263142-0.6855392-0.3421764-1.043602-0.6477833
		l-0.3221436,0.9533253c0.4295502,0.3821735,0.8540878,0.6778297,1.2736282,0.8937588
		c0.4193344,0.2159271,0.8950729,0.3255711,1.4270172,0.3255711c0.3683395,0,0.7314072-0.0698452,1.0894623-0.209404
		c0.3580551-0.1393623,0.6802673-0.3421764,0.9641953-0.6079845c0.2838669-0.2656116,0.5163956-0.6012001,0.6981888-1.006567
		C117.2258606,19.0049877,117.3153458,18.5432835,117.3153458,18.0249767z"/>
	<path opacity="0.6" fill-rule="evenodd" clip-rule="evenodd" fill="#FFFFFF" d="M111.5764847,10.3507347h-1.2428589
		l-2.4243622,8.3120766l-2.4246292-8.3120766h-1.5805511l3.2072296,10.900116l-0.3070602,1.1361752
		c-0.0612793,0.2391224-0.1380386,0.4850979-0.2300949,0.7373981c-0.0921173,0.2525635-0.1995163,0.485096-0.3222122,0.6911411
		c-0.1226883,0.20578-0.2685699,0.378746-0.4372559,0.5181084c-0.1688156,0.1396904-0.3656998,0.2093391-0.5909882,0.2093391
		c-0.5829468,0-1.1251678-0.1527386-1.6262741-0.4585438l-0.3070602,0.9303951
		c0.286499,0.2224522,0.5986328,0.4219074,0.9361267,0.5978374c0.3375015,0.1761951,0.6749954,0.26581,1.0126953,0.26581
		c0.3989792,0,0.7467499-0.1062851,1.043396-0.3188515c0.2967834-0.2125015,0.5549469-0.4883919,0.7749557-0.8272095
		c0.2200165-0.3388157,0.4091949-0.7209892,0.5675964-1.1461239c0.1585999-0.4252682,0.2992172-0.8504028,0.4221725-1.2756691
		L111.5764847,10.3507347z"/>
	<path opacity="0.6" fill-rule="evenodd" clip-rule="evenodd" fill="#FFFFFF" d="M103.6061859,20.9551926v-6.9366465
		c0-1.9938908-0.7792358-3.9466658-3.0114594-3.9466658c-1.0054474,0-1.3731918,0.1844978-2.1989441,0.7414827l0.5731888,1.0510426
		c0.9901581-0.5963879,2.1795807-0.9716434,2.8288116,0.2239008c0.2470932,0.4550505,0.3707733,1.3726625,0.3707733,2.17661
		c-1.7477188-0.4806156-2.9759445-0.5646944-3.8693771,0.959651c-0.8124466,1.3859062-0.6620789,4.8151894,0.9253235,5.6803513
		c1.0519638,0.5735893,2.5871201,0.1303997,2.9440536-1.1059322v1.1562061H103.6061859L103.6061859,20.9551926z
		 M102.1685562,18.6628113c-0.384613,0.658392-1.0414886,1.1856594-1.748642,1.1856594
		c-1.1994934,0-1.562233-2.8240643-0.9469986-3.9115448c0.6162186-1.0889311,1.6440735-0.9587288,2.6956406-0.682641V18.6628113z"/>
	<path opacity="0.6" fill-rule="evenodd" clip-rule="evenodd" fill="#FFFFFF" d="M87.9149323,15.8749218
		c0-0.8302393-0.0972519-1.5398302-0.2915039-2.1250172c-0.1918793-0.5814304-0.4604492-1.0642214-0.803154-1.4445496
		c-0.3401413-0.3767042-0.7415543-0.6546373-1.1993713-0.8302393c-0.4603882-0.1755362-0.9538498-0.2633705-1.4857941-0.2633705
		h-1.4987183V6.36203h4.5112991V4.7601957h-6.0763626v16.1949959h3.0226669c0.5218582,0,1.012886-0.1206474,1.4731445-0.3622074
		c0.4603882-0.2412968,0.8646317-0.5776749,1.21241-1.0166473c0.3477783-0.4389057,0.6238022-0.9728947,0.828331-1.5982761
		C87.8126068,17.3489914,87.9149323,16.6504707,87.9149323,15.8749218L87.9149323,15.8749218z M86.3497391,15.8641148
		c0,0.4241467-0.0512009,0.8448009-0.1533356,1.2616997c-0.0997543,0.4168987-0.2456436,0.7900448-0.4323807,1.119175
		c-0.1866074,0.3291321-0.4141312,0.5961914-0.6776352,0.8009186c-0.2633667,0.2049236-0.5523071,0.3072529-0.8668747,0.3072529
		h-1.5831223v-6.5393829h1.5831223c0.3042908,0,0.58815,0.0730734,0.8515244,0.2194862
		c0.2633667,0.1462135,0.4910278,0.3546963,0.6778336,0.6253147c0.1865997,0.2706842,0.3349228,0.5925007,0.4422607,0.9655151
		C86.2961655,14.9972401,86.3497391,15.4103832,86.3497391,15.8641148z"/>
	<path opacity="0.6" fill-rule="evenodd" clip-rule="evenodd" fill="#FFFFFF" d="M78.7085724,20.3512936
		c0-0.3854675-0.1047668-0.7076797-0.3145676-0.9669647c-0.2097321-0.2590218-0.462822-0.3886318-0.759407-0.3886318
		c-0.2968445,0-0.5525055,0.1296101-0.7673111,0.3886318c-0.2148056,0.259285-0.3222122,0.5814972-0.3222122,0.9669647
		c0,0.3853359,0.1074066,0.7041874,0.3222122,0.956686c0.2148056,0.2523651,0.4704666,0.3786144,0.7673111,0.3786144
		c0.2965851,0,0.549675-0.1262493,0.759407-0.3786144C78.6038055,21.055481,78.7085724,20.7366295,78.7085724,20.3512936z"/>
	<path opacity="0.6" fill-rule="evenodd" clip-rule="evenodd" fill="#FFFFFF" d="M75.7009964,19.9187126l-0.3836212-0.9768486
		c-0.3477783,0.3056068-0.6905441,0.5282555-1.0280457,0.6677494c-0.3376999,0.1396904-0.7211914,0.209404-1.1509323,0.209404
		c-0.3887024,0-0.7338409-0.1163654-1.0356903-0.3488979c-0.301857-0.2325993-0.557579-0.5347786-0.7673187-0.9002819
		c-0.2097321-0.3653717-0.3707733-0.7773933-0.4833832-1.2391644c-0.1124115-0.4583454-0.1686783-0.9135265-0.1686783-1.3687086
		c0-0.5048647,0.0382843-1.0265312,0.1151123-1.5680313c0.076767-0.5380745,0.2070999-1.029892,0.3912659-1.4684687
		c0.184166-0.4385109,0.4346237-0.8005219,0.7518311-1.0896559c0.317131-0.2855759,0.7161102-0.4284954,1.1968613-0.4284954
		c0.4297409,0,0.8158722,0.0764341,1.1583786,0.2291718c0.3427658,0.1528034,0.6829071,0.3886976,1.0205994,0.7075481
		l0.3528519-1.0364151c-0.7467499-0.8239126-1.6212692-1.2357378-2.6239471-1.2357378
		c-0.634079,0-1.1892242,0.166048-1.6647644,0.4982748c-0.4757385,0.3320961-0.874649,0.7740335-1.1942291,1.3254175
		c-0.3197708,0.5515823-0.5602112,1.1828928-0.7213821,1.8938017c-0.1609726,0.7108421-0.2403717,1.4383564-0.2403717,2.1824741
		c0,0.7043848,0.0920486,1.375495,0.2788544,2.0133295c0.1866074,0.6378345,0.4475403,1.19594,0.7826004,1.6743145
		c0.3349228,0.4783115,0.7364731,0.8604851,1.2019348,1.1462574c0.4654617,0.2855759,0.9845581,0.4284954,1.5573578,0.4284954
		c0.5116501,0,0.9847565-0.1228886,1.4195709-0.3689289C74.9004745,20.6195393,75.3123016,20.3040485,75.7009964,19.9187126z"/>
	<polygon opacity="0.6" fill-rule="evenodd" clip-rule="evenodd" fill="#FFFFFF" points="68.2281265,10.3507347 
		66.7549744,10.3507347 63.5481453,15.0749264 63.5481453,10.3507347 62.0903511,10.3507347 62.0903511,20.9551926 
		63.5481453,20.9551926 63.5481453,16.729475 63.916481,15.8723516 66.6630554,20.9551926 68.1821976,20.9551926 
		65.0364456,15.0549612 	"/>
	<path opacity="0.6" fill-rule="evenodd" clip-rule="evenodd" fill="#FFFFFF" d="M125.1496353,15.9436464
		c0-0.5978374,0.0816422-2.0514145,0.0050735-2.6494503c-0.0766296-0.5979042-0.2224503-1.1328154-0.4372559-1.6111908
		c-0.4466171-0.9943762-1.1980515-1.7032423-2.4705582-1.7032423c-1.9316864,0-2.9444427,2.2542305-3.2376633,3.8893404
		c-0.1226959,0.6841564-0.1841736,1.3519058-0.1841736,2.0032482c0,0.6643229,0.0512009,1.320344,0.1765289,1.9632521
		c0.3448105,1.7699242,1.4000702,3.4707279,3.3890839,3.5192909c1.9890823,0.0485611,2.2942276-0.3057384,2.7563324-0.6668282
		l-0.3375015-1.1612129c-2.5148315,1.2630177-4.3166504,0.1533298-4.4806519-2.5017223
		c-0.030838-0.4983406-0.0433578-0.6462688-0.0433578-1.0814848H125.1496353L125.1496353,15.9436464z M123.8188171,14.8045063
		h-3.3314362c0.1006851-1.0891285,0.2620544-3.3938322,1.6536255-3.3938322
		C123.5325165,11.4106741,123.8188171,13.6658926,123.8188171,14.8045063z"/>
	<path opacity="0.6" fill-rule="evenodd" clip-rule="evenodd" fill="#FFFFFF" d="M60.5677185,15.9436464
		c0-0.5978374,0.0815735-2.0514145,0.0050087-2.6494503c-0.0765648-0.5979042-0.2224503-1.1328154-0.4372597-1.6111908
		c-0.4465485-0.9943762-1.1979828-1.7032423-2.4705544-1.7032423c-1.9316864,0-2.9443817,2.2542305-3.2376022,3.8893404
		c-0.122757,0.6841564-0.184166,1.3519058-0.184166,2.0032482c0,0.6643229,0.0511322,1.320344,0.1764565,1.9632521
		c0.3448143,1.7699242,1.4001389,3.4707279,3.3891563,3.5192909c1.9890137,0.0485611,2.2942238-0.3057384,2.7563248-0.6668282
		l-0.3374977-1.1612129c-2.5148315,1.2630177-4.3167152,0.1533298-4.4807205-2.5017223
		c-0.0307732-0.4983406-0.0432892-0.6462688-0.0432892-1.0814848H60.5677185L60.5677185,15.9436464z M59.2369003,14.8045063
		H55.905468c0.1006813-1.0891285,0.2620506-3.3938322,1.6535568-3.3938322S59.2369003,13.6658926,59.2369003,14.8045063z"/>
	<path opacity="0.6" fill-rule="evenodd" clip-rule="evenodd" fill="#FFFFFF" d="M53.2365761,23.3407459v-3.7210522h-1.0895233
		v-9.268959h-5.1556511c0,0.7575607-0.0050735,1.5481987-0.0153503,2.3721123
		c-0.0102806,0.8238468-0.0537682,1.644598-0.1303368,2.4617243c-0.0767632,0.8173895-0.2071648,1.6046667-0.3913307,2.3620291
		c-0.1841698,0.7574291-0.4450989,1.4485035-0.7826004,2.0730934h-0.9206429v3.7210522h1.3655472v-2.3855534h5.7543449
		l0.0027657,2.3855534H53.2365761L53.2365761,23.3407459z M50.6894569,19.6196938h-3.7901726
		c0.3376999-0.5183048,0.5984344-1.1029644,0.7826004-1.7540436c0.1841698-0.6513424,0.3195763-1.3256149,0.40662-2.0232134
		s0.1406784-1.4019842,0.1612358-2.1130247c0.0203629-0.7109079,0.0305748-1.391902,0.0305748-2.043046h2.4091415V19.6196938z"/>
	<polygon opacity="0.6" fill-rule="evenodd" clip-rule="evenodd" fill="#FFFFFF" points="44.3590851,21.0810471 
		44.3590851,10.2386532 42.6472092,10.2386532 42.6472092,14.7979832 40.0790062,14.7979832 40.0790062,10.2386532 
		38.3671303,10.2388506 38.3671303,21.0810471 40.0790062,21.0810471 40.07024,15.9436464 42.6472092,15.9436464 
		42.6472092,21.0810471 	"/>
	<path opacity="0.6" fill-rule="evenodd" clip-rule="evenodd" fill="#FFFFFF" d="M36.0992622,21.0786095V4.8543553h-2.8016624
		c-2.9482059,0-4.3107204,3.3317618-4.3107204,5.1578927c0,1.8259983,0.9220924,4.4834881,2.6707344,5.0561552l-3.2919636,6.0126438
		h2.009903l3.1344147-5.9820042h0.8742561v5.9902401L36.0992622,21.0786095L36.0992622,21.0786095z M34.3840904,13.754056
		h-1.5301399c-1.2738266,0-2.035141-2.2830257-2.035141-3.7240171c0-1.4408598,0.4771881-3.7961688,2.6588058-3.7961688h0.9064751
		V13.754056z"/>
</g>
</svg>
