<?xml version="1.0" encoding="utf-8"?>
<!-- Generator: Adobe Illustrator 17.1.0, SVG Export Plug-In . SVG Version: 6.00 Build 0)  -->
<!DOCTYPE svg PUBLIC "-//W3C//DTD SVG 1.1//EN" "http://www.w3.org/Graphics/SVG/1.1/DTD/svg11.dtd">
<svg version="1.1" id="Слой_1" xmlns="http://www.w3.org/2000/svg" xmlns:xlink="http://www.w3.org/1999/xlink" x="0px" y="0px"
	 viewBox="0 0 60 60" enable-background="new 0 0 60 60" xml:space="preserve">
<g>
	<g>
		<g>
			<path fill="#FFFFFF" d="M21.5863647,41.5171509l11.7789307-11.8063354L20.9727783,17.2894897
				c-0.3324585,0.2531128-0.5535278,0.6407471-0.5535278,1.0872192v21.8188477
				C20.4192505,40.9350586,20.9553833,41.4141846,21.5863647,41.5171509z M22.6138306,17.2009888
				c-0.2324829-0.1265259-0.4636841-0.1806641-0.6865234-0.1952515l12.0568848,12.0848389l3.6428833-3.6513672
				C31.9229736,22.3074341,23.2243652,17.5327759,22.6138306,17.2009888z M37.0654907,33.4196167l-3.0812988-3.088562
				L23.4536133,40.8861084C25.8515015,39.5807495,32.3220825,36.0282593,37.0654907,33.4196167z M34.6029663,29.7108154
				l3.2615967,3.2692261c2.428894-1.3360596,4.2618408-2.3461914,4.5863037-2.5279541
				c0.9628296-0.5394897,0.9793701-1.8245239,0-2.3634644c-0.3998413-0.2200928-1.9541626-1.0737305-4.024231-2.2103271
				L34.6029663,29.7108154z M1.9354858,30.0581665V30c0-0.5712891,0.0193481-1.161499,0.0581665-1.7710571
				c0.0288086-0.5325928-0.3776245-0.9970703-0.9100952-1.0357666c-0.522644-0.038269-0.9871826,0.3874512-1.0253906,0.9100342
				C0.0193481,28.7029419,0,29.3417358,0,30v0.0675049c0,0.5321045,0.4351807,0.9578857,0.9677124,0.9578857
				C1.4998169,31.0253906,1.9354858,30.59021,1.9354858,30.0581665z M5.7095947,44.0615845
				C5.3995972,43.5388794,5.1094971,42.99646,4.8482056,42.454895c-0.2320557-0.4649658-0.8321533-0.6586304-1.2966919-0.4356689
				c-0.2324219,0.116272-0.4063721,0.319458-0.4937134,0.5614014c-0.0775146,0.2419434-0.0581665,0.5131836,0.0581055,0.7446899
				c0.2807007,0.5812378,0.6000977,1.161499,0.9289551,1.7228394c0.1644287,0.2996216,0.4938354,0.4838867,0.8326416,0.4838867
				c0.1738892,0,0.3383179-0.0482178,0.4838867-0.1350708c0.2994995-0.1748657,0.4838867-0.4943237,0.4838867-0.8421631
				c0-0.1644287-0.0487061-0.3391724-0.1262207-0.4838867C5.7095947,44.0709229,5.7095947,44.0709229,5.7095947,44.0615845z
				 M2.4775391,35.5351563c-0.0969238-0.5130615-0.6101074-0.8609009-1.1326904-0.7644653
				c-0.522644,0.1066895-0.8708496,0.6189575-0.7645874,1.1416016c0.1262207,0.6294556,0.2807617,1.2682495,0.4550171,1.9071655
				c0.1063843,0.4252319,0.4933472,0.715332,0.9290161,0.715332c0.0870361,0,0.1744385-0.0093994,0.2519531-0.0283813
				c0.4256592-0.1162109,0.725769-0.5036621,0.7158203-0.9487305c0-0.0775146-0.0094604-0.1550293-0.0288696-0.2419434
				C2.7383423,36.7260132,2.6032104,36.1259155,2.4775391,35.5351563z M5.0126343,13.3933105
				c-0.3676758,0.5515747-0.7158813,1.112854-1.0353394,1.6741943c-0.0869751,0.1450806-0.1256714,0.3095093-0.1256714,0.4744873
				c0,0.3482056,0.1837769,0.6676636,0.4838867,0.8415527c0.1450195,0.0874023,0.3094482,0.1262207,0.4838257,0.1262207
				c0.3383179,0,0.6676636-0.1843872,0.8321533-0.4838867c0.2901611-0.5032959,0.6096191-1.0164185,0.9677734-1.5584717
				c0.2999878-0.4451294,0.1742554-1.0452271-0.2614136-1.3447266C5.9223022,12.8419189,5.293335,12.9676514,5.0126343,13.3933105z
				 M1.6836548,23.4870605c0.0774536,0.0193481,0.1644287,0.0288696,0.2518311,0.0288696
				c0.4351807,0,0.8222046-0.2901611,0.9290161-0.7158203c0.1644287-0.6002197,0.3388062-1.1908569,0.5321045-1.7617188
				c0.1643677-0.5032349-0.1063843-1.0546265-0.6096191-1.2190552c-0.4937134-0.1743774-1.0645752,0.1062622-1.2290039,0.5996094
				c-0.2032471,0.6100464-0.3870239,1.2390137-0.5614014,1.8872681c-0.0193481,0.0775757-0.0288696,0.1550903-0.0288696,0.2324829
				C0.9578857,22.9838257,1.2578735,23.3708496,1.6836548,23.4870605z M22.4031372,2.9418945
				c0.0775146,0,0.1644287-0.0098267,0.2514038-0.0386963c0.6000977-0.1550293,1.2001953-0.3001099,1.7809448-0.4163208
				c0.522583-0.1063232,0.8609009-0.6194458,0.7645264-1.1420898c-0.1067505-0.5127563-0.6294556-0.8609619-1.1420288-0.7546997
				c-0.6582642,0.1356812-1.2966919,0.2807617-1.9161377,0.4451904c-0.4163208,0.1162109-0.7064819,0.4933472-0.7064819,0.9290161
				c-0.0099487,0.0869141,0.0095215,0.1743164,0.0288696,0.2612915C21.5804443,2.6513062,21.9579468,2.9418945,22.4031372,2.9418945
				z M10.1806641,49.868042c-0.4450684-0.43573-0.8613892-0.8912354-1.2484131-1.3363647
				c-0.3486938-0.3770752-0.9870605-0.4252319-1.3646851-0.0775146c-0.203125,0.1653442-0.319397,0.4072876-0.3288574,0.6587524
				c-0.0193481,0.2608032,0.0675659,0.5131836,0.2419434,0.7059326c0.4257202,0.4838867,0.8803711,0.9677734,1.3353882,1.4232788
				c0.1837769,0.1832886,0.4257202,0.2901001,0.6870117,0.2901001c0.2613525,0,0.5032959-0.1068115,0.6870728-0.2901001
				c0.1838989-0.1842651,0.2806396-0.4262085,0.2806396-0.6871338c0-0.2522583-0.0967407-0.4942017-0.2806396-0.6776123
				C10.1806641,49.868042,10.1806641,49.868042,10.1806641,49.868042z M57.0872803,22.6256714
				c0.1540527,0.5614014,0.2901611,1.1421509,0.425354,1.7804565c0.086853,0.4550781,0.4838257,0.7744751,0.9384155,0.7744751
				c0.0679932,0,0.1266479,0,0.1937256-0.0193481c0.522583-0.1068115,0.8618774-0.6100464,0.7645264-1.1420898
				c-0.1351318-0.6289673-0.2901611-1.2677612-0.4545898-1.9066772c-0.1350708-0.5032349-0.6869507-0.8126831-1.1906738-0.677124
				c-0.425354,0.1162109-0.7154541,0.5032349-0.7154541,0.9484253c0,0.0775146,0.0094604,0.1549072,0.0283813,0.2225342
				C57.0769653,22.6157227,57.0769653,22.6157227,57.0872803,22.6256714z M29.9125977,1.9354858H30
				c0.5802612,0,1.1709595,0.0193481,1.7417603,0.0481567c0.0188599,0.0098877,0.0386963,0.0098877,0.0576782,0.0098877
				c0.5130615,0,0.9393921-0.3968506,0.9677124-0.9100342c0.0386963-0.5321045-0.3676147-0.996582-0.9091797-1.0254517
				C31.2578735,0.0193481,30.6384277,0,30,0h-0.0968628c-0.2612915,0-0.5032349,0.0963745-0.6871338,0.2806396
				c-0.1837158,0.1838379-0.2806396,0.4351807-0.2806396,0.6870728C28.9353638,1.4998169,29.3706055,1.9354858,29.9125977,1.9354858
				z M37.1711426,2.8643799c0.5896606,0.1546021,1.1897583,0.3289795,1.7606201,0.5227051
				c0.0973511,0.0288086,0.2032471,0.0482178,0.3004761,0.0482178c0.4158325,0,0.7929688-0.2612915,0.9195557-0.6582642
				c0.0870361-0.2419434,0.0671997-0.5127563-0.0490723-0.7352905c-0.116333-0.2324829-0.309082-0.4063721-0.5613403-0.4937744
				c-0.6190796-0.2125854-1.2578735-0.3964844-1.8769531-0.5609131c-0.5037231-0.1355591-1.0452881,0.1837769-1.1803589,0.6871338
				c-0.0198364,0.0869141-0.0293579,0.1644287-0.0293579,0.2419434C36.4453735,2.3612061,36.744873,2.7481689,37.1711426,2.8643799z
				 M51.1740723,8.7483521c-0.0094604-0.0098267-0.0292969-0.0292969-0.0387573-0.0386963
				c0-0.0099487-0.0093994-0.0099487-0.0093994-0.0099487c-0.3676758-0.3581543-0.9970703-0.3482056-1.3647461,0.0099487
				c-0.1738892,0.1837769-0.2806396,0.4257202-0.2806396,0.6870117c0.0093994,0.2514038,0.1067505,0.4933472,0.2806396,0.677124
				l0.0095215,0.0099487c0.4158325,0.4158325,0.842041,0.8615112,1.2578735,1.3353882
				c0.1842651,0.2032471,0.4451294,0.319458,0.725769,0.319458c0.2419434,0,0.4650269-0.0775146,0.638855-0.2419434
				c0.4064331-0.3482666,0.4451294-0.958313,0.0869751-1.3646851C52.0737915,9.6774292,51.6484985,9.2223511,51.1740723,8.7483521z
				 M55.6356812,43.6740723c-0.4555054-0.2617798-1.0651245-0.0963745-1.3164063,0.3486938
				c-0.3099976,0.522644-0.638916,1.0443115-0.9772339,1.5574951c-0.1455688,0.2125854-0.1937256,0.4743652-0.1455688,0.725769
				c0.0482178,0.2514648,0.1937256,0.4744263,0.4158325,0.6199341c0.1550293,0.105896,0.3392944,0.1645508,0.53302,0.1645508
				c0.3288574,0,0.628479-0.1645508,0.8033447-0.4356689c0.3571777-0.5227051,0.7059937-1.074585,1.0443115-1.6643677
				c0.0775146-0.1455078,0.1265869-0.3099365,0.1265869-0.4838257
				C56.1195679,44.1673584,55.9353027,43.8479614,55.6356812,43.6740723z M49.857605,49.8292236
				c-0.0093994,0.0094604-0.0093994,0.0094604-0.0093994,0.0094604c-0.4356689,0.4356689-0.8808594,0.8515015-1.3353882,1.2484131
				c-0.1937256,0.1738892-0.3099976,0.4064331-0.3289185,0.6672363c-0.0093994,0.2617798,0.0671387,0.5037231,0.2418823,0.7069702
				c0.1834106,0.203125,0.4451904,0.3193359,0.7258301,0.3193359c0.2325439,0,0.4640503-0.0774536,0.638916-0.2324829
				c0.4838867-0.4356689,0.9677124-0.8807983,1.4317627-1.3447266c0.1842651-0.1843872,0.2806396-0.4263306,0.2806396-0.6871338
				c0-0.2617798-0.0963745-0.5037231-0.2806396-0.6870728C50.8546753,49.4710693,50.2157593,49.4710693,49.857605,49.8292236z
				 M46.5773315,4.9931641c-0.5425415-0.357666-1.1029663-0.7063599-1.6746826-1.0352783
				C44.4575806,3.7060547,43.838501,3.8709717,43.5870972,4.31604c-0.0869141,0.1450195-0.1256104,0.3095703-0.1256104,0.4838257
				c0,0.3388062,0.1832886,0.6577759,0.4733887,0.8321533c0,0,0,0.0095215,0.010498,0.0095215
				c0.5414429,0.3099365,1.0640869,0.6293945,1.557373,0.9677124c0.1644897,0.1067505,0.3487549,0.1549683,0.5425415,0.1549683
				c0.319397,0,0.6189575-0.1549683,0.8032837-0.4257202C47.1387329,5.8933105,47.0223999,5.2837524,46.5773315,4.9931641z
				 M56.8548584,16.6160278c-0.2806396-0.5614014-0.5812378-1.1226807-0.9290771-1.7229004
				c-0.2617188-0.4351807-0.8807373-0.5996094-1.3258667-0.3481445c-0.3004761,0.1743774-0.4838867,0.5031738-0.4744263,0.84198
				c0,0.1739502,0.0387573,0.3388062,0.1257324,0.4838867c0.3099976,0.522583,0.6000977,1.0646362,0.8713379,1.6160278
				c0.1644287,0.3289185,0.5027466,0.5321045,0.8704224,0.5321045c0.1455078,0,0.3004761-0.0387573,0.4356689-0.0964355
				C56.9030151,17.680603,57.0968018,17.0999146,56.8548584,16.6160278z M58.2969971,36.5709229
				c-0.5037231-0.1360474-1.045166,0.1834106-1.1813354,0.6871338c-0.1549683,0.5897217-0.3383179,1.1803589-0.5321045,1.7606201
				c-0.1738892,0.5037231,0.0964355,1.0557251,0.6096191,1.2294922c0.0973511,0.0293579,0.203186,0.0482178,0.3099365,0.0482178
				c0.4158325,0,0.7835083-0.2711792,0.9195557-0.6577148c0.2032471-0.6293945,0.3969727-1.2578735,0.5614014-1.8778687
				c0.0188599-0.0774536,0.0283203-0.1644287,0.0386963-0.2419434
				C59.0227661,37.0737915,58.7317505,36.6872559,58.2969971,36.5709229z M59.0227661,28.9060669
				c-0.2522583,0-0.4942017,0.1068115-0.6776123,0.2905884c-0.1842651,0.1838989-0.2806396,0.4258423-0.2806396,0.677124V30
				c0,0.6095581-0.0198364,1.2382202-0.0585327,1.8477783c-0.0189819,0.2523804,0.0679932,0.5134277,0.2419434,0.7071533
				c0.1643677,0.1928711,0.406311,0.3482666,0.6586304,0.3482666h0.0671387c0.5037231,0,0.9289551-0.4163208,0.958252-0.9293823
				C59.9801636,31.3253784,60,30.6482544,60,30v-0.1262207C60,29.3417358,59.5643311,28.9060669,59.0227661,28.9060669z
				 M30.0288086,58.0645142H30c-0.5906982,0-1.2001953-0.0198364-1.800415-0.0585327
				c-0.5320435-0.0283813-0.99646,0.3779907-1.0352783,0.9100342c-0.0093994,0.2513428,0.0675659,0.5027466,0.2419434,0.6964722
				s0.4063721,0.3099976,0.6677246,0.3289185C28.6934814,59.9801636,29.3417358,60,30,60h0.0140991
				c0.5321655,0,0.9536133-0.4356689,0.9536133-0.9677734v-0.0292969
				C30.9677124,58.4898071,30.5513916,58.0645142,30.0288086,58.0645142z M16.6448975,3.1257935
				c-0.5807495,0.2901001-1.1610107,0.6094971-1.7224121,0.9289551c-0.2999878,0.1738892-0.4838867,0.5031738-0.4838867,0.84198
				c0.0095215,0.1739502,0.0482178,0.3383789,0.1356812,0.4838867c0.1738281,0.2996216,0.4932861,0.4838867,0.8415527,0.4838867
				c0.1644287,0,0.3388062-0.0487061,0.4838867-0.1355591c0.5325317-0.3099976,1.0744629-0.6000977,1.6160278-0.8709106
				c0.2225952-0.1162109,0.3969727-0.3099365,0.4838867-0.5518799c0.0775146-0.2514038,0.0581665-0.5126953-0.0576782-0.7451782
				C17.7194214,3.0964966,17.1192627,2.8932495,16.6448975,3.1257935z M22.770752,57.1260986
				c-0.5807495-0.1550293-1.1709595-0.329834-1.7610474-0.53302c-0.4938354-0.1739502-1.0552368,0.1162109-1.2196655,0.6095581
				c-0.0869141,0.2419434-0.0675659,0.5037231,0.048645,0.736145c0.1063843,0.2315674,0.3095093,0.4063721,0.5514526,0.4933472
				c0.638916,0.2126465,1.2772217,0.3969116,1.8774414,0.5614014c0.086853,0.0188599,0.1742554,0.0292358,0.25177,0.0292358
				c0.4351807,0,0.8222046-0.2910156,0.9384155-0.7163086c0.0194702-0.0775146,0.0293579-0.1550293,0.0293579-0.2419434
				C23.4871216,57.6288452,23.1964722,57.241333,22.770752,57.1260986z M44.0615845,54.1935425c-0.010437,0-0.010437,0-0.010437,0
				c-0.5612793,0-1.1028442,0.6633911-1.6160278,0.9242554c-0.2324829,0.1067505-0.4063721,0.362915-0.4934082,0.6048584
				c-0.0773926,0.2513428-0.0575562,0.512207,0.0482178,0.7446899c0.1645508,0.3289185,0.5037842,0.5320435,0.8713379,0.5320435
				c0.1550293,0,0.2996216-0.0299683,0.43573-0.0980225C43.8867188,56.6017456,44.4481201,56.2996216,44.9707031,56
				C44.9801636,55.9896851,45,55.9768677,45.0188599,55.9674072c0,0,0.010437-0.0065918,0.010437-0.0160522
				c0.2901611-0.1748657,0.4734497-0.5075073,0.4734497-0.8458252c0-0.1644287-0.0482178-0.3553467-0.1351318-0.5009155
				C45.1162109,54.1594849,44.4962769,54.1935425,44.0615845,54.1935425z M16.0064697,54.3286133
				c-0.5419312-0.3099365-1.0646362-0.6387939-1.5678711-0.9677124c-0.4356689-0.2901611-1.0551147-0.1644287-1.3353882,0.2712402
				c-0.1455078,0.2126465-0.2036133,0.4640503-0.1455078,0.7258301c0.048645,0.2514038,0.1937256,0.4639893,0.4069214,0.6095581
				c0.5513916,0.3676758,1.112793,0.7163086,1.6740723,1.0357666c0.1450806,0.0870361,0.3095703,0.1351929,0.4838867,0.1351929
				c0.3383179,0,0.6677246-0.1843262,0.8321533-0.4838867c0.0869141-0.1550293,0.1355591-0.319397,0.1355591-0.4838257
				C16.4902954,54.8219604,16.2965698,54.5025635,16.0064697,54.3286133z M10.1613159,7.5
				c-0.5131226,0.4545288-0.9970093,0.9095459-1.432312,1.3447876C8.5447998,9.0286255,8.4483643,9.2705688,8.4483643,9.5318604
				c0,0.2518311,0.1063843,0.4937134,0.2806396,0.6776123c0.1838989,0.1837769,0.4258423,0.2806396,0.6871338,0.2806396
				c0.2514038,0,0.4933472-0.0968628,0.677124-0.270752c0-0.0098877,0.0099487-0.0098877,0.0099487-0.0098877
				c0.4158325-0.4163208,0.8609009-0.842041,1.3353271-1.2578735c0.1937256-0.1743774,0.3094482-0.4068604,0.3289185-0.6677246
				c0.0098877-0.2612915-0.067627-0.5032349-0.2419434-0.6969604C11.1871948,7.1998901,10.5482788,7.1611938,10.1613159,7.5z
				 M37.2874146,57.1062622c-0.5614014,0.1549072-1.1426392,0.2901001-1.7814331,0.4158325
				c-0.2609253,0.0490723-0.4735107,0.203125-0.6190796,0.416687c-0.1455688,0.2126465-0.1937256,0.4640503-0.1455688,0.7258301
				c0.0878906,0.4451294,0.4943237,0.7739868,0.9489136,0.7739868c0.0576782,0,0.1256714,0,0.1832886-0.0198364
				c0.638855-0.1257324,1.2871704-0.2702637,1.9165649-0.4450684c0.4262085-0.105896,0.7258301-0.5028687,0.7163696-0.9385376
				c0-0.0775146-0.0093994-0.1643677-0.0292358-0.2419434C38.342041,57.2905273,37.7901001,56.9710693,37.2874146,57.1062622z"/>
		</g>
	</g>
</g>
<g>
</g>
<g>
</g>
<g>
</g>
<g>
</g>
<g>
</g>
<g>
</g>
<g>
</g>
<g>
</g>
<g>
</g>
<g>
</g>
<g>
</g>
<g>
</g>
<g>
</g>
<g>
</g>
<g>
</g>
</svg>
