<svg id="Слой_1" data-name="Слой 1" xmlns="http://www.w3.org/2000/svg" viewBox="0 0 40 40.01"><defs><style>.cls-1{fill:#b9c0c1;fill-rule:evenodd;}</style></defs><title>ico-facebook</title><path class="cls-1" d="M297.71,402a20,20,0,1,0,20,20A20,20,0,0,0,297.71,402Zm4.63,13.81a7,7,0,0,0-2.11-.23,1.31,1.31,0,0,0-1.09,1.57v1.72h3.2L302,421.61h-2.85v9.92h-3.79v-9.92h-2v-2.75h2v-2.08a3.86,3.86,0,0,1,.37-2.31,4.35,4.35,0,0,1,3.95-1.83,17.66,17.66,0,0,1,3.15.23Z" transform="translate(-277.71 -401.99)"/></svg>