<?xml version="1.0" encoding="utf-8"?>
<!-- Generator: Adobe Illustrator 17.0.0, SVG Export Plug-In . SVG Version: 6.00 Build 0)  -->
<!DOCTYPE svg PUBLIC "-//W3C//DTD SVG 1.1//EN" "http://www.w3.org/Graphics/SVG/1.1/DTD/svg11.dtd" [
	<!ENTITY ns_extend "http://ns.adobe.com/Extensibility/1.0/">
	<!ENTITY ns_ai "http://ns.adobe.com/AdobeIllustrator/10.0/">
	<!ENTITY ns_graphs "http://ns.adobe.com/Graphs/1.0/">
	<!ENTITY ns_vars "http://ns.adobe.com/Variables/1.0/">
	<!ENTITY ns_imrep "http://ns.adobe.com/ImageReplacement/1.0/">
	<!ENTITY ns_sfw "http://ns.adobe.com/SaveForWeb/1.0/">
	<!ENTITY ns_custom "http://ns.adobe.com/GenericCustomNamespace/1.0/">
	<!ENTITY ns_adobe_xpath "http://ns.adobe.com/XPath/1.0/">
]>
<svg version="1.1" id="Layer_1" xmlns:x="&ns_extend;" xmlns:i="&ns_ai;" xmlns:graph="&ns_graphs;"
	 xmlns="http://www.w3.org/2000/svg" xmlns:xlink="http://www.w3.org/1999/xlink" x="0px" y="0px" width="102.1186523px"
	 height="113.1982956px" viewBox="0 0 102.1186523 113.1982956" enable-background="new 0 0 102.1186523 113.1982956"
	 xml:space="preserve">
<metadata>
	<sfw  xmlns="&ns_sfw;">
		<slices></slices>
		<sliceSourceBounds  width="99.9833984" height="111.8183594" y="398.7451172" x="465.8813477" bottomLeftOrigin="true">
			</sliceSourceBounds>
	</sfw>
</metadata>
<g>
	<g>
		<path fill="#FFFFFF" d="M2.930661,94.6435852c-1.953186,2.0458984-2.9306641,4.765625-2.9306641,8.1582031
			c0,3.0908203,0.9013672,5.5967407,2.7041016,7.5166016c1.8037112,1.9199219,4.1347656,2.8798828,6.9921875,2.8798828
			c1.8378906,0,3.6015015-0.3505859,5.2930298-1.0497437v-1.4004517c-1.5254517,0.7490234-3.2520142,1.1230469-5.1758423,1.1230469
			c-2.4111938,0-4.4024048-0.8242188-5.9716797-2.4716187c-1.5693359-1.647522-2.3544922-3.8956299-2.3544922-6.7432251
			c0-2.9550781,0.8212889-5.3222656,2.4638672-7.1015625c1.6434939-1.7793579,3.7763064-2.6679077,6.4013062-2.6679077
			c1.6231079,0,3.1690063,0.3300171,4.6368408,0.9912109v-1.5303345c-1.4678345-0.515564-3.0040283-0.7733765-4.6075439-0.7733765
			C7.3681612,91.5743103,4.8847628,92.5976868,2.930661,94.6435852z M21.0850182,102.9472961h7.727478v-1.3125h-7.727478v-8.3837891
			h8.3250732v-1.3270874h-9.7695313v20.9100952h10.2510376v-1.3125h-8.8065796V102.9472961z M46.7910118,91.9239197h-1.8809204
			l-8.4570313,9.3465576c-0.1356812,0.1358032-0.2626953,0.3067017-0.3798828,0.5108032h-0.0576172v-9.8573608h-1.4442749
			v20.9100952h1.4442749v-10.484436h0.0576172c0.0684204,0.1368408,0.1856079,0.296936,0.3505859,0.4815063l8.9092407,10.0029297
			h2.0272827l-9.7412109-10.7753906L46.7910118,91.9239197z M48.5117149,93.2510071h6.0360718v19.5830078h1.4296875V93.2510071
			h6.0361938v-1.3270874H48.5117149V93.2510071z M74.5683594,91.5743103c-3.1201782,0-5.5830688,1.0039063-7.3857422,3.0106812
			c-1.8027344,2.0078125-2.7051392,4.6787109-2.7051392,8.0126953c0,3.1395874,0.8770142,5.6914063,2.6328125,7.6542969
			c1.7540283,1.9648438,4.109375,2.9462891,7.0645142,2.9462891c2.9940796,0,5.3847656-0.9911499,7.1737671-2.9745483
			c1.788147-1.9833984,2.6826172-4.7041016,2.6826172-8.1651001c0-3.1307983-0.8720093-5.6600952-2.6171265-7.5898438
			C79.6688843,92.539093,77.3876953,91.5743103,74.5683594,91.5743103z M80.2841797,109.3418274
			c-1.5078125,1.6855469-3.5527954,2.5292969-6.1386719,2.5292969c-2.4785156,0-4.4619141-0.8535156-5.9492188-2.5585938
			c-1.4873047-1.7060547-2.2305298-3.9980469-2.2305298-6.875c0-2.8486328,0.7842407-5.1523438,2.3545532-6.9121704
			c1.5692749-1.7587891,3.5692749-2.6385498,6-2.6385498c2.5370483,0,4.5419922,0.828064,6.0147095,2.4862671
			c1.4725952,1.6572266,2.2088623,3.9629517,2.2088623,6.9180298
			C82.5438843,105.304718,81.789978,107.655304,80.2841797,109.3418274z M98.2772827,93.4189758
			c-1.1376953-0.9970703-2.7802124-1.4950562-4.9287109-1.4950562h-5.0448608v20.9100952h1.4433594v-8.3847046h3.0039063
			c2.2841187,0,4.0604858-0.6240845,5.3291016-1.8731079c1.2684937-1.25,1.9033203-2.8457031,1.9033203-4.7910156
			C99.9833984,95.8711243,99.414978,94.4151306,98.2772827,93.4189758z M97.0233765,101.7735291
			c-0.9823608,0.899353-2.4160156,1.3495483-4.3016968,1.3495483h-2.9746094v-9.8720703h3.3398438
			c3.6054688,0,5.4091797,1.5703125,5.4091797,4.710022C98.4960938,99.6036072,98.0048828,100.8750305,97.0233765,101.7735291z"/>
	</g>
</g>
<g opacity="0.7">
	<g>
		<path fill-rule="evenodd" clip-rule="evenodd" fill="#FFFFFF" d="M51.6371422,1.3993807l-0.2216187,40.9921875
			l32.6484413-25.4696636L51.6371422,1.3993807z M51.6967735,43.3779564l18.1337929,37.245121l22.6132202-27.9102211
			L51.6967735,43.3779564z"/>
	</g>
</g>
<g>
	<g>
		<path fill-rule="evenodd" clip-rule="evenodd" fill="#FFFFFF" d="M9.9509859,52.6933861l22.6123047,27.9111366
			l18.1346436-37.245121L9.9509859,52.6933861z M51.0405235,1.3799105L18.4897423,16.90341l32.4726563,25.4696636
			L51.0405235,1.3799105z M51.2116661,43.597683L33.0769615,80.5937805l36.2684975,0.0010376L51.2116661,43.597683z"/>
	</g>
</g>
<path opacity="0.7" fill-rule="evenodd" clip-rule="evenodd" fill="#FFFFFF" d="M3.135462,50.7412987l40.7460976-9.3339996
	L11.205862,15.9375L3.135462,50.7412987z"/>
</svg>
