<?xml version="1.0" encoding="utf-8"?>
<!-- Generator: Adobe Illustrator 17.0.0, SVG Export Plug-In . SVG Version: 6.00 Build 0)  -->
<!DOCTYPE svg PUBLIC "-//W3C//DTD SVG 1.1//EN" "http://www.w3.org/Graphics/SVG/1.1/DTD/svg11.dtd" [
	<!ENTITY ns_extend "http://ns.adobe.com/Extensibility/1.0/">
	<!ENTITY ns_ai "http://ns.adobe.com/AdobeIllustrator/10.0/">
	<!ENTITY ns_graphs "http://ns.adobe.com/Graphs/1.0/">
	<!ENTITY ns_vars "http://ns.adobe.com/Variables/1.0/">
	<!ENTITY ns_imrep "http://ns.adobe.com/ImageReplacement/1.0/">
	<!ENTITY ns_sfw "http://ns.adobe.com/SaveForWeb/1.0/">
	<!ENTITY ns_custom "http://ns.adobe.com/GenericCustomNamespace/1.0/">
	<!ENTITY ns_adobe_xpath "http://ns.adobe.com/XPath/1.0/">
]>
<svg version="1.1" id="Layer_1" xmlns:x="&ns_extend;" xmlns:i="&ns_ai;" xmlns:graph="&ns_graphs;"
	 xmlns="http://www.w3.org/2000/svg" xmlns:xlink="http://www.w3.org/1999/xlink" x="0px" y="0px" width="102.1186523px"
	 height="113.1982956px" viewBox="0 0 102.1186523 113.1982956" enable-background="new 0 0 102.1186523 113.1982956"
	 xml:space="preserve">
<metadata>
	<sfw  xmlns="&ns_sfw;">
		<slices></slices>
		<sliceSourceBounds  width="100.0148926" height="111.9921875" y="398.5712891" x="466.8682861" bottomLeftOrigin="true">
			</sliceSourceBounds>
	</sfw>
</metadata>
<g opacity="0.7">
	<g>
		<path fill-rule="evenodd" clip-rule="evenodd" fill="#FFFFFF" d="M51.6371422,1.3993807l-0.2216187,40.9921875
			l32.6484413-25.4696636L51.6371422,1.3993807z M51.6967735,43.3779564l18.1337929,37.245121l22.6132202-27.9102211
			L51.6967735,43.3779564z"/>
	</g>
</g>
<g>
	<g>
		<path fill-rule="evenodd" clip-rule="evenodd" fill="#FFFFFF" d="M9.9509859,52.6933861l22.6123047,27.9111366
			l18.1346436-37.245121L9.9509859,52.6933861z M51.0405235,1.3799105L18.4897423,16.90341l32.4726563,25.4696636
			L51.0405235,1.3799105z M51.2116661,43.597683L33.0769615,80.5937805l36.2684975,0.0010376L51.2116661,43.597683z"/>
	</g>
</g>
<path opacity="0.7" fill-rule="evenodd" clip-rule="evenodd" fill="#FFFFFF" d="M3.135462,50.7412987l40.7460976-9.3339996
	L11.205862,15.9375L3.135462,50.7412987z"/>
<g>
	<g>
		<path fill="#FFFFFF" d="M7.183713,101.9332581c-1.8994141-1.0963135-3.1351929-1.9627075-3.707886-2.5992432
			c-0.5726929-0.6362915-0.8590088-1.4926758-0.8590088-2.5697632c0-1.1160278,0.4185181-2.0360107,1.2554932-2.7606201
			c0.8370364-0.7243042,1.970032-1.0866089,3.3994143-1.0866089c1.3999023,0,2.7166138,0.2789917,3.9501953,0.8370361v-1.5272217
			c-1.2532959-0.4208374-2.5062256-0.6314087-3.7592773-0.6314087c-1.9287109,0-3.4705203,0.5189819-4.6256104,1.5565186
			c-1.1552123,1.0376587-1.7327269,2.3004761-1.7327269,3.7885742c0,1.0964966,0.2838135,2.0632324,0.8517456,2.9000854
			c0.5675658,0.8370361,1.918579,1.8773193,4.0527954,3.1204224c1.9090576,1.1063843,3.1499023,1.9802246,3.7224731,2.6212158
			c0.5726929,0.6411743,0.8591309,1.5003052,0.8591309,2.5772095c0,1.2237549-0.4258423,2.1757813-1.2775269,2.855957
			c-0.8516846,0.680603-2.0999146,1.0206299-3.7445068,1.0206299c-1.546875,0-3.0740969-0.4794922-4.5814819-1.4390869v1.6593018
			c0.4992066,0.2935791,1.2210693,0.5531616,2.1658936,0.7783813c0.9445803,0.2249146,1.779114,0.3374634,2.5037234,0.3374634
			c2.0458984,0,3.6292725-0.5087891,4.7502441-1.5269775c1.1208496-1.0180664,1.6814575-2.3348999,1.6814575-3.9500732
			c0-1.1256104-0.3256226-2.1220093-0.9765015-2.9883423C10.4605074,104.0403137,9.1513033,103.0491028,7.183713,101.9332581z
			 M18.050106,103.0491028h7.7825928v-1.3214722H18.050106v-8.4434204h8.3847046v-1.3363647h-9.838501v21.057312h10.3231201
			v-1.3216553H18.050106V103.0491028z M33.4833336,94.686554c-1.9678345,2.0606689-2.9515991,4.7993774-2.9515991,8.2157593
			c0,3.1130981,0.9078979,5.6365356,2.723999,7.5698242c1.8156738,1.9335938,4.1629639,2.8999634,7.0410767,2.8999634
			c1.8502197,0,3.6270142-0.3522949,5.3303833-1.0570679v-1.40979c-1.5369873,0.7539063-3.2745972,1.1307983-5.2128906,1.1307983
			c-2.4279785,0-4.432373-0.829834-6.0133057-2.4891357c-1.5810547-1.6593018-2.37146-3.9229736-2.37146-6.7913818
			c0-2.9758911,0.8272095-5.3596802,2.4815674-7.1513062c1.6544189-1.7915039,3.8033447-2.6871948,6.4465332-2.6871948
			c1.6347656,0,3.1912842,0.3328857,4.6695557,0.9985352v-1.5418091c-1.4782715-0.5187988-3.0249634-0.7783203-4.6401978-0.7783203
			C37.9522057,91.5954285,35.451046,92.625946,33.4833336,94.686554z M48.5054283,93.2842102h6.0792236v19.7209473h1.4390869
			V93.2842102h6.0792847v-1.3363647H48.5054283V93.2842102z M74.7463379,91.5954285
			c-3.1425171,0-5.6218872,1.0108032-7.4376831,3.0322876c-1.81604,2.0217285-2.723938,4.7114258-2.723938,8.0690918
			c0,3.1621094,0.8833008,5.7319336,2.6505127,7.7093506c1.7669067,1.977478,4.1384277,2.9659424,7.114624,2.9659424
			c3.0150757,0,5.4232788-0.9984741,7.2246704-2.9953613c1.8010864-1.9970093,2.7019043-4.7380981,2.7019043-8.2233276
			c0-3.1520996-0.8787842-5.6997681-2.6358032-7.6430664C79.8832397,92.5670471,77.585144,91.5954285,74.7463379,91.5954285z
			 M80.5025024,109.4882507c-1.5174561,1.6986084-3.578064,2.5477905-6.1821899,2.5477905
			c-2.4962158,0-4.4934082-0.8590088-5.9910889-2.5772095c-1.4979248-1.7180176-2.2467041-4.0256958-2.2467041-6.923584
			c0-2.8683472,0.7904053-5.1884155,2.371521-6.9603271c1.5808716-1.7719116,3.5952148-2.6578979,6.0426025-2.6578979
			c2.5549927,0,4.5741577,0.8347168,6.057312,2.5036011c1.4829712,1.6691895,2.2246704,3.9918823,2.2246704,6.9678345
			C82.7786255,105.4231262,82.0198364,107.7899475,80.5025024,109.4882507z M97.8740234,106.2945251
			c-0.7929077-1.6936035-1.6055908-2.7069092-2.4376221-3.0396118v-0.05896
			c1.5662231-0.2936401,2.7850342-0.9494019,3.6565552-1.9677124c0.8710938-1.0178833,1.3068848-2.2855835,1.3068848-3.8032227
			c0-1.6445923-0.531189-2.9685059-1.5933228-3.9719849c-1.0623169-1.0032959-2.5233765-1.505188-4.3833008-1.505188h-5.8444214
			v21.057312h1.4538574v-9.3833008h2.6137695c0.8712158,0,1.5955811,0.2179565,2.1732788,0.6535034
			c0.5775146,0.4356689,1.1550293,1.289856,1.7327271,2.5625l2.8048096,6.1672974h1.6445923L97.8740234,106.2945251z
			 M93.659729,102.3003235h-3.6270752v-9.0161133h3.9353638c1.5859375,0,2.8046875,0.3793945,3.6564331,1.1378174
			c0.8516846,0.7587891,1.2774658,1.8087769,1.2774658,3.1499023c0,1.4683838-0.4724121,2.6235962-1.4169922,3.4655151
			C96.5401001,101.879425,95.2650146,102.3003235,93.659729,102.3003235z"/>
	</g>
</g>
</svg>
