<?xml version="1.0" encoding="utf-8"?>
<!-- Generator: Adobe Illustrator 17.0.0, SVG Export Plug-In . SVG Version: 6.00 Build 0)  -->
<!DOCTYPE svg PUBLIC "-//W3C//DTD SVG 1.1//EN" "http://www.w3.org/Graphics/SVG/1.1/DTD/svg11.dtd">
<svg version="1.1" id="Слой_1" xmlns="http://www.w3.org/2000/svg" xmlns:xlink="http://www.w3.org/1999/xlink" x="0px" y="0px"
	 width="120px" height="25px" viewBox="0 0 120 25" enable-background="new 0 0 120 25" xml:space="preserve">
<g opacity="0.6">
	<g>
		<path fill="#FFFFFF" d="M21.9558105-0.0274658H3.0009155c-1.949585,0-2.9989014,1.1147461-2.9989014,2.996582v18.9893799
			c0,1.921936,1.0805054,3.1578979,2.9989014,3.0328369h19.017395c1.9533691,0,2.9699707-1.0171509,2.9699707-3.0016479V3.0004272
			C24.9882813,1.0247803,23.9091797-0.0274658,21.9558105-0.0274658z M23.9779053,3.9359131L15.991272,9.9755249v4.0918579
			l7.9866333-6.0855713v13.9766846c0,1.4747314-0.5368042,2.0212402-1.9909058,2.0212402H3.0009155
			c-1.5126953,0-2.0214844-0.5151978-2.0214844-2.0212402v-0.9226685l8.0239868-6.064209v-4.0443115l-8.0239868,6.055603V2.9691162
			c0-1.5100098,0.5087891-2.0153198,2.0214844-2.0153198h18.954895c1.4227905,0,2.0220947,0.567688,2.0220947,2.0466309V3.9359131z
			 M13.9901733,1.9782104l-1.992981,0.0053101L1.9943848,10.0198364l0.0137939,4.0354004l8.9730225-7.0852051l0.022583,15.9971924
			l1.9373169-0.0032349l10.065979-8.0442505l-0.0135498-3.9685059l-9.0151367,7.0340576L13.9901733,1.9782104z
			 M40.8577881,13.7015381V2.6398926h-1.6099854v4.5708008h-8.8441162V2.6398926h-1.6117554v11.0616455h1.6117554V8.7927246
			h8.8441162v4.9088135H40.8577881z M49.5928955,13.7015381c1.0792236,0,1.8258057-0.3543091,2.2863159-0.8781128
			c0.4608154-0.5288086,0.6167603-1.1888428,0.6185913-1.7807007v-0.2629395h-1.6138916v0.2629395
			c0,0.3737793-0.1091919,0.6622925-0.3334961,0.8729858c-0.2229004,0.2095947-0.5892944,0.3543091-1.1539307,0.3543091
			l-3.5548096,0.0056152c-0.5619507,0-1.0144653-0.1207275-1.3178711-0.3791504
			c-0.3021851-0.258667-0.5028076-0.671875-0.5054932-1.4037476v-0.4690552h8.4776611V8.5518799
			c0.0018311-0.7670898-0.2929688-1.5064697-0.8860474-2.0379639c-0.5913086-0.5401001-1.4656372-0.8695068-2.592041-0.8695068
			h-3.161377c-1.0908813,0-1.9597778,0.3740845-2.5505981,0.9437866c-0.5883179,0.5709229-0.8984985,1.3270874-0.8984985,2.0834961
			l-0.0007935,1.9744263c-0.0009155,0.9700928,0.276001,1.7587891,0.8792114,2.2868042
			c0.6005859,0.526001,1.4735718,0.7686157,2.6011963,0.7686157H49.5928955z M45.6895752,7.0759888h3.4346313
			c1.0574951,0.0209961,1.6408081,0.5350342,1.7454834,1.5198975h-6.836792
			C44.1417847,7.6359253,44.7593994,7.0899048,45.6895752,7.0759888z M63.177124,9.609314
			c0.4447632-0.2991333,0.7401733-0.8062134,0.7318726-1.4562988V7.8536987
			c0.0050049-0.6472778-0.2349854-1.2279663-0.7420044-1.6173706c-0.5009766-0.3897095-1.2305908-0.5883179-2.190979-0.5883179
			h-6.8378296v8.0535278h7.0038452c0.9736938-0.0014038,1.7086792-0.190918,2.2143555-0.5756226
			c0.5129395-0.3865356,0.7529297-0.9727783,0.7518311-1.6295166v-0.3330078
			C64.1146851,10.5892944,63.8132935,9.9710083,63.177124,9.609314z M55.748291,7.0759888h5.3790283
			c0.425293-0.0020752,0.7301025,0.086731,0.9067993,0.2192383c0.177002,0.1314087,0.2592773,0.2871094,0.2630615,0.5584717
			v0.2993164c-0.0037842,0.2946777-0.0854492,0.446167-0.25,0.5709229c-0.1676025,0.1239624-0.461792,0.2085571-0.8878784,0.2049561
			H55.748291V7.0759888z M62.4954834,11.4963989c-0.0059814,0.2598267-0.0911865,0.4110107-0.3004761,0.5510864
			c-0.213623,0.1361084-0.5775757,0.2281494-1.0825195,0.2225342H55.748291v-1.9151001h5.1981201
			c0.7807617,0,1.1870728,0.1242676,1.350769,0.2529907c0.1595459,0.1260986,0.1923218,0.2703247,0.1983032,0.555481V11.4963989z
			 M73.541687,13.7015381h1.6124268V8.578186c0.0009155-0.8579712-0.2092285-1.5962524-0.7254028-2.1171875
			c-0.5162964-0.5223999-1.3043213-0.784668-2.3596191-0.784668l-3.2990723,0.0032959
			c-1.3187256-0.0050049-2.086731,0.3237915-2.5129395,0.8342896c-0.4226685,0.5084229-0.4503784,1.1220093-0.4503784,1.5811157
			v0.2576904h1.6428223V8.0950317c0-0.3406372,0.0313721-0.5511475,0.184082-0.6911011
			c0.1497192-0.1489258,0.5518799-0.3016357,1.4125977-0.2975464h2.8991699c0.6114502,0,1.0003052,0.1593018,1.2383423,0.3839111
			c0.2420654,0.2299194,0.3562622,0.5354004,0.3579712,0.9082031v0.4310303
			c-0.25177-0.1361084-0.6174927-0.2406006-1.1390991-0.2336426h-4.3745728c-0.8582153,0-1.5057373,0.187439-1.9518433,0.5530396
			c-0.4470825,0.3607788-0.652771,0.8945923-0.6501465,1.4685059v0.9109497
			c-0.0041504,0.7079468,0.262146,1.2909546,0.7644653,1.6543579c0.4968872,0.3648682,1.1817017,0.517395,2.0181885,0.5187988
			h4.2549438c0.46698-0.0014038,0.8248901-0.1429443,1.078064-0.2994995V13.7015381z M73.2250977,11.9885254
			c-0.2039185,0.1719971-0.5593872,0.2871094-1.0944214,0.2871094h-3.7092896c-0.6281128,0-0.9783936-0.1192017-1.1494751-0.2575073
			c-0.1660156-0.1361084-0.2293091-0.3165894-0.2319946-0.6124878v-0.5458374
			c0.0026855-0.3256226,0.0545044-0.4865723,0.206604-0.6072998c0.1535645-0.1245728,0.5119629-0.2321167,1.1748657-0.2288208
			h3.7092896c0.4984131,0,0.855835,0.1027222,1.0748291,0.2746582c0.2105103,0.1716919,0.3320923,0.416748,0.3361816,0.8330688
			C73.5388184,11.5612183,73.4281006,11.8129883,73.2250977,11.9885254z M79.6204224,10.7109375V7.1712036h5.7575684v6.5946045
			h1.6116943V5.7420044h-8.980957v4.9370117c0.0019531,0.6376953-0.1296387,1.0509033-0.3369141,1.289978
			c-0.206604,0.2409058-0.5167236,0.3634033-1.0144043,0.3666992H76.078125v1.4301147h0.5792847
			c0.9041138,0,1.661377-0.2344971,2.1851807-0.7562256C79.3649902,12.4880981,79.6224976,11.710022,79.6204224,10.7109375z
			 M89.7512817,12.4354248V5.800415h-1.6112061v8.0236206h2.2401123l6.1166382-6.585022v6.585022h1.6087646V5.800415H95.914917
			L89.7512817,12.4354248z M100.8668823,10.303894h6.7435913v3.5267334h1.611145V5.8071899h-1.611145v3.0685425h-6.7435913
			V5.8071899h-1.6129761v8.0234375h1.6129761V10.303894z M112.2470093,10.0662842h0.8173828l4.5275879,3.737915h2.4060059
			l-5.4403076-4.4052734l5.1278076-3.616333h-2.6422729l-3.9540405,2.8580933h-0.8421631V5.7825928h-1.6112061v8.0216064h1.6112061
			V10.0662842z M32.5786743,17.9728394c-0.0251465-0.0110474-0.0612793-0.0217285-0.1079712-0.0249023
			c-0.0441284-0.0092163-0.0980225-0.0092163-0.1633911-0.0092163c-0.0665283,0-0.1177979,0-0.1577148,0.0092163
			c-0.0408936,0.0031738-0.0759888,0.0105591-0.1063232,0.0227661c-0.0283813,0.0109863-0.052002,0.0231323-0.0739746,0.0462036
			c-0.0192261,0.013916-0.0371704,0.0369873-0.0560913,0.0632935l-1.7988892,2.4534302
			c-0.0838013,0.1104736-0.1613159,0.2205811-0.2335205,0.3356934c-0.0728149,0.1094971-0.1428833,0.2246094-0.2166748,0.343811
			c0.0094604-0.1192017,0.0169067-0.2357178,0.0230713-0.3560181c0.0056152-0.1174316,0.0095215-0.237915,0.0095215-0.3618164
			v-2.4151001c0-0.0493774-0.0269165-0.0844116-0.0844116-0.1040649c-0.0529175-0.0250244-0.1574097-0.0374146-0.3048096-0.0374146
			c-0.0728149,0-0.131897,0-0.1813965,0.0092163c-0.0493774,0.0031738-0.088501,0.013855-0.118103,0.0249023
			c-0.0305176,0.012146-0.0496826,0.0275879-0.0620728,0.0472412c-0.0092163,0.0142212-0.0151978,0.0370483-0.0151978,0.0601196
			v4.1882935c0,0.0217285,0.0059814,0.0405884,0.0151978,0.0623169c0.0123901,0.0161743,0.02948,0.0303955,0.0567627,0.0407715
			c0.0263062,0.0106201,0.0610352,0.0198975,0.1044922,0.0263062c0.0426025,0.0060425,0.098999,0.0095215,0.1689453,0.0095215
			c0.0565796,0,0.1065674,0,0.1459961-0.0076294c0.0410767-0.0050659,0.0739746-0.012146,0.1022949-0.0231934
			c0.0253906-0.0106812,0.0465088-0.0230713,0.0634155-0.0422974c0.0162964-0.0210571,0.0374756-0.0423584,0.0582886-0.0657959
			l1.7749023-2.425293c0.0857544-0.1184082,0.1713867-0.2351685,0.2575073-0.3544922
			c0.0845947-0.1184082,0.1629639-0.2406006,0.2346802-0.3652954c-0.0095825,0.1213989-0.0184937,0.2454224-0.0244141,0.3695068
			c-0.0064697,0.1259766-0.0083008,0.2495117-0.0083008,0.3701172v2.4054565c0,0.0217285,0.0065918,0.0405884,0.0181274,0.0623169
			c0.0124512,0.0161743,0.0335083,0.0303955,0.0644531,0.0407715c0.0314331,0.0106201,0.0708008,0.0198975,0.1217041,0.0263062
			c0.0488281,0.0060425,0.1104126,0.0095215,0.1852417,0.0095215c0.0742798,0,0.137085-0.003479,0.1858521-0.0095215
			c0.0483398-0.0064087,0.0888062-0.015686,0.1172485-0.0263062c0.027771-0.010376,0.0466919-0.0245972,0.0595093-0.0407715
			c0.0119019-0.0217285,0.0182495-0.0405884,0.0182495-0.0623169v-4.1838989c0-0.0250854-0.0054932-0.050293-0.0147705-0.0645142
			C32.6234131,18.0004272,32.6062012,17.9849854,32.5786743,17.9728394z M38.132019,17.9761353
			c-0.0275269-0.0143433-0.0663452-0.0250244-0.1152954-0.0281982c-0.0489502-0.0092163-0.1119995-0.0092163-0.18573-0.0092163
			c-0.0773926,0-0.1405029,0-0.1911011,0.0092163c-0.0487671,0.0031738-0.0872803,0.013855-0.114563,0.0281982
			c-0.0287476,0.012085-0.0479126,0.0286865-0.0612183,0.0439453c-0.0130005,0.0184326-0.0195313,0.0394287-0.0195313,0.0645142
			v1.6970215h-2.1306763v-1.6970215c0-0.0250854-0.0070801-0.0460815-0.0183105-0.0645142
			c-0.0136108-0.0152588-0.0321655-0.0318604-0.0609131-0.0439453c-0.0288086-0.0143433-0.0657959-0.0250244-0.1165771-0.0281982
			c-0.0488892-0.0092163-0.112793-0.0092163-0.189209-0.0092163c-0.0747681,0-0.1375732,0-0.1864624,0.0092163
			c-0.0493164,0.0031738-0.0876465,0.013855-0.1189575,0.0281982c-0.0286865,0.012085-0.0488892,0.0286865-0.0597534,0.0439453
			c-0.0107422,0.0184326-0.0169067,0.0394287-0.0169067,0.0645142v4.1807861c0,0.0230103,0.0061646,0.0437012,0.0169067,0.0600586
			c0.0108643,0.0159912,0.0310669,0.0324707,0.0597534,0.0446777c0.031311,0.012085,0.0696411,0.0213623,0.1189575,0.027771
			c0.0488892,0.0060425,0.1116943,0.0095215,0.1864624,0.0095215c0.076416,0,0.1403198-0.003479,0.189209-0.0095215
			c0.0507813-0.0064087,0.0877686-0.015686,0.1165771-0.027771c0.0287476-0.012207,0.0473022-0.0286865,0.0609131-0.0446777
			c0.0112305-0.0163574,0.0183105-0.0370483,0.0183105-0.0600586v-1.8390503h2.1306763v1.8390503
			c0,0.0230103,0.0065308,0.0437012,0.0195313,0.0600586c0.0133057,0.0159912,0.0324707,0.0324707,0.0612183,0.0446777
			c0.0272827,0.012085,0.0657959,0.0213623,0.114563,0.027771c0.0505981,0.0060425,0.1137085,0.0095215,0.1911011,0.0095215
			c0.0737305,0,0.1367798-0.003479,0.18573-0.0095215c0.0489502-0.0064087,0.0877686-0.015686,0.1152954-0.027771
			c0.0293579-0.012207,0.0479736-0.0286865,0.0621948-0.0446777c0.012085-0.0163574,0.0177002-0.0370483,0.0177002-0.0600586
			v-4.1807861c0-0.0250854-0.0056152-0.0460815-0.0177002-0.0645142
			C38.1799927,18.0048218,38.161377,17.9882202,38.132019,17.9761353z M42.9937134,18.0465088
			c-0.0144043-0.0264282-0.0310059-0.0507202-0.0494385-0.0631104c-0.0209961-0.0126953-0.0440674-0.0183105-0.0671997-0.0183105
			h-3.2741699c-0.0263062,0-0.0480957,0.0056152-0.0662842,0.0183105c-0.0183105,0.0123901-0.0355225,0.0366821-0.0482178,0.0631104
			c-0.0136108,0.0303955-0.0247803,0.067688-0.0328979,0.1104126c-0.0076904,0.0440674-0.0109253,0.09198-0.0109253,0.1488037
			c0,0.0614624,0.0032349,0.1134033,0.0109253,0.1593018c0.0081177,0.0479126,0.0172729,0.0848999,0.0305786,0.1118774
			c0.0115356,0.0263062,0.0281372,0.0493774,0.0488281,0.0599976c0.0186157,0.0153809,0.041687,0.0231323,0.0679932,0.0231323
			h1.253418v3.6053467c0,0.0230103,0.0047607,0.0437012,0.0150757,0.0600586
			c0.0115967,0.0159912,0.0322876,0.0324707,0.0615845,0.0446777c0.0275269,0.012085,0.0693359,0.0213623,0.1193237,0.027771
			c0.0487671,0.0060425,0.1082153,0.0095215,0.1848755,0.0095215c0.0759888,0,0.1400146-0.003479,0.1896973-0.0095215
			c0.050293-0.0064087,0.088501-0.015686,0.1172485-0.027771c0.0275879-0.012207,0.0476685-0.0286865,0.0592651-0.0446777
			c0.012085-0.0163574,0.0178833-0.0370483,0.0178833-0.0600586v-3.6053467h1.2557983
			c0.0270386,0,0.0509033-0.0077515,0.069519-0.0231323c0.0192871-0.0106201,0.0335083-0.0336914,0.048584-0.0599976
			c0.0130005-0.0269775,0.0233154-0.0639648,0.0299072-0.1087036c0.0046997-0.041687,0.0095215-0.0968018,0.0095215-0.1550903
			c0-0.0568237-0.0048218-0.1088867-0.0112915-0.1530151C43.0147095,18.1141968,43.0031738,18.0769043,42.9937134,18.0465088z
			 M47.3167114,18.4578247c-0.1480103-0.1784058-0.3375854-0.3225098-0.5682373-0.427002
			c-0.2310791-0.1027222-0.508667-0.1557007-0.8395996-0.1557007c-0.3042603,0-0.5814819,0.0529785-0.8285522,0.1591797
			c-0.2498169,0.1071777-0.4609375,0.260498-0.635498,0.4631958c-0.1749268,0.196228-0.3096313,0.4418945-0.4013062,0.725708
			c-0.0923462,0.2871094-0.1400146,0.609375-0.1400146,0.9677124c0,0.3809204,0.046814,0.7097778,0.1358032,0.994812
			c0.0894165,0.2837524,0.2208862,0.5229492,0.3980713,0.7091064c0.1776123,0.1895752,0.3954468,0.3343506,0.6529541,0.4264526
			c0.2577515,0.0961914,0.5602417,0.1456299,0.9046631,0.1456299c0.1976929,0,0.3833008-0.0136108,0.559082-0.0458984
			c0.1743164-0.027832,0.3279419-0.0598145,0.4611206-0.0997314c0.1343994-0.0328979,0.2415161-0.0725098,0.3270264-0.1088867
			c0.0838013-0.0429688,0.131958-0.0692749,0.149353-0.0874023c0.0185547-0.015564,0.03125-0.0354614,0.0409546-0.0509033
			c0.0117798-0.0183105,0.0188599-0.0413818,0.0238647-0.064209c0.0048218-0.0229492,0.0089111-0.0493774,0.0106812-0.0813599
			c0.0039063-0.0248413,0.0062256-0.0599976,0.0062256-0.1030273c0-0.0546875-0.0037842-0.1026001-0.0079956-0.1411133
			c-0.0040894-0.0372925-0.0112305-0.0692749-0.0206909-0.0908813c-0.0090942-0.0230103-0.0217896-0.0385132-0.0392456-0.0491943
			c-0.0169678-0.0087891-0.0367432-0.0147095-0.0586548-0.0147095c-0.038208,0-0.0911255,0.0147095-0.1652222,0.050293
			c-0.0731201,0.0311279-0.1657104,0.0671997-0.2802734,0.1077271c-0.1118164,0.0393677-0.2471313,0.076416-0.4046021,0.1083984
			c-0.1550293,0.0339966-0.3314209,0.0493774-0.5311279,0.0493774c-0.2528076,0-0.4649658-0.0369873-0.6398926-0.1062622
			c-0.1743164-0.0731201-0.3145752-0.1755371-0.4232178-0.3080444c-0.1095581-0.1314697-0.1870728-0.2913818-0.2328491-0.4785767
			c-0.0477295-0.184082-0.0705566-0.3912354-0.0705566-0.6257324h2.7521362c0.0767212,0,0.1480713-0.0262451,0.2070923-0.0757446
			c0.0604248-0.0535278,0.0919189-0.1361084,0.0919189-0.2607422V19.854126c0-0.2749023-0.0344238-0.5300293-0.1049194-0.7702026
			C47.5770874,18.8441162,47.4667969,18.633606,47.3167114,18.4578247z M44.6989746,19.7633057
			c0.0048218-0.1674805,0.0352173-0.3311157,0.0888062-0.4882813c0.052124-0.1560059,0.126709-0.2927246,0.2241211-0.4125977
			c0.0966797-0.1177368,0.2175293-0.210144,0.3615723-0.2824097c0.1409302-0.0704346,0.307251-0.1055908,0.4974976-0.1055908
			c0.3712158,0,0.6505127,0.1130981,0.8393555,0.3432617c0.1879883,0.2303467,0.2774048,0.5455322,0.2687988,0.9456177H44.6989746z
			 M52.8477783,18.5339355c-0.1342773-0.2051392-0.3067627-0.3649292-0.520752-0.4832153
			c-0.2142944-0.1193237-0.4735107-0.1755981-0.7756958-0.1755981c-0.1393433,0-0.2728271,0.0162964-0.397522,0.0496826
			c-0.1262817,0.0296021-0.2474365,0.0800171-0.3677979,0.1433105c-0.1177979,0.0623779-0.2362061,0.1422729-0.3530884,0.2376099
			c-0.118103,0.0953979-0.2429199,0.2086792-0.3688354,0.3388672v-0.5599976c0-0.0285645-0.0056152-0.050293-0.0158691-0.067688
			c-0.0112915-0.0164795-0.0306396-0.0319214-0.0569458-0.0440674c-0.0292969-0.0110474-0.0638428-0.0217285-0.1061401-0.0249023
			c-0.0418091-0.0092163-0.0944214-0.0092163-0.1593018-0.0092163c-0.0633545,0-0.1157227,0-0.1583252,0.0092163
			c-0.0432739,0.0031738-0.0778198,0.013855-0.1065063,0.0249023c-0.0283813,0.012146-0.0471191,0.0275879-0.0565186,0.0440674
			c-0.0091553,0.017395-0.0126953,0.0391235-0.0126953,0.067688v5.8372192c0,0.0263062,0.0053101,0.0458984,0.015625,0.0639038
			c0.0111694,0.0192871,0.0303955,0.0352783,0.0606689,0.0458984c0.0290527,0.0108643,0.0681152,0.0230103,0.1184082,0.0263062
			c0.0491333,0.0109863,0.1122437,0.0142822,0.1849365,0.0142822c0.0774536,0,0.1414795-0.0032959,0.1905518-0.0142822
			c0.050354-0.0032959,0.0888062-0.0154419,0.1166382-0.0263062c0.0266724-0.0106201,0.0479736-0.0266113,0.0600586-0.0458984
			c0.0127563-0.0180054,0.0192261-0.0375977,0.0192261-0.0639038v-2.090332
			c0.1104736,0.1091309,0.2149048,0.2012329,0.3161011,0.2811279c0.0979004,0.0838013,0.1992188,0.1489258,0.2984009,0.2006226
			c0.1021118,0.0550537,0.2037964,0.0941772,0.3093262,0.1151733c0.1040649,0.0264282,0.2191772,0.0385132,0.3432617,0.0385132
			c0.2911377,0,0.5487061-0.0527344,0.7756348-0.1625366c0.2248535-0.1117554,0.4161987-0.2671509,0.5687866-0.4696655
			c0.1530762-0.2020874,0.2705688-0.449585,0.3486938-0.7407837c0.0784912-0.2939453,0.1193237-0.621521,0.1193237-0.9852295
			c0-0.303894-0.0335083-0.5910034-0.0935059-0.8605957C53.0814209,18.9776001,52.9846191,18.737915,52.8477783,18.5339355z
			 M52.3817749,20.7789917c-0.039978,0.1889038-0.1048584,0.3632202-0.1903687,0.517395
			c-0.0842896,0.1536255-0.1976318,0.2776489-0.3361816,0.3696289c-0.1376343,0.0961914-0.3031006,0.142395-0.4969482,0.142395
			c-0.2080688,0-0.4083862-0.0692749-0.5985718-0.2053833c-0.1889038-0.1368408-0.390686-0.3330078-0.6018066-0.5889282v-1.6635742
			c0.1213989-0.1503906,0.2374268-0.2809448,0.3449097-0.3806152c0.1088867-0.1074829,0.213623-0.1915283,0.3132935-0.2515869
			c0.0994873-0.06604,0.1984253-0.1118164,0.2954102-0.1414185c0.0964966-0.0269775,0.1925659-0.0429688,0.2941895-0.0429688
			c0.1986084,0,0.364624,0.0460815,0.4998779,0.1382446c0.1346436,0.09375,0.2400513,0.2198486,0.3190308,0.3743286
			c0.0795898,0.1536255,0.1351929,0.3311157,0.168396,0.52948c0.0324707,0.2015381,0.0499878,0.4053955,0.0499878,0.621521
			C52.4429932,20.3909912,52.4223022,20.5822144,52.3817749,20.7789917z M58.4483032,17.9761353
			c-0.0266724-0.0143433-0.0662842-0.0250244-0.1174927-0.0281982c-0.0474243-0.0092163-0.1096802-0.0092163-0.1835327-0.0092163
			c-0.0789795,0-0.1405029,0-0.1911621,0.0092163c-0.0488281,0.0031738-0.0878906,0.013855-0.1157227,0.0281982
			c-0.0280151,0.012085-0.0473633,0.0286865-0.0595093,0.0439453c-0.0126953,0.0184326-0.0203857,0.0394287-0.0203857,0.0645142
			v1.6970215h-2.130188v-1.6970215c0-0.0250854-0.0059814-0.0460815-0.0194092-0.0645142
			c-0.0106812-0.0152588-0.031311-0.0318604-0.0617065-0.0439453c-0.0270996-0.0143433-0.0661011-0.0250244-0.1149902-0.0281982
			c-0.0482178-0.0092163-0.1121216-0.0092163-0.1904907-0.0092163c-0.0743408,0-0.1353149,0-0.1862183,0.0092163
			c-0.0487671,0.0031738-0.0872803,0.013855-0.1184082,0.0281982c-0.0266113,0.012085-0.0479126,0.0286865-0.0592041,0.0439453
			c-0.0105591,0.0184326-0.0169067,0.0394287-0.0169067,0.0645142v4.1807861c0,0.0230103,0.0063477,0.0437012,0.0169067,0.0600586
			c0.0112915,0.0159912,0.0325928,0.0324707,0.0592041,0.0446777c0.0311279,0.012085,0.0696411,0.0213623,0.1184082,0.027771
			c0.0509033,0.0060425,0.1118774,0.0095215,0.1862183,0.0095215c0.0783691,0,0.1422729-0.003479,0.1904907-0.0095215
			c0.0488892-0.0064087,0.0878906-0.015686,0.1149902-0.027771c0.0303955-0.012207,0.0510254-0.0286865,0.0617065-0.0446777
			c0.0134277-0.0163574,0.0194092-0.0370483,0.0194092-0.0600586v-1.8390503h2.130188v1.8390503
			c0,0.0230103,0.0076904,0.0437012,0.0203857,0.0600586c0.012146,0.0159912,0.0314941,0.0324707,0.0595093,0.0446777
			c0.027832,0.012085,0.0668945,0.0213623,0.1157227,0.027771c0.0506592,0.0060425,0.1121826,0.0095215,0.1911621,0.0095215
			c0.0738525,0,0.1361084-0.003479,0.1835327-0.0095215c0.0512085-0.0064087,0.0908203-0.015686,0.1174927-0.027771
			c0.0281982-0.012207,0.0485229-0.0286865,0.0612183-0.0446777c0.0106812-0.0163574,0.0180664-0.0370483,0.0180664-0.0600586
			v-4.1807861c0-0.0250854-0.0073853-0.0460815-0.0180664-0.0645142
			C58.4968262,18.0048218,58.4765015,17.9882202,58.4483032,17.9761353z M63.5587769,18.4578247
			c-0.1478882-0.1784058-0.336792-0.3225098-0.5687866-0.427002c-0.2293701-0.1027222-0.5095825-0.1557007-0.8374634-0.1557007
			c-0.3078003,0-0.5848389,0.0529785-0.831604,0.1591797c-0.248291,0.1071777-0.4588013,0.260498-0.6331177,0.4631958
			c-0.1743164,0.196228-0.3110962,0.4418945-0.4022217,0.725708c-0.0943604,0.2871094-0.1394653,0.609375-0.1394653,0.9677124
			c0,0.3809204,0.0432739,0.7097778,0.135376,0.994812c0.0886841,0.2837524,0.222229,0.5229492,0.3983154,0.7091064
			c0.1776123,0.1895752,0.3944702,0.3343506,0.6522827,0.4264526c0.2595215,0.0961914,0.5588379,0.1456299,0.9028931,0.1456299
			c0.1983032,0,0.3865967-0.0136108,0.5609131-0.0458984c0.1734009-0.027832,0.3278809-0.0598145,0.4622803-0.0997314
			c0.1317139-0.0328979,0.2399292-0.0725098,0.324707-0.1088867c0.0812988-0.0429688,0.133728-0.0692749,0.1502075-0.0874023
			c0.0161133-0.015564,0.0322876-0.0354614,0.0415039-0.0509033c0.0106201-0.0183105,0.0195313-0.0413818,0.0249023-0.064209
			c0.0046997-0.0229492,0.0087891-0.0493774,0.0103149-0.0813599c0.0040894-0.0248413,0.0040894-0.0599976,0.0040894-0.1030273
			c0-0.0546875-0.0014076-0.1026001-0.0056152-0.1411133c-0.0040894-0.0372925-0.0126953-0.0692749-0.0222168-0.0908813
			c-0.0081787-0.0230103-0.0206909-0.0385132-0.039856-0.0491943c-0.0178223-0.0087891-0.0361328-0.0147095-0.0571289-0.0147095
			c-0.036499,0-0.0932007,0.0147095-0.1663818,0.050293c-0.0728149,0.0311279-0.1669312,0.0671997-0.2808228,0.1077271
			c-0.112793,0.0393677-0.2476807,0.076416-0.4013672,0.1083984c-0.156311,0.0339966-0.3338013,0.0493774-0.5328979,0.0493774
			c-0.2515869,0-0.465332-0.0369873-0.6381226-0.1062622c-0.1757813-0.0731201-0.3175659-0.1755371-0.4249878-0.3080444
			c-0.1096191-0.1314697-0.1885986-0.2913818-0.2335205-0.4785767c-0.0479736-0.184082-0.0716553-0.3912354-0.0716553-0.6257324
			h2.7529907c0.0787964,0,0.1471558-0.0262451,0.2070923-0.0757446c0.0609741-0.0535278,0.0921631-0.1361084,0.0921631-0.2607422
			V19.854126c0-0.2749023-0.0361938-0.5300293-0.104248-0.7702026
			C63.8171997,18.8441162,63.7067871,18.633606,63.5587769,18.4578247z M60.9393311,19.7633057
			c0.0076904-0.1674805,0.0366821-0.3311157,0.0899658-0.4882813c0.0515137-0.1560059,0.1264038-0.2927246,0.2241211-0.4125977
			c0.0951538-0.1177368,0.2168579-0.210144,0.3585815-0.2824097c0.1447754-0.0704346,0.3117065-0.1055908,0.4998779-0.1055908
			c0.3718262,0,0.651123,0.1130981,0.8388062,0.3432617c0.1896973,0.2303467,0.2785034,0.5455322,0.2713013,0.9456177H60.9393311z
			 M68.4797974,18.0465088c-0.0119019-0.0264282-0.0297241-0.0507202-0.0494995-0.0631104
			c-0.0197754-0.0126953-0.0413818-0.0183105-0.0678101-0.0183105h-3.2741699c-0.0239258,0-0.0440063,0.0056152-0.0648193,0.0183105
			c-0.017395,0.0123901-0.0336914,0.0366821-0.0482178,0.0631104c-0.0117798,0.0303955-0.0230713,0.067688-0.0335083,0.1104126
			c-0.0064697,0.0440674-0.0111694,0.09198-0.0111694,0.1488037c0,0.0614624,0.0046997,0.1134033,0.0111694,0.1593018
			c0.010437,0.0479126,0.0202026,0.0848999,0.0303345,0.1118774c0.0144653,0.0263062,0.0296021,0.0493774,0.0496826,0.0599976
			c0.0216064,0.0153809,0.0426025,0.0231323,0.0665283,0.0231323h1.2557983v3.6053467
			c0,0.0230103,0.0047607,0.0437012,0.0174561,0.0600586c0.0080566,0.0159912,0.0298462,0.0324707,0.0591431,0.0446777
			c0.0296631,0.012085,0.065979,0.0213623,0.116394,0.027771c0.0512085,0.0060425,0.1126709,0.0095215,0.1860962,0.0095215
			c0.0770264,0,0.1414795-0.003479,0.1906738-0.0095215c0.0508423-0.0064087,0.0887451-0.015686,0.1165161-0.027771
			c0.0280762-0.012207,0.0494995-0.0286865,0.0601807-0.0446777c0.0132446-0.0163574,0.0187988-0.0370483,0.0187988-0.0600586
			v-3.6053467h1.2531128c0.0285034,0,0.0512085-0.0077515,0.0709839-0.0231323
			c0.0178223-0.0106201,0.0344238-0.0336914,0.048645-0.0599976c0.013855-0.0269775,0.0241699-0.0639648,0.0304565-0.1087036
			c0.0065308-0.041687,0.0097046-0.0968018,0.0097046-0.1550903c0-0.0568237-0.0050049-0.1088867-0.0126953-0.1530151
			C68.5015869,18.1141968,68.4926758,18.0769043,68.4797974,18.0465088z M71.4050293,19.7849121
			c-0.0148315-0.0263062-0.0303345-0.0424805-0.0510254-0.0535278c-0.0197754-0.0098877-0.0426025-0.0139771-0.0675049-0.0139771
			h-1.9420166c-0.0559082,0-0.0952759,0.0250244-0.1260986,0.0675049c-0.026001,0.0493774-0.0402832,0.1317139-0.0402832,0.2481079
			c0,0.1184082,0.0142822,0.2014771,0.0402832,0.2476196c0.0308228,0.050354,0.0701904,0.0733643,0.1260986,0.0733643h1.9420166
			c0.0532837,0,0.0922241-0.0230103,0.1203003-0.067688c0.027832-0.0493774,0.0424805-0.1329346,0.0424805-0.2532959
			c0-0.0568848-0.0040894-0.1083984-0.0114746-0.1489258C71.4285889,19.8447266,71.4196777,19.8137207,71.4050293,19.7849121z
			 M76.2528076,17.9650879h-3.0596924c-0.0754395,0-0.132019,0.0198975-0.175415,0.0657349
			c-0.0415039,0.0460815-0.0615845,0.1118164-0.0615845,0.2058716v4.0286865c0,0.0230103,0.0046997,0.0437012,0.0144043,0.0600586
			c0.0130005,0.0159912,0.0314941,0.0324707,0.0615845,0.0446777c0.0289917,0.012085,0.0687256,0.0213623,0.1184082,0.027771
			c0.0488892,0.0060425,0.112793,0.0095215,0.1849976,0.0095215c0.0758057,0,0.1367188-0.003479,0.1860962-0.0095215
			c0.050415-0.0064087,0.0888062-0.015686,0.1184082-0.027771c0.0288086-0.012207,0.050293-0.0286865,0.0632935-0.0446777
			c0.012085-0.0163574,0.0189819-0.0370483,0.0189819-0.0600586v-3.6514893h1.9912109v3.6514893
			c0,0.0230103,0.0062256,0.0437012,0.0197754,0.0600586c0.0115356,0.0159912,0.0338135,0.0324707,0.0625,0.0446777
			c0.0281372,0.012085,0.0689087,0.0213623,0.1177368,0.027771c0.0494995,0.0060425,0.1134033,0.0095215,0.1897583,0.0095215
			c0.0749512,0,0.1364136-0.003479,0.1861572-0.0095215c0.0494995-0.0064087,0.0869751-0.015686,0.1153564-0.027771
			c0.0294189-0.012207,0.0488892-0.0286865,0.0621948-0.0446777c0.0130005-0.0163574,0.0177002-0.0370483,0.0177002-0.0600586
			v-4.0286865c0-0.0940552-0.0194702-0.15979-0.0606079-0.2058716
			C76.3847046,17.9849854,76.3269043,17.9650879,76.2528076,17.9650879z M81.838623,18.5339355
			c-0.1343384-0.2051392-0.3074341-0.3649292-0.5223389-0.4832153c-0.2128906-0.1193237-0.4714966-0.1755981-0.7745972-0.1755981
			c-0.1395874,0-0.2710571,0.0162964-0.3980713,0.0496826c-0.1248169,0.0296021-0.2474365,0.0800171-0.3657227,0.1433105
			c-0.1207886,0.0623779-0.2376709,0.1422729-0.3560181,0.2376099c-0.1166992,0.0953979-0.2406616,0.2086792-0.3656006,0.3388672
			v-0.5599976c0-0.0285645-0.0061646-0.050293-0.017395-0.067688c-0.0119019-0.0164795-0.0296021-0.0319214-0.0568848-0.0440674
			C78.9515991,17.961792,78.9171753,17.9511108,78.875,17.947937c-0.0418701-0.0092163-0.0936279-0.0092163-0.1583862-0.0092163
			c-0.0625,0-0.1152344,0-0.1596069,0.0092163c-0.0429077,0.0031738-0.0775146,0.013855-0.1062012,0.0249023
			c-0.0278931,0.012146-0.0452881,0.0275879-0.0535278,0.0440674c-0.0097656,0.017395-0.0145874,0.0391235-0.0145874,0.067688
			v5.8372192c0,0.0263062,0.0048218,0.0458984,0.0145874,0.0639038c0.0118408,0.0192871,0.0328369,0.0352783,0.0599976,0.0458984
			c0.0305176,0.0108643,0.0681152,0.0230103,0.1193237,0.0263062c0.0493774,0.0109863,0.1118774,0.0142822,0.1860962,0.0142822
			c0.0769043,0,0.1417847-0.0032959,0.1889038-0.0142822c0.0510864-0.0032959,0.0897217-0.0154419,0.1182861-0.0263062
			c0.0273438-0.0106201,0.0480347-0.0266113,0.0592041-0.0458984c0.0131226-0.0180054,0.0198364-0.0375977,0.0198364-0.0639038
			v-2.090332c0.1104736,0.1091309,0.2163696,0.2012329,0.3140869,0.2811279
			c0.1002808,0.0838013,0.1997681,0.1489258,0.3012695,0.2006226c0.1000366,0.0550537,0.2017212,0.0941772,0.309021,0.1151733
			c0.1032104,0.0264282,0.2183228,0.0385132,0.3421021,0.0385132c0.2926025,0,0.5510254-0.0527344,0.7758789-0.1625366
			c0.225647-0.1117554,0.4176025-0.2671509,0.5688477-0.4696655c0.1551514-0.2020874,0.2702637-0.449585,0.3490601-0.7407837
			c0.0789795-0.2939453,0.1165161-0.621521,0.1165161-0.9852295c0-0.303894-0.0296021-0.5910034-0.090332-0.8605957
			C82.072998,18.9776001,81.9727173,18.737915,81.838623,18.5339355z M81.3712769,20.7789917
			c-0.039978,0.1889038-0.1032715,0.3632202-0.1873779,0.517395c-0.0869751,0.1536255-0.1987915,0.2776489-0.3378906,0.3696289
			c-0.1367798,0.0961914-0.3043213,0.142395-0.4984131,0.142395c-0.2080688,0-0.4077759-0.0692749-0.5960693-0.2053833
			c-0.1896973-0.1368408-0.3912354-0.3330078-0.6026001-0.5889282v-1.6635742
			c0.1201782-0.1503906,0.2352905-0.2809448,0.3450928-0.3806152c0.1087036-0.1074829,0.2124634-0.1915283,0.3110962-0.2515869
			c0.1008911-0.06604,0.1991577-0.1118164,0.2959595-0.1414185c0.0961304-0.0269775,0.1958008-0.0429688,0.2954102-0.0429688
			c0.197937,0,0.3651123,0.0460815,0.4989014,0.1382446c0.1348877,0.09375,0.2399902,0.2198486,0.3208008,0.3743286
			c0.0791016,0.1536255,0.1348877,0.3311157,0.1688232,0.52948c0.0319214,0.2015381,0.0480957,0.4053955,0.0480957,0.621521
			C81.4331055,20.3909912,81.4135742,20.5822144,81.3712769,20.7789917z M87.2316284,18.4744263
			c-0.1711426-0.1950073-0.3839111-0.3439331-0.6390381-0.4468994c-0.2553711-0.1027222-0.5567017-0.1524048-0.8994141-0.1524048
			c-0.3560791,0-0.666748,0.0562744-0.9331665,0.1713867c-0.2648926,0.1135864-0.4891968,0.2734985-0.6680298,0.4818115
			c-0.1774902,0.208374-0.3103638,0.4556885-0.3977661,0.7396851c-0.0888062,0.2880859-0.1312866,0.602478-0.1312866,0.9404907
			c0,0.3560181,0.0410767,0.6735229,0.123291,0.949707c0.0855713,0.276123,0.2105103,0.5137939,0.3815918,0.7103271
			c0.1710815,0.1950073,0.3847046,0.3438721,0.6386108,0.4447021c0.2566528,0.104248,0.5548706,0.1536865,0.8988647,0.1536865
			c0.3536377,0,0.6641235-0.0565796,0.9313354-0.1734009c0.2683716-0.1152344,0.4918823-0.2761841,0.668457-0.4851074
			c0.1786499-0.2094727,0.3126221-0.4552002,0.4023438-0.7423096c0.0881958-0.2838135,0.1345825-0.598999,0.1345825-0.9389648
			c0-0.3496094-0.0426025-0.664856-0.1271973-0.944397C87.5274048,18.906189,87.401123,18.6705933,87.2316284,18.4744263z
			 M86.871582,20.8424072c-0.0489502,0.2020874-0.1280518,0.3740234-0.2334595,0.5197144
			c-0.1080322,0.1427002-0.2435913,0.2576904-0.4081421,0.3394775c-0.1656494,0.0837402-0.3607788,0.1206055-0.583252,0.1206055
			c-0.2495117,0-0.4543457-0.0438843-0.6212158-0.1334229c-0.1651001-0.0875854-0.296814-0.2052002-0.3969116-0.3572998
			c-0.0963135-0.1501465-0.1663208-0.3255005-0.2103882-0.5281982c-0.0413818-0.1994629-0.0625-0.4142456-0.0625-0.645752
			c0-0.2362061,0.0263672-0.4557495,0.0769653-0.6582031c0.0518188-0.2015381,0.130249-0.3729248,0.2366943-0.5217285
			c0.1072388-0.1477661,0.2421265-0.2592773,0.4046021-0.3439941c0.1643066-0.0765991,0.361145-0.1192017,0.5895386-0.1192017
			c0.2462158,0,0.453186,0.0457764,0.6176758,0.130188c0.1654053,0.0921021,0.2977905,0.210144,0.3936157,0.3626099
			c0.0985718,0.1525879,0.1672974,0.3278809,0.2089233,0.5294189c0.0420532,0.1992188,0.0636597,0.416687,0.0636597,0.6409912
			C86.9473877,20.4185791,86.9226074,20.6408081,86.871582,20.8424072z M91.8526001,19.9813843
			c0.2451172-0.0689697,0.4315186-0.1872559,0.5565186-0.355957c0.1259766-0.1687012,0.1868896-0.3703003,0.1868896-0.6019897
			c0-0.1808472-0.0343018-0.3418579-0.1035156-0.4818115c-0.0692749-0.1361084-0.1776123-0.2557983-0.3237915-0.3510132
			c-0.1450195-0.0952759-0.3292236-0.1672974-0.5477905-0.2177734c-0.218811-0.0480347-0.4799805-0.0750122-0.7796021-0.0750122
			c-0.1077271,0-0.2086182,0.0025024-0.310791,0.0039063c-0.1036377,0.0032959-0.2003174,0.0065918-0.2977295,0.0106812
			c-0.0952148,0.0036011-0.1896973,0.0123901-0.2808838,0.0189819c-0.0905151,0.0040894-0.1784058,0.0106201-0.2583008,0.0230103
			c-0.1182861,0.0126953-0.2056885,0.0535889-0.2615967,0.1192017c-0.0574951,0.0678711-0.0869751,0.1663818-0.0869751,0.2904053
			v3.5996704c0,0.133606,0.0309448,0.2327271,0.0895996,0.2978516c0.0583496,0.0639038,0.1494751,0.1067505,0.2734985,0.1228027
			c0.0863647,0.0088501,0.173645,0.0154419,0.2636719,0.0230713c0.0866699,0.0067749,0.1754761,0.0100708,0.2642822,0.0136108
			c0.092041,0.0073853,0.1829224,0.0123901,0.2796021,0.0123901h0.2977905c0.3255005,0,0.6081543-0.026001,0.8535156-0.0864258
			c0.2446899-0.0625,0.4484253-0.1505737,0.6135254-0.2662964c0.1657715-0.1170044,0.2894897-0.2617798,0.3717041-0.4335938
			c0.0830078-0.1698608,0.125-0.366394,0.125-0.5841675c0-0.2806396-0.0758057-0.5181885-0.2321167-0.7044067
			C92.390625,20.1710815,92.1604004,20.0457153,91.8526001,19.9813843z M90.0899048,18.5111084
			c0.0822144-0.010376,0.1834106-0.0181274,0.3060913-0.0263062c0.1196899-0.0070801,0.2529297-0.010376,0.399231-0.010376
			c0.1911011,0,0.3556519,0.0136108,0.4903564,0.039978c0.1348877,0.0272217,0.2433472,0.071106,0.3287964,0.1257324
			c0.0855103,0.0582886,0.1470947,0.1228638,0.1832275,0.2039795c0.0383911,0.0830688,0.0549927,0.1704712,0.0549927,0.2749023
			c0,0.2194214-0.0825195,0.3930054-0.2520752,0.5137939c-0.1703491,0.1184082-0.4133301,0.175293-0.7310181,0.175293h-0.7796021
			V18.5111084z M91.9268799,21.4022827c-0.0437622,0.0959473-0.1118774,0.1809082-0.2047729,0.2480469
			c-0.0964966,0.0692749-0.2128296,0.1204834-0.3560181,0.1580811c-0.1430054,0.0336914-0.3134155,0.0526733-0.5150757,0.0526733
			c-0.0557861,0-0.1188354-0.0036011-0.184021-0.0067749c-0.0661011-0.0015259-0.1331787-0.0072021-0.1997681-0.012207
			c-0.0665283-0.0040894-0.1304932-0.0073853-0.1959229-0.012085c-0.0625-0.0056152-0.1240234-0.0151978-0.1813965-0.0216064
			v-1.4816284h0.7467041c0.2003784,0,0.3746948,0.0163574,0.5214844,0.0458984
			c0.1478882,0.0304565,0.2675171,0.0767212,0.3640137,0.140625c0.0928955,0.0618286,0.1610107,0.1384888,0.2047729,0.2337036
			c0.0441284,0.0936279,0.0656128,0.2022095,0.0656128,0.3256226
			C91.9924927,21.1932983,91.9710083,21.3037109,91.9268799,21.4022827z M97.1549072,18.2775879
			c-0.131897-0.1349487-0.3024292-0.234375-0.5095825-0.3000488c-0.2119141-0.0704346-0.4676514-0.102417-0.7695313-0.102417
			c-0.1591797,0-0.3184204,0.0144043-0.4777222,0.0408936c-0.1567993,0.0319214-0.3022461,0.0689697-0.4367676,0.1148071
			c-0.1326294,0.0460815-0.2509155,0.0941162-0.3508911,0.1455688c-0.1030884,0.0571289-0.175293,0.1044312-0.2167358,0.1436157
			c-0.0426025,0.0408325-0.0680542,0.0811157-0.0792847,0.1295166c-0.0111694,0.043457-0.0147705,0.104187-0.0147705,0.1798706
			c0,0.0480347,0.001709,0.0922241,0.0083008,0.1276855c0.0046997,0.0409546,0.0164795,0.0727539,0.02948,0.0976563
			c0.0136719,0.0230713,0.0308838,0.0446777,0.048584,0.0550537c0.0183105,0.0140991,0.0414429,0.0216064,0.0651245,0.0216064
			c0.0379028,0,0.0935059-0.0252075,0.1693115-0.0689697c0.0758057-0.0447388,0.1698608-0.0950317,0.2828979-0.1473999
			c0.1137085-0.0563965,0.2450562-0.1068115,0.394165-0.1486206c0.1503906-0.0460815,0.3203125-0.0689087,0.5101929-0.0689087
			c0.1758423,0,0.3250122,0.0187378,0.4458008,0.0626831c0.1183472,0.0415039,0.2191162,0.1048584,0.2935181,0.1845093
			c0.076416,0.081604,0.1326904,0.1867065,0.1669312,0.3098145c0.0332031,0.1246338,0.0497437,0.2664185,0.0497437,0.4262085
			v0.3240967h-0.5758667c-0.3237915,0-0.6151123,0.02948-0.876709,0.09021
			c-0.2597656,0.0545044-0.4812012,0.1380005-0.6594238,0.2550659c-0.180481,0.1116333-0.315979,0.2563477-0.414856,0.4321289
			c-0.0952148,0.1719971-0.1427002,0.3776245-0.1427002,0.611084c0,0.2025146,0.0344849,0.3807373,0.1054688,0.541687
			c0.0679932,0.1564941,0.1663208,0.2911987,0.2911377,0.3990479c0.12677,0.1081543,0.2776489,0.1872559,0.4546509,0.2481689
			c0.1781006,0.0551147,0.3776245,0.0847168,0.5978394,0.0847168c0.2498169,0,0.4882813-0.0527344,0.7125854-0.1610107
			c0.2244263-0.1094971,0.4285889-0.2623291,0.6096802-0.4572144v0.4197998c0,0.0374146,0.0113525,0.0657959,0.0332031,0.085022
			c0.022522,0.0166016,0.0562134,0.0308228,0.1065063,0.0396729c0.0455933,0.0107422,0.1107178,0.0142212,0.1904907,0.0142212
			c0.0841064,0,0.1481323-0.003479,0.1925049-0.0142212c0.0425415-0.0088501,0.0758057-0.0230713,0.1000366-0.0396729
			c0.0230103-0.0192261,0.0372925-0.0476074,0.0372925-0.085022v-2.8182983c0-0.2639771-0.0289917-0.4892578-0.0881958-0.6842651
			C97.3781128,18.572998,97.2846069,18.4055176,97.1549072,18.2775879z M96.7636719,21.2470093
			c-0.1881714,0.2086182-0.3692627,0.366272-0.5415649,0.4692993c-0.1710815,0.0985107-0.3569336,0.1522217-0.5587158,0.1522217
			c-0.2473755,0-0.440979-0.0640259-0.5783691-0.1934204c-0.1378174-0.1289063-0.2059937-0.3007813-0.2059937-0.5169067
			c0-0.1293945,0.0230713-0.2398071,0.0704956-0.3364868c0.0490723-0.0977173,0.1247559-0.1809082,0.2260742-0.2498779
			c0.1035767-0.0733032,0.2290039-0.1245117,0.3859253-0.15625c0.1550903-0.0386963,0.336792-0.0570679,0.5487061-0.0570679
			h0.6534424V21.2470093z M103.0568848,17.9728394c-0.0255127-0.0110474-0.0609741-0.0217285-0.1054077-0.0249023
			c-0.0465698-0.0092163-0.1018066-0.0092163-0.1662598-0.0092163c-0.0668945,0-0.1183472,0-0.1586304,0.0092163
			c-0.0401611,0.0031738-0.074585,0.0105591-0.102417,0.0227661c-0.03125,0.0109863-0.0567627,0.0231323-0.0757446,0.0462036
			c-0.0212402,0.013916-0.0396118,0.0369873-0.0580444,0.0632935l-1.7969971,2.4534302
			c-0.0852661,0.1104736-0.1621704,0.2205811-0.2355957,0.3356934c-0.071106,0.1094971-0.1444092,0.2246094-0.2166138,0.343811
			c0.0093994-0.1192017,0.0183105-0.2357178,0.0254517-0.3560181c0.0064697-0.1174316,0.0094604-0.237915,0.0094604-0.3618164
			v-2.4151001c0-0.0493774-0.0296021-0.0844116-0.0858765-0.1040649c-0.0543823-0.0250244-0.1555786-0.0374146-0.3041992-0.0374146
			c-0.0723267,0-0.1337891,0-0.1829224,0.0092163c-0.0484619,0.0031738-0.0869751,0.013855-0.1182861,0.0249023
			c-0.0285034,0.012146-0.0491943,0.0275879-0.0604248,0.0472412c-0.0100708,0.0142212-0.0153809,0.0370483-0.0153809,0.0601196
			v4.1882935c0,0.0217285,0.0053101,0.0405884,0.0153809,0.0623169c0.0112305,0.0161743,0.029541,0.0303955,0.0574341,0.0407715
			c0.026001,0.0106201,0.0584717,0.0198975,0.1035767,0.0263062c0.0425415,0.0060425,0.0988159,0.0095215,0.1669312,0.0095215
			c0.0592041,0,0.1082764,0,0.1485596-0.0076294c0.0408325-0.0050659,0.0734253-0.012146,0.0999146-0.0231934
			c0.0267334-0.0106812,0.0480347-0.0230713,0.0645752-0.0422974c0.0165405-0.0210571,0.0361328-0.0423584,0.0580444-0.0657959
			l1.7738647-2.425293c0.0870361-0.1184082,0.1722412-0.2351685,0.2576294-0.3544922
			c0.0858154-0.1184082,0.1633911-0.2406006,0.2354736-0.3652954c-0.0089111,0.1213989-0.0159912,0.2454224-0.0241699,0.3695068
			c-0.0065918,0.1259766-0.0083008,0.2495117-0.0083008,0.3701172v2.4054565c0,0.0217285,0.0064697,0.0405884,0.0183105,0.0623169
			c0.0123901,0.0161743,0.0343628,0.0303955,0.0656738,0.0407715c0.0296021,0.0106201,0.0704956,0.0198975,0.1220093,0.0263062
			c0.0473022,0.0060425,0.1094971,0.0095215,0.184082,0.0095215c0.0734253,0,0.1379395-0.003479,0.1846313-0.0095215
			c0.052063-0.0064087,0.0893555-0.015686,0.1178589-0.0263062c0.02771-0.010376,0.0478516-0.0245972,0.059021-0.0407715
			c0.0119019-0.0217285,0.0178223-0.0405884,0.0178223-0.0623169v-4.1838989c0-0.0250854-0.0046997-0.050293-0.0153198-0.0645142
			C103.1030884,18.0004272,103.0830078,17.9849854,103.0568848,17.9728394z M102.5241699,15.953186
			c-0.0491943-0.0088501-0.1106567-0.012085-0.184082-0.012085c-0.0728149,0-0.1290894,0.0032349-0.1715698,0.012085
			c-0.0408936,0.0079956-0.0722046,0.0189209-0.0959473,0.0350952c-0.0237427,0.0176392-0.0390625,0.0353394-0.0479736,0.059021
			c-0.0070801,0.0223999-0.0106201,0.048584-0.0106201,0.0825195c0,0.0982666-0.0166016,0.1914673-0.0473633,0.2761841
			c-0.0314331,0.0872803-0.0775146,0.1599121-0.1368408,0.2255859c-0.0637817,0.0599976-0.1377563,0.107605-0.2247925,0.1455078
			c-0.0888062,0.0311279-0.1906738,0.0494385-0.3060913,0.0494385c-0.1176758,0-0.2219849-0.0183105-0.310791-0.0494385
			c-0.0899048-0.0379028-0.1663208-0.0855103-0.2302246-0.1455078c-0.0626831-0.0656738-0.1117554-0.1367798-0.1425781-0.2213745
			c-0.0319824-0.0797119-0.0455933-0.1716919-0.0455933-0.2728882c0-0.0336914-0.0046997-0.062439-0.0112305-0.0889282
			c-0.0076904-0.0247803-0.0230713-0.0424805-0.0455933-0.0601196c-0.024292-0.0161743-0.057373-0.0270996-0.1000977-0.0350952
			c-0.0455933-0.0088501-0.1029053-0.012085-0.1762695-0.012085c-0.0681152,0-0.1273193,0.0032349-0.1752319,0.012085
			c-0.0473633,0.0046997-0.0869751,0.0142212-0.1160889,0.0263062c-0.031311,0.013916-0.0496826,0.0305176-0.0614624,0.0494385
			c-0.0107422,0.0209961-0.0148315,0.0500488-0.0148315,0.0810547c0,0.1974487,0.0289917,0.3759155,0.0905151,0.5321045
			c0.0598145,0.1595459,0.1497803,0.2941895,0.2687988,0.4056396c0.1184082,0.1099854,0.2686768,0.1900024,0.4473877,0.2514648
			c0.1751709,0.0585327,0.383606,0.0873413,0.617981,0.0873413c0.256897,0,0.4765015-0.0319214,0.6547241-0.0998535
			c0.180481-0.0670776,0.3272705-0.1552734,0.4420776-0.2745972c0.1143188-0.1165771,0.1976929-0.2515869,0.2504272-0.4048462
			c0.0526733-0.1550293,0.0775146-0.321106,0.0775146-0.4972534c0-0.0310059-0.0053101-0.0600586-0.0165405-0.0810547
			c-0.0130615-0.0189209-0.0349121-0.0355225-0.0628052-0.0494385
			C102.607605,15.9674072,102.5715942,15.9578857,102.5241699,15.953186z M109.3063965,21.7319946h-0.5795898v-3.4953003
			c0-0.0940552-0.0213013-0.15979-0.0626831-0.2058716c-0.0409546-0.0458374-0.100708-0.0657349-0.1740112-0.0657349h-2.3221436
			c-0.0396729,0-0.0697632,0.0056152-0.0987549,0.0166016c-0.0273438,0.0107422-0.0515137,0.029541-0.0710449,0.0491333
			c-0.0200806,0.0198975-0.0355835,0.0460815-0.0474854,0.083374c-0.0105591,0.0338135-0.0183105,0.0731201-0.0258789,0.1193237
			c-0.0574951,0.5274048-0.1220093,0.9822998-0.1923828,1.3656006c-0.0728149,0.3789673-0.1503296,0.7045898-0.2350464,0.9760132
			c-0.0857544,0.2711792-0.178772,0.4957886-0.2764893,0.6750488c-0.1005859,0.1809082-0.2052612,0.3401489-0.3208008,0.4818115
			h-0.2987671c-0.0693359,0-0.1179199,0.0107422-0.1415405,0.0355225c-0.0254517,0.024292-0.0385742,0.074585-0.0385742,0.1503906
			v1.8624268c0,0.0230713,0.0053711,0.041687,0.0167236,0.0550537c0.0117798,0.0153198,0.0289917,0.024292,0.0560913,0.0370483
			c0.0255737,0.0064697,0.0592651,0.0135498,0.1001587,0.0213013c0.0431519,0.0049438,0.0975952,0.0083008,0.1616211,0.0083008
			c0.059082,0,0.1082764-0.0033569,0.1478271-0.0083008c0.0415649-0.0077515,0.0740967-0.0148315,0.1000977-0.0213013
			c0.027771-0.0127563,0.0443726-0.0217285,0.0545044-0.0370483c0.0083008-0.0133667,0.0117798-0.0319824,0.0117798-0.0550537
			v-1.3995361h3.7675171v1.3995361c0,0.0230713,0.0053711,0.041687,0.0177612,0.0550537
			c0.0095215,0.0153198,0.027832,0.024292,0.055603,0.0370483c0.0267334,0.0064697,0.0585938,0.0135498,0.098938,0.0213013
			c0.0390015,0.0049438,0.0922852,0.0083008,0.1532593,0.0083008c0.0592041,0,0.1101074-0.0033569,0.1533203-0.0083008
			c0.0437622-0.0077515,0.0787964-0.0148315,0.1047974-0.0213013c0.026001-0.0127563,0.0432129-0.0217285,0.053894-0.0370483
			c0.0089111-0.0133667,0.0136108-0.0319824,0.0136108-0.0550537v-1.8624268c0-0.0758057-0.0136108-0.1260986-0.0421143-0.1503906
			C109.4176025,21.7427368,109.3720093,21.7319946,109.3063965,21.7319946z M107.9561768,21.7319946h-2.2663574
			c0.0928955-0.1168823,0.1833496-0.2484131,0.2703857-0.4005127c0.0864868-0.1501465,0.1669922-0.34375,0.2473755-0.5828857
			c0.0787964-0.2376709,0.1539917-0.52948,0.2220459-0.8748779c0.0704956-0.3496094,0.1380005-0.7745972,0.2018433-1.2808838
			h1.324707V21.7319946z M113.8552856,18.4578247c-0.1486816-0.1784058-0.3399048-0.3225098-0.5700684-0.427002
			c-0.2302246-0.1027222-0.5097046-0.1557007-0.8370361-0.1557007c-0.3052979,0-0.5835571,0.0529785-0.831604,0.1591797
			c-0.2479858,0.1071777-0.4593506,0.260498-0.6327515,0.4631958c-0.1764526,0.196228-0.309021,0.4418945-0.4031372,0.725708
			c-0.0922852,0.2871094-0.1401978,0.609375-0.1401978,0.9677124c0,0.3809204,0.0479126,0.7097778,0.1361084,0.994812
			c0.0892944,0.2837524,0.2225952,0.5229492,0.3994751,0.7091064c0.1758423,0.1895752,0.3937378,0.3343506,0.6517334,0.4264526
			c0.2592163,0.0961914,0.5606079,0.1456299,0.9038696,0.1456299c0.1983032,0,0.3853149-0.0136108,0.5599365-0.0458984
			c0.1740112-0.027832,0.3284912-0.0598145,0.4622803-0.0997314c0.1331177-0.0328979,0.2415161-0.0725098,0.3237915-0.1088867
			c0.0834961-0.0429688,0.133728-0.0692749,0.15271-0.0874023c0.0166016-0.015564,0.0289917-0.0354614,0.0426025-0.0509033
			c0.0089111-0.0183105,0.0166016-0.0413818,0.0206909-0.064209c0.0059814-0.0229492,0.0106812-0.0493774,0.0131226-0.0813599
			c0.0022583-0.0248413,0.0022583-0.0599976,0.0022583-0.1030273c0-0.0546875,0-0.1026001-0.0046997-0.1411133
			c-0.0046997-0.0372925-0.0124512-0.0692749-0.0213623-0.0908813c-0.0100098-0.0230103-0.0236206-0.0385132-0.0402222-0.0491943
			c-0.0170898-0.0087891-0.0366821-0.0147095-0.0598145-0.0147095c-0.0360718,0-0.0904541,0.0147095-0.1627808,0.050293
			c-0.0739136,0.0311279-0.1668091,0.0671997-0.2816772,0.1077271c-0.1124268,0.0393677-0.2485962,0.076416-0.4036255,0.1083984
			c-0.156311,0.0339966-0.3327026,0.0493774-0.5327759,0.0493774c-0.2504272,0-0.4628906-0.0369873-0.6375122-0.1062622
			c-0.1751709-0.0731201-0.3167114-0.1755371-0.4255981-0.3080444c-0.1088257-0.1314697-0.185791-0.2913818-0.2338257-0.4785767
			c-0.0460815-0.184082-0.0704956-0.3912354-0.0704956-0.6257324h2.7537231c0.078125,0,0.1473999-0.0262451,0.2072144-0.0757446
			c0.0614624-0.0535278,0.0935059-0.1361084,0.0935059-0.2607422V19.854126c0-0.2749023-0.0368042-0.5300293-0.1071167-0.7702026
			C114.1126709,18.8441162,114.0042725,18.633606,113.8552856,18.4578247z M111.2346802,19.7633057
			c0.0083008-0.1674805,0.0374146-0.3311157,0.0906372-0.4882813c0.0521851-0.1560059,0.1272583-0.2927246,0.2232056-0.4125977
			c0.0975952-0.1177368,0.2178955-0.210144,0.3616943-0.2824097c0.1401978-0.0704346,0.3095093-0.1055908,0.4989624-0.1055908
			c0.3705444,0,0.649292,0.1130981,0.8369141,0.3432617c0.1882324,0.2303467,0.2794189,0.5455322,0.2686768,0.9456177H111.2346802z
			 M119.385498,18.5339355c-0.1343994-0.2051392-0.309021-0.3649292-0.5216064-0.4832153
			c-0.2147827-0.1193237-0.4729004-0.1755981-0.7758789-0.1755981c-0.1390991,0-0.2706299,0.0162964-0.3966064,0.0496826
			c-0.1248779,0.0296021-0.2485962,0.0800171-0.3670044,0.1433105c-0.1184082,0.0623779-0.2355957,0.1422729-0.3551025,0.2376099
			c-0.1173096,0.0953979-0.2396851,0.2086792-0.3671265,0.3388672v-0.5599976c0-0.0285645-0.005249-0.050293-0.0166016-0.067688
			c-0.0111694-0.0164795-0.0307007-0.0319214-0.0567627-0.0440674c-0.0283813-0.0110474-0.0626221-0.0217285-0.1052856-0.0249023
			c-0.0414429-0.0092163-0.0953369-0.0092163-0.1610107-0.0092163c-0.0615845,0-0.1137085,0-0.1581421,0.0092163
			c-0.0424805,0.0031738-0.0786743,0.013855-0.105896,0.0249023c-0.0289917,0.012146-0.0473633,0.0275879-0.0562744,0.0440674
			c-0.0087891,0.017395-0.0140991,0.0391235-0.0140991,0.067688v5.8372192c0,0.0263062,0.0053101,0.0458984,0.0164795,0.0639038
			c0.0119019,0.0192871,0.0308228,0.0352783,0.0610352,0.0458984c0.0289917,0.0108643,0.0680542,0.0230103,0.1184082,0.0263062
			c0.0496826,0.0109863,0.1118774,0.0142822,0.1858521,0.0142822c0.0775146,0,0.1403198-0.0032959,0.1905518-0.0142822
			c0.0491943-0.0032959,0.0876465-0.0154419,0.1160889-0.0263062c0.026001-0.0106201,0.0466919-0.0266113,0.0603027-0.0458984
			c0.0111694-0.0180054,0.0195923-0.0375977,0.0195923-0.0639038v-2.090332
			c0.1101074,0.1091309,0.2147827,0.2012329,0.3135986,0.2811279c0.0996094,0.0838013,0.1994629,0.1489258,0.3012695,0.2006226
			c0.0995483,0.0550537,0.2025146,0.0941772,0.3085327,0.1151733c0.1040649,0.0264282,0.2196045,0.0385132,0.3421021,0.0385132
			c0.2918091,0,0.5504761-0.0527344,0.7783813-0.1625366c0.2236938-0.1117554,0.4130859-0.2671509,0.5657959-0.4696655
			c0.1539307-0.2020874,0.2698975-0.449585,0.3491821-0.7407837c0.0787964-0.2939453,0.1184082-0.621521,0.1184082-0.9852295
			c0-0.303894-0.0302124-0.5910034-0.0922852-0.8605957C119.6185913,18.9776001,119.5203247,18.737915,119.385498,18.5339355z
			 M118.9177856,20.7789917c-0.0396729,0.1889038-0.1022949,0.3632202-0.1881104,0.517395
			c-0.0858765,0.1536255-0.1977539,0.2776489-0.3363037,0.3696289c-0.1390991,0.0961914-0.3029785,0.142395-0.4966431,0.142395
			c-0.2106323,0-0.4090576-0.0692749-0.5995483-0.2053833c-0.1900024-0.1368408-0.3900757-0.3330078-0.600769-0.5889282v-1.6635742
			c0.1195068-0.1503906,0.2354736-0.2809448,0.3438721-0.3806152c0.1088867-0.1074829,0.213623-0.1915283,0.3126221-0.2515869
			c0.1004639-0.06604,0.1981812-0.1118164,0.2958984-0.1414185c0.0952148-0.0269775,0.1936035-0.0429688,0.2935181-0.0429688
			c0.1994629,0,0.3670044,0.0460815,0.4989624,0.1382446c0.1345215,0.09375,0.2415161,0.2198486,0.3209229,0.3743286
			c0.079895,0.1536255,0.1361084,0.3311157,0.1697998,0.52948c0.0313721,0.2015381,0.048584,0.4053955,0.048584,0.621521
			C118.9805908,20.3909912,118.9597778,20.5822144,118.9177856,20.7789917z"/>
	</g>
</g>
</svg>
