<svg id="Слой_1" data-name="Слой 1" xmlns="http://www.w3.org/2000/svg" viewBox="0 0 120 25.03"><defs><style>.cls-1{opacity:0.6;}.cls-2{fill:#afb2b2;}</style></defs><title>Nevalink LOGO</title><g class="cls-1"><path class="cls-2" d="M22,0H3A2.72,2.72,0,0,0,0,3V22c0,1.92,1.08,3.16,3,3H22a2.66,2.66,0,0,0,3-3V3A2.72,2.72,0,0,0,22,0Zm2,4-8,6v4.09L24,8V22c0,1.47-.54,2-2,2H3c-1.51,0-2-.52-2-2V21L9,15v-4L1,17V3c0-1.51.51-2,2-2H22c1.42,0,2,.57,2,2V3.94ZM14,2H12L2,10v4L11,7l0,16h1.94l10.07-8V11l-9,7V2ZM40.86,13.7V2.64H39.25V7.21H30.4V2.64H28.79V13.7H30.4V8.79h8.84V13.7h1.61Zm8.74,0a2.91,2.91,0,0,0,2.29-.88A2.69,2.69,0,0,0,52.5,11V10.78H50.88V11a1.13,1.13,0,0,1-.33.87,1.63,1.63,0,0,1-1.15.35H45.84a2,2,0,0,1-1.32-.38,1.72,1.72,0,0,1-.51-1.4V10H52.5V8.55a2.69,2.69,0,0,0-.89-2A3.75,3.75,0,0,0,49,5.64H45.86a3.6,3.6,0,0,0-2.55.94,2.91,2.91,0,0,0-.9,2.08v2a2.9,2.9,0,0,0,.88,2.29,3.84,3.84,0,0,0,2.6.77h3.71Zm-3.9-6.63h3.43A1.57,1.57,0,0,1,50.87,8.6H44A1.58,1.58,0,0,1,45.69,7.08ZM63.18,9.61a1.68,1.68,0,0,0,.73-1.46V7.85a2,2,0,0,0-.74-1.62A3.51,3.51,0,0,0,61,5.65H54.14V13.7h7a3.62,3.62,0,0,0,2.21-.58,2,2,0,0,0,.75-1.63V11.16A1.78,1.78,0,0,0,63.18,9.61ZM55.75,7.08h5.38A1.53,1.53,0,0,1,62,7.3a0.63,0.63,0,0,1,.26.56v0.3a0.64,0.64,0,0,1-.25.57,1.5,1.5,0,0,1-.89.2H55.75V7.08ZM62.5,11.5a0.6,0.6,0,0,1-.3.55,2,2,0,0,1-1.08.22H55.75V10.35h5.2a2.41,2.41,0,0,1,1.35.25,0.61,0.61,0,0,1,.2.56V11.5Zm11,2.21h1.61V8.58a2.9,2.9,0,0,0-.73-2.12,3.19,3.19,0,0,0-2.36-.78h-3.3a3.07,3.07,0,0,0-2.51.83,2.35,2.35,0,0,0-.45,1.58V8.35h1.64V8.1a0.87,0.87,0,0,1,.18-0.69A2.14,2.14,0,0,1,69,7.11h2.9a1.74,1.74,0,0,1,1.24.38,1.2,1.2,0,0,1,.36.91V8.83A2.3,2.3,0,0,0,72.4,8.6H68a3,3,0,0,0-2,.55,1.82,1.82,0,0,0-.65,1.47v0.91a1.94,1.94,0,0,0,.76,1.65,3.37,3.37,0,0,0,2,.52h4.25a2,2,0,0,0,1.08-.3v0.3ZM73.23,12a1.7,1.7,0,0,1-1.09.29H68.42A1.88,1.88,0,0,1,67.27,12,0.72,0.72,0,0,1,67,11.41V10.86a0.68,0.68,0,0,1,.21-0.61A2,2,0,0,1,68.42,10h3.71a1.74,1.74,0,0,1,1.07.27,1,1,0,0,1,.34.83A1,1,0,0,1,73.23,12Zm6.4-1.28V7.17h5.76v6.59H87v-8H78v4.94A2,2,0,0,1,77.67,12a1.24,1.24,0,0,1-1,.37H76.08v1.43h0.58A3,3,0,0,0,78.84,13,3.12,3.12,0,0,0,79.62,10.71Zm10.13,1.72V5.8H88.14v8h2.24L96.5,7.24v6.59h1.61v-8H95.91Zm11.12-2.13h6.74v3.53h1.61v-8h-1.61V8.88h-6.74V5.81H99.25v8h1.61V10.3Zm11.38-.24h0.82l4.53,3.74H120L114.56,9.4l5.13-3.62H117l-4,2.86h-0.84V5.78h-1.61v8h1.61V10.07ZM32.58,18l-0.11,0H32.15L32,18,32,18l-0.06.06-1.8,2.45c-0.08.11-.16,0.22-0.23,0.34l-0.22.34c0-.12,0-0.24,0-0.36s0-.24,0-0.36V18.08a0.11,0.11,0,0,0-.08-0.1,0.83,0.83,0,0,0-.3,0H29.13L29,18a0.12,0.12,0,0,0-.06,0,0.12,0.12,0,0,0,0,.06v4.19a0.15,0.15,0,0,0,0,.06l0.06,0,0.1,0h0.31l0.1,0,0.06,0,0.06-.07,1.77-2.43,0.26-.35c0.08-.12.16-0.24,0.23-0.37,0,0.12,0,.25,0,0.37s0,0.25,0,.37v2.41a0.13,0.13,0,0,0,0,.06l0.06,0,0.12,0h0.37l0.12,0,0.06,0a0.13,0.13,0,0,0,0-.06V18.08a0.13,0.13,0,0,0,0-.06A0.12,0.12,0,0,0,32.58,18Zm5.55,0-0.12,0H37.64l-0.11,0-0.06,0a0.11,0.11,0,0,0,0,.06v1.7H35.31v-1.7a0.12,0.12,0,0,0,0-.06l-0.06,0-0.12,0H34.74l-0.12,0-0.06,0a0.12,0.12,0,0,0,0,.06v4.18a0.11,0.11,0,0,0,0,.06l0.06,0,0.12,0h0.38l0.12,0,0.06,0a0.11,0.11,0,0,0,0-.06V20.43h2.13v1.84a0.09,0.09,0,0,0,0,.06l0.06,0,0.11,0H38l0.12,0,0.06,0a0.1,0.1,0,0,0,0-.06V18.08a0.11,0.11,0,0,0,0-.06ZM43,18a0.18,0.18,0,0,0,0-.06l-0.07,0H39.6l-0.07,0a0.16,0.16,0,0,0,0,.06,0.5,0.5,0,0,0,0,.11,0.86,0.86,0,0,0,0,.15,1,1,0,0,0,0,.16,0.42,0.42,0,0,0,0,.11,0.12,0.12,0,0,0,0,.06l0.07,0h1.25v3.61a0.11,0.11,0,0,0,0,.06l0.06,0,0.12,0h0.37l0.12,0,0.06,0a0.1,0.1,0,0,0,0-.06V18.66h1.26l0.07,0a0.15,0.15,0,0,0,0-.06,0.39,0.39,0,0,0,0-.11,1.4,1.4,0,0,0,0-.16,1.06,1.06,0,0,0,0-.15A1,1,0,0,0,43,18Zm4.32,0.41A1.57,1.57,0,0,0,46.75,18a2.05,2.05,0,0,0-.84-0.16,2.08,2.08,0,0,0-.83.16,1.72,1.72,0,0,0-.64.46,2,2,0,0,0-.4.73,3.15,3.15,0,0,0-.14,1,3.33,3.33,0,0,0,.14,1,1.79,1.79,0,0,0,.4.71,1.64,1.64,0,0,0,.65.43,2.59,2.59,0,0,0,.9.15,3.09,3.09,0,0,0,.56,0,3.61,3.61,0,0,0,.46-0.1,2.1,2.1,0,0,0,.33-0.11l0.15-.09,0-.05a0.2,0.2,0,0,0,0-.06,0.53,0.53,0,0,0,0-.08,0.7,0.7,0,0,0,0-.1,1.29,1.29,0,0,0,0-.14,0.33,0.33,0,0,0,0-.09,0.1,0.1,0,0,0,0,0H47.45a0.41,0.41,0,0,0-.17.05L47,21.69a3.07,3.07,0,0,1-.4.11,2.5,2.5,0,0,1-.53,0,1.73,1.73,0,0,1-.64-0.11A1.07,1.07,0,0,1,45,21.43,1.17,1.17,0,0,1,44.77,21a2.49,2.49,0,0,1-.07-0.63h2.75a0.32,0.32,0,0,0,.21-0.08A0.33,0.33,0,0,0,47.75,20V19.85a2.71,2.71,0,0,0-.1-0.77A1.65,1.65,0,0,0,47.32,18.46ZM44.7,19.76a1.66,1.66,0,0,1,.09-0.49A1.3,1.3,0,0,1,45,18.86a1.07,1.07,0,0,1,.86-0.39,1,1,0,0,1,.84.34,1.4,1.4,0,0,1,.27.95H44.7Zm8.15-1.23a1.45,1.45,0,0,0-.52-0.48,1.57,1.57,0,0,0-.78-0.18,1.54,1.54,0,0,0-.4,0,1.55,1.55,0,0,0-.37.14,2.17,2.17,0,0,0-.35.24,4.11,4.11,0,0,0-.37.34V18.08A0.13,0.13,0,0,0,50,18L50,18l-0.11,0H49.57l-0.11,0L49.4,18a0.14,0.14,0,0,0,0,.07v5.84a0.12,0.12,0,0,0,0,.06,0.11,0.11,0,0,0,.06,0l0.12,0H50l0.12,0a0.12,0.12,0,0,0,.06,0,0.1,0.1,0,0,0,0-.06V21.83a3.8,3.8,0,0,0,.32.28,1.58,1.58,0,0,0,.3.2,1.1,1.1,0,0,0,.31.12,1.4,1.4,0,0,0,.34,0,1.76,1.76,0,0,0,.78-0.16,1.59,1.59,0,0,0,.57-0.47,2.13,2.13,0,0,0,.35-0.74,3.81,3.81,0,0,0,.12-1,4,4,0,0,0-.09-0.86A2.13,2.13,0,0,0,52.85,18.53Zm-0.47,2.25a1.86,1.86,0,0,1-.19.52,1,1,0,0,1-.34.37,0.84,0.84,0,0,1-.5.14,1,1,0,0,1-.6-0.21,3.38,3.38,0,0,1-.6-0.59V19.35A3.69,3.69,0,0,1,50.5,19a1.72,1.72,0,0,1,.31-0.25,1.13,1.13,0,0,1,.3-0.14,1.08,1.08,0,0,1,.29,0,0.87,0.87,0,0,1,.5.14,1,1,0,0,1,.32.37,1.79,1.79,0,0,1,.17.53,3.87,3.87,0,0,1,0,.62A2.86,2.86,0,0,1,52.38,20.78ZM58.45,18l-0.12,0H58l-0.12,0-0.06,0a0.11,0.11,0,0,0,0,.06v1.7H55.63v-1.7a0.11,0.11,0,0,0,0-.06l-0.06,0-0.11,0H55.06l-0.12,0-0.06,0a0.13,0.13,0,0,0,0,.06v4.18a0.11,0.11,0,0,0,0,.06l0.06,0,0.12,0h0.38l0.11,0,0.06,0a0.09,0.09,0,0,0,0-.06V20.43h2.13v1.84a0.1,0.1,0,0,0,0,.06l0.06,0,0.12,0h0.37l0.12,0,0.06,0a0.11,0.11,0,0,0,0-.06V18.08a0.13,0.13,0,0,0,0-.06Zm5.11,0.48A1.56,1.56,0,0,0,63,18a2,2,0,0,0-.84-0.16,2.08,2.08,0,0,0-.83.16,1.72,1.72,0,0,0-.63.46,2,2,0,0,0-.4.73,3.09,3.09,0,0,0-.14,1,3.23,3.23,0,0,0,.14,1,1.8,1.8,0,0,0,.4.71,1.64,1.64,0,0,0,.65.43,2.58,2.58,0,0,0,.9.15,3.1,3.1,0,0,0,.56,0,3.71,3.71,0,0,0,.46-0.1,2.13,2.13,0,0,0,.32-0.11l0.15-.09,0-.05,0-.06a0.52,0.52,0,0,0,0-.08,0.73,0.73,0,0,0,0-.1,1.36,1.36,0,0,0,0-.14,0.32,0.32,0,0,0,0-.09,0.08,0.08,0,0,0,0,0H63.69a0.42,0.42,0,0,0-.17.05l-0.28.11-0.4.11a2.53,2.53,0,0,1-.53,0,1.72,1.72,0,0,1-.64-0.11,1.06,1.06,0,0,1-.42-0.31A1.16,1.16,0,0,1,61,21a2.48,2.48,0,0,1-.07-0.63h2.75a0.32,0.32,0,0,0,.21-0.08A0.32,0.32,0,0,0,64,20V19.85a2.8,2.8,0,0,0-.1-0.77A1.71,1.71,0,0,0,63.56,18.46Zm-2.62,1.31A1.77,1.77,0,0,1,61,19.28a1.28,1.28,0,0,1,.22-0.41,1.09,1.09,0,0,1,.36-0.28,1.13,1.13,0,0,1,.5-0.11,1,1,0,0,1,.84.34,1.4,1.4,0,0,1,.27.95H60.94ZM68.48,18a0.15,0.15,0,0,0,0-.06l-0.07,0H65.09L65,18A0.2,0.2,0,0,0,65,18l0,0.11a1,1,0,0,0,0,.15,1.12,1.12,0,0,0,0,.16,0.85,0.85,0,0,0,0,.11,0.14,0.14,0,0,0,0,.06l0.07,0h1.26v3.61a0.1,0.1,0,0,0,0,.06l0.06,0,0.12,0h0.38l0.12,0,0.06,0a0.09,0.09,0,0,0,0-.06V18.66h1.25l0.07,0a0.16,0.16,0,0,0,0-.06,0.35,0.35,0,0,0,0-.11,1.06,1.06,0,0,0,0-.16,0.9,0.9,0,0,0,0-.15A0.53,0.53,0,0,0,68.48,18Zm2.93,1.74a0.13,0.13,0,0,0-.05-0.05h-2a0.15,0.15,0,0,0-.13.07,0.57,0.57,0,0,0,0,.25,0.55,0.55,0,0,0,0,.25,0.14,0.14,0,0,0,.13.07h1.94a0.13,0.13,0,0,0,.12-0.07,0.55,0.55,0,0,0,0-.25,0.86,0.86,0,0,0,0-.15A0.43,0.43,0,0,0,71.41,19.78ZM76.25,18H73.19A0.23,0.23,0,0,0,73,18a0.29,0.29,0,0,0-.06.21v4a0.12,0.12,0,0,0,0,.06l0.06,0,0.12,0h0.37l0.12,0,0.06,0a0.1,0.1,0,0,0,0-.06V18.61h2v3.65a0.09,0.09,0,0,0,0,.06l0.06,0,0.12,0h0.38l0.12,0,0.06,0a0.09,0.09,0,0,0,0-.06v-4A0.3,0.3,0,0,0,76.42,18,0.21,0.21,0,0,0,76.25,18Zm5.59,0.57a1.45,1.45,0,0,0-.52-0.48,1.73,1.73,0,0,0-1.17-.13,1.53,1.53,0,0,0-.37.14,2.13,2.13,0,0,0-.36.24,4.15,4.15,0,0,0-.37.34V18.08A0.12,0.12,0,0,0,79,18L79,18l-0.11,0H78.56l-0.11,0a0.1,0.1,0,0,0-.05,0,0.14,0.14,0,0,0,0,.07v5.84a0.13,0.13,0,0,0,0,.06,0.12,0.12,0,0,0,.06,0l0.12,0H79l0.12,0a0.11,0.11,0,0,0,.06,0,0.1,0.1,0,0,0,0-.06V21.83c0.11,0.11.22,0.2,0.31,0.28a1.6,1.6,0,0,0,.3.2,1.06,1.06,0,0,0,.31.12,1.39,1.39,0,0,0,.34,0,1.75,1.75,0,0,0,.78-0.16,1.57,1.57,0,0,0,.57-0.47,2.1,2.1,0,0,0,.35-0.74,3.8,3.8,0,0,0,.12-1,3.91,3.91,0,0,0-.09-0.86A2.19,2.19,0,0,0,81.84,18.53Zm-0.47,2.25a1.9,1.9,0,0,1-.19.52,1.06,1.06,0,0,1-.34.37,0.85,0.85,0,0,1-.5.14,1,1,0,0,1-.6-0.21,3.37,3.37,0,0,1-.6-0.59V19.35A3.33,3.33,0,0,1,79.49,19a1.74,1.74,0,0,1,.31-0.25,1.16,1.16,0,0,1,.3-0.14,1.1,1.1,0,0,1,.3,0,0.86,0.86,0,0,1,.5.14,1,1,0,0,1,.32.37,1.83,1.83,0,0,1,.17.53,3.94,3.94,0,0,1,0,.62A2.74,2.74,0,0,1,81.37,20.78Zm5.86-2.3A1.66,1.66,0,0,0,86.59,18a2.41,2.41,0,0,0-.9-0.15,2.34,2.34,0,0,0-.93.17,1.8,1.8,0,0,0-.67.48,2.06,2.06,0,0,0-.4.74,3.18,3.18,0,0,0-.13.94,3.34,3.34,0,0,0,.12.95,1.94,1.94,0,0,0,.38.71,1.64,1.64,0,0,0,.64.44,2.37,2.37,0,0,0,.9.15,2.31,2.31,0,0,0,.93-0.17,1.78,1.78,0,0,0,.67-0.49,2.08,2.08,0,0,0,.4-0.74,3.16,3.16,0,0,0,.13-0.94,3.26,3.26,0,0,0-.13-0.94A2,2,0,0,0,87.23,18.47Zm-0.36,2.37a1.46,1.46,0,0,1-.23.52,1.15,1.15,0,0,1-.41.34,1.28,1.28,0,0,1-.58.12A1.3,1.3,0,0,1,85,21.69a1.06,1.06,0,0,1-.4-0.36,1.6,1.6,0,0,1-.21-0.53,3.17,3.17,0,0,1-.06-0.65,2.71,2.71,0,0,1,.08-0.66A1.54,1.54,0,0,1,84.67,19a1.14,1.14,0,0,1,.4-0.34,1.39,1.39,0,0,1,.59-0.12,1.35,1.35,0,0,1,.62.13,1.06,1.06,0,0,1,.39.36,1.53,1.53,0,0,1,.21.53,3.13,3.13,0,0,1,.06.64A2.71,2.71,0,0,1,86.87,20.84Zm5-.86a1,1,0,0,0,.56-0.36A1,1,0,0,0,92.6,19a1.07,1.07,0,0,0-.1-0.48,0.92,0.92,0,0,0-.32-0.35A1.69,1.69,0,0,0,91.62,18a3.67,3.67,0,0,0-.78-0.08H90.23l-0.28,0-0.26,0a0.38,0.38,0,0,0-.26.12,0.44,0.44,0,0,0-.09.29V22a0.37,0.37,0,0,0,.36.42l0.26,0h0.84a3.6,3.6,0,0,0,.85-0.09,1.86,1.86,0,0,0,.61-0.27,1.12,1.12,0,0,0,.37-0.43,1.32,1.32,0,0,0,.13-0.58,1.06,1.06,0,0,0-.23-0.7A1.17,1.17,0,0,0,91.85,20Zm-1.76-1.47,0.31,0h0.4a2.6,2.6,0,0,1,.49,0,1,1,0,0,1,.33.13,0.49,0.49,0,0,1,.18.2,0.63,0.63,0,0,1,.05.27,0.59,0.59,0,0,1-.25.51,1.27,1.27,0,0,1-.73.18H90.09v-1.3Zm1.84,2.89a0.62,0.62,0,0,1-.2.25,1.06,1.06,0,0,1-.36.16,2.26,2.26,0,0,1-.52.05H90.27l-0.18,0V20.33h0.75a2.67,2.67,0,0,1,.52,0,1,1,0,0,1,.36.14,0.56,0.56,0,0,1,.2.23,0.76,0.76,0,0,1,.07.33A0.8,0.8,0,0,1,91.93,21.4Zm5.23-3.12a1.21,1.21,0,0,0-.51-0.3,2.46,2.46,0,0,0-.77-0.1,2.91,2.91,0,0,0-.48,0A3.56,3.56,0,0,0,95,18l-0.35.15a1.15,1.15,0,0,0-.22.14,0.26,0.26,0,0,0-.08.13,0.78,0.78,0,0,0,0,.18,0.74,0.74,0,0,0,0,.13,0.28,0.28,0,0,0,0,.1l0,0.06,0.07,0a0.41,0.41,0,0,0,.17-0.07l0.28-.15a2.26,2.26,0,0,1,.39-0.15,1.74,1.74,0,0,1,.51-0.07,1.32,1.32,0,0,1,.45.06,0.73,0.73,0,0,1,.29.18,0.74,0.74,0,0,1,.17.31,1.66,1.66,0,0,1,0,.43V19.8H96.19a3.88,3.88,0,0,0-.88.09,1.91,1.91,0,0,0-.66.26,1.18,1.18,0,0,0-.41.43,1.25,1.25,0,0,0-.14.61,1.32,1.32,0,0,0,.11.54,1.1,1.1,0,0,0,.29.4,1.38,1.38,0,0,0,.45.25,2,2,0,0,0,.6.08,1.62,1.62,0,0,0,.71-0.16,2.07,2.07,0,0,0,.61-0.46v0.42a0.11,0.11,0,0,0,0,.09l0.11,0h0.38l0.1,0a0.11,0.11,0,0,0,0-.09V19.45a2.35,2.35,0,0,0-.09-0.68A1.15,1.15,0,0,0,97.15,18.28Zm-0.39,3a2.46,2.46,0,0,1-.54.47,1.1,1.1,0,0,1-.56.15,0.81,0.81,0,0,1-.58-0.19,0.67,0.67,0,0,1-.21-0.52,0.75,0.75,0,0,1,.07-0.34,0.66,0.66,0,0,1,.23-0.25,1,1,0,0,1,.39-0.16,2.28,2.28,0,0,1,.55-0.06h0.65v0.89ZM103.06,18l-0.11,0h-0.32l-0.1,0a0.16,0.16,0,0,0-.08,0l-0.06.06-1.8,2.45c-0.09.11-.16,0.22-0.24,0.34l-0.22.34c0-.12,0-0.24,0-0.36s0-.24,0-0.36V18.08a0.11,0.11,0,0,0-.09-0.1,0.83,0.83,0,0,0-.3,0H99.6l-0.12,0a0.12,0.12,0,0,0-.06,0,0.11,0.11,0,0,0,0,.06v4.19a0.14,0.14,0,0,0,0,.06l0.06,0,0.1,0H99.9l0.1,0,0.06,0,0.06-.07,1.77-2.43,0.26-.35a4.21,4.21,0,0,0,.24-0.37c0,0.12,0,.25,0,0.37s0,0.25,0,.37v2.41a0.13,0.13,0,0,0,0,.06l0.07,0,0.12,0h0.37l0.12,0,0.06,0a0.12,0.12,0,0,0,0-.06V18.08a0.12,0.12,0,0,0,0-.06A0.11,0.11,0,0,0,103.06,18Zm-0.53-2h-0.36l-0.1,0a0.13,0.13,0,0,0,0,.06,0.27,0.27,0,0,0,0,.08,0.81,0.81,0,0,1,0,.28,0.67,0.67,0,0,1-.14.23,0.77,0.77,0,0,1-.22.15,0.92,0.92,0,0,1-.31,0,0.94,0.94,0,0,1-.31,0,0.76,0.76,0,0,1-.23-0.15,0.63,0.63,0,0,1-.14-0.22,0.73,0.73,0,0,1,0-.27,0.36,0.36,0,0,0,0-.09,0.12,0.12,0,0,0,0-.06l-0.1,0h-0.35l-0.12,0a0.13,0.13,0,0,0-.06,0,0.18,0.18,0,0,0,0,.08,1.45,1.45,0,0,0,.09.53,1.05,1.05,0,0,0,.27.41,1.23,1.23,0,0,0,.45.25,2,2,0,0,0,.62.09,1.85,1.85,0,0,0,.65-0.1,1.16,1.16,0,0,0,.44-0.27,1.07,1.07,0,0,0,.25-0.4,1.54,1.54,0,0,0,.08-0.5,0.18,0.18,0,0,0,0-.08l-0.06,0Zm6.78,5.78h-0.58v-3.5a0.29,0.29,0,0,0-.06-0.21,0.22,0.22,0,0,0-.17-0.07h-2.32l-0.1,0L106,18a0.2,0.2,0,0,0,0,.08,0.89,0.89,0,0,0,0,.12q-0.09.79-.19,1.37a9.1,9.1,0,0,1-.24,1,3.85,3.85,0,0,1-.28.68,3.27,3.27,0,0,1-.32.48h-0.3a0.2,0.2,0,0,0-.14,0,0.21,0.21,0,0,0,0,.15v1.86a0.08,0.08,0,0,0,0,.06l0.06,0,0.1,0h0.31l0.1,0,0.05,0a0.1,0.1,0,0,0,0-.06v-1.4h3.77v1.4a0.08,0.08,0,0,0,0,.06l0.06,0,0.1,0h0.31l0.1,0,0.05,0a0.1,0.1,0,0,0,0-.06V21.92a0.2,0.2,0,0,0,0-.15A0.21,0.21,0,0,0,109.31,21.73Zm-1.35,0h-2.27a3.17,3.17,0,0,0,.27-0.4,3.29,3.29,0,0,0,.25-0.58,7.31,7.31,0,0,0,.22-0.87c0.07-.35.14-0.77,0.2-1.28H108v3.14Zm5.9-3.27a1.59,1.59,0,0,0-.57-0.43,2,2,0,0,0-.84-0.16,2.1,2.1,0,0,0-.83.16,1.71,1.71,0,0,0-.63.46,2,2,0,0,0-.4.73,3.15,3.15,0,0,0-.14,1,3.35,3.35,0,0,0,.14,1,1.8,1.8,0,0,0,.4.71,1.62,1.62,0,0,0,.65.43,2.59,2.59,0,0,0,.9.15,3.09,3.09,0,0,0,.56,0,3.66,3.66,0,0,0,.46-0.1,2,2,0,0,0,.32-0.11l0.15-.09,0-.05a0.25,0.25,0,0,0,0-.06,0.46,0.46,0,0,0,0-.08s0-.06,0-0.1a1.26,1.26,0,0,0,0-.14,0.37,0.37,0,0,0,0-.09,0.11,0.11,0,0,0,0,0H114a0.4,0.4,0,0,0-.16.05l-0.28.11-0.4.11a2.52,2.52,0,0,1-.53,0,1.73,1.73,0,0,1-.64-0.11,1.07,1.07,0,0,1-.43-0.31,1.21,1.21,0,0,1-.23-0.48,2.57,2.57,0,0,1-.07-0.63H114a0.32,0.32,0,0,0,.21-0.08,0.32,0.32,0,0,0,.09-0.26V19.85a2.72,2.72,0,0,0-.11-0.77A1.68,1.68,0,0,0,113.86,18.46Zm-2.62,1.31a1.79,1.79,0,0,1,.09-0.49,1.33,1.33,0,0,1,.22-0.41,1.08,1.08,0,0,1,.86-0.39,1,1,0,0,1,.84.34,1.39,1.39,0,0,1,.27.95h-2.28Zm8.15-1.23a1.46,1.46,0,0,0-.52-0.48,1.57,1.57,0,0,0-.78-0.18,1.61,1.61,0,0,0-.76.19,2.27,2.27,0,0,0-.36.24,4.45,4.45,0,0,0-.37.34V18.08a0.12,0.12,0,0,0,0-.07l-0.06,0-0.11,0H116.1L116,18a0.11,0.11,0,0,0-.06,0,0.15,0.15,0,0,0,0,.07v5.84a0.11,0.11,0,0,0,0,.06,0.11,0.11,0,0,0,.06,0l0.12,0h0.38l0.12,0,0.06,0a0.12,0.12,0,0,0,0-.06V21.83a4.15,4.15,0,0,0,.31.28,1.57,1.57,0,0,0,.3.2,1.06,1.06,0,0,0,.31.12,1.4,1.4,0,0,0,.34,0,1.77,1.77,0,0,0,.78-0.16,1.59,1.59,0,0,0,.57-0.47,2.13,2.13,0,0,0,.35-0.74,4.11,4.11,0,0,0,0-1.85A2.18,2.18,0,0,0,119.39,18.53Zm-0.47,2.25a1.84,1.84,0,0,1-.19.52,1,1,0,0,1-.34.37,0.85,0.85,0,0,1-.5.14,1,1,0,0,1-.6-0.21,3.33,3.33,0,0,1-.6-0.59V19.35A3.39,3.39,0,0,1,117,19a1.74,1.74,0,0,1,.31-0.25,1.14,1.14,0,0,1,.3-0.14,1.08,1.08,0,0,1,.29,0,0.85,0.85,0,0,1,.5.14,1,1,0,0,1,.32.37,1.8,1.8,0,0,1,.17.53,4,4,0,0,1,0,.62A2.76,2.76,0,0,1,118.92,20.78Z" transform="translate(0 0.03)"/></g></svg>