<?xml version="1.0" encoding="utf-8"?>
<!-- Generator: Adobe Illustrator 19.2.1, SVG Export Plug-In . SVG Version: 6.00 Build 0)  -->
<svg version="1.1" id="Слой_1" xmlns="http://www.w3.org/2000/svg" xmlns:xlink="http://www.w3.org/1999/xlink" x="0px" y="0px"
	 viewBox="0 0 106.5 25" style="enable-background:new 0 0 106.5 25;" xml:space="preserve">
<style type="text/css">
	.st0{opacity:0.9;fill:#FFFFFF;enable-background:new    ;}
	.st1{opacity:0.6;fill:#FFFFFF;enable-background:new    ;}
	.st2{opacity:0.6;enable-background:new    ;}
	.st3{fill:#FFFFFF;}
	.st4{opacity:0.6;}
</style>
<title>Nevalink LOGO</title>
<g>
	<polygon id="Shape" class="st0" points="13.7,1.8 19.4,0 19.4,14.2 13.7,10.2 	"/>
	<polygon class="st0" points="11.4,21.8 5.7,25 5.7,11.4 11.4,15.3 	"/>
	<polygon class="st1" points="19.4,14.2 19.4,0 25,4.2 25,21.8 22.7,23.1 5.7,11.4 5.7,25 0,21.2 0,3.7 2.6,2.2 	"/>
	<g class="st2">
		<path class="st3" d="M39.1,2.1c0-0.1,0-0.2,0.1-0.3c0.1-0.1,0.2-0.1,0.3-0.1h1.3c0.1,0,0.2,0,0.3,0.1c0,0.1,0.1,0.2,0.1,0.3v11
			c0,0.1,0,0.2-0.1,0.2c-0.1,0.1-0.2,0.1-0.3,0.1h-1.3c-0.2,0-0.4-0.1-0.4-0.3V8.2h-4.4v4.9c0,0.1,0,0.2-0.1,0.2
			c-0.1,0.1-0.2,0.1-0.3,0.1h-1.3c-0.2,0-0.4-0.1-0.4-0.3v-11c0-0.1,0-0.2,0.1-0.3c0.1-0.1,0.2-0.1,0.3-0.1h1.3c0.1,0,0.2,0,0.3,0.1
			c0,0.1,0.1,0.2,0.1,0.3v4.3h4.4C39.1,6.4,39.1,2.1,39.1,2.1z"/>
		<path class="st3" d="M45.1,9.6c0,0.4,0.1,0.7,0.2,1.1c0.1,0.3,0.2,0.5,0.4,0.7c0.2,0.2,0.4,0.3,0.6,0.4c0.3,0.1,0.6,0.1,1,0.1
			c0.4,0,0.7,0,1.1-0.1l1.2-0.1c0.1,0,0.2,0,0.3,0c0.1,0,0.1,0.1,0.1,0.3l0.1,0.6c0,0.1,0,0.2,0,0.3c0,0.1-0.1,0.2-0.3,0.2
			c-0.2,0.1-0.4,0.1-0.6,0.2c-0.2,0.1-0.5,0.1-0.7,0.1l-0.8,0.1c-0.3,0-0.5,0-0.7,0c-0.7,0-1.4-0.1-2-0.4c-0.5-0.2-0.9-0.6-1.2-1
			c-0.3-0.4-0.5-0.9-0.5-1.4c-0.1-0.5-0.1-1.1-0.1-1.7c0-0.5,0-0.9,0.1-1.4c0.1-0.5,0.2-1,0.5-1.5c0.3-0.5,0.7-0.9,1.1-1.1
			c0.6-0.3,1.3-0.5,2-0.5c0.6,0,1.3,0.1,1.9,0.4c0.4,0.2,0.8,0.5,1.1,0.9c0.3,0.4,0.5,0.8,0.6,1.3c0.1,0.5,0.2,0.9,0.2,1.4
			c0,0.3,0,0.5-0.2,0.8c-0.2,0.2-0.4,0.3-0.7,0.3L45.1,9.6L45.1,9.6z M46.8,6.3c-0.3,0-0.6,0-0.8,0.1c-0.2,0.1-0.4,0.2-0.5,0.4
			c-0.1,0.2-0.2,0.4-0.3,0.7c-0.1,0.3-0.1,0.6-0.1,0.9h3.5c0-0.3,0-0.5-0.1-0.8c0-0.2-0.1-0.5-0.2-0.7c-0.1-0.2-0.3-0.4-0.5-0.5
			C47.4,6.3,47.1,6.2,46.8,6.3z"/>
		<path class="st3" d="M52.6,13.4c-0.1,0-0.3,0-0.4-0.1c-0.1-0.1-0.1-0.2-0.1-0.3V5.2c0-0.1,0-0.2,0.1-0.3c0.1-0.1,0.2-0.1,0.3-0.1
			h3.8c0.8-0.1,1.6,0.2,2.2,0.6c0.5,0.4,0.7,1.1,0.7,1.7c0,0.3-0.1,0.6-0.2,0.9c-0.2,0.4-0.5,0.7-0.8,0.9c0.2,0.1,0.4,0.2,0.6,0.4
			c0.2,0.2,0.3,0.3,0.4,0.5c0.1,0.2,0.2,0.4,0.2,0.6c0,0.2,0,0.3,0.1,0.5c0,0.4-0.1,0.7-0.3,1c-0.1,0.3-0.4,0.6-0.6,0.8
			c-0.3,0.2-0.6,0.4-0.9,0.5c-0.4,0.1-0.8,0.2-1.1,0.2C56.5,13.4,52.6,13.4,52.6,13.4z M57.3,7.3c0-0.1,0-0.2-0.1-0.3
			c0-0.1-0.1-0.2-0.2-0.3c-0.1-0.1-0.2-0.2-0.4-0.2c-0.2-0.1-0.4-0.1-0.6-0.1h-2v1.9h2.1c0.3,0,0.6-0.1,0.8-0.3
			C57.1,7.8,57.2,7.5,57.3,7.3C57.2,7.3,57.3,7.3,57.3,7.3z M57.5,10.7c0-0.3-0.1-0.6-0.3-0.8c-0.2-0.3-0.6-0.4-0.9-0.3H54v2.2h2.1
			c0.2,0,0.5,0,0.7-0.1c0.2-0.1,0.3-0.1,0.4-0.3c0.1-0.1,0.2-0.2,0.2-0.4C57.5,11,57.5,10.9,57.5,10.7
			C57.5,10.7,57.5,10.7,57.5,10.7z"/>
		<path class="st3" d="M66.5,12.4c-0.5,0.3-1,0.6-1.5,0.8c-0.6,0.2-1.1,0.3-1.7,0.3c-0.4,0-0.8,0-1.2-0.2c-0.3-0.1-0.5-0.3-0.7-0.5
			c-0.2-0.2-0.3-0.5-0.4-0.8c-0.1-0.3-0.1-0.7-0.1-1c-0.1-0.8,0.2-1.7,0.8-2.2c0.7-0.5,1.6-0.8,2.5-0.7h2.2V7.7c0-0.2,0-0.4-0.1-0.7
			c0-0.2-0.1-0.3-0.3-0.5c-0.2-0.1-0.4-0.2-0.6-0.3c-0.3-0.1-0.6-0.1-0.9-0.1h-0.5l-0.6,0l-0.6,0.1l-0.6,0.1c-0.1,0-0.2,0-0.4,0
			c-0.1,0-0.1-0.1-0.1-0.2l-0.2-0.6c0-0.1,0-0.2,0-0.3c0.1-0.1,0.2-0.2,0.3-0.2c0.2-0.1,0.4-0.1,0.7-0.2c0.3,0,0.5-0.1,0.8-0.1
			l0.8-0.1h0.7c0.6,0,1.2,0.1,1.8,0.2c0.4,0.1,0.7,0.3,1,0.6c0.2,0.3,0.4,0.6,0.5,1c0.1,0.4,0.1,0.9,0.1,1.3v3.4c0,0.1,0,0.3,0,0.4
			c0,0.1,0,0.2,0.1,0.2c0,0.1,0.1,0.1,0.2,0.1c0.1,0,0.2,0,0.3,0.1c0.1,0,0.2,0,0.3,0.1c0.1,0,0.1,0.1,0.1,0.2v0.7
			c0,0.2-0.1,0.3-0.4,0.4l-0.4,0.1c-0.1,0-0.3,0-0.4,0c-0.3,0-0.7-0.1-1-0.2C66.7,13.1,66.5,12.8,66.5,12.4
			C66.5,12.4,66.5,12.4,66.5,12.4z M66.4,9.5h-2.1c-0.4,0-0.7,0.1-1.1,0.3c-0.3,0.3-0.4,0.7-0.4,1.2c0,0.3,0.1,0.6,0.2,0.8
			c0.2,0.2,0.6,0.3,0.9,0.2c0.2,0,0.4,0,0.6-0.1c0.2,0,0.4-0.1,0.7-0.2c0.2-0.1,0.4-0.2,0.6-0.3s0.4-0.2,0.6-0.3
			C66.3,11.2,66.4,9.5,66.4,9.5z"/>
		<path class="st3" d="M78.3,4.8c0.3,0,0.4,0.1,0.4,0.4v7.9c0,0.1,0,0.2-0.1,0.3c-0.1,0.1-0.2,0.1-0.3,0.1h-1.2
			c-0.1,0-0.2,0-0.3-0.1c-0.1-0.1-0.1-0.2-0.1-0.3V6.4h-2.5l-0.4,4.2c0,0.4-0.1,0.8-0.2,1.2c-0.1,0.3-0.2,0.7-0.5,0.9
			c-0.2,0.3-0.6,0.5-0.9,0.6c-0.5,0.2-1,0.2-1.5,0.2c-0.2,0-0.3,0-0.3-0.1c0-0.1-0.1-0.2-0.1-0.2l0-0.8c0-0.1,0-0.2,0.1-0.2
			c0.1-0.1,0.2-0.1,0.2-0.1c0.2,0,0.5-0.1,0.7-0.2c0.2-0.1,0.3-0.2,0.4-0.4c0.1-0.2,0.2-0.4,0.3-0.6c0.1-0.3,0.1-0.7,0.2-1l0.4-4.1
			c0-0.3,0.1-0.6,0.4-0.8c0.3-0.2,0.6-0.2,0.9-0.2C73.9,4.8,78.3,4.8,78.3,4.8z"/>
		<path class="st3" d="M80.5,5.2c0-0.1,0-0.2,0.1-0.3c0.1-0.1,0.2-0.1,0.3-0.1h1.1c0.2,0,0.3,0,0.3,0.1c0.1,0.1,0.1,0.2,0.1,0.3v5.1
			h0l2.3-3.1l1.6-2.1C86.4,5,86.5,5,86.6,4.9c0.1-0.1,0.2-0.1,0.4-0.1h0.9c0.1,0,0.2,0,0.3,0.1c0.1,0.1,0.1,0.2,0.1,0.3V13
			c0,0.2-0.1,0.4-0.4,0.4h-1.1c-0.3,0-0.4-0.1-0.4-0.4V7.7l-1.3,1.7L83.8,11l-0.8,1l-0.8,1c-0.1,0.1-0.1,0.2-0.2,0.2
			c-0.1,0.1-0.2,0.1-0.4,0.1h-0.8c-0.1,0-0.2,0-0.3-0.1c-0.1-0.1-0.1-0.2-0.1-0.3L80.5,5.2L80.5,5.2z"/>
		<path class="st3" d="M97.5,13.3c-0.1,0.1-0.2,0.1-0.3,0.1h-1.1c-0.3,0-0.4-0.1-0.4-0.4V9.7h-3.8V13c0,0.1,0,0.2-0.1,0.3
			c-0.1,0.1-0.2,0.1-0.3,0.1h-1.1c-0.3,0-0.4-0.1-0.4-0.4V5.2c0-0.1,0-0.2,0.1-0.3s0.2-0.1,0.3-0.1h1.1c0.1,0,0.2,0,0.3,0.1
			c0.1,0.1,0.1,0.2,0.1,0.3v2.9h3.8V5.2c0-0.3,0.1-0.4,0.4-0.4h1.1c0.1,0,0.2,0,0.3,0.1c0.1,0.1,0.1,0.2,0.1,0.3V13
			C97.6,13.1,97.6,13.2,97.5,13.3z"/>
		<path class="st3" d="M101.3,13.1c0,0.1,0,0.2-0.1,0.2c0,0.1-0.1,0.1-0.2,0.1h-1.3c-0.1,0-0.2,0-0.2-0.1s-0.1-0.1-0.1-0.2v-8
			c0-0.2,0.1-0.3,0.3-0.3h1.3c0.1,0,0.2,0,0.2,0.1c0,0.1,0.1,0.2,0.1,0.2v3.1h0.9c0.2,0,0.3,0,0.5,0c0.1,0,0.3-0.1,0.4-0.2
			c0.1-0.1,0.3-0.2,0.4-0.4c0.1-0.2,0.2-0.4,0.3-0.6l0.7-1.9c0-0.1,0.1-0.2,0.2-0.2c0.1,0,0.2-0.1,0.3-0.1h1.1c0.2,0,0.3,0,0.3,0.1
			c0,0.1,0,0.2,0,0.3l-0.6,1.8c-0.2,0.5-0.4,0.9-0.6,1.3c-0.2,0.3-0.5,0.5-0.8,0.6c0.4,0.1,0.7,0.3,0.9,0.6c0.2,0.3,0.4,0.7,0.5,1.1
			l0.8,2.3c0,0.1,0,0.2,0,0.3c0,0.1-0.1,0.1-0.3,0.1H105c-0.1,0-0.2,0-0.3-0.1c-0.1,0-0.1-0.1-0.2-0.2l-0.6-2.1
			c-0.1-0.4-0.4-0.8-0.7-1.1c-0.3-0.2-0.6-0.2-0.9-0.2h-0.9L101.3,13.1L101.3,13.1z"/>
		<g id="Group" transform="translate(52 26)" class="st4">
			<polygon class="st3" points="-18.7,-8.1 -18.7,-5.7 -18.7,-5.1 -18.7,-4.9 -16.7,-8.1 -16,-8.1 -16,-4.4 -16.5,-4.4 -16.5,-6.6 
				-16.5,-7.1 -16.5,-7.5 -18.5,-4.4 -19.2,-4.4 -19.2,-8.1 			"/>
			<polygon class="st3" points="-14,-8.1 -14,-6.5 -12,-6.5 -12,-8.1 -11.4,-8.1 -11.4,-4.4 -12,-4.4 -12,-6.1 -14,-6.1 -14,-4.4 
				-14.6,-4.4 -14.6,-8.1 			"/>
			<polygon class="st3" points="-7.5,-7.6 -8.7,-7.6 -8.7,-4.4 -9.3,-4.4 -9.3,-7.6 -10.4,-7.6 -10.4,-8.1 -7.5,-8.1 			"/>
			<path class="st3" d="M-5-4.3c-0.5,0-1-0.1-1.3-0.5c-0.3-0.4-0.5-0.9-0.5-1.4c0-0.5,0.1-1,0.4-1.4C-6-8-5.6-8.2-5.2-8.1
				c0.4,0,0.8,0.1,1.1,0.5c0.3,0.3,0.4,0.8,0.4,1.2v0.4h-2.5c0,0.4,0.1,0.7,0.3,1C-5.6-4.9-5.3-4.8-5-4.8c0.4,0,0.8-0.1,1.2-0.3v0.5
				C-4-4.5-4.1-4.4-4.3-4.4C-4.5-4.3-4.8-4.3-5-4.3z M-5.1-7.7c-0.3,0-0.5,0.1-0.7,0.3C-6-7.2-6.1-6.9-6.1-6.6h1.9
				c0-0.3-0.1-0.6-0.2-0.8C-4.6-7.6-4.9-7.7-5.1-7.7C-5.1-7.7-5.1-7.7-5.1-7.7z"/>
			<path class="st3" d="M-0.7-4.3c-0.2,0-0.4,0-0.6-0.1c-0.2-0.1-0.4-0.2-0.5-0.4h-0.1c0,0.2,0,0.4,0,0.6v1.5h-0.6v-5.4H-2l0.1,0.5
				C-1.8-7.8-1.6-7.9-1.4-8C-1.2-8.1-1-8.1-0.8-8.1c0.4,0,0.9,0.2,1.1,0.5c0.3,0.4,0.4,0.9,0.4,1.4c0,0.5-0.1,1-0.4,1.4
				C0.1-4.5-0.3-4.3-0.7-4.3z M-0.8-7.7c-0.3,0-0.6,0.1-0.8,0.3c-0.2,0.3-0.3,0.6-0.3,1v0.1c0,0.4,0.1,0.8,0.3,1.1
				c0.2,0.2,0.5,0.4,0.8,0.3c0.3,0,0.6-0.1,0.8-0.4c0.2-0.3,0.3-0.7,0.3-1.1C0.3-6.6,0.2-7,0-7.3C-0.2-7.5-0.5-7.7-0.8-7.7z"/>
			<polygon class="st3" points="2.6,-8.1 2.6,-6.5 4.7,-6.5 4.7,-8.1 5.2,-8.1 5.2,-4.4 4.7,-4.4 4.7,-6.1 2.6,-6.1 2.6,-4.4 
				2,-4.4 2,-8.1 			"/>
			<path class="st3" d="M8.2-4.3c-0.5,0-0.9-0.2-1.3-0.5C6.6-5.2,6.4-5.7,6.4-6.2c0-0.5,0.1-1,0.4-1.4C7.2-8,7.6-8.2,8.1-8.1
				c0.4,0,0.8,0.1,1.1,0.5c0.3,0.3,0.4,0.8,0.4,1.2v0.4H7c0,0.4,0.1,0.7,0.3,1c0.2,0.2,0.5,0.4,0.9,0.3c0.4,0,0.8-0.1,1.2-0.3v0.5
				C9.2-4.5,9-4.4,8.8-4.4C8.6-4.3,8.4-4.3,8.2-4.3z M8-7.7c-0.3,0-0.5,0.1-0.7,0.3C7.1-7.2,7-6.9,7-6.6H9c0-0.3-0.1-0.6-0.2-0.8
				C8.6-7.6,8.3-7.7,8-7.7C8-7.7,8-7.7,8-7.7z"/>
			<polygon class="st3" points="13.2,-7.6 12,-7.6 12,-4.4 11.5,-4.4 11.5,-7.6 10.3,-7.6 10.3,-8.1 13.2,-8.1 			"/>
			<polygon class="st3" points="13.9,-6 13.9,-6.5 15.5,-6.5 15.5,-6 			"/>
			<polygon class="st3" points="17.2,-4.4 16.7,-4.4 16.7,-8.1 19.7,-8.1 19.7,-4.4 19.2,-4.4 19.2,-7.6 17.2,-7.6 			"/>
			<path class="st3" d="M22.9-4.3c-0.2,0-0.4,0-0.6-0.1c-0.2-0.1-0.4-0.2-0.5-0.4h0c0,0.2,0,0.4,0,0.6v1.5h-0.6v-5.4h0.5l0.1,0.5
				C21.9-7.8,22-7.9,22.2-8c0.2-0.1,0.4-0.1,0.6-0.1c0.4,0,0.9,0.2,1.1,0.5c0.3,0.4,0.4,0.9,0.4,1.4c0,0.5-0.1,1-0.4,1.4
				C23.7-4.5,23.3-4.3,22.9-4.3z M22.8-7.7c-0.3,0-0.6,0.1-0.8,0.3c-0.2,0.3-0.3,0.6-0.3,1v0.1c0,0.4,0.1,0.8,0.3,1.1
				c0.2,0.2,0.5,0.4,0.8,0.3c0.3,0,0.6-0.1,0.8-0.4c0.2-0.3,0.3-0.7,0.3-1.1c0-0.4-0.1-0.7-0.3-1.1C23.4-7.5,23.1-7.7,22.8-7.7z"/>
			<path class="st3" d="M28.8-6.2c0,0.5-0.1,1-0.5,1.4c-0.3,0.3-0.8,0.5-1.3,0.5c-0.3,0-0.6-0.1-0.9-0.2c-0.3-0.2-0.5-0.4-0.6-0.7
				c-0.1-0.3-0.2-0.7-0.2-1c0-0.5,0.1-1,0.5-1.4c0.3-0.3,0.8-0.5,1.3-0.5c0.5,0,0.9,0.2,1.3,0.5C28.7-7.2,28.8-6.7,28.8-6.2z
				 M26-6.2c0,0.4,0.1,0.8,0.3,1.1c0.2,0.2,0.5,0.4,0.8,0.4s0.6-0.1,0.8-0.4c0.2-0.3,0.3-0.7,0.3-1.1c0-0.4-0.1-0.8-0.3-1.1
				c-0.2-0.2-0.5-0.4-0.8-0.4c-0.3,0-0.6,0.1-0.8,0.4C26.1-7,26-6.6,26-6.2C26-6.2,26-6.2,26-6.2z"/>
			<path class="st3" d="M33-7.1c0,0.2-0.1,0.4-0.2,0.5c-0.2,0.1-0.4,0.2-0.6,0.3c0.3,0,0.5,0.1,0.7,0.3c0.2,0.2,0.2,0.4,0.2,0.6
				c0,0.3-0.1,0.6-0.4,0.8c-0.3,0.2-0.7,0.3-1.1,0.3H30v-3.7h1.6C32.6-8.1,33-7.8,33-7.1z M32.5-7.1c0-0.2-0.1-0.3-0.2-0.4
				c-0.2-0.1-0.4-0.1-0.6-0.1h-1.1v1h0.9c0.3,0,0.5,0,0.7-0.1C32.4-6.8,32.5-6.9,32.5-7.1L32.5-7.1z M32.6-5.5
				c0-0.2-0.1-0.3-0.2-0.4c-0.2-0.1-0.5-0.2-0.8-0.1h-1v1.2h1C32.3-4.9,32.6-5.1,32.6-5.5C32.6-5.5,32.6-5.5,32.6-5.5z"/>
			<path class="st3" d="M36.5-4.4l-0.1-0.5c-0.1,0.2-0.3,0.4-0.6,0.5c-0.2,0.1-0.4,0.1-0.7,0.1c-0.3,0-0.6-0.1-0.9-0.3
				c-0.2-0.2-0.3-0.5-0.3-0.8c0-0.7,0.6-1.1,1.8-1.2h0.6v-0.2c0-0.2-0.1-0.4-0.2-0.6c-0.2-0.2-0.4-0.2-0.6-0.2c-0.4,0-0.7,0.1-1,0.3
				l-0.2-0.4C34.5-7.9,34.7-8,34.9-8c0.2-0.1,0.4-0.1,0.6-0.1c0.4,0,0.7,0.1,1,0.3c0.2,0.3,0.3,0.6,0.3,0.9v2.5L36.5-4.4z M35.2-4.8
				c0.3,0,0.6-0.1,0.8-0.3c0.2-0.2,0.3-0.5,0.3-0.8v-0.3h-0.6c-0.3,0-0.7,0.1-1,0.2c-0.2,0.1-0.3,0.3-0.3,0.6c0,0.2,0.1,0.3,0.2,0.5
				C34.8-4.8,35-4.8,35.2-4.8L35.2-4.8z"/>
			<path class="st3" d="M38.8-8.1v2.3v0.6v0.2l2-3.1h0.7v3.7h-0.5v-2.3v-0.4v-0.4l-2,3.1h-0.7v-3.7C38.3-8.1,38.8-8.1,38.8-8.1z
				 M39.8-8.6c-0.3,0-0.6-0.1-0.9-0.2c-0.2-0.2-0.3-0.5-0.3-0.8h0.5c0,0.2,0.1,0.4,0.2,0.5C39.5-9,39.7-8.9,39.8-9
				c0.2,0,0.4,0,0.5-0.2c0.1-0.1,0.2-0.3,0.2-0.5h0.5c0,0.3-0.1,0.6-0.3,0.8C40.5-8.6,40.2-8.5,39.8-8.6L39.8-8.6z"/>
			<path class="st3" d="M46.1-3.1h-0.5v-1.3H43v1.3h-0.5v-1.8h0.3c0.3-0.4,0.6-0.9,0.7-1.4c0.2-0.6,0.3-1.2,0.3-1.8h1.9v3.2h0.5
				L46.1-3.1L46.1-3.1z M45-4.9v-2.8h-0.8c0,0.5-0.1,1-0.3,1.5c-0.1,0.4-0.3,0.9-0.6,1.3H45z"/>
			<path class="st3" d="M48.6-4.3c-0.5,0-0.9-0.2-1.3-0.5c-0.3-0.4-0.5-0.9-0.5-1.4c0-0.5,0.1-1,0.4-1.4C47.6-8,48-8.2,48.5-8.1
				c0.4,0,0.8,0.1,1.1,0.5C49.8-7.4,50-6.9,50-6.5v0.4h-2.5c0,0.4,0.1,0.7,0.3,1c0.2,0.2,0.5,0.4,0.9,0.3c0.4,0,0.8-0.1,1.2-0.3v0.5
				c-0.2,0.1-0.4,0.1-0.6,0.2C49-4.3,48.8-4.3,48.6-4.3z M48.4-7.7c-0.3,0-0.5,0.1-0.7,0.3c-0.2,0.2-0.3,0.5-0.3,0.8h1.9
				c0-0.3-0.1-0.6-0.2-0.8C49-7.6,48.7-7.7,48.4-7.7C48.4-7.7,48.4-7.7,48.4-7.7z"/>
			<path class="st3" d="M52.9-4.3c-0.2,0-0.4,0-0.6-0.1c-0.2-0.1-0.4-0.2-0.5-0.4h0c0,0.2,0,0.4,0,0.6v1.5h-0.6v-5.4h0.5l0.1,0.5
				C51.8-7.8,52-7.9,52.2-8c0.2-0.1,0.4-0.1,0.6-0.1c0.4,0,0.9,0.2,1.1,0.5c0.3,0.4,0.4,0.9,0.4,1.4c0,0.5-0.1,1-0.4,1.4
				C53.7-4.5,53.3-4.3,52.9-4.3z M52.8-7.7c-0.3,0-0.6,0.1-0.8,0.3c-0.2,0.3-0.3,0.6-0.3,1v0.1c0,0.4,0.1,0.8,0.3,1.1
				c0.2,0.2,0.5,0.4,0.8,0.3c0.3,0,0.6-0.1,0.8-0.4c0.2-0.3,0.3-0.7,0.3-1.1c0-0.4-0.1-0.7-0.3-1.1C53.4-7.5,53.1-7.7,52.8-7.7
				L52.8-7.7z"/>
		</g>
	</g>
</g>
</svg>
