<svg id="Слой_1" data-name="Слой 1" xmlns="http://www.w3.org/2000/svg" viewBox="0 0 113 23.62">
  <defs>
    <style>
      .cls-1 {
        fill: #ffffff;
        fill-rule: evenodd;
      }
    </style>
  </defs>
  <title>opus-logo</title>
  <path class="cls-1" d="M361.76,425.7a27.92,27.92,0,0,0-2.76-.75,13.37,13.37,0,0,0-2.84-.3,20.13,20.13,0,0,0-3.72.21,1.38,1.38,0,0,0-1,.58,0.38,0.38,0,0,0,.23.51,17.4,17.4,0,0,0,3.25.37l1.61,0.18,1.75,0.21a5.3,5.3,0,0,1,2.64,1,1.48,1.48,0,0,1,.41,1.7q-0.48,1.47-3,2.36a18.78,18.78,0,0,1-6.14.89c-0.41,0-.8,0-1.2,0s-0.9,0-1.36-.05a26.51,26.51,0,0,1-2.72-.3,17.89,17.89,0,0,1-2.74-.66,12.17,12.17,0,0,1-1.38-.56,7,7,0,0,0,2.08-2.11l0.28,0.13a15.33,15.33,0,0,0,2.28.77,24,24,0,0,0,2.44.49l1.25,0.16c0.39,0,.8.08,1.17,0.1h0.45a9.83,9.83,0,0,0,2.27-.2,1.19,1.19,0,0,0,.92-0.59,0.38,0.38,0,0,0-.27-0.51,5.81,5.81,0,0,0-1.51-.28q-0.54-.08-2.28-0.17a21,21,0,0,1-2.5-.23,5.77,5.77,0,0,1-2.84-1.06,1.55,1.55,0,0,1-.47-1.77q0.45-1.38,2.91-2.3a24.1,24.1,0,0,1,7.8-.92,23.48,23.48,0,0,1,3.35.23,20.78,20.78,0,0,1,2.39.45Zm-21,5.44a15.32,15.32,0,0,1-6.87,1.36q-4.1,0-6-1.34a3,3,0,0,1-1.07-3.72l1.53-4.72h5.2l-1.47,4.69a3.15,3.15,0,0,0-.18,1.46,1.65,1.65,0,0,0,.44.92,2.41,2.41,0,0,0,.95.47,5.37,5.37,0,0,0,1.26.13,6.28,6.28,0,0,0,1.41-.16,4.25,4.25,0,0,0,1.24-.49,3.64,3.64,0,0,0,1-.9,4.75,4.75,0,0,0,.72-1.41l1.53-4.69h5.2l-1.44,4.72A6.39,6.39,0,0,1,340.75,431.14Zm-18.5.18a15.32,15.32,0,0,1-6.87,1.36,14.38,14.38,0,0,1-2.45-.25L313,432l0.74-2.16,0.06,0.07a2.66,2.66,0,0,0,1,.47,5.38,5.38,0,0,0,1.26.13,6.31,6.31,0,0,0,1.41-.16,4.24,4.24,0,0,0,1.24-.49,3.63,3.63,0,0,0,1-.9,4.73,4.73,0,0,0,.72-1.41,3.47,3.47,0,0,0,.21-1.41,1.44,1.44,0,0,0-.47-0.88,1.66,1.66,0,0,0-.9-0.47,6.06,6.06,0,0,0-1.27-.13,7.16,7.16,0,0,0-1.48.14,4,4,0,0,0-1.23.48,3.26,3.26,0,0,0-1,.92,4.86,4.86,0,0,0-.68,1.34l0,0.1-0.29.75-0.4,1.1-0.81,2.2c-0.13.37-.25,0.74-0.37,1.11L311.38,434,311,435.19l-0.13.43-1.54,5s-4.62-1.41-3.55-5l2.57-7.94,0-.07a6.23,6.23,0,0,1,3.43-3.67,15.38,15.38,0,0,1,6.84-1.34q4.13,0,6,1.34a3,3,0,0,1,1.09,3.69A6.39,6.39,0,0,1,322.24,431.32Zm-18.51,0a15.38,15.38,0,0,1-6.84,1.34q-4.13,0-6-1.34a3,3,0,0,1-1.09-3.69,6.44,6.44,0,0,1,3.5-3.72,15.31,15.31,0,0,1,6.81-1.34q4.15,0,6,1.36a3,3,0,0,1,1.07,3.7A6.34,6.34,0,0,1,303.74,431.31Zm-1.6-5.07a1.5,1.5,0,0,0-.41-0.9,2,2,0,0,0-.93-0.49,5.26,5.26,0,0,0-1.33-.16,6.56,6.56,0,0,0-1.34.13,4.91,4.91,0,0,0-1.26.47,3.92,3.92,0,0,0-1,.92,4.5,4.5,0,0,0-.75,1.46,3.28,3.28,0,0,0-.2,1.34,1.38,1.38,0,0,0,.42.92,1.91,1.91,0,0,0,.92.48,6,6,0,0,0,1.4.14,7.33,7.33,0,0,0,1.36-.13,3.44,3.44,0,0,0,1.21-.47,3.76,3.76,0,0,0,1-.88,4.29,4.29,0,0,0,.69-1.41A3.32,3.32,0,0,0,302.14,426.23ZM272.3,431.6a25,25,0,0,1-11.24,1.53,31.17,31.17,0,0,1-4-.47l-0.27.71-0.9,2.88a8.06,8.06,0,0,1-1.49-.79,9.78,9.78,0,0,1-4.86-9h0a6.65,6.65,0,0,1,.49-2.19,10.48,10.48,0,0,1,6-5.7A24.92,24.92,0,0,1,267.3,417l1.34,0.1-1.76,5.59a2.21,2.21,0,0,0-.52-0.21,6.39,6.39,0,0,0-1.33-.21,7.57,7.57,0,0,0-1.57.06,4.22,4.22,0,0,0-1.32.43,3.45,3.45,0,0,0-1.13.91,5.11,5.11,0,0,0-.8,1.37,3.51,3.51,0,0,0-.3,1.52,1.67,1.67,0,0,0,.39,1,2.8,2.8,0,0,0,1,.55,5.68,5.68,0,0,0,1.32.21,6.68,6.68,0,0,0,1.5-.08,4.49,4.49,0,0,0,1.34-.44,3.84,3.84,0,0,0,1.11-.89,5,5,0,0,0,.85-1.44,5.42,5.42,0,0,0,.27-0.92l2.29-7.28q4.67,0.64,6.93,2.51,2.86,2.38,1.39,6.12A10.31,10.31,0,0,1,272.3,431.6Z" transform="translate(-249.56 -416.98)"/>
</svg>
