<svg id="Layer_1" data-name="Layer 1" xmlns="http://www.w3.org/2000/svg" viewBox="0 0 140.4 140.37"><defs><style>.cls-1{fill:#191716;opacity:0.6;}.cls-2{fill:none;stroke:#fff;stroke-linecap:round;stroke-linejoin:round;stroke-width:7.2px;}.cls-2,.cls-3{fill-rule:evenodd;}.cls-3{fill:#fff;}</style></defs><title>play_button-full</title><ellipse class="cls-1" cx="70.2" cy="70.19" rx="70.2" ry="70.19"/><path class="cls-2" d="M80,23.31h0A56.69,56.69,0,1,1,38,118" transform="translate(-9.8 -9.81)"/><path class="cls-3" d="M80,40.86A39.14,39.14,0,1,0,119.12,80,39.13,39.13,0,0,0,80,40.86h0ZM95.53,83.67h0L78.86,99.36c-4.12,3.88-9.89-.16-9.62-4.48V64.71h0c0.07-4.12,5.62-7.81,9.66-4.12l16.6,15.17A5.61,5.61,0,0,1,95.53,83.67Z" transform="translate(-9.8 -9.81)"/></svg>