<?xml version="1.0" encoding="UTF-8"?>
<!DOCTYPE svg PUBLIC "-//W3C//DTD SVG 1.1//EN" "http://www.w3.org/Graphics/SVG/1.1/DTD/svg11.dtd">
<!-- Creator: CorelDRAW -->
<svg xmlns="http://www.w3.org/2000/svg" xml:space="preserve" width="80px" height="80px" style="shape-rendering:geometricPrecision; text-rendering:geometricPrecision; image-rendering:optimizeQuality; fill-rule:evenodd; clip-rule:evenodd"
viewBox="0 0 20.1523 20.2011"
 xmlns:xlink="http://www.w3.org/1999/xlink">
 <defs>
  <style type="text/css">
   <![CDATA[
    .fil0 {fill:white}
   ]]>
  </style>
 </defs>
 <g id="Layer_x0020_1">
  <metadata id="CorelCorpID_0Corel-Layer"/>
  <path class="fil0" d="M10.0762 20.2011c-5.56561,0 -10.0762,-4.52246 -10.0762,-10.1006 0,-5.5787 4.51056,-10.1006 10.0762,-10.1006 5.56471,0 10.0762,4.52187 10.0762,10.1006 0,5.5781 -4.51145,10.1006 -10.0762,10.1006zm-0.530497 -13.8087l0 0c0,-2.16007 -3.0961,-2.16007 -3.0961,0l0 7.56263c0,2.2166 3.0961,2.2166 3.0961,0l0 -7.56263zm4.38619 0l0 0c0,-2.16007 -3.0967,-2.16007 -3.0967,0l0 7.56263c0,2.2166 3.0967,2.2166 3.0967,0l0 -7.56263z"/>
 </g>
</svg>
