<svg id="_1" data-name="1" xmlns="http://www.w3.org/2000/svg" viewBox="0 0 417.96 185.09"><defs><style>.cls-1{fill:#afb2b2;fill-rule:evenodd;}</style></defs><title>SECTOR Progressive LOGO</title><polygon class="cls-1" points="18.43 84 0 114.44 34.02 93.08 34.02 0 18.43 84"/><polygon class="cls-1" points="34.03 99 34.03 142.58 21.27 106.97 34.03 99"/><polygon class="cls-1" points="53.59 84 72.58 114.44 38.56 93.08 38.56 0 53.59 84"/><polygon class="cls-1" points="38.49 99 38.49 142.58 51.25 106.97 38.49 99"/><path class="cls-1" d="M260.08,354.07h-2v5.39H260a3.14,3.14,0,0,0,2.26-.81,2.71,2.71,0,0,0,.87-2C263.13,354.91,262.11,354.07,260.08,354.07Z" transform="translate(-88.66 -205.09)"/><path class="cls-1" d="M242.82,354.15H241.1v6h1.72q3.49,0,3.49-3.05T242.82,354.15Z" transform="translate(-88.66 -205.09)"/><path class="cls-1" d="M318.57,354.07h-2v5.39h1.89a3.14,3.14,0,0,0,2.26-.81,2.71,2.71,0,0,0,.87-2C321.62,354.91,320.6,354.07,318.57,354.07Z" transform="translate(-88.66 -205.09)"/><path class="cls-1" d="M279.93,354.23a4.38,4.38,0,0,0-3.65,1.73,7.19,7.19,0,0,0-1.35,4.56,7.08,7.08,0,0,0,1.35,4.56,4.33,4.33,0,0,0,3.54,1.68,4.38,4.38,0,0,0,3.59-1.63,7,7,0,0,0,1.32-4.52,7.58,7.58,0,0,0-1.28-4.69A4.2,4.2,0,0,0,279.93,354.23Z" transform="translate(-88.66 -205.09)"/><path class="cls-1" d="M179.35,330.81l-34.28,59.37H472.34l34.28-59.37H179.35ZM248.8,361.7a8.34,8.34,0,0,1-5.62,1.8H241.1v6.68h-4.37V350.8h6.84q7.33,0,7.33,6.18A5.93,5.93,0,0,1,248.8,361.7ZM265,370.19l-3-5c-0.23-.38-0.44-0.72-0.65-1a5.72,5.72,0,0,0-.63-0.76,2.56,2.56,0,0,0-.66-0.49,1.7,1.7,0,0,0-.75-0.17h-1.18v7.42h-4.37V350.8h6.92q7.06,0,7.06,5.27a5.45,5.45,0,0,1-.31,1.87,5.25,5.25,0,0,1-.88,1.55,5.6,5.6,0,0,1-1.37,1.19,7,7,0,0,1-1.8.78v0.06a2.82,2.82,0,0,1,.84.44,5.84,5.84,0,0,1,.78.71,10.38,10.38,0,0,1,.72.87c0.23,0.31.44,0.61,0.63,0.91l3.66,5.73h-5Zm21.68-2.46a9.92,9.92,0,0,1-13.72.09,9.73,9.73,0,0,1-2.62-7.07,10.42,10.42,0,0,1,2.66-7.43,9.22,9.22,0,0,1,7.06-2.84,8.81,8.81,0,0,1,6.71,2.72,10,10,0,0,1,2.56,7.17A10.26,10.26,0,0,1,286.67,367.73Zm21.79,1.16a14,14,0,0,1-7.06,1.63,10.21,10.21,0,0,1-7.37-2.59,9.43,9.43,0,0,1-2.7-7.13,10,10,0,0,1,2.95-7.45,10.72,10.72,0,0,1,7.84-2.88,15.9,15.9,0,0,1,5.43.85v4.1a10.76,10.76,0,0,0-5.49-1.3,5.88,5.88,0,0,0-4.43,1.76,7.53,7.53,0,0,0-.18,9.34,5.41,5.41,0,0,0,4.14,1.63,5.78,5.78,0,0,0,2.49-.44v-3.79h-3.88v-3.49h8.25v9.75Zm15,1.3-3-5c-0.23-.38-0.44-0.72-0.65-1a5.72,5.72,0,0,0-.63-0.76,2.56,2.56,0,0,0-.66-0.49,1.7,1.7,0,0,0-.75-0.17H316.6v7.42h-4.37V350.8h6.92q7.06,0,7.06,5.27a5.44,5.44,0,0,1-.31,1.87,5.25,5.25,0,0,1-.88,1.55,5.6,5.6,0,0,1-1.37,1.19,7,7,0,0,1-1.8.78v0.06a2.82,2.82,0,0,1,.84.44,5.84,5.84,0,0,1,.78.71,10.36,10.36,0,0,1,.72.87c0.23,0.31.44,0.61,0.63,0.91l3.66,5.73h-5Zm18.46,0H330.31V350.8h11.18v3.55h-6.81v4.31H341v3.54h-6.34v4.43h7.26v3.54Zm14.82-2.72a5,5,0,0,1-1.67,1.78,7.19,7.19,0,0,1-2.45,1,14.22,14.22,0,0,1-3,.3,16.44,16.44,0,0,1-3-.27,9.17,9.17,0,0,1-2.5-.81v-4.33a8.31,8.31,0,0,0,5.34,2,6.25,6.25,0,0,0,1.44-.15,3.35,3.35,0,0,0,1-.42,1.78,1.78,0,0,0,.61-0.62,1.53,1.53,0,0,0,.2-0.78,1.66,1.66,0,0,0-.32-1,3.41,3.41,0,0,0-.89-0.83,8.64,8.64,0,0,0-1.33-.73q-0.77-.35-1.66-0.72a8.43,8.43,0,0,1-3.39-2.31,5,5,0,0,1-1.11-3.3,5.24,5.24,0,0,1,.6-2.6,5.19,5.19,0,0,1,1.66-1.8,7.54,7.54,0,0,1,2.43-1,12.44,12.44,0,0,1,2.92-.33,17.79,17.79,0,0,1,2.69.18,10.47,10.47,0,0,1,2.16.56v4a6.59,6.59,0,0,0-1.06-.6,8.86,8.86,0,0,0-1.19-.43,9.34,9.34,0,0,0-1.21-.25,9.12,9.12,0,0,0-1.14-.08,6.08,6.08,0,0,0-1.35.14,3.57,3.57,0,0,0-1,.4,2,2,0,0,0-.65.61,1.47,1.47,0,0,0-.23.8,1.52,1.52,0,0,0,.25.87,2.9,2.9,0,0,0,.73.73,8,8,0,0,0,1.15.67c0.45,0.22,1,.45,1.53.68a16.92,16.92,0,0,1,2.09,1A7.39,7.39,0,0,1,356,361.1a4.84,4.84,0,0,1,1,1.58A6.3,6.3,0,0,1,356.76,367.46Zm15.52,0a5,5,0,0,1-1.67,1.78,7.19,7.19,0,0,1-2.45,1,14.22,14.22,0,0,1-3,.3,16.44,16.44,0,0,1-3-.27,9.17,9.17,0,0,1-2.5-.81v-4.33a8.31,8.31,0,0,0,5.34,2,6.25,6.25,0,0,0,1.44-.15,3.35,3.35,0,0,0,1-.42,1.78,1.78,0,0,0,.61-0.62,1.53,1.53,0,0,0,.2-0.78,1.66,1.66,0,0,0-.32-1,3.41,3.41,0,0,0-.89-0.83,8.65,8.65,0,0,0-1.33-.73q-0.77-.35-1.66-0.72a8.43,8.43,0,0,1-3.39-2.31,5,5,0,0,1-1.11-3.3,5.24,5.24,0,0,1,.6-2.6,5.19,5.19,0,0,1,1.66-1.8,7.54,7.54,0,0,1,2.43-1,12.44,12.44,0,0,1,2.92-.33,17.79,17.79,0,0,1,2.69.18,10.47,10.47,0,0,1,2.16.56v4a6.59,6.59,0,0,0-1.06-.6,8.87,8.87,0,0,0-1.19-.43,9.34,9.34,0,0,0-1.21-.25,9.12,9.12,0,0,0-1.14-.08,6.09,6.09,0,0,0-1.35.14,3.57,3.57,0,0,0-1,.4,2,2,0,0,0-.65.61,1.47,1.47,0,0,0-.23.8,1.52,1.52,0,0,0,.25.87,2.9,2.9,0,0,0,.73.73,8,8,0,0,0,1.15.67c0.45,0.22,1,.45,1.53.68a16.93,16.93,0,0,1,2.09,1,7.39,7.39,0,0,1,1.59,1.24,4.84,4.84,0,0,1,1,1.58A6.3,6.3,0,0,1,372.28,367.46Zm9.79-13.29h-1.62v12.63h1.62v3.38h-7.61v-3.38h1.62V354.18h-1.62V350.8h7.61v3.38Zm12.25,16h-4.95l-6.6-19.39h4.71l4,13.49a9.64,9.64,0,0,1,.39,1.93H392a11,11,0,0,1,.42-2l4-13.44H401Zm20.63,0H403.33V350.8h11.18v3.55H407.7v4.31H414v3.54H407.7v4.43H415v3.54Z" transform="translate(-88.66 -205.09)"/><path class="cls-1" d="M178.06,302.23v-5a10,10,0,0,0,2.06,1.36,16.65,16.65,0,0,0,2.53,1,21.41,21.41,0,0,0,2.67.65,15.53,15.53,0,0,0,2.48.22q3.92,0,5.86-1.46a5.44,5.44,0,0,0,1.29-6.73,7.35,7.35,0,0,0-1.78-2,17.7,17.7,0,0,0-2.69-1.73c-1-.54-2.16-1.12-3.36-1.73s-2.44-1.29-3.54-2a15.24,15.24,0,0,1-2.86-2.18,9.12,9.12,0,0,1-1.91-2.69,9.15,9.15,0,0,1,.39-7.84,9.37,9.37,0,0,1,2.86-3,13,13,0,0,1,4-1.77,18.39,18.39,0,0,1,4.61-.59q5.36,0,7.82,1.29v4.78a14.16,14.16,0,0,0-8.24-2.23,13.89,13.89,0,0,0-2.79.28,8.18,8.18,0,0,0-2.48.95,5.55,5.55,0,0,0-1.77,1.7,4.46,4.46,0,0,0-.68,2.53,5.21,5.21,0,0,0,.52,2.4,6,6,0,0,0,1.53,1.85,15.3,15.3,0,0,0,2.47,1.61c1,0.53,2.09,1.1,3.35,1.72s2.53,1.32,3.69,2a16.8,16.8,0,0,1,3.06,2.35,10.52,10.52,0,0,1,2.09,2.86,8,8,0,0,1,.77,3.59,9.1,9.1,0,0,1-1,4.54,8.56,8.56,0,0,1-2.83,3,12.4,12.4,0,0,1-4.11,1.68,22.54,22.54,0,0,1-4.91.52,19.45,19.45,0,0,1-2.12-.14c-0.84-.1-1.7-0.22-2.58-0.41a20.88,20.88,0,0,1-2.49-.66,7.78,7.78,0,0,1-1.89-.87h0Zm48.43,1.47H207.27V267.44h18.41v3.84H211.52v12.07h13.1v3.81h-13.1v12.7h15v3.84h0Zm31.66-1.52a21.25,21.25,0,0,1-10,2.12q-7.74,0-12.39-5t-4.66-13.08q0-8.69,5.24-14.05a17.74,17.74,0,0,1,13.27-5.37,21.32,21.32,0,0,1,8.54,1.49v4.53a17.34,17.34,0,0,0-8.6-2.17,13.2,13.2,0,0,0-10.12,4.17Q235.54,279,235.54,286q0,6.63,3.62,10.56a12.36,12.36,0,0,0,9.53,3.94,17.88,17.88,0,0,0,9.45-2.43v4.12h0ZM287,271.28H276.5V303.7h-4.25V271.28H261.81v-3.84H287v3.84h0Zm18,33q-7.72,0-12.35-5.08T288,286q0-8.75,4.73-14t12.88-5.21a15.55,15.55,0,0,1,12.09,5.06q4.6,5.06,4.59,13.23,0,8.87-4.7,14T305,304.3h0Zm0.3-33.63a11.7,11.7,0,0,0-9.28,4.12q-3.56,4.13-3.56,10.82t3.48,10.79a11.35,11.35,0,0,0,9.06,4.08,11.9,11.9,0,0,0,9.41-3.89q3.44-3.9,3.44-10.9,0-7.19-3.33-11.1a11.45,11.45,0,0,0-9.21-3.92h0Zm50.12,33h-5.06l-6.08-10.17a22.1,22.1,0,0,0-1.61-2.42,9.23,9.23,0,0,0-1.61-1.62,5.52,5.52,0,0,0-1.77-.92,7.13,7.13,0,0,0-2.14-.29h-3.49V303.7h-4.25V267.44H340.2a15.4,15.4,0,0,1,4.38.6,9.78,9.78,0,0,1,3.49,1.8,8.35,8.35,0,0,1,2.31,3,10,10,0,0,1,.84,4.24,10.22,10.22,0,0,1-.57,3.48,9,9,0,0,1-1.61,2.81,9.74,9.74,0,0,1-2.53,2.11,13.09,13.09,0,0,1-3.33,1.36V287a7.93,7.93,0,0,1,1.59.92,9,9,0,0,1,1.27,1.23,15,15,0,0,1,1.21,1.61c0.4,0.6.84,1.29,1.32,2.08l6.81,10.9h0Zm-21.75-32.42v13.15h5.77a8.74,8.74,0,0,0,2.94-.48,6.67,6.67,0,0,0,2.34-1.38,6.22,6.22,0,0,0,1.54-2.2,7.32,7.32,0,0,0,.55-2.92,5.67,5.67,0,0,0-1.88-4.54,8.08,8.08,0,0,0-5.45-1.63h-5.82Z" transform="translate(-88.66 -205.09)"/></svg>