<svg id="_1" data-name="1" xmlns="http://www.w3.org/2000/svg" viewBox="0 0 250 250">
  <defs>
    <style>
      .cls-1 {
        fill-rule: evenodd;
      }
    </style>
  </defs>
  <title>sectrradio_logo-EE</title>
  <path class="cls-1" d="M185.08,207.17a8.88,8.88,0,0,1-6.45,2.23H175v10h-1.75V194.48h6.11a8.88,8.88,0,0,1,6,1.78,6.5,6.5,0,0,1,2.06,5.21,7.61,7.61,0,0,1-2.3,5.71h0Zm-6-11.11h-4v11.77h3.6a7.52,7.52,0,0,0,5.21-1.61,5.8,5.8,0,0,0,1.78-4.54q0-5.61-6.55-5.61h0Zm-14.2,20.23h0a11.2,11.2,0,0,1-8.68,3.55,11,11,0,0,1-8.55-3.51,13.05,13.05,0,0,1-3.18-9.12q0-6,3.27-9.55a11.5,11.5,0,0,1,8.94-3.59,10.72,10.72,0,0,1,8.28,3.45,12.85,12.85,0,0,1,3.17,9q0,6.19-3.25,9.73h0Zm-1.23-17.7h0a10.18,10.18,0,0,0-14.54.18,11.79,11.79,0,0,0-2.85,8.24,11.91,11.91,0,0,0,2.7,8.19,9.14,9.14,0,0,0,7.2,3,9.53,9.53,0,0,0,7.43-3q2.73-3,2.74-8.4t-2.67-8.25h0ZM126.28,19.83h0l17.11,89.57S164.1,144.93,164.16,145s-37.88-23.31-37.88-23.31V19.83h0Zm14.66,116.56-14.66-8.24v47.5l14.66-39.26h0Zm0.49,59.66h-7.3V219.4h-1.73V196.06H125.1v-1.58h16.34v1.58h0ZM121.25,219.4h0l-10.78-11.92a2.79,2.79,0,0,1-.42-0.57H110v12.5h-1.75V194.48H110v11.75H110a2.88,2.88,0,0,1,.46-0.61l10.23-11.14H123l-11.1,12.08,11.79,12.84h-2.45Zm1.36-91.24h0v47.5l-14.66-39.26,14.66-8.24h0ZM105.51,109.4S84.79,144.93,84.73,145s37.88-23.31,37.88-23.31V19.83L105.51,109.4h0Zm-35.84,107h0a12.44,12.44,0,0,1-3.27-9,13.38,13.38,0,0,1,3.55-9.72,12,12,0,0,1,9-3.66,17,17,0,0,1,5.58.92v1.82a13.7,13.7,0,0,0-5.61-1.18,10.13,10.13,0,0,0-7.75,3.18,11.87,11.87,0,0,0-3,8.46,11.07,11.07,0,0,0,2.85,8,9.62,9.62,0,0,0,7.23,2.95,14.22,14.22,0,0,0,6.26-1.34v1.67a16.81,16.81,0,0,1-6.41,1.25,11.17,11.17,0,0,1-8.46-3.43h0ZM102,196.06H91.91v10h9.35v1.56H91.91v10.22h10.66v1.56H90.16V194.48H102v1.58Z"/>
</svg>
