<svg xmlns="http://www.w3.org/2000/svg" viewBox="0 0 292 370" xmlns:xlink="http://www.w3.org/1999/xlink">
 <defs>
  <style type="text/css">
   <![CDATA[
    .fil0 {fill:#FFF}
    .fil1 {fill:#FFF;fill-rule:nonzero}
   ]]>
  </style>
 </defs>
 <g>
  <g>
   <path class="fil0" d="M142 286l0 -87 -27 15 27 72zm39 -122l0 0 -32 -164 0 187c0,0 70,43 70,43 0,0 -38,-66 -38,-66zm-108 66l0 0c0,0 69,-43 69,-43l0 -187 -31 164c0,0 -38,66 -38,66zm76 -31l0 0 0 87 27 -72 -27 -15z"/>
   <g>
    <path class="fil1" d="M4 340l0 -3 0 -18 -4 0 0 37c0,12 10,14 13,14 8,0 17,-2 17,-16 0,-7 -2,-16 -9,-22l0 4c0,1 5,5 5,18 0,10 -4,13 -13,13 -4,0 -9,-2 -9,-13l0 -11 0 -3z"/>
    <path class="fil1" d="M95 333l0 -19 4 0 0 40c0,12 -7,16 -14,16 -6,0 -16,-2 -16,-16 0,-4 0,-6 0,-8l3 0c0,0 0,1 0,8 0,8 5,13 13,13 12,0 10,-14 10,-23 0,-13 -9,-18 -23,-12l0 -4c11,-4 19,-2 23,5z"/>
    <path class="fil1" d="M61 328c3,5 3,10 3,26 0,12 -6,16 -13,16 -7,0 -17,-2 -17,-16 0,-4 0,-6 0,-8l4 0c0,0 0,1 0,8 0,8 4,13 13,13 12,0 10,-18 10,-27 0,-12 -9,-18 -23,-12l0 -4c10,-4 20,-1 23,4z"/>
    <path class="fil1" d="M125 370c-2,0 -4,0 -6,-1 4,1 8,1 11,1 -1,0 -3,0 -5,0zm-3 -46c-10,-7 4,-17 9,-9 1,2 1,5 -1,7 4,1 7,2 9,5 3,2 6,6 7,10l0 0c0,0 0,1 0,1 1,2 1,5 1,7 0,14 -7,25 -22,25 -4,0 -7,-1 -10,-2l0 0c0,0 0,0 0,0 0,0 0,0 -1,0l0 0c-2,-2 -4,-3 -5,-5l0 0c0,0 0,0 0,0l-1 -1 0 0c-6,-8 -6,-19 -2,-28 0,-1 1,-2 1,-2l4 0c-9,12 -5,35 14,35 10,0 15,-6 18,-13 -1,4 -4,7 -7,10 4,-4 8,-9 8,-18 0,-1 0,-2 0,-3 -1,-1 -1,-2 -1,-3 -1,-6 -5,-11 -10,-14 -1,0 -1,0 -2,0 2,2 2,6 0,8l0 0c-7,6 -17,-1 -12,-8l0 0 3 -2zm-19 24c0,-5 1,-10 3,-14 -2,4 -3,10 -3,14zm30 -25c2,1 3,2 5,3 -1,-1 -3,-2 -5,-3zm14 19c0,1 0,2 0,3 0,4 0,7 -1,10 1,-5 1,-9 1,-13zm-2 13l0 1 0 0 0 -1zm-27 11c-2,-1 -3,-2 -5,-3 2,1 3,2 5,3zm7 -44c7,-3 2,-9 -2,-6l0 0c-2,2 -1,5 2,6zm0 4l-3 2c-1,1 -1,2 -1,3l0 0c3,6 14,-1 5,-5 -1,0 -1,0 -1,0z"/>
    <path class="fil1" d="M256 343c0,-14 6,-21 18,-21 17,0 18,14 18,27l0 0c-1,9 -4,16 -10,21l0 -5c6,-6 6,-13 6,-22 0,-12 -5,-18 -14,-18 -15,0 -14,13 -14,23 0,13 5,17 5,18l0 4c-8,-7 -9,-16 -9,-27z"/>
    <path class="fil1" d="M230 332c1,-4 3,-10 10,-10 13,0 12,22 12,27 -1,9 -3,16 -10,21l1 -5c5,-6 5,-13 5,-22 0,-10 -2,-17 -8,-17 -8,0 -9,11 -9,20l-3 0c0,-9 0,-20 -8,-20 -7,0 -9,7 -9,17 0,9 0,16 6,22l0 5c-6,-5 -9,-12 -9,-21 0,-5 -1,-35 21,-35 1,0 2,0 4,0l0 4c-5,-2 -13,0 -15,4 0,0 1,0 2,0 7,0 8,6 10,10z"/>
    <path class="fil1" d="M173 332c2,-4 3,-10 10,-10 13,0 12,22 12,27 0,5 -1,9 -3,13 2,0 4,-1 6,-1 1,0 2,0 3,1 1,0 2,0 2,0l0 4c0,-1 0,-1 -1,-1 0,0 -1,0 -1,0 -1,0 -1,0 -1,0 -1,0 -1,0 -2,0 -1,0 -3,0 -4,0 -2,1 -3,1 -4,2 -1,1 -2,1 -2,2 -1,0 -1,1 -2,1l0 -5c6,-6 6,-13 6,-22 0,-10 -2,-17 -9,-17 -8,0 -8,11 -8,20l-3 0c0,-9 -1,-20 -9,-20 -6,0 -8,7 -8,17 0,9 0,16 6,22l0 5c-6,-5 -9,-12 -10,-21 0,-5 -1,-27 12,-27 8,0 9,6 10,10z"/>
   </g>
  </g>
 </g>
</svg>
