<svg id="_1" data-name="1" xmlns="http://www.w3.org/2000/svg" viewBox="0 0 250 250">
  <defs>
    <style>
      .cls-1 {
        fill-rule: evenodd;
      }
    </style>
  </defs>
  <title>sectrradio_logo-AR</title>
  <g>
    <path class="cls-1" d="M126.64,20.25h0l17.11,89.57s20.71,35.53,20.78,35.58-37.88-23.31-37.88-23.31V20.25h0ZM141.3,136.81l-14.66-8.24v47.5l14.66-39.26h0ZM123,128.57h0v47.5l-14.66-39.26L123,128.57h0Zm-17.11-18.75S85.15,145.35,85.09,145.4,123,122.09,123,122.09V20.25l-17.11,89.57h0Z"/>
    <path class="cls-1" d="M69,218.9v-2a10.34,10.34,0,0,0,5.6,1.76,7.17,7.17,0,0,0,4.57-1.25,4.22,4.22,0,0,0,1.56-3.49,4.56,4.56,0,0,0-1-3.15,20.61,20.61,0,0,0-4.55-3.21q-3.91-2.29-5-3.82a6.18,6.18,0,0,1-1-3.55,6,6,0,0,1,2.12-4.64,8.13,8.13,0,0,1,5.65-1.91,14.33,14.33,0,0,1,4.59.77v1.87a11.63,11.63,0,0,0-4.83-1,6.12,6.12,0,0,0-4.16,1.33A4.26,4.26,0,0,0,71,199.94a4.53,4.53,0,0,0,1,3.15,20.72,20.72,0,0,0,4.54,3.18,16.31,16.31,0,0,1,4.81,3.64,5.93,5.93,0,0,1,1.2,3.66,6.22,6.22,0,0,1-2.05,4.82,8.35,8.35,0,0,1-5.81,1.87,13.35,13.35,0,0,1-3.06-.41A9.73,9.73,0,0,1,69,218.9h0Zm19,0.91V194.06h12v1.62H89.8V206h9.53v1.62H89.8v10.56h10.85v1.62H88Zm44.68-24.13v24.13h-1.77V195.68h-7.43v-1.62h16.63v1.62h-7.43Zm20.23,24.57a11.09,11.09,0,0,1-8.71-3.63,13.6,13.6,0,0,1-3.24-9.43q0-6.15,3.34-9.86a11.62,11.62,0,0,1,9.1-3.71,10.85,10.85,0,0,1,8.44,3.56,13.4,13.4,0,0,1,3.23,9.35q0,6.39-3.3,10.05a11.32,11.32,0,0,1-8.84,3.67h0Zm0.18-25a9.47,9.47,0,0,0-7.39,3.25,14.2,14.2,0,0,0-.15,17,9.23,9.23,0,0,0,7.33,3.15,9.63,9.63,0,0,0,7.56-3.12q2.79-3.12,2.78-8.69t-2.72-8.52a9.4,9.4,0,0,0-7.41-3.07h0Zm30.37,24.57-3.43-7.54a8.29,8.29,0,0,0-2.12-3.14,4.3,4.3,0,0,0-2.66-.8h-3.2v11.48h-1.77V194.06h7.15a7.49,7.49,0,0,1,5.36,1.84,6.36,6.36,0,0,1,1.95,4.86,6.9,6.9,0,0,1-1.6,4.65,7.5,7.5,0,0,1-4.47,2.41v0.07q1.53,0.62,3,3.72l3.83,8.2h-2Zm-11.42-24.13v11h4.44a6.77,6.77,0,0,0,4.68-1.54,5.39,5.39,0,0,0,1.74-4.24,4.9,4.9,0,0,0-1.56-3.86,6.52,6.52,0,0,0-4.48-1.39h-4.81ZM118.9,219.81l-11-12.32a2.78,2.78,0,0,1-.43-0.59h-0.07v12.91h-1.77V194.06h1.77V206.2h0.07a2.84,2.84,0,0,1,.47-0.63l10.42-11.51h2.32l-11.31,12.48,12,13.27h-2.5Z"/>
  </g>
</svg>
