<svg xmlns="http://www.w3.org/2000/svg" version="1.1" viewBox="0 0 257 432" xmlns:xlink="http://www.w3.org/1999/xlink">
 <defs>
  <style type="text/css">
   <![CDATA[
    .fil0 {fill:#FFF}
   ]]>
  </style>
 </defs>
 <g>
  <g>
   <g>
    <path class="fil0" d="M118 335l0 -102 -31 17 31 85zm45 -143l0 0 -37 -192 0 219c0,0 81,50 81,50 0,0 -44,-77 -44,-77zm-126 77l0 0c0,0 81,-50 81,-50l0 -219 -37 192c0,0 -44,77 -44,77zm89 -36l0 0 0 102 32 -85 -32 -17zm123 181l0 0c-2,-5 -4,-7 -6,-8l0 0c4,-1 7,-3 9,-5 3,-3 4,-6 4,-10 0,-5 -2,-8 -4,-11 -3,-2 -7,-4 -12,-4l-15 0 0 55 4 0 0 -24 6 0c3,0 5,0 6,2 2,1 3,3 5,6l7 16 4 0 -8 -17zm-11 -11l0 0 -9 0 0 -23 10 0c4,0 7,1 9,3 3,2 4,4 4,8 0,4 -1,7 -4,9 -2,2 -6,3 -10,3zm-193 2l0 0 20 0 0 -3 -20 0 0 -22 22 0 0 -4 -26 0 0 55 27 0 0 -3 -23 0 0 -23zm-29 -3l0 0c-5,-2 -8,-5 -9,-6 -2,-2 -3,-4 -3,-7 0,-3 1,-6 4,-7 2,-2 5,-3 9,-3 3,0 7,0 10,2l0 -4c-3,-1 -7,-2 -10,-2 -5,0 -9,2 -12,4 -3,3 -5,6 -5,10 0,3 1,6 3,8 1,2 5,5 10,8 5,3 8,5 10,7 1,2 2,4 2,7 0,3 -1,5 -3,7 -2,2 -6,3 -10,3 -4,0 -8,-1 -12,-4l0 5c1,0 3,1 6,2 2,0 4,0 6,0 6,0 10,-1 13,-4 3,-2 4,-6 4,-10 0,-3 -1,-5 -2,-8 -2,-2 -6,-5 -11,-8zm69 -19l0 0c-5,6 -7,13 -7,22 0,8 2,15 7,20 5,5 11,7 18,7 5,0 10,0 14,-2l0 -4c-4,2 -8,3 -13,3 -7,0 -12,-2 -16,-7 -4,-4 -6,-10 -6,-17 0,-8 2,-15 6,-19 4,-5 10,-7 17,-7 4,0 8,1 12,2l0 -4c-4,-1 -8,-2 -12,-2 -8,0 -14,3 -20,8zm103 -8l0 0c-8,0 -14,3 -19,8 -5,6 -7,13 -7,21 0,9 2,15 7,21 4,5 11,7 18,7 8,0 15,-2 19,-7 5,-6 7,-13 7,-22 0,-8 -2,-15 -7,-20 -4,-5 -10,-8 -18,-8zm15 47l0 0c-3,5 -9,7 -16,7 -6,0 -12,-2 -15,-7 -4,-4 -6,-10 -6,-18 0,-8 2,-14 6,-18 4,-5 9,-7 16,-7 6,0 12,2 16,6 4,5 5,11 5,19 0,8 -2,14 -6,18zm-78 -42l0 0 16 0 0 51 4 0 0 -51 16 0 0 -4 -36 0 0 4z"/>
   </g>
  </g>
 </g>
</svg>
