<svg id="_1" data-name="1" xmlns="http://www.w3.org/2000/svg" viewBox="0 0 266.71 185.09"><defs><style>.cls-1{fill:#afb2b2;fill-rule:evenodd;}</style></defs><title>SECTOR 90s LOGO</title><polygon class="cls-1" points="18.43 84 0 114.44 34.02 93.08 34.02 0 18.43 84"/><polygon class="cls-1" points="34.03 99 34.03 142.58 21.27 106.97 34.03 99"/><polygon class="cls-1" points="53.59 84 72.58 114.44 38.56 93.08 38.56 0 53.59 84"/><polygon class="cls-1" points="38.49 99 38.49 142.58 51.25 106.97 38.49 99"/><path class="cls-1" d="M289.73,354q-2.77,0-2.77,7,0,6.56,2.71,6.56t2.65-6.76Q292.33,354,289.73,354Z" transform="translate(-164.28 -205.09)"/><path class="cls-1" d="M273.52,354a2.24,2.24,0,0,0-1.83.9,3.63,3.63,0,0,0-.72,2.32,3.48,3.48,0,0,0,.71,2.32,2.38,2.38,0,0,0,1.92.84,2.31,2.31,0,0,0,1.81-.8,3,3,0,0,0,.7-2,4.2,4.2,0,0,0-.74-2.54A2.22,2.22,0,0,0,273.52,354Z" transform="translate(-164.28 -205.09)"/><path class="cls-1" d="M255,330.81L220.7,390.18H321.19l34.28-59.37H255Zm23.25,37.05a7.4,7.4,0,0,1-6.22,2.88,10.11,10.11,0,0,1-4.09-.76v-3.52a6.54,6.54,0,0,0,3.68,1,4.2,4.2,0,0,0,3.47-1.52,6.79,6.79,0,0,0,1.24-4.32l-0.08,0a4.4,4.4,0,0,1-3.91,1.91,5.16,5.16,0,0,1-3.94-1.67,6,6,0,0,1-1.56-4.31,6.65,6.65,0,0,1,1.91-5,6.74,6.74,0,0,1,4.93-1.87,6,6,0,0,1,5,2.35q1.84,2.35,1.85,6.73Q280.44,365,278.22,367.86Zm16.61,0.26a6.08,6.08,0,0,1-5.29,2.62q-6.92,0-6.92-9.72,0-5,1.87-7.69a6.23,6.23,0,0,1,5.43-2.64q6.76,0,6.76,9.89Q296.68,365.5,294.83,368.12Zm13.75,0.16a4.25,4.25,0,0,1-1.42,1.42,6.46,6.46,0,0,1-2,.8,11.35,11.35,0,0,1-2.4.25,12.45,12.45,0,0,1-4.23-.7v-3.46a9.18,9.18,0,0,0,2.1.95,6.94,6.94,0,0,0,2,.31,4.23,4.23,0,0,0,1.79-.31,1,1,0,0,0,.66-0.95,0.88,0.88,0,0,0-.3-0.68,2.72,2.72,0,0,0-.77-0.47,8.49,8.49,0,0,0-1-.36c-0.37-.11-0.72-0.23-1.07-0.36a10.76,10.76,0,0,1-1.45-.67,4.21,4.21,0,0,1-1.06-.84,3.25,3.25,0,0,1-.65-1.09,4.39,4.39,0,0,1-.23-1.47,3.81,3.81,0,0,1,.51-2,4.13,4.13,0,0,1,1.35-1.37,6.19,6.19,0,0,1,1.93-.78,10.11,10.11,0,0,1,2.27-.25,12.24,12.24,0,0,1,1.86.14,13.66,13.66,0,0,1,1.87.41v3.3a6.66,6.66,0,0,0-1.74-.71,7.36,7.36,0,0,0-1.82-.24,3.89,3.89,0,0,0-.79.07,2.41,2.41,0,0,0-.66.22,1.13,1.13,0,0,0-.44.36,0.82,0.82,0,0,0-.16.51,0.94,0.94,0,0,0,.24.65,2.13,2.13,0,0,0,.64.47,5.81,5.81,0,0,0,.87.35l1,0.32a12.4,12.4,0,0,1,1.54.65,4.9,4.9,0,0,1,1.18.83,3.23,3.23,0,0,1,.76,1.11A4.44,4.44,0,0,1,308.58,368.28Z" transform="translate(-164.28 -205.09)"/><path class="cls-1" d="M253.68,302.23v-5a10,10,0,0,0,2.06,1.36,16.65,16.65,0,0,0,2.53,1,21.41,21.41,0,0,0,2.67.65,15.53,15.53,0,0,0,2.48.22q3.92,0,5.86-1.46a5.44,5.44,0,0,0,1.29-6.73,7.35,7.35,0,0,0-1.78-2,17.7,17.7,0,0,0-2.69-1.73c-1-.54-2.16-1.12-3.36-1.73s-2.44-1.29-3.54-2a15.24,15.24,0,0,1-2.86-2.18,9.12,9.12,0,0,1-1.91-2.69,9.15,9.15,0,0,1,.39-7.84,9.37,9.37,0,0,1,2.86-3,13,13,0,0,1,4-1.77,18.39,18.39,0,0,1,4.61-.59q5.36,0,7.82,1.29v4.78a14.16,14.16,0,0,0-8.24-2.23,13.89,13.89,0,0,0-2.79.28,8.18,8.18,0,0,0-2.48.95,5.55,5.55,0,0,0-1.77,1.7,4.46,4.46,0,0,0-.68,2.53,5.21,5.21,0,0,0,.52,2.4,6,6,0,0,0,1.53,1.85A15.3,15.3,0,0,0,262.7,282c1,0.53,2.09,1.1,3.35,1.72s2.53,1.32,3.69,2a16.8,16.8,0,0,1,3.06,2.35,10.52,10.52,0,0,1,2.09,2.86,8,8,0,0,1,.77,3.59,9.1,9.1,0,0,1-1,4.54,8.56,8.56,0,0,1-2.83,3,12.4,12.4,0,0,1-4.11,1.68,22.54,22.54,0,0,1-4.91.52,19.45,19.45,0,0,1-2.12-.14c-0.84-.1-1.7-0.22-2.58-0.41a20.88,20.88,0,0,1-2.49-.66,7.78,7.78,0,0,1-1.89-.87h0Zm48.43,1.47H282.9V267.44h18.41v3.84H287.14v12.07h13.1v3.81h-13.1v12.7h15v3.84h0Zm31.66-1.52a21.25,21.25,0,0,1-10,2.12q-7.74,0-12.39-5t-4.66-13.08q0-8.69,5.24-14.05a17.74,17.74,0,0,1,13.27-5.37,21.32,21.32,0,0,1,8.54,1.49v4.53a17.34,17.34,0,0,0-8.6-2.17A13.2,13.2,0,0,0,315,274.85Q311.16,279,311.16,286q0,6.63,3.62,10.56a12.36,12.36,0,0,0,9.53,3.94,17.88,17.88,0,0,0,9.45-2.43v4.12h0Zm28.83-30.9H352.12V303.7h-4.25V271.28H337.43v-3.84h25.16v3.84h0Zm18,33q-7.72,0-12.35-5.08T363.58,286q0-8.75,4.73-14t12.88-5.21a15.55,15.55,0,0,1,12.09,5.06q4.6,5.06,4.59,13.23,0,8.87-4.7,14t-12.59,5.15h0Zm0.3-33.63a11.7,11.7,0,0,0-9.28,4.12Q368,278.92,368,285.62t3.48,10.79a11.35,11.35,0,0,0,9.06,4.08,11.9,11.9,0,0,0,9.41-3.89q3.44-3.9,3.44-10.9,0-7.19-3.33-11.1a11.45,11.45,0,0,0-9.21-3.92h0Zm50.12,33h-5.06l-6.08-10.17a22.1,22.1,0,0,0-1.61-2.42,9.23,9.23,0,0,0-1.61-1.62,5.52,5.52,0,0,0-1.77-.92,7.13,7.13,0,0,0-2.14-.29h-3.49V303.7H405V267.44h10.82a15.4,15.4,0,0,1,4.38.6,9.78,9.78,0,0,1,3.49,1.8,8.35,8.35,0,0,1,2.31,3,10,10,0,0,1,.84,4.24,10.22,10.22,0,0,1-.57,3.48,9,9,0,0,1-1.61,2.81,9.74,9.74,0,0,1-2.53,2.11,13.09,13.09,0,0,1-3.33,1.36V287a7.93,7.93,0,0,1,1.59.92,9,9,0,0,1,1.27,1.23,15,15,0,0,1,1.21,1.61c0.4,0.6.84,1.29,1.32,2.08L431,303.7h0Zm-21.75-32.42v13.15H415A8.74,8.74,0,0,0,418,284a6.67,6.67,0,0,0,2.34-1.38,6.22,6.22,0,0,0,1.54-2.2,7.32,7.32,0,0,0,.55-2.92,5.67,5.67,0,0,0-1.88-4.54,8.08,8.08,0,0,0-5.45-1.63h-5.82Z" transform="translate(-164.28 -205.09)"/></svg>