<svg xmlns="http://www.w3.org/2000/svg" viewBox="0 0 70.39 116.36" preserveAspectRatio="xMidYMin meet"><path fill="#FFFFFF" class="cls-1" d="M340.8,447a5.16,5.16,0,0,1-3.75,1.3h-2.11v5.81h-1v-14.5h3.55a5.16,5.16,0,0,1,3.47,1,3.78,3.78,0,0,1,1.2,3A4.43,4.43,0,0,1,340.8,447Zm-3.52-6.47h-2.35v6.84H337a4.38,4.38,0,0,0,3-.94,3.38,3.38,0,0,0,1-2.64Q341.09,440.54,337.28,440.54ZM329,452.31a6.52,6.52,0,0,1-5.05,2.06,6.39,6.39,0,0,1-5-2,7.59,7.59,0,0,1-1.85-5.31,7.93,7.93,0,0,1,1.9-5.56,6.69,6.69,0,0,1,5.2-2.09,6.24,6.24,0,0,1,4.82,2,7.48,7.48,0,0,1,1.84,5.26A8.07,8.07,0,0,1,329,452.31ZM328.3,442a5.92,5.92,0,0,0-8.46.11,6.86,6.86,0,0,0-1.66,4.79,6.93,6.93,0,0,0,1.57,4.77,5.32,5.32,0,0,0,4.19,1.77,5.54,5.54,0,0,0,4.32-1.75,7,7,0,0,0,1.59-4.89A6.91,6.91,0,0,0,328.3,442ZM306.59,338l10,52.11s12,20.67,12.09,20.7-22-13.56-22-13.56V338Zm8.53,67.81-8.53,22.84V401Zm0.29,34.71h-4.25v13.58h-1V440.54H305.9v-0.92h9.51v0.92Zm-11.74,13.58-6.27-6.94a1.62,1.62,0,0,1-.25-0.33h0v7.27h-1v-14.5h1v6.83h0a1.68,1.68,0,0,1,.27-0.35l6-6.48h1.32l-6.46,7,6.86,7.47h-1.43ZM304.45,401v27.64l-8.53-22.84Zm-10-10.91,10-52.11v59.25s-22,13.57-22,13.56S294.5,390.12,294.5,390.12Zm-20.85,62.25a7.24,7.24,0,0,1-1.9-5.21,7.78,7.78,0,0,1,2.06-5.66,7,7,0,0,1,5.25-2.13,9.86,9.86,0,0,1,3.24.54V441a8,8,0,0,0-3.26-.69,5.9,5.9,0,0,0-4.51,1.85,6.91,6.91,0,0,0-1.73,4.92,6.44,6.44,0,0,0,1.66,4.68,5.6,5.6,0,0,0,4.2,1.71,8.27,8.27,0,0,0,3.64-.78v1a9.78,9.78,0,0,1-3.73.73A6.5,6.5,0,0,1,273.65,452.37Zm18.8-11.83h-5.86v5.81H292v0.91h-5.44v5.95h6.2v0.91h-7.22v-14.5h6.88v0.92Z" transform="translate(-271.75 -338.01)"/></svg>