<svg id="_1" data-name="1" xmlns="http://www.w3.org/2000/svg" viewBox="0 0 250 250">
  <defs>
    <style>
      .cls-1 {
        fill-rule: evenodd;
      }
    </style>
  </defs>
  <title>sectrradio_logo-GE</title>
  <path class="cls-1" d="M122.76,175.66V128.48l-14.57,8.18,14.57,39h0Zm20.64-65.82h0l-17-89V122S164,145.2,164,145.19s-20.64-35.35-20.64-35.35h0ZM85.13,145.19c0.06-.05,20.64-35.35,20.64-35.35l17-89V122S85.18,145.2,85.13,145.19h0Zm41.27-16.72L141,136.66l-14.57,39V128.48h0Zm56.93,83.8h0q-1.44-3.09-3-3.69v-0.07a7.43,7.43,0,0,0,4.44-2.39,6.86,6.86,0,0,0,1.59-4.62,6.33,6.33,0,0,0-1.94-4.82,7.44,7.44,0,0,0-5.32-1.83H172v25.58h1.77V209H177a4.26,4.26,0,0,1,2.64.79,8.15,8.15,0,0,1,2.1,3.11l3.41,7.49h2l-3.8-8.15h0Zm-5.12-4.85h-4.41v-11h4.78a6.46,6.46,0,0,1,4.44,1.38,4.86,4.86,0,0,1,1.55,3.83,5.35,5.35,0,0,1-1.72,4.21,6.73,6.73,0,0,1-4.65,1.53h0Zm-89.36.91H98.3v-1.61H88.85V196.47H99v-1.62h-12v25.58H99.62v-1.61H88.85V208.34h0ZM75.65,207h0a20.61,20.61,0,0,1-4.5-3.16,4.49,4.49,0,0,1-1-3.12,4.24,4.24,0,0,1,1.53-3.35A6.09,6.09,0,0,1,75.75,196a11.5,11.5,0,0,1,4.8,1v-1.86a14.27,14.27,0,0,0-4.57-.77,8.09,8.09,0,0,0-5.62,1.89,6,6,0,0,0-2.1,4.6,6.12,6.12,0,0,0,1,3.52q1,1.53,4.92,3.79a20.62,20.62,0,0,1,4.52,3.18,4.53,4.53,0,0,1,1,3.13A4.19,4.19,0,0,1,78.23,218a7.17,7.17,0,0,1-4.55,1.24,10.27,10.27,0,0,1-5.57-1.75v2a9.84,9.84,0,0,0,2.63.95,13.31,13.31,0,0,0,3,.41A8.28,8.28,0,0,0,79.56,219a6.19,6.19,0,0,0,2-4.8,5.88,5.88,0,0,0-1.19-3.63A16.1,16.1,0,0,0,75.65,207h0Zm31.95-8.8h0q-3.59,3.75-3.59,10a12.88,12.88,0,0,0,3.31,9.2,11.2,11.2,0,0,0,8.55,3.52,16.78,16.78,0,0,0,6.48-1.28v-1.71a14.19,14.19,0,0,1-6.33,1.37,9.65,9.65,0,0,1-7.3-3,11.47,11.47,0,0,1-2.88-8.25,12.3,12.3,0,0,1,3-8.69,10.17,10.17,0,0,1,7.83-3.26,13.67,13.67,0,0,1,5.67,1.21v-1.87a16.91,16.91,0,0,0-5.64-.95,12.06,12.06,0,0,0-9.11,3.75h0Zm47.64-3.75h0a11.53,11.53,0,0,0-9,3.68q-3.31,3.68-3.31,9.8a13.53,13.53,0,0,0,3.22,9.36,11,11,0,0,0,8.64,3.6,11.24,11.24,0,0,0,8.78-3.64q3.28-3.64,3.28-10a13.31,13.31,0,0,0-3.2-9.28,10.76,10.76,0,0,0-8.37-3.54h0Zm7,21.74h0a9.56,9.56,0,0,1-7.51,3.09,9.17,9.17,0,0,1-7.28-3.13,12.35,12.35,0,0,1-2.73-8.41,12.22,12.22,0,0,1,2.88-8.45,10.18,10.18,0,0,1,14.7-.19q2.7,3,2.7,8.46t-2.76,8.62h0Zm-36.39-19.68h7.38v24H135v-24h7.38v-1.62H125.84v1.62Z"/>
</svg>
