<?xml version="1.0" encoding="utf-8"?>
<!-- Generator: Adobe Illustrator 17.0.0, SVG Export Plug-In . SVG Version: 6.00 Build 0)  -->
<!DOCTYPE svg PUBLIC "-//W3C//DTD SVG 1.1//EN" "http://www.w3.org/Graphics/SVG/1.1/DTD/svg11.dtd">
<svg version="1.1" id="Слой_1" xmlns="http://www.w3.org/2000/svg" xmlns:xlink="http://www.w3.org/1999/xlink" x="0px" y="0px"
	 width="340px" height="25px" viewBox="0 0 340 25" enable-background="new 0 0 340 25" xml:space="preserve">
<g>
	<g opacity="0.9">
		<defs>
			<path id="SVGID_1_" opacity="0.9" d="M49.089489,15.7639008c0.1578712,0.0762339,0.3334846,0.113512,0.5268631,0.113512
				c0.1862373,0,0.3246307-0.0159674,0.4133072-0.0514441c0.0904465-0.0337057,0.2430382-0.1348228,0.4559097-0.2998085
				c0.0407906-0.0337057,0.1064453-0.0816078,0.1968918-0.1436768c0.1650162,0.1312809,0.2998085,0.2607603,0.4026794,0.3920412
				l0.0425911,0.124198c-0.2412529,0.3795843-0.5818481,0.6776228-1.0200233,0.8958235
				c-0.4381409,0.2164307-0.9047089,0.3246307-1.4014053,0.3246307c-0.6421471,0-1.1619606-0.2022324-1.5628548-0.6084709
				c-0.3991241-0.406208-0.5995865-1.0377302-0.5995865-1.8910255l0.0408173-1.8182707V9.8566265l-0.3211174-0.0212803
				l-0.7450371,0.0212803l-0.133049-0.053215c-0.0425911-0.0603275-0.06213-0.1188545-0.06213-0.1738701
				c0-0.0407887,0.0053711-0.1933498,0.0195389-0.4611931c0.8142471-0.3441391,1.4032097-0.6811953,1.7651176-1.011138
				c0.3618469-0.3317437,0.7503471-0.8692627,1.1636696-1.6125264h0.5800781
				c0.0620956,0.179153,0.0922623,0.3689604,0.0922623,0.5694232c0,0.358336-0.0035744,0.6386361-0.0106239,0.837328
				l-0.0301666,0.6119833c0,0.0337048,0.0035133,0.113512,0.0106239,0.23771l0.2377129,0.0088835
				c0.0337029,0,0.3583641-0.0124254,0.9721184-0.0407887c0.0479012,0,0.3068771-0.0071135,0.7751999-0.0213099
				c0.0425873,0.1844959,0.0621147,0.3494816,0.0621147,0.4931583c0,0.1561327-0.0230675,0.3405972-0.0709534,0.5534554
				c-0.2288589,0.0408192-0.400898,0.0620995-0.518013,0.0620995c-0.054985,0-0.1649857-0.0141964-0.3317261-0.0425596h-0.5374908
				l-0.186264-0.0106554l-0.4967003,0.0319347l-0.0212784,3.9523802c-0.0071144,0.7663441,0.0088539,1.2435045,0.0478706,1.4333124
				C48.8836823,15.4108467,48.9653206,15.5918007,49.089489,15.7639008L49.089489,15.7639008z M62.798542,16.7235947
				c-0.0142136,0.0762653-0.0213089,0.188036-0.0213089,0.3387966l-0.2377281,0.0159969
				c-0.1028709,0-0.3068619-0.0141964-0.6101952-0.0408192c-0.5783234-0.0567551-1.0661545-0.0833778-1.4581795-0.0833778
				c-0.2554626,0-0.597847,0.0141964-1.0253792,0.0407887c-0.3033218,0.0141964-0.6900673,0.0213089-1.1583862,0.0213089
				c-0.0762672,0-0.145462-0.0106544-0.2075157-0.0319347v-0.248333l-0.0195236-0.1348228
				c0-0.0550156,0.0159492-0.1295109,0.0514412-0.2270851c0.1578903-0.0762653,0.3423538-0.1259384,0.5534401-0.1490192
				c0.2111206-0.0248222,0.4080429-0.0496426,0.5943069-0.0780373c0.0283775-0.1312809,0.0461006-0.2146282,0.0514145-0.2483339
				l0.0532455-1.5114403v-2.5349417c0-0.7521791-0.0425758-1.2595034-0.1241837-1.5256062
				c-0.0833778-0.2661037-0.2554474-0.4825344-0.5180092-0.6528025c-0.262516-0.1685276-0.5800781-0.2519064-0.9525795-0.2519064
				c-0.4346161,0-0.856823,0.1011171-1.2666168,0.3050909c-0.4115372,0.2022333-0.7609863,0.4435158-1.0501556,0.7184725v1.8111877
				c0,0.9933996-0.0088844,1.7384644-0.0248528,2.2351646c-0.0106392,0.2962675-0.0159531,0.4825335-0.0159531,0.5588293
				c0,0.4753895,0.0301628,0.8035917,0.092247,0.9827738c0.0266075,0.0815773,0.1028748,0.1578426,0.2270546,0.2270565
				c0.2554665,0.0212784,0.4683228,0.0337048,0.6368523,0.0354443c0.1685104,0.0035419,0.305088,0.0195408,0.4080238,0.0479031
				c0.0141792,0.1702995,0.0212479,0.2891541,0.0212479,0.3565655c0,0.0958042-0.0141792,0.2111168-0.0407715,0.3459091
				l-1.1513214-0.0461006c-0.4363556-0.0301647-0.8266411-0.0461311-1.1725502-0.0461311l-1.4510956,0.0727539l-1.0164833-0.0106564
				c-0.0691643-0.0975742-0.1419029-0.2696438-0.2164116-0.5180092v-0.1348228
				c0.1100006-0.0265923,0.4168625-0.0674114,0.9206581-0.124136c0.2199745-0.0266228,0.3583679-0.0745564,0.413353-0.1437073
				c0.0691986-0.1046581,0.1028709-0.3494816,0.1028709-0.7344398v-0.7361507l0.0319519-0.7752285v-0.8479528l0.0106392-0.2075758
				l-0.0106392-0.5179796l0.0213089-0.1756115l0.04076-3.7554579V8.0560932c0-1.2843542-0.0354614-2.077291-0.1028748-2.3806415
				c-0.042572-0.179183-0.1401482-0.3210883-0.2962494-0.4240065c-0.1543198-0.1028571-0.5179825-0.2004323-1.0910072-0.2891235
				V4.7441206c0-0.1029181,0.0071144-0.2305961,0.0213089-0.3831568l0.8710365-0.1862969
				c0.1720543-0.0479021,0.33881-0.0886908,0.4984398-0.124167c0.3867264-0.0816081,0.8745728-0.2536776,1.4617653-0.5162089
				c0.1046295-0.062099,0.2004471-0.1135428,0.2909241-0.1561022l0.5605392,0.0425594L55.473877,9.6082611
				c0.626255-0.4966993,1.1974335-0.8496923,1.7136574-1.0554676c0.5162086-0.2075768,1.0537148-0.3104334,1.6124954-0.3104334
				c0.5286522,0,0.9898605,0.0940027,1.3783607,0.2838106c0.3884964,0.1898079,0.6900635,0.4239759,0.902935,0.7042456
				c0.2146759,0.2785292,0.3654518,0.6191273,0.4559135,1.0182514c0.0620842,0.2696447,0.0922775,0.7876549,0.0922775,1.5521984
				v0.6616859l0.0106392,1.4599962l-0.0514755,2.1109962c0.0266075,0.0620689,0.0585442,0.1028576,0.0922508,0.1241379
				c0.0833778,0.0337048,0.2856102,0.0816383,0.6102409,0.1437073c0.1862679,0.0354748,0.3317451,0.065609,0.4346161,0.0940323
				c0.0550003,0.1028576,0.0833931,0.1844654,0.0833931,0.2465649L62.798542,16.7235947L62.798542,16.7235947z
				 M69.0374832,11.811552c-0.3991089-0.0355072-0.6758347-0.0514746-0.8266602-0.0514746
				c-0.0496521,0-0.4221878,0.0070829-1.1175613,0.0195084h-0.8905334c-0.0142059,0.0975752-0.0212936,0.180954-0.0212936,0.2501364
				c0,0.3672199,0.0461349,0.7521477,0.1348267,1.1566153c0.090477,0.4044371,0.2252808,0.7610321,0.4044495,1.0679245
				c0.1791687,0.3086624,0.4009094,0.5729647,0.6670151,0.7947073c0.2661057,0.2199717,0.5392914,0.3796148,0.8230972,0.477191
				l0.5996017,0.1969213c0.530426,0,0.8869858-0.0177689,1.0661545-0.0514746
				c0.3299332-0.0691519,0.6226578-0.1578426,0.8745346-0.2643023c0.250145-0.1064291,0.5570068-0.2873831,0.9153748-0.5428314
				c0.2483368,0.179183,0.4541092,0.3405981,0.6208496,0.4860754c-0.6066666,0.6687689-1.2364349,1.1530733-1.8892212,1.4528818
				c-0.651062,0.2997799-1.380127,0.4505692-2.187294,0.4505692c-0.5463562,0-0.9898529-0.0479031-1.3357773-0.1454773
				c-0.4612122-0.1241684-0.8798599-0.3139763-1.2523804-0.5694237c-0.3707886-0.2554474-0.6918793-0.5729647-0.9615097-0.952611
				c-0.2696304-0.3796148-0.4683228-0.7699165-0.5995865-1.1707811c-0.1738396-0.5251236-0.2589722-0.945528-0.2589722-1.2630749
				c0-0.6013889,0.0478706-1.1441898,0.1454468-1.6267233c0.1791687-0.5871611,0.3370438-0.9774323,0.4754333-1.1708117
				c0.3867188-0.5658817,0.7982635-1.007596,1.2364197-1.3269138c0.4381638-0.3175468,0.8319855-0.5268641,1.1849976-0.6315222
				C67.2990189,8.2654104,67.6679916,8.19977,67.9518356,8.19977c0.6474915,0,1.1725845,0.0496731,1.5717087,0.1507893
				c0.4009247,0.0993156,0.7361984,0.2430229,1.0040512,0.4292889c0.386734,0.2678432,0.6971817,0.5410604,0.9313354,0.8160181
				c0.2341537,0.2749567,0.4257278,0.5995874,0.5747757,0.9721193c0.1472244,0.3725328,0.2288132,0.823101,0.2430267,1.3535061
				l-1.1477737-0.0195093C70.8114548,11.9019823,70.1142731,11.8718185,69.0374832,11.811552L69.0374832,11.811552z
				 M69.7311172,9.975481c-0.145462-0.3547935-0.3689728-0.6297512-0.6723557-0.8266726
				c-0.3033218-0.1986618-0.6102448-0.296237-0.9206467-0.296237c-0.4630051,0-0.8798828,0.2040043-1.2524338,0.6102428
				c-0.3724976,0.4062376-0.5836029,0.9579535-0.6315231,1.6550856l2.3593521,0.0212793
				c0.1525726,0,0.365448-0.0106239,0.6421738-0.0319042c0.1986923-0.0177374,0.3406143-0.0283928,0.4239731-0.0283928
				c0.0621033,0,0.154335,0.0035715,0.2785187,0.0088539C69.9528656,10.6992664,69.8765793,10.3285046,69.7311172,9.975481
				L69.7311172,9.975481z M88.1801605,16.9949799c-0.8976364-0.054985-1.5415878-0.0815773-1.9353867-0.0815773
				c-0.0816193,0-0.2341537,0.0088844-0.4541397,0.0301628h-0.3317261c-0.5037842,0.054987-0.9135971,0.0833797-1.2310944,0.0833797
				l-0.1348572-0.0106564c-0.0141754-0.1312809-0.0212784-0.2270851-0.0212784-0.2909546
				c0-0.0478706,0.0035553-0.117054,0.010643-0.2057438c0.1791992-0.1100025,0.3618927-0.2075768,0.548172-0.2891541
				c0.1046448-0.054985,0.2181702-0.1241989,0.3423386-0.2075768c-0.0212631-0.1525602-0.0549698-0.2660732-0.1046448-0.3423681
				c-0.0745239-0.1170845-0.2306366-0.292696-0.4647903-0.5268641c-0.0762863-0.062068-0.3210754-0.3441391-0.7343979-0.8479223
				c-0.1685257-0.1916084-0.3548126-0.3920412-0.5605698-0.601388c-0.8284607,0.7663441-1.3464203,1.2896662-1.5522156,1.5735083
				c-0.1312485,0.1862659-0.1968918,0.3512526-0.1968918,0.4966993c0,0.1170845,0.0390244,0.2235136,0.1188431,0.3210888
				c0.0798492,0.0957737,0.2164459,0.1791534,0.4097824,0.2483349c0.131279,0.0408192,0.2412643,0.0816383,0.3317413,0.1241665
				l0.1348038,0.0514755c0.014183,0.0691814,0.0213013,0.1206245,0.0213013,0.1543312
				c0,0.0762653-0.024826,0.1826935-0.0727234,0.3210583c-0.1046753,0-0.2519073-0.0141659-0.4470444-0.0407887
				c-0.3033524-0.0354767-0.6421661-0.051445-1.0164795-0.051445c-0.5250778,0-1.0483856,0.0177383-1.5663986,0.054987
				c-0.3459091,0.0195389-0.6048965,0.0319653-0.7787552,0.0372467c-0.0070953-0.1206264-0.0088806-0.2128582-0.0088806-0.2731876
				v-0.1809235c0.3459549-0.1188545,0.638649-0.243021,0.8816833-0.3725014
				c0.1578598-0.0904922,0.2944412-0.1827545,0.4097672-0.2803001c0.1135406-0.0958042,0.3778305-0.3441391,0.7929688-0.7450647
				l1.8892365-1.8768587l0.1419067-0.1507587c-0.049675-0.0319357-0.4594345-0.4364023-1.2293396-1.2134027l-0.1419067-0.1968908
				c-0.3122177-0.3033504-0.5446167-0.5534859-0.6989441-0.7486362l-0.2093353-0.1791525
				c-0.4771729-0.5446024-0.8088913-0.8975954-0.9969406-1.0554991c-0.0550003-0.0478716-0.230629-0.1454468-0.5286484-0.2908936
				c-0.0478897-0.0266228-0.1241837-0.0674114-0.2288132-0.124198c-0.0408173-0.1507902-0.0621109-0.2607603-0.0621109-0.3299732
				c0-0.1667271,0.0177689-0.2767277,0.0532303-0.3317127c0.0337067-0.0266228,0.0780487-0.0443306,0.134819-0.0514441
				c0.1099854,0.0141964,0.1898117,0.0212793,0.2376938,0.0212793l0.2997971-0.0106239l0.1561203,0.0195084l0.5392838,0.0319347
				c0.5250626,0,1.1867828-0.0248518,1.9814911-0.0727234h1.1300201c0.014183,0.1028576,0.0212631,0.1898079,0.0212631,0.2589598
				c0,0.0904922-0.0283737,0.2075758-0.0833588,0.3512526c-0.2962723,0.0975752-0.50737,0.1968908-0.6315384,0.2998085
				l-0.0407867,0.1046581c0,0.054986,0.0407867,0.1241674,0.124176,0.2057753l1.6639557,1.7845964l1.4510956-1.7420063
				c0.1170578-0.1720695,0.1755981-0.2962675,0.1755981-0.3725624V9.4007454
				c-0.1596603-0.1029177-0.4594345-0.1898069-0.9011841-0.2590199c-0.0265732-0.1454468-0.0407562-0.2749567-0.0407562-0.3938122
				V8.5829573h0.186264c0.1241684,0,0.3405838,0.0177383,0.6510315,0.0514441
				c0.4700623,0.0070829,0.8656769,0.0212793,1.1903076,0.0425291c0.1028748,0,0.244812-0.0159369,0.4239807-0.0478716
				c0.2554474-0.0372477,0.4115448-0.0567875,0.4665451-0.0567875l0.1862717,0.0106859h0.4452667v0.1578426
				c0,0.120656-0.0213089,0.2465944-0.0621109,0.3796463c-0.1117554,0.062068-0.2625198,0.1223965-0.4558945,0.1773815
				c-0.4629974,0.1295099-0.7805481,0.2519064-0.9525986,0.3618774c-0.0621109,0.0408192-0.278511,0.2519064-0.651062,0.6315222
				c-0.7290649,0.7539492-1.2701263,1.3446522-1.6195908,1.7686586l1.8626251,2.1464739
				c0.7290878,0.8993959,1.1974411,1.4528513,1.4014282,1.6603975c0.1667557,0.1596746,0.3902664,0.3317137,0.6723099,0.5180101
				c0.0425873,0.0904617,0.0621109,0.1968899,0.0621109,0.3210888v0.299778
				C88.4320374,17.0056343,88.2972183,17.0020924,88.1801605,16.9949799L88.1801605,16.9949799z M94.5539093,17.0056343
				c-0.1862335,0.0071144-0.3246155,0.0106544-0.4133072,0.0106544c-0.1028824,0-0.2607727-0.0071125-0.4754028-0.0213089
				c-0.702507-0.0337067-1.6409378-0.0514145-2.8188171-0.0514145c-0.3370514,0-0.6652222,0.0124264-0.9810028,0.0354767
				c-0.3174973,0.0248222-0.5339584,0.0372467-0.6510162,0.0372467l-0.0195236-0.6723404l1.1690292-0.1561031
				c0.1720657-0.0479012,0.2909241-0.1188545,0.3565598-0.2110863c0.0656433-0.0940342,0.0975952-0.3015499,0.0975952-0.6262102
				v-0.113512c0-0.0834093,0.0052948-0.2341995,0.0159378-0.4505987c0.0106354-0.2182016,0.0159836-0.4080086,0.0159836-0.5747662
				c0-0.1312809-0.010643-0.3831568-0.0319214-0.7557201l0.0159378-0.5161781l-0.0159378-0.4860754l0.0319214-1.6870203
				c0-0.2146597-0.021286-0.4346313-0.0621033-0.6616859c-0.078064-0.1046896-0.2164001-0.1933804-0.4168625-0.2696457
				c-0.2022629-0.0762644-0.5534668-0.1312504-1.0519714-0.1649551V9.0902815
				c0.7095871-0.0407887,1.3340302-0.1898079,1.8714981-0.4452553c0.3654556-0.1649866,0.7628403-0.4576826,1.1903381-0.8798876
				h0.693634c0.0265961,0.8568363,0.0407639,1.9673204,0.0407639,3.3314819l-0.0726929,4.2219934
				c0,0.2909241,0.0141602,0.5516853,0.0425415,0.7876234c0.2129059,0.0745258,0.562355,0.1508217,1.0448761,0.2270565
				c0.1862488,0.0266209,0.3334656,0.0621281,0.4452209,0.1029167L94.5539093,17.0056343L94.5539093,17.0056343z
				 M92.7072601,5.8989654c-0.232399,0.1401348-0.4683533,0.2110872-0.7095718,0.2110872
				c-0.3299713,0-0.6350784-0.1419358-0.9153519-0.4239759c-0.2803268-0.2820711-0.418663-0.6208673-0.418663-1.0147099
				c0-0.3725019,0.1206436-0.677623,0.3618622-0.9153636c0.241272-0.2376795,0.5517044-0.3565345,0.9313507-0.3565345
				c0.4062195,0,0.7450333,0.1259379,1.014679,0.3778446c0.2678604,0.2519069,0.4026794,0.535718,0.4026794,0.8532648
				c0,0.2341685-0.0531845,0.470077-0.1596451,0.7042761C93.1063843,5.5689921,92.9378586,5.7570291,92.7072601,5.8989654
				L92.7072601,5.8989654z M105.4796524,14.3252144c-0.1862488,0.4966993-0.5055618,0.9969406-0.9614792,1.5007544
				c-0.4558945,0.5037832-0.9437256,0.8621187-1.4634857,1.0767775c-0.5215378,0.2128887-1.0679398,0.3210888-1.6409073,0.3210888
				c-0.5658798,0-0.9685822-0.0354767-1.2098312-0.1046581c-0.4629898-0.1312809-0.9224625-0.3246307-1.3765717-0.5783081
				c-0.0212784,0.109972-0.0319366,0.1844654-0.0319366,0.2270565l0.0319366,0.2784977
				c0.0070877,0.0762959,0.0106125,0.17033,0.0106125,0.2803001c0,0.0479031-0.0070724,0.3210888-0.0212479,0.8178196
				l0.0407715,1.8821392c0,0.0407887-0.0070724,0.1791534-0.0195236,0.4133224v0.1152821
				c0,0.2537079,0.0177689,0.4399738,0.0532303,0.5588303c0.028389,0.0674114,0.090477,0.1436749,0.184494,0.2270546
				c0.0691833,0.0266228,0.134819,0.058527,0.1969376,0.0922318c0.2128677,0.0425911,0.4008942,0.0833797,0.5640793,0.1241989
				c0.1614456,0.0425587,0.3317261,0.0762634,0.5108948,0.1046581c0.0621033,0.0762959,0.0940475,0.1756115,0.0940475,0.2998085
				c0,0.0762653-0.0035706,0.1862354-0.0106354,0.3317127h-0.1863022c-0.4008942,0-0.68116-0.007082-0.8408508-0.0212784
				l-1.5646057-0.1348228h-0.3831787l-0.3636627-0.0106564l-0.3618774,0.0319347l-0.5605698,0.0301647
				c-0.2075577,0.0070839-0.4346008,0.0248222-0.6829758,0.0514126c-0.2501068,0.0284252-0.4292755,0.0425911-0.5392761,0.0425911
				l-0.1348114-0.0106239v-0.4665375c0.1241837-0.0745239,0.2128601-0.127739,0.2678604-0.1543617l0.7982788-0.2891541
				c0.3299484-0.1312504,0.5162277-0.2341671,0.5570297-0.3104324c0.1117554-0.2075462,0.1596451-0.5712242,0.145462-1.0962868
				l-0.0727386-4.1137943l-0.10289-5.1178179c-0.0212936-0.3725624-0.0993423-0.6368647-0.2376938-0.7965088
				c-0.1383896-0.1579037-0.50383-0.3228893-1.0962982-0.4966993l-0.0106583-0.53755
				c0.6758804-0.1312504,1.2453079-0.2926645,1.7065125-0.4860439c0.3388443-0.1383648,0.796524-0.3991556,1.3765869-0.7858539
				l0.5269012-0.0212798l0.0106049,0.2891231l-0.0106049,1.1175971c0,0.0425901,0.0035248,0.1454782,0.0106049,0.3104343
				c0.5996017-0.3654194,1.0927582-0.6067009,1.4794769-0.7237549c0.5658951-0.1649866,1.1903229-0.2483654,1.8733139-0.2483654
				c0.7042313,0,1.3286591,0.179183,1.8732758,0.5375195c0.040802,0.0283928,0.0993271,0.0656404,0.175621,0.1135426
				c0.3441544,0.2483644,0.5960159,0.4878149,0.7557068,0.714901c0.3441544,0.4896164,0.5924911,0.9720888,0.7450485,1.4493103
				c0.1170578,0.3583355,0.1756287,0.8053627,0.1756287,1.3446522
				C105.7599564,13.2218142,105.6659241,13.8285151,105.4796524,14.3252144L105.4796524,14.3252144z M102.4249344,10.631855
				c-0.463028-0.5446014-1.1193695-0.8177881-1.9690781-0.8177881c-0.5056,0-1.0785675,0.1312504-1.7225113,0.3938122
				c-0.012413,0.2696447-0.0195236,1.0235634-0.0195236,2.2653284l0.0195236,1.9974537
				c0,0.0479021-0.00177,0.182725-0.0071106,0.4026966c0.0284042,0.0833788,0.0461578,0.1454468,0.0532227,0.1862659
				c0.0763016,0.3175173,0.1721039,0.5428314,0.2891693,0.6741123c0.2146606,0.2483349,0.4594574,0.4133205,0.7361679,0.4967003
				c0.415123,0.1170845,0.7787552,0.1756115,1.0892029,0.1756115c0.3601227,0,0.7095718-0.0762959,1.0519714-0.228857
				c0.3423843-0.1507587,0.6173096-0.354764,0.8248749-0.6102419c0.0283737-0.0337057,0.0691833-0.0815773,0.1241684-0.1436768
				c0.0478973-0.1117411,0.0851593-0.1933489,0.1135254-0.2483654c0.2749863-0.539259,0.4133377-1.1104527,0.4133377-1.718955
				C103.421875,12.3383846,103.0883713,11.3982,102.4249344,10.631855L102.4249344,10.631855z M117.9895477,16.7235947
				c-0.0142212,0.0762653-0.0212936,0.188036-0.0212936,0.3387966l-0.2377243,0.0159969
				c-0.10289,0-0.3068771-0.0141964-0.61026-0.0408192c-0.5783081-0.0567551-1.0661087-0.0833778-1.4581757-0.0833778
				c-0.2554321,0-0.5977859,0.0141964-1.025322,0.0407887c-0.3033524,0.0141964-0.6900635,0.0213089-1.1583862,0.0213089
				c-0.0762939,0-0.145462-0.0106544-0.2075424-0.0319347v-0.248333l-0.0195084-0.1348228
				c0-0.0550156,0.0159378-0.1295109,0.0514297-0.2270851c0.1578827-0.0762653,0.3423615-0.1259384,0.5534668-0.1490192
				c0.2093353-0.0248222,0.4080276-0.0496426,0.5942764-0.0780373c0.0283737-0.1312809,0.0461426-0.2146282,0.0531998-0.2483339
				l0.0514755-1.5114403v-2.5349417c0-0.7521791-0.0425949-1.2595034-0.1241837-1.5256062
				c-0.0833969-0.2661037-0.2554474-0.4825344-0.518013-0.6528025c-0.2625122-0.1685276-0.5800629-0.2519064-0.9525757-0.2519064
				c-0.4346161,0-0.8568268,0.1011171-1.2666016,0.3050909c-0.4097977,0.2022333-0.7610474,0.4435158-1.0502014,0.7184725v1.8111877
				c0,0.9933996-0.0088425,1.7384644-0.0248413,2.2351646c-0.0106354,0.2962675-0.0159378,0.4825335-0.0159378,0.5588293
				c0,0.4753895,0.0301208,0.8035917,0.0922394,0.9827738c0.028389,0.0815773,0.1028671,0.1578426,0.2270355,0.2270565
				c0.2554474,0.0212784,0.4683533,0.0337048,0.636879,0.0354443c0.1685333,0.0035419,0.3051071,0.0195408,0.4079819,0.0479031
				c0.0142136,0.1702995,0.0212936,0.2891541,0.0212936,0.3565655c0,0.0958042-0.0141678,0.2111168-0.0407867,0.3459091
				l-1.1512909-0.0461006c-0.4363861-0.0301647-0.8266602-0.0461311-1.1725693-0.0461311l-1.4511108,0.0727539l-1.0164642-0.0106564
				c-0.0691681-0.0975742-0.141922-0.2696438-0.2164001-0.5180092v-0.1348228
				c0.1099396-0.0265923,0.4168777-0.0674114,0.9206619-0.124136c0.2199707-0.0266228,0.3583069-0.0745564,0.4133224-0.1437073
				c0.0691986-0.1046581,0.1028976-0.3494816,0.1028976-0.7344398v-0.7361507l0.0319366-0.7752285v-0.8479528l0.0106583-0.2075758
				l-0.0106583-0.5179796l0.0212631-0.1756115l0.0408249-3.7554579V8.0560932c0-1.2843542-0.0337219-2.077291-0.10289-2.3806415
				c-0.0425873-0.179183-0.1401672-0.3210883-0.2962646-0.4240065c-0.154335-0.1028571-0.5179825-0.2004323-1.0909805-0.2891235
				V4.7441206c0-0.1029181,0.0071335-0.2305961,0.0213013-0.3831568l0.8710022-0.1862969
				c0.172081-0.0479021,0.3388367-0.0886908,0.4984818-0.124167c0.3867188-0.0816081,0.8745575-0.2536776,1.4617386-0.5162089
				c0.10466-0.062099,0.2004623-0.1135428,0.2909241-0.1561022l0.5605698,0.0425594l-0.0195389,6.1875129
				c0.626236-0.4966993,1.1974487-0.8496923,1.7136383-1.0554676c0.516243-0.2075768,1.0537338-0.3104334,1.6125336-0.3104334
				c0.5286484,0,0.9898529,0.0940027,1.3783569,0.2838106c0.3884964,0.1898079,0.6900635,0.4239759,0.9029312,0.7042456
				c0.2146606,0.2785292,0.3654404,0.6191273,0.4559021,1.0182514c0.0621109,0.2696447,0.0922623,0.7876549,0.0922623,1.5521984
				v0.6616859l0.0106201,1.4599962l-0.0514221,2.1109962c0.0265884,0.0620689,0.0585251,0.1028576,0.0922318,0.1241379
				c0.0833893,0.0337048,0.2873917,0.0816383,0.6102219,0.1437073c0.1863022,0.0354748,0.331749,0.065609,0.4346313,0.0940323
				c0.054985,0.1028576,0.0833969,0.1844654,0.0833969,0.2465649L117.9895477,16.7235947L117.9895477,16.7235947z
				 M133.4068909,14.7491598c-0.4292755,0.8568373-1.0058136,1.4865885-1.7295837,1.8945971
				c-0.7255707,0.4062386-1.568161,0.6102428-2.5278931,0.6102428c-1.0767517,0-1.9903488-0.241251-2.7407608-0.7237549
				c-0.7485733-0.4825344-1.2843094-1.0324478-1.6053925-1.6462622c-0.3210907-0.6137838-0.4807205-1.3747854-0.4807205-2.2866077
				c0-0.4612236,0.0762634-0.9259882,0.2270432-1.3907843c0.1525574-0.4665356,0.3618927-0.8709726,0.6261902-1.2169123
				c0.2660904-0.3441391,0.558815-0.6332932,0.8763504-0.8692322c0.4630051-0.3299427,0.925972-0.5658817,1.3925323-0.707818
				c0.4665375-0.1419058,1.0306702-0.2128582,1.6941528-0.2128582c1.4439545,0,2.5686188,0.4239759,3.3775482,1.2736692
				c0.4417267,0.4275475,0.7716675,0.9189053,0.9881134,1.4741926c0.2181702,0.5552263,0.3264008,1.0785484,0.3264008,1.5681353
				C133.8308716,13.4400148,133.6889496,14.1850491,133.4068909,14.7491598L133.4068909,14.7491598z M130.6962891,9.6756725
				c-0.4151001-0.5215206-0.9596863-0.7823124-1.6355438-0.7823124c-0.530426,0-0.9703827,0.1490498-1.3180618,0.4452562
				c-0.3494492,0.298069-0.5924911,0.7362108-0.7308655,1.3162899c-0.088707,0.3725319-0.1401215,1.1708117-0.1543198,2.3930674
				c0.0620804,0.8568058,0.1064148,1.3517351,0.1348038,1.481245c0.088707,0.4629946,0.2305984,0.8603477,0.4239807,1.1920919
				c0.131279,0.2146597,0.3476944,0.4044676,0.6510239,0.5694532c0.3033447,0.1667271,0.6652374,0.2501049,1.0874329,0.2501049
				c0.5037994,0,0.9277802-0.1614437,1.2719269-0.482502c0.3459015-0.3210888,0.5942841-0.8231316,0.7450409-1.5078678
				c0.0958252-0.4487982,0.1454773-1.1849785,0.1454773-2.2068014
				C131.3171844,11.0859957,131.1096497,10.1972542,130.6962891,9.6756725L130.6962891,9.6756725z M145.2231445,14.3252144
				c-0.186264,0.4966993-0.5073547,0.9969406-0.9614563,1.5007544c-0.4559174,0.5037832-0.9437408,0.8621187-1.4653015,1.0767775
				c-0.5197601,0.2128887-1.0679016,0.3210888-1.6390991,0.3210888c-0.5659027,0-0.9703827-0.0354767-1.2116241-0.1046581
				c-0.4612427-0.1312809-0.9206848-0.3246307-1.3748169-0.5783081c-0.021286,0.109972-0.0319214,0.1844654-0.0319214,0.2270565
				l0.0319214,0.2784977c0.0053406,0.0762959,0.0088654,0.17033,0.0088654,0.2803001
				c0,0.0479031-0.0070953,0.3210888-0.019516,0.8178196l0.0408173,1.8821392c0,0.0407887-0.0071106,0.1791534-0.0213013,0.4133224
				v0.1152821c0,0.2537079,0.0177612,0.4399738,0.0549927,0.5588303c0.0283661,0.0674114,0.0904694,0.1436749,0.1844788,0.2270546
				c0.0674438,0.0266228,0.1330566,0.058527,0.1951447,0.0922318c0.2146454,0.0425911,0.4026947,0.0833797,0.5641174,0.1241989
				c0.163208,0.0425587,0.3335114,0.0762634,0.5126801,0.1046581c0.0620728,0.0762959,0.0922394,0.1756115,0.0922394,0.2998085
				c0,0.0762653-0.00354,0.1862354-0.0088806,0.3317127h-0.1880341c-0.4009247,0-0.6794281-0.007082-0.8390656-0.0212784
				l-1.5646362-0.1348228h-0.3849182l-0.3618927-0.0106564l-0.3636322,0.0319347l-0.5588379,0.0301647
				c-0.2075348,0.0070839-0.4363861,0.0248222-0.6847229,0.0514126c-0.2483826,0.0284252-0.427536,0.0425911-0.5392914,0.0425911
				l-0.1348114-0.0106239v-0.4665375c0.1241608-0.0745239,0.2146454-0.127739,0.2696075-0.1543617l0.796524-0.2891541
				c0.3317261-0.1312504,0.5180054-0.2341671,0.5587921-0.3104324c0.1099701-0.2075462,0.1596832-0.5712242,0.145462-1.0962868
				l-0.0727234-4.1137943l-0.1028595-5.1178179c-0.0213165-0.3725624-0.1011505-0.6368647-0.2377472-0.7965088
				c-0.1383667-0.1579037-0.5037994-0.3228893-1.0980377-0.4966993l-0.0106659-0.53755
				c0.6758575-0.1312504,1.2453003-0.2926645,1.708313-0.4860439c0.3370209-0.1383648,0.7965088-0.3991556,1.3765869-0.7858539
				l0.5268402-0.0212798l0.0106506,0.2891231l-0.0106506,1.1175971c0,0.0425901,0.00354,0.1454782,0.0106506,0.3104343
				c0.5995941-0.3654194,1.0927582-0.6067009,1.4794617-0.7237549c0.565918-0.1649866,1.1903229-0.2483654,1.8732758-0.2483654
				c0.7025146,0,1.3269501,0.179183,1.8715515,0.5375195c0.0425568,0.0283928,0.1011047,0.0656404,0.1774139,0.1135426
				c0.3440857,0.2483644,0.5960083,0.4878149,0.7538757,0.714901c0.345932,0.4896164,0.5942993,0.9720888,0.7450714,1.4493103
				c0.1170959,0.3583355,0.1756287,0.8053627,0.1756287,1.3446522
				C145.5016632,13.2218142,145.4094238,13.8285151,145.2231445,14.3252144L145.2231445,14.3252144z M142.168396,10.631855
				c-0.4629822-0.5446014-1.119339-0.8177881-1.9708557-0.8177881c-0.5037842,0-1.0785522,0.1312504-1.7207031,0.3938122
				c-0.0142212,0.2696447-0.021286,1.0235634-0.021286,2.2653284l0.021286,1.9974537
				c0,0.0479021-0.0017548,0.182725-0.0070953,0.4026966c0.0283813,0.0833788,0.044342,0.1454468,0.0514526,0.1862659
				c0.0762787,0.3175173,0.1738281,0.5428314,0.2909088,0.6741123c0.2146454,0.2483349,0.4594574,0.4133205,0.7361908,0.4967003
				c0.4151001,0.1170845,0.7769928,0.1756115,1.0892181,0.1756115c0.3583221,0,0.7095795-0.0762959,1.0519257-0.228857
				c0.3423767-0.1507587,0.6173401-0.354764,0.8249054-0.6102419c0.0265961-0.0337057,0.0691681-0.0815773,0.124176-0.1436768
				c0.0478821-0.1117411,0.0851288-0.1933489,0.1135254-0.2483654c0.2749481-0.539259,0.4115601-1.1104527,0.4115601-1.718955
				C143.1636047,12.3383846,142.8318634,11.3982,142.168396,10.631855L142.168396,10.631855z M152.2692566,11.811552
				c-0.3991394-0.0355072-0.6758881-0.0514746-0.8284149-0.0514746c-0.0479279,0-0.4204559,0.0070829-1.1158447,0.0195084
				h-0.8905182c-0.0141754,0.0975752-0.0212555,0.180954-0.0212555,0.2501364c0,0.3672199,0.0461121,0.7521477,0.1348114,1.1566153
				c0.0904694,0.4044371,0.2235107,0.7610321,0.4044495,1.0679245c0.1791687,0.3086624,0.4009094,0.5729647,0.6670074,0.7947073
				c0.264328,0.2199717,0.5392609,0.3796148,0.8213501,0.477191l0.6013489,0.1969213
				c0.5303955,0,0.8851929-0.0177689,1.0661621-0.0514746c0.3299408-0.0691519,0.6208496-0.1578426,0.8727722-0.2643023
				c0.2519073-0.1064291,0.5570068-0.2873831,0.9171143-0.5428314c0.2483673,0.179183,0.4541321,0.3405981,0.6208801,0.4860754
				c-0.608429,0.6687689-1.2364349,1.1530733-1.8892517,1.4528818c-0.6510315,0.2997799-1.381897,0.4505692-2.1890259,0.4505692
				c-0.5446014,0-0.9898682-0.0479031-1.3340149-0.1454773c-0.4612427-0.1241684-0.8798676-0.3139763-1.2524261-0.5694237
				c-0.3725128-0.2554474-0.6936035-0.5729647-0.9614563-0.952611c-0.2696381-0.3796148-0.4700928-0.7699165-0.5996094-1.1707811
				c-0.1738586-0.5251236-0.2589874-0.945528-0.2589874-1.2630749c0-0.6013889,0.0478973-1.1441898,0.143692-1.6267233
				c0.1791687-0.5871611,0.3388062-0.9774323,0.4772034-1.1708117c0.3849182-0.5658817,0.7982483-1.007596,1.2364349-1.3269138
				c0.4381714-0.3175468,0.831955-0.5268641,1.184967-0.6315222c0.4541626-0.1312504,0.8231354-0.1968908,1.1069794-0.1968908
				c0.6474915,0,1.1725616,0.0496731,1.571701,0.1507893c0.4009094,0.0993156,0.7344055,0.2430229,1.0040436,0.4292889
				c0.386734,0.2678432,0.6971741,0.5410604,0.9313354,0.8160181c0.2341614,0.2749567,0.4257202,0.5995874,0.5747375,0.9721193
				c0.1472626,0.3725328,0.2288513,0.823101,0.243042,1.3535061l-1.1495209-0.0195093
				C154.0414276,11.9019823,153.3460541,11.8718185,152.2692566,11.811552L152.2692566,11.811552z M152.9628906,9.975481
				c-0.1454926-0.3547935-0.368988-0.6297512-0.6723328-0.8266726c-0.3033447-0.1986618-0.61026-0.296237-0.9207001-0.296237
				c-0.4629822,0-0.8798676,0.2040043-1.2523804,0.6102428c-0.3725433,0.4062376-0.5836487,0.9579535-0.6315308,1.6550856
				l2.3593445,0.0212793c0.1507874,0,0.3654175-0.0106239,0.6421814-0.0319042
				c0.1986847-0.0177374,0.3405609-0.0283928,0.4239655-0.0283928c0.0620575,0,0.1543427,0.0035715,0.2785034,0.0088539
				C153.1828308,10.6992664,153.1083527,10.3285046,152.9628906,9.975481L152.9628906,9.975481z M167.6351776,17.0677338
				l-2.0276031-0.1454468l-0.6013794,0.0212784h-0.4754181l-1.3659515,0.0940037h-0.3512115
				c-0.0071106-0.0869198-0.0106506-0.1543312-0.0106506-0.2004318c0-0.120657,0.0070648-0.2501659,0.0213013-0.3903008
				c0.0957489-0.0212498,0.3370209-0.0549545,0.7237549-0.1046581c0.1028748-0.0141678,0.2163849-0.0372486,0.3405914-0.0727253
				c0.1383667-0.054985,0.2182007-0.1099701,0.2377167-0.1649551c0.056778-0.1170845,0.0833435-0.3423986,0.0833435-0.6741123
				c0-0.5801086-0.0035248-1.0253649-0.0106354-1.3357677l0.0106354-1.2027769c0-1.4563942-0.0922241-2.3646746-0.2785034-2.7247505
				c-0.2607574-0.5180101-0.652771-0.77703-1.1761017-0.77703c-0.3849487,0-0.7840881,0.0993767-1.1974182,0.2962675
				c-0.4133301,0.1969213-0.8390656,0.4949284-1.2790222,0.895854l-0.0213013,0.175642l0.0213013,0.6528015l-0.0213013,0.6918201
				l0.0408325,1.6568565l-0.0195313,0.2590199c0,1.1246805,0.044342,1.7579737,0.1348267,1.9034204
				c0.0904541,0.1455088,0.4346161,0.3068914,1.0342102,0.4843054c0.0195313,0.1170845,0.0301666,0.2022324,0.0301666,0.2590199
				c0,0.0815773-0.023056,0.2092857-0.0727539,0.3813553c-0.2146454,0.0071144-0.3937988,0.010685-0.5392609,0.010685
				c-0.1454773,0-0.3725433-0.0230808-0.6847687-0.069212l-1.1086884-0.0230503
				c-0.5534821,0-1.3517609,0.0230503-2.3948669,0.0727234c-0.0283356-0.0691814-0.0407562-0.1401348-0.0407562-0.2146587
				c0-0.054985,0.00177-0.1631851,0.0088348-0.3263702c0.179184-0.0816383,0.3459473-0.1383648,0.4967194-0.1649876
				c0.3796082-0.0620995,0.6013641-0.1135426,0.6634827-0.1561012c0.1028595-0.0620995,0.1720428-0.1383648,0.2057343-0.2270861
				c0.0425873-0.1383638,0.0621185-0.4416838,0.0621185-0.9118223v-0.9011364l0.0106354-0.7361803l-0.0301666-1.0874329v-0.652833
				c0-0.4346008-0.0354767-0.7911654-0.1046448-1.0679245c-0.0266266-0.1028566-0.1135712-0.2075453-0.2590332-0.3104334
				c-0.1915741-0.1383638-0.5197296-0.2731867-0.9827423-0.4044676l-0.0088806-0.4966993
				c0.0886993-0.0265923,0.1703339-0.0461006,0.2430573-0.056756c0.0709229-0.0106554,0.3494568-0.0780363,0.8319855-0.2022333
				c0.3796082-0.1365938,0.6244049-0.234169,0.7343903-0.2891541c0.0354767-0.0212803,0.0904694-0.0514441,0.1667633-0.0922327
				c0.0815887-0.069212,0.1756287-0.1383638,0.2785034-0.2075768c0.2075653-0.1454468,0.4559174-0.3973532,0.7450714-0.7556891
				l0.5587616-0.0408192l-0.0212708,1.1690717c-0.0124207,0.117054-0.0195313,0.2110567-0.0195313,0.2802696
				c0,0.054985,0.0071106,0.2128887,0.0195313,0.4753895c0.5729828-0.4967003,1.0927429-0.8426094,1.5610657-1.0341883
				c0.6120148-0.2554483,1.1938934-0.3831568,1.7455597-0.3831568c0.6474762,0,1.2151947,0.1596432,1.7047882,0.480732
				c0.4878082,0.3228598,0.8088989,0.6935902,0.9597015,1.1158266c0.1507568,0.4204044,0.2270508,1.2701273,0.2270508,2.549139
				l-0.040802,3.379384c0,0.1596441,0.0266113,0.290925,0.083374,0.3937826
				c0.0674133,0.0479317,0.2572174,0.0958347,0.5676727,0.1472473l0.50737,0.0975761
				c0.0620422,0.0869503,0.0939789,0.1968899,0.0939789,0.3246288
				C167.645813,16.8122845,167.6422882,16.925827,167.6351776,17.0677338L167.6351776,17.0677338z M177.4664001,11.4602985
				c0.9064636,0.1986618,1.5734863,0.3991251,2.0009918,0.5995874c0.6226654,0.2891541,1.0608368,0.6315222,1.3127289,1.0235634
				c0.2519226,0.3938122,0.3778229,0.8497238,0.3778229,1.3659325c0,0.8000498-0.3015442,1.4688196-0.9046936,2.0027971
				c-0.6031342,0.533947-1.4847717,0.8018208-2.6431885,0.8018208c-0.1525421,0-0.5498962-0.0355072-1.1902771-0.1029186
				c-0.2909698-0.0354462-0.631546-0.1046581-1.0253906-0.2075157c-0.0957489-0.0283928-0.3476715-0.127739-0.7539063-0.2998085
				c-0.0762787-0.0425587-0.1294861-0.0922318-0.1614227-0.1507587c-0.0301666-0.058588-0.0780487-0.3459415-0.1401215-0.8639202
				c-0.1100006-0.8408689-0.1685638-1.3446522-0.1756287-1.5096388c0.2075348-0.0425901,0.3583221-0.0620985,0.4559021-0.0620985
				c0.0478668,0,0.120636,0.0035715,0.2164001,0.0088539l0.0940399,0.1046886
				c0.3725128,0.6545725,0.6173248,1.0519571,0.7344208,1.1902905c0.2412262,0.2820702,0.4789581,0.5091257,0.7148895,0.6829967
				c0.1578827,0.1099701,0.4062042,0.2235126,0.7432861,0.3405972c0.2288208,0.0833473,0.4700928,0.1241665,0.7255402,0.1241665
				c0.4346161,0,0.8071136-0.1401348,1.1175842-0.418663c0.3104248-0.2802696,0.4647675-0.5818491,0.4647675-0.9064798
				c0-0.2199717-0.0585327-0.4080086-0.1756287-0.5623093c-0.1170654-0.1561327-0.3512421-0.3086929-0.7042694-0.4612541
				c-0.1720276-0.0762959-0.6048737-0.2004318-1.2985229-0.3725014c-0.6918335-0.1721001-1.1122589-0.2856436-1.2559357-0.3406286
				c-0.3246307-0.1241674-0.61203-0.298008-0.8639069-0.5180101c-0.2519226-0.2199411-0.4434814-0.4700766-0.5747528-0.7450342
				c-0.179184-0.3938122-0.2696228-0.7308683-0.2696228-1.0147095c0-0.5233221,0.0762634-0.952611,0.2287903-1.2878656
				c0.1507874-0.3335152,0.365448-0.6297512,0.6404266-0.8851995c0.2004395-0.1916094,0.5020294-0.3689909,0.9064636-0.5268641
				c0.4027252-0.1579037,0.835556-0.23771,1.2985382-0.23771c0.6545868,0,1.2311401,0.0443611,1.7278137,0.1348228
				c0.4967346,0.0886908,0.91716,0.2235126,1.2612762,0.4026957c0.0425873,0.1596441,0.10112,0.5250626,0.1756439,1.0962572
				c0.0762634,0.5729952,0.1153107,0.9118223,0.1153107,1.01474c0,0.0478716-0.0106506,0.0993156-0.0319672,0.1561022
				c-0.1791534,0.0549545-0.3281403,0.0815773-0.4452362,0.0815773c-0.0691833,0-0.1685333-0.0070829-0.2998199-0.0212793
				c-0.0620422-0.0957747-0.1454468-0.2412825-0.2483215-0.4346313c-0.3299713-0.6119833-0.6705322-1.0466146-1.0182648-1.2984905
				c-0.3494568-0.2501364-0.7503662-0.3761044-1.2062836-0.3761044c-0.4754181,0-0.8763428,0.1365929-1.200943,0.4133511
				c-0.2341766,0.2004328-0.3512573,0.4718485-0.3512573,0.8177891c0,0.2270546,0.1223907,0.4576511,0.3672028,0.6935902
				C176.4446106,11.1534071,176.8650513,11.3361006,177.4664001,11.4602985L177.4664001,11.4602985z M191.9080505,14.7491598
				c-0.4275055,0.8568373-1.0040283,1.4865885-1.7295685,1.8945971c-0.7255402,0.4062386-1.568161,0.6102428-2.5278625,0.6102428
				c-1.0767822,0-1.9903717-0.241251-2.7389679-0.7237549c-0.7503967-0.4825344-1.2843323-1.0324478-1.6054535-1.6462622
				c-0.3210449-0.6137838-0.4824829-1.3747854-0.4824829-2.2866077c0-0.4612236,0.0762634-0.9259882,0.2288513-1.3907843
				c0.1507416-0.4665356,0.3600922-0.8709726,0.6261902-1.2169123c0.266098-0.3441391,0.5570221-0.6332932,0.874527-0.8692322
				c0.463028-0.3299427,0.9278107-0.5658817,1.3943481-0.707818c0.4665222-0.1419058,1.0306396-0.2128582,1.6923523-0.2128582
				c1.4439697,0,2.5704193,0.4239759,3.3775635,1.2736692c0.4417267,0.4275475,0.7716827,0.9189053,0.9898682,1.4741926
				c0.2164307,0.5552263,0.3264313,1.0785484,0.3264313,1.5681353
				C192.333847,13.4400148,192.191925,14.1850491,191.9080505,14.7491598L191.9080505,14.7491598z M189.1974945,9.6756725
				c-0.4133148-0.5215206-0.9579163-0.7823124-1.6338043-0.7823124c-0.5321655,0-0.9721222,0.1490498-1.3198242,0.4452562
				c-0.3476868,0.298069-0.5907288,0.7362108-0.7290649,1.3162899c-0.0904999,0.3725319-0.141922,1.1708117-0.1561432,2.3930674
				c0.062088,0.8568058,0.1082458,1.3517351,0.1348267,1.481245c0.0904694,0.4629946,0.2306213,0.8603477,0.4239807,1.1920919
				c0.1312714,0.2146597,0.3494415,0.4044676,0.652832,0.5694532c0.3033447,0.1667271,0.6652069,0.2501049,1.0856323,0.2501049
				c0.5038147,0,0.9277954-0.1614437,1.2736969-0.482502c0.344162-0.3210888,0.5924988-0.8231316,0.7450867-1.5078678
				c0.0957489-0.4487982,0.1436615-1.1849785,0.1436615-2.2068014
				C189.8183746,11.0859957,189.6125946,10.1972542,189.1974945,9.6756725L189.1974945,9.6756725z M204.4286041,16.4468365
				c-0.3654327,0.0141964-0.6279907,0.0372772-0.7858734,0.0727539c-0.7379456,0.1649551-1.5450745,0.4097786-2.4214325,0.7344093
				l-0.4133453-0.0212803l-0.0106506-1.6852493c-0.0833588,0.0674114-0.2039795,0.1756115-0.3618469,0.3192873
				c-0.60849,0.5392904-1.1282501,0.9029684-1.5628815,1.0927763c-0.4346161,0.1898079-0.8905182,0.2838116-1.3659058,0.2838116
				c-0.5658875,0-1.0554962-0.1170845-1.4688263-0.351223c-0.4151001-0.2341995-0.7184601-0.5233231-0.9118195-0.8674622
				c-0.1436768-0.2696438-0.241272-0.6546021-0.2891388-1.1583853c-0.0142059-0.1295099-0.0213013-0.8053627-0.0213013-2.0240765
				l0.0106659-0.3317442c0.0354614-0.6740818,0.0531769-1.1743536,0.0531769-1.4972124
				c0-0.5516853-0.0106506-0.9206762-0.0319061-1.1069422c-0.0070953-0.0886908-0.040802-0.1915789-0.1029053-0.3086634
				c-0.0975342-0.0425892-0.2110901-0.0727539-0.3423309-0.0940332c-0.4417572-0.0762653-0.7167206-0.1472178-0.8266907-0.2164001
				c-0.0354767-0.0212793-0.0532379-0.0656404-0.0532379-0.1348219c0-0.0408192,0.0053406-0.0975752,0.015976-0.1649866
				c0.0106506-0.0691824,0.0230865-0.182725,0.037262-0.3423681c0.0745087-0.0266228,0.1366272-0.0479031,0.186264-0.0620689
				h3.0831299l0.2270508,0.0212803l0.0212708,0.6918497l-0.0318909,1.0129089l0.0106201,0.5268631l-0.0106201,1.5592813v1.064353
				c0,0.6971931,0.0390167,1.2435656,0.1135406,1.6444607c0.1046295,0.30161,0.2713776,0.5322065,0.5019989,0.6865377
				c0.2323761,0.1543322,0.5126801,0.2323675,0.8444061,0.2323675c0.3104401,0,0.5605469-0.0301332,0.7539063-0.0940037
				c0.1933746-0.060297,0.4169006-0.1773815,0.6688232-0.351222c0.2518616-0.1720695,0.4115295-0.2962675,0.4806976-0.3707609
				c0.20047-0.2199726,0.3370667-0.4240074,0.4133301-0.6102428l0.0727234-2.5722504
				c0.0142212-0.2678442,0.0213013-0.4878159,0.0213013-0.6616564c0-0.1791525-0.0053253-0.4044666-0.0159607-0.6758823
				s-0.0159607-0.4257469-0.0159607-0.4594526l0.0106201-0.3831882l-0.0212555-0.2270546
				c-0.164978-0.1028872-0.3956146-0.1685276-0.6918793-0.1951199l-0.6935883-0.0532455
				c-0.0425873-0.0195084-0.0798035-0.0443296-0.1135406-0.0709524c-0.0283966-0.1383638-0.0425568-0.2412519-0.0425568-0.3104334
				c0-0.0833483,0.0106506-0.2004633,0.0319214-0.352993c0.227066-0.0337057,0.4257507-0.0514441,0.590744-0.0514441
				l1.5983276,0.0212803c0.4292603,0,0.9543457-0.0071144,1.5769958-0.0212803l0.0213013,0.7751989l-0.042572,0.9916286
				l0.0212708,1.239994l-0.0106354,1.777482l-0.0212708,0.7947683l0.0106354,0.537488
				c-0.0266113,0.3583364-0.0407715,0.5623407-0.0407715,0.6102123c0,0.1721001,0.0301361,0.2998085,0.0922241,0.3814163
				c0.0621033,0.0833788,0.120636,0.1241674,0.1773834,0.1241674l0.9508209-0.0301332l0.1242065,0.0195093
				c0.0212555,0.243021,0.0319061,0.3796158,0.0319061,0.4150925
				C204.4605103,16.267683,204.4498596,16.3439484,204.4286041,16.4468365L204.4286041,16.4468365z M211.7691803,10.3054543
				c-0.2022247,0.2589903-0.4736176,0.3885002-0.8107147,0.3885002c-0.2979889,0-0.6084442-0.124198-0.9313049-0.3725634
				c-0.1933746-0.1507587-0.349472-0.2270546-0.4665375-0.2270546l-0.0727386,0.0106554
				c-0.143692,0.0478716-0.2749481,0.1773815-0.3920441,0.3902702c-0.1933289,0.3441391-0.2909241,0.7024746-0.2909241,1.0732365
				l0.0213013,0.2784986c0.0283661,0.5091257,0.0478973,1.7012177,0.0620422,3.5780458
				c0.0213165,0.1720695,0.0869446,0.3441391,0.1969452,0.5162086c0.124176,0.0958347,0.2501373,0.1649857,0.3778534,0.2058048
				c0.1277008,0.0407887,0.3494568,0.0762959,0.6669922,0.10466c0.3175354,0.0265903,0.5108948,0.0709515,0.5800781,0.1312809
				c0.0674133,0.0585251,0.10289,0.1543312,0.10289,0.2873516c0,0.0762959-0.0212708,0.179184-0.062088,0.3051205h-0.9721222
				l-1.9761505-0.0940018c-0.4967346,0-0.9490662,0.0212784-1.3553009,0.0620975h-0.1773987
				c-0.0478973,0-0.4062195,0.0177078-1.0750275,0.0514145c-0.0212555-0.113512-0.0319061-0.1986618-0.0319061-0.2554188
				c0-0.0567856,0.0106506-0.1383629,0.0319061-0.246563c0.0886993-0.0780964,0.2058105-0.1348228,0.3512573-0.17033
				c0.3512573-0.0762653,0.6865387-0.2128887,1.0040283-0.4133205c0.062088-0.1649866,0.0922852-0.7237854,0.0922852-1.6728239
				c0-1.7420368-0.0372772-2.9199314-0.1135559-3.5337152c-0.0141907-0.109971-0.0691833-0.2057753-0.1649475-0.2891541
				c-0.1721039-0.0887213-0.4080353-0.1685286-0.7042999-0.23771c-0.1383667-0.0337057-0.2199707-0.109971-0.2483368-0.2270546
				l-0.0301514-0.3831577c0.5091095-0.069212,0.9721375-0.2430525,1.3854523-0.5215816
				c0.4151001-0.2802696,0.7255402-0.5641108,0.9313049-0.8532343c0.1099854-0.1596746,0.20755-0.2803307,0.2909546-0.3636785
				l0.7237549-0.0195093c0.0337067,0.1578732,0.0514374,0.2891536,0.0514374,0.3920417
				c0,0.0762959-0.0035248,0.1702986-0.0106506,0.2802696c-0.0070801,0.2412815-0.0106506,0.4417143-0.0106506,0.599618
				c0,0.0762644,0.0035706,0.3618765,0.0106506,0.8585768c0.283844-0.4825029,0.4896088-0.8071337,0.6208649-0.9721203
				c0.0621185-0.0762949,0.2448273-0.2447929,0.5481567-0.5073547c0.2341614-0.1720695,0.5002594-0.2589893,0.7965393-0.2589893
				c0.3672028,0,0.6829376,0.1241674,0.9525757,0.3725014c0.2696686,0.2483654,0.40448,0.5357485,0.40448,0.8586388
				C212.0760803,9.7555094,211.9732056,10.0464344,211.7691803,10.3054543L211.7691803,10.3054543z M220.3533325,11.0363226
				c-0.2838593,0-0.5428467-0.0940342-0.7823486-0.2803001c-0.2377167-0.1862659-0.4363708-0.5002413-0.5942383-0.9419556
				c-0.1242065-0.3175468-0.282074-0.5481434-0.4754639-0.6936207c-0.1933289-0.1365938-0.4239655-0.2057753-0.6935883-0.2057753
				c-0.6492615,0-1.2275543,0.2767277-1.7384644,0.8319845c-0.5108948,0.5552578-0.7663422,1.3127174-0.7663422,2.2724113
				c0,1.1513033,0.3122101,2.0666666,0.9366302,2.7460909c0.6244202,0.6793947,1.3340149,1.0200224,2.1269531,1.0200224
				c0.3938446,0,0.727356-0.0461617,1.0040588-0.1348228c0.1720734-0.0620985,0.40625-0.1969213,0.7024994-0.4044666
				c0.0762634-0.054986,0.2199554-0.2022343,0.4292908-0.4434853c0.2111206-0.2412519,0.3547821-0.4044676,0.429306-0.4878159
				c0.1117554,0.0638399,0.1933441,0.1046591,0.2483368,0.1241369c0.1596375,0.0692129,0.287384,0.1561327,0.3831635,0.2590208
				c-0.1862335,0.6900482-0.6386108,1.2878656-1.3552399,1.7899084c-0.7167358,0.5037823-1.6249542,0.7556896-2.721283,0.7556896
				c-0.6900787,0-1.3730011-0.1436768-2.0489197-0.4346008c-0.6758575-0.2891541-1.2133789-0.6723423-1.6142731-1.1477623
				c-0.3104401-0.3654184-0.5428314-0.8142471-0.6971588-1.3463926c-0.1561127-0.5304356-0.2341461-0.9827747-0.2341461-1.3553371
				c0-0.4470272,0.0975494-0.9561529,0.2909088-1.5255756c0.1916046-0.5694542,0.5162354-1.1051722,0.9721375-1.6089849
				c0.4559174-0.5037832,1.0288696-0.9029379,1.7224731-1.2009459c0.6936493-0.2962675,1.4741821-0.4435158,2.343399-0.4435158
				c1.1938629,0,2.0240784,0.1862974,2.4941559,0.5588293c0.468338,0.3725023,0.7042694,0.7450342,0.7042694,1.1175671
				c0,0.365449-0.0958099,0.652832-0.2855988,0.8638897C220.944046,10.929863,220.6832428,11.0363226,220.3533325,11.0363226
				L220.3533325,11.0363226z M227.9883728,11.811552c-0.3991394-0.0355072-0.6758881-0.0514746-0.8266296-0.0514746
				c-0.0497131,0-0.4204559,0.0070829-1.11763,0.0195084h-0.8905029c-0.0142059,0.0975752-0.019516,0.180954-0.019516,0.2501364
				c0,0.3672199,0.044342,0.7521477,0.1330261,1.1566153c0.0904846,0.4044371,0.2253265,0.7610321,0.40448,1.0679245
				c0.1791534,0.3086624,0.4009094,0.5729647,0.667038,0.7947073c0.266037,0.2199717,0.5392609,0.3796148,0.8231049,0.477191
				l0.5995331,0.1969213c0.530426,0,0.8869934-0.0177689,1.0661774-0.0514746
				c0.3299713-0.0691519,0.6226349-0.1578426,0.8745575-0.2643023c0.2518921-0.1064291,0.5570068-0.2873831,0.9153442-0.5428314
				c0.2483368,0.179183,0.4559021,0.3405981,0.6208954,0.4860754c-0.60672,0.6687689-1.2364502,1.1530733-1.8892517,1.4528818
				c-0.6510315,0.2997799-1.380127,0.4505692-2.1872559,0.4505692c-0.5446014,0-0.9898682-0.0479031-1.3358307-0.1454773
				c-0.4612274-0.1241684-0.8798676-0.3139763-1.2506256-0.5694237c-0.3724976-0.2554474-0.6936188-0.5729647-0.9632263-0.952611
				c-0.2696533-0.3796148-0.468338-0.7699165-0.5996094-1.1707811c-0.1720734-0.5251236-0.2590027-0.945528-0.2590027-1.2630749
				c0-0.6013889,0.0479279-1.1441898,0.1454468-1.6267233c0.1791992-0.5871611,0.3370819-0.9774323,0.4754181-1.1708117
				c0.3867645-0.5658817,0.7983093-1.007596,1.2364502-1.3269138c0.4382019-0.3175468,0.8337555-0.5268641,1.1850281-0.6315222
				c0.4541168-0.1312504,0.8231201-0.1968908,1.1068878-0.1968908c0.647522,0,1.1726379,0.0496731,1.5735474,0.1507893
				c0.3991394,0.0993156,0.7344055,0.2430229,1.0022736,0.4292889c0.386673,0.2678432,0.6971283,0.5410604,0.9312744,0.8160181
				c0.2341766,0.2749567,0.4257965,0.5995874,0.5747833,0.9721193c0.1490021,0.3725328,0.2288361,0.823101,0.243042,1.3535061
				l-1.1477356-0.0195093C229.7623138,11.9019823,229.0651703,11.8718185,227.9883728,11.811552L227.9883728,11.811552z
				 M228.6819763,9.975481c-0.145462-0.3547935-0.368988-0.6297512-0.6723175-0.8266726
				c-0.3033447-0.1986618-0.6102295-0.296237-0.9206848-0.296237c-0.4629974,0-0.8798676,0.2040043-1.2524109,0.6102428
				c-0.3725281,0.4062376-0.5818481,0.9579535-0.6315155,1.6550856l2.3593597,0.0212793
				c0.1525421,0,0.3654327-0.0106239,0.6421356-0.0319042c0.20047-0.0177374,0.3406219-0.0283928,0.4240112-0.0283928
				c0.0620728,0,0.1560974,0.0035715,0.2785034,0.0088539C228.9037323,10.6992664,228.8274536,10.3285046,228.6819763,9.975481
				L228.6819763,9.975481z M245.5167236,11.0363226c-0.2820435,0-0.5428467-0.0940342-0.7805176-0.2803001
				c-0.2377167-0.1862659-0.4363861-0.5002413-0.5960693-0.9419556c-0.1241608-0.3175468-0.2820282-0.5481434-0.4753876-0.6936207
				c-0.1934052-0.1365938-0.4239655-0.2057753-0.693634-0.2057753c-0.6475067,0-1.2275848,0.2767277-1.7384796,0.8319845
				c-0.5108643,0.5552578-0.7645721,1.3127174-0.7645721,2.2724113c0,1.1513033,0.3122101,2.0666666,0.9366913,2.7460909
				c0.6226196,0.6793947,1.3322144,1.0200224,2.1251526,1.0200224c0.3938293,0,0.7273254-0.0461617,1.0040588-0.1348228
				c0.1720734-0.0620985,0.4062195-0.1969213,0.7042694-0.4044666c0.0745087-0.054986,0.2182007-0.2022343,0.429306-0.4434853
				c0.2092896-0.2412519,0.3529816-0.4044676,0.429245-0.4878159c0.1100006,0.0638399,0.1933899,0.1046591,0.2483368,0.1241369
				c0.1579285,0.0692129,0.2856293,0.1561327,0.3814392,0.2590208c-0.184494,0.6900482-0.6368408,1.2878656-1.3552856,1.7899084
				c-0.7166595,0.5037823-1.6231689,0.7556896-2.7212677,0.7556896c-0.6900787,0-1.3712616-0.1436768-2.0488892-0.4346008
				c-0.6758575-0.2891541-1.2133789-0.6723423-1.6125183-1.1477623c-0.3104401-0.3654184-0.5446167-0.8142471-0.6989136-1.3463926
				c-0.1560974-0.5304356-0.2323914-0.9827747-0.2323914-1.3553371c0-0.4470272,0.0957642-0.9561529,0.2891541-1.5255756
				c0.1933594-0.5694542,0.5179901-1.1051722,0.9721069-1.6089849c0.4559174-0.5037832,1.0306854-0.9029379,1.7225189-1.2009459
				c0.6936035-0.2962675,1.4758911-0.4435158,2.3451691-0.4435158c1.1920929,0,2.0240173,0.1862974,2.4923706,0.5588293
				c0.4701233,0.3725023,0.7042694,0.7450342,0.7042694,1.1175671c0,0.365449-0.0958099,0.652832-0.2856445,0.8638897
				C246.1074677,10.929863,245.848465,11.0363226,245.5167236,11.0363226L245.5167236,11.0363226z M257.0331726,14.7491598
				c-0.4292908,0.8568373-1.0057983,1.4865885-1.731369,1.8945971c-0.7237549,0.4062386-1.5663757,0.6102428-2.5260773,0.6102428
				c-1.0767975,0-1.9903564-0.241251-2.7407684-0.7237549c-0.7485809-0.4825344-1.2843018-1.0324478-1.6053772-1.6462622
				c-0.3211212-0.6137838-0.4807587-1.3747854-0.4807587-2.2866077c0-0.4612236,0.0762634-0.9259882,0.2270508-1.3907843
				c0.1525879-0.4665356,0.361908-0.8709726,0.6261902-1.2169123c0.266098-0.3441391,0.5588226-0.6332932,0.8763428-0.8692322
				c0.4629974-0.3299427,0.9260101-0.5658817,1.3925476-0.707818c0.4665527-0.1419058,1.0306549-0.2128582,1.6941071-0.2128582
				c1.443985,0,2.5686798,0.4239759,3.3758392,1.2736692c0.443512,0.4275475,0.7716675,0.9189053,0.9898682,1.4741926
				c0.2181702,0.5552263,0.3263855,1.0785484,0.3263855,1.5681353
				C257.4571533,13.4400148,257.3152161,14.1850491,257.0331726,14.7491598L257.0331726,14.7491598z M254.3226166,9.6756725
				c-0.4151154-0.5215206-0.9597168-0.7823124-1.6356201-0.7823124c-0.530365,0-0.9703217,0.1490498-1.3180084,0.4452562
				c-0.3494873,0.298069-0.5924988,0.7362108-0.7308655,1.3162899c-0.0887299,0.3725319-0.1401367,1.1708117-0.1543427,2.3930674
				c0.062088,0.8568058,0.1064453,1.3517351,0.1348419,1.481245c0.0886993,0.4629946,0.2305908,0.8603477,0.4239655,1.1920919
				c0.1312408,0.2146597,0.3476868,0.4044676,0.6510315,0.5694532c0.3033142,0.1667271,0.6652374,0.2501049,1.0874023,0.2501049
				c0.5037994,0,0.9277954-0.1614437,1.2719421-0.482502c0.3441315-0.3210888,0.5924835-0.8231316,0.7450409-1.5078678
				c0.0975952-0.4487982,0.145462-1.1849785,0.145462-2.2068014
				C254.9434662,11.0859957,254.7359467,10.1972542,254.3226166,9.6756725L254.3226166,9.6756725z M275.865387,16.922287
				c-0.1933289,0.0354462-0.3316956,0.0531826-0.4151306,0.0531826c-0.0549622,0-0.2217102-0.0159359-0.5019836-0.0479012
				c-0.2785339-0.0301342-0.6315308-0.0461006-1.059021-0.0461006c-1.0430908,0-1.8697815,0.0319347-2.483551,0.0940018
				c-0.0496826-0.172039-0.0727234-0.3104019-0.0727234-0.4133205l0.0106506-0.1436768
				c0.0886841-0.0479012,0.3849182-0.1649857,0.8887329-0.3548241c0.0904541-0.0886908,0.1419067-0.1684971,0.1560974-0.2376795
				c0.0337219-0.1720695,0.0514832-0.5392895,0.0514832-1.1051712l-0.0514832-2.9128485
				c-0.0071106-0.4895554-0.0460815-0.8940229-0.1134949-1.2151117c-0.0691833-0.3193178-0.1721191-0.5712242-0.3051758-0.7539186
				c-0.1347961-0.1827555-0.3157349-0.3317747-0.5445862-0.4488583c-0.2270508-0.117054-0.4647522-0.175581-0.7131348-0.175581
				c-0.3866882,0-0.7805176,0.1082001-1.179657,0.3228292c-0.4009094,0.2164297-0.7557068,0.5428314-1.0661316,0.9810038
				l-0.0195313,0.2997789l0.0301514,1.3251734l-0.0213013,1.0856323v1.0342188l-0.0088501,0.9206753
				c0,0.4559116,0.0443726,0.7255564,0.1330872,0.8071642c0.1383362,0.1312809,0.4771729,0.2252846,1.014679,0.2802696
				l0.321106,0.1046581c0.0549927,0.1614456,0.081543,0.2873821,0.081543,0.3778744
				c0,0.0496731-0.0123901,0.1330223-0.0407715,0.2518768l-0.2998352-0.0106544h-0.4132996l-0.2164001-0.0106258
				c-0.4878845-0.0479012-0.9952087-0.0744934-1.5185242-0.0816078l-1.1051636-0.0212784
				c-0.2678528,0-0.732666,0.0319347-1.3943176,0.0940018l-0.1844788-0.0319042l-0.0213318-0.6190948
				c0.2075806-0.058588,0.5800781-0.1082306,1.1193848-0.1472797c0.0336914-0.0052814,0.079834-0.0195084,0.1348267-0.0407887
				c0.0745239-0.0886917,0.1188354-0.1649866,0.1330566-0.2270546c0.0336914-0.1383638,0.0514526-0.416893,0.0514526-0.8390989
				l-0.0106506-2.1003418l0.0319214-0.5587988c0-1.0750074-0.039032-1.7420053-0.1152954-1.9956827
				c-0.0957947-0.3317137-0.2980347-0.6031294-0.6066589-0.8124456c-0.3069458-0.2111177-0.6759338-0.3157768-1.1034546-0.3157768
				c-0.5605164,0-1.0484009,0.1330519-1.463501,0.3973541c-0.4150696,0.2661028-0.6528015,0.5020123-0.7148743,0.7095881
				c-0.0071106,0.0833788-0.0106506,0.1454477-0.0106506,0.1862669l0.0194702,0.1028566v0.1029186
				c0,0.0638695-0.0194702,0.1596432-0.0620422,0.2909241l0.0319519,2.969574l0.0106201,1.5522289
				c0,0.054985,0.0088196,0.1436758,0.0301208,0.2678432l0.0514832,0.1561022
				c0.1915894,0.0603275,0.3565369,0.1029186,0.4931335,0.1312809c0.2519226,0.053215,0.4434814,0.1135426,0.572998,0.1791534
				c0.0212708,0.1171131,0.0319214,0.2004929,0.0319214,0.2483635c0,0.0904922-0.0283813,0.2182026-0.083374,0.3831882
				c-0.1099854,0.0070839-0.1898193,0.0106239-0.2377014,0.0106239c-0.0762634,0-0.4204407-0.0283623-1.0342102-0.0851479
				l-1.1282043-0.0088539c-0.5375366,0-1.1903381,0.0337048-1.9566956,0.1028862l-0.2998047-0.0088844
				c-0.0141907-0.1117401-0.0265808-0.237709-0.040802-0.3831558c0-0.0620689,0.0177917-0.1507912,0.0514526-0.2678432
				c0.0550232-0.0284252,0.1312866-0.0461636,0.2270813-0.0532455c0.4079895-0.0283623,0.730835-0.0993156,0.9739075-0.2164001
				c0.0478516-0.0212803,0.0762634-0.065671,0.0868835-0.1348219c0.0106506-0.0692129,0.0301819-0.6953926,0.0568237-1.8804007
				v-0.5995874l0.0105896-1.064352l-0.0105896-1.1052027v-0.2465935c0-0.3246002-0.0745239-0.5641117-0.2217712-0.7184124
				c-0.1490173-0.1561327-0.5357666-0.3228598-1.1637268-0.5020428V9.3794355
				c0.1312561-0.0337057,0.2856445-0.0727234,0.4647827-0.113512c0.6350708-0.1312809,1.1583862-0.3175468,1.5735168-0.5588293
				c0.3175049-0.1862354,0.6315002-0.4647341,0.9419556-0.8372974h0.5676575v0.1649866l0.0319519,0.8284435l-0.0106812,0.3814163
				l0.0213013,0.1862669c0.6546021-0.5162392,1.2009888-0.8586388,1.6391296-1.0235939
				c0.4381409-0.1649561,0.9401855-0.2483654,1.506073-0.2483654c0.5446167,0,1.0714722,0.117115,1.5787659,0.3512526
				c0.5073853,0.235939,0.9295959,0.6279802,1.2666626,1.1796656c0.4895935-0.4718475,0.9011536-0.8053627,1.2311096-0.9969406
				c0.2288208-0.1295099,0.5410156-0.2447929,0.936615-0.3441696c0.3973999-0.0993156,0.7716675-0.1489887,1.1229248-0.1489887
				c0.9579163,0,1.7171631,0.2891541,2.2759705,0.8692322c0.5588074,0.585391,0.8373108,1.3765869,0.8373108,2.375329v1.6444311
				c0,0.3370256-0.0088806,0.9189053-0.0301514,1.7455473v0.7965088c0,0.1366234,0.0407715,0.2714462,0.124176,0.4027262
				c0.2695923,0.113512,0.5002441,0.1880074,0.693573,0.2217121c0.1365967,0.0213108,0.2678833,0.0674114,0.3920898,0.1419067
				c0.0141602,0.1259689,0.0318909,0.2323971,0.0514221,0.3157749L275.865387,16.922287L275.865387,16.922287z
				 M293.7449646,16.922287c-0.1933289,0.0354462-0.3317261,0.0531826-0.4150696,0.0531826
				c-0.0549622,0-0.2217407-0.0159359-0.5020142-0.0479012c-0.2785034-0.0301342-0.6315308-0.0461006-1.0590515-0.0461006
				c-1.0430908,0-1.8697205,0.0319347-2.483551,0.0940018c-0.0496216-0.172039-0.0727234-0.3104019-0.0727234-0.4133205
				l0.0106812-0.1436768c0.0886841-0.0479012,0.3849182-0.1649857,0.8887329-0.3548241
				c0.0904541-0.0886908,0.1419067-0.1684971,0.1561279-0.2376795c0.0337219-0.1720695,0.0513916-0.5392895,0.0513916-1.1051712
				l-0.0513916-2.9128485c-0.0071411-0.4895554-0.0444031-0.8940229-0.1135864-1.2151117
				c-0.0691528-0.3193178-0.1720581-0.5712242-0.3051147-0.7539186c-0.1347961-0.1827555-0.3157043-0.3317747-0.5445862-0.4488583
				c-0.2270203-0.117054-0.4648132-0.175581-0.7131348-0.175581c-0.3867188,0-0.7805176,0.1082001-1.179657,0.3228292
				c-0.4009094,0.2164297-0.7557068,0.5428314-1.0661621,0.9810038l-0.0195007,0.2997789l0.0301514,1.3251734l-0.0212708,1.0856323
				v1.0342188l-0.0088806,0.9206753c0,0.4559116,0.044342,0.7255564,0.1329956,0.8071642
				c0.1384277,0.1312809,0.4772034,0.2252846,1.0147705,0.2802696l0.3210144,0.1046581
				c0.0550232,0.1614456,0.081665,0.2873821,0.081665,0.3778744c0,0.0496731-0.0124207,0.1330223-0.0408325,0.2518768
				l-0.2997742-0.0106544h-0.4133301l-0.2164001-0.0106258c-0.487854-0.0479012-0.9952087-0.0744934-1.5185242-0.0816078
				l-1.1051636-0.0212784c-0.2678528,0-0.732666,0.0319347-1.3943176,0.0940018l-0.1844788-0.0319042l-0.0213318-0.6190948
				c0.2075806-0.058588,0.5800781-0.1082306,1.1193848-0.1472797c0.0337219-0.0052814,0.079834-0.0195084,0.1348572-0.0407887
				c0.0744629-0.0886917,0.1188049-0.1649866,0.1330261-0.2270546c0.0336914-0.1383638,0.0514221-0.416893,0.0514221-0.8390989
				l-0.0106506-2.1003418l0.0319214-0.5587988c0-1.0750074-0.0390015-1.7420053-0.1152649-1.9956827
				c-0.0958252-0.3317137-0.2980652-0.6031294-0.60672-0.8124456c-0.3069153-0.2111177-0.6758423-0.3157768-1.1033936-0.3157768
				c-0.5605164,0-1.0484009,0.1330519-1.4634705,0.3973541c-0.4151611,0.2661028-0.652832,0.5020123-0.7149353,0.7095881
				c-0.0070801,0.0833788-0.0106506,0.1454477-0.0106506,0.1862669l0.0195007,0.1028566v0.1029186
				c0,0.0638695-0.0195007,0.1596432-0.0620728,0.2909241l0.0319824,2.969574l0.0105896,1.5522289
				c0,0.054985,0.0088501,0.1436758,0.0301514,0.2678432l0.0514832,0.1561022
				c0.1915588,0.0603275,0.3565369,0.1029186,0.4931335,0.1312809c0.2518921,0.053215,0.4434814,0.1135426,0.572998,0.1791534
				c0.0212708,0.1171131,0.0318909,0.2004929,0.0318909,0.2483635c0,0.0904922-0.0283508,0.2182026-0.0833435,0.3831882
				c-0.1099854,0.0070839-0.1897888,0.0106239-0.2377014,0.0106239c-0.0762939,0-0.4204407-0.0283623-1.0341797-0.0851479
				l-1.1282959-0.0088539c-0.5374756,0-1.1902771,0.0337048-1.9566345,0.1028862l-0.2997742-0.0088844
				c-0.0142212-0.1117401-0.0266418-0.237709-0.0408325-0.3831558c0-0.0620689,0.0177307-0.1507912,0.0514221-0.2678432
				c0.0549927-0.0284252,0.1312866-0.0461636,0.2270813-0.0532455c0.4080505-0.0283623,0.730896-0.0993156,0.9739075-0.2164001
				c0.0479126-0.0212803,0.0762634-0.065671,0.0869446-0.1348219c0.0106201-0.0692129,0.0301514-0.6953926,0.0567322-1.8804007
				v-0.5995874l0.0106506-1.064352l-0.0106506-1.1052027v-0.2465935c0-0.3246002-0.0744629-0.5641117-0.2217407-0.7184124
				c-0.1490173-0.1561327-0.5357361-0.3228598-1.1636963-0.5020428V9.3794355
				c0.1312866-0.0337057,0.285553-0.0727234,0.4647827-0.113512c0.6350708-0.1312809,1.1583862-0.3175468,1.5734863-0.5588293
				c0.3175659-0.1862354,0.6315308-0.4647341,0.9419861-0.8372974h0.567627v0.1649866l0.0319824,0.8284435l-0.0106506,0.3814163
				l0.0212402,0.1862669c0.6546021-0.5162392,1.2009583-0.8586388,1.6391602-1.0235939
				c0.4381409-0.1649561,0.9401855-0.2483654,1.5060425-0.2483654c0.5446167,0,1.0714722,0.117115,1.5788269,0.3512526
				c0.5073547,0.235939,0.9295654,0.6279802,1.2666321,1.1796656c0.4895935-0.4718475,0.901123-0.8053627,1.2310791-0.9969406
				c0.2288513-0.1295099,0.5410767-0.2447929,0.936676-0.3441696c0.3973389-0.0993156,0.771637-0.1489887,1.1228943-0.1489887
				c0.9579163,0,1.7171631,0.2891541,2.2759705,0.8692322c0.5587769,0.585391,0.8372498,1.3765869,0.8372498,2.375329v1.6444311
				c0,0.3370256-0.0087891,0.9189053-0.0300598,1.7455473v0.7965088c0,0.1366234,0.040741,0.2714462,0.124115,0.4027262
				c0.2696533,0.113512,0.5002441,0.1880074,0.693634,0.2217121c0.1365662,0.0213108,0.2678528,0.0674114,0.3919983,0.1419067
				c0.0142517,0.1259689,0.0319519,0.2323971,0.0514526,0.3157749L293.7449646,16.922287L293.7449646,16.922287z
				 M305.3129272,16.4468365c-0.365448,0.0141964-0.6280212,0.0372772-0.7876282,0.0727539
				c-0.7379761,0.1649551-1.545105,0.4097786-2.4197083,0.7344093l-0.4150696-0.0212803l-0.0106506-1.6852493
				c-0.081604,0.0674114-0.20224,0.1756115-0.3618774,0.3192873c-0.60672,0.5392904-1.1282654,0.9029684-1.5610962,1.0927763
				c-0.4346313,0.1898079-0.8905334,0.2838116-1.3659058,0.2838116c-0.565918,0-1.0555115-0.1170845-1.4706116-0.351223
				c-0.4133606-0.2341995-0.7166748-0.5233231-0.9100342-0.8674622c-0.1454773-0.2696438-0.241272-0.6546021-0.2891846-1.1583853
				c-0.0141907-0.1295099-0.0212708-0.8053627-0.0212708-2.0240765l0.0106506-0.3317442
				c0.0337219-0.6740818,0.0514221-1.1743536,0.0514221-1.4972124c0-0.5516853-0.0106506-0.9206762-0.0301514-1.1069422
				c-0.0070801-0.0886908-0.042572-0.1915789-0.1046448-0.3086634c-0.0957947-0.0425892-0.2093506-0.0727539-0.3406067-0.0940332
				c-0.4417419-0.0762653-0.7184753-0.1472178-0.8284302-0.2164001c-0.0337219-0.0212793-0.0514526-0.0656404-0.0514526-0.1348219
				c0-0.0408192,0.0053101-0.0975752,0.0159607-0.1649866c0.0106812-0.0691824,0.0213013-0.182725,0.0354919-0.3423681
				c0.0762939-0.0266228,0.1383667-0.0479031,0.1862488-0.0620689h3.0831299l0.2288513,0.0212803l0.0194702,0.6918497
				l-0.0301208,1.0129089l0.0106506,0.5268631l-0.0106506,1.5592813v1.064353c0,0.6971931,0.037262,1.2435656,0.1135254,1.6444607
				c0.1029053,0.30161,0.2696228,0.5322065,0.5020142,0.6865377c0.2306519,0.1543322,0.5126953,0.2323675,0.8426208,0.2323675
				c0.3104858,0,0.5623474-0.0301332,0.7557373-0.0940037c0.1933289-0.060297,0.4150696-0.1773815,0.6670227-0.351222
				c0.2518311-0.1720695,0.4115295-0.2962675,0.4807129-0.3707609c0.2004395-0.2199726,0.3388062-0.4240074,0.4150696-0.6102428
				l0.0727844-2.5722504c0.0123901-0.2678442,0.0194397-0.4878159,0.0194397-0.6616564
				c0-0.1791525-0.0053101-0.4044666-0.0159302-0.6758823c-0.0088806-0.2714157-0.0141907-0.4257469-0.0141907-0.4594526
				l0.0106812-0.3831882l-0.0213013-0.2270546c-0.164978-0.1028872-0.3973999-0.1685276-0.693634-0.1951199l-0.6936035-0.0532455
				c-0.040802-0.0195084-0.0780334-0.0443296-0.1135254-0.0709524c-0.0266418-0.1383638-0.040802-0.2412519-0.040802-0.3104334
				c0-0.0833483,0.0106506-0.2004633,0.0301819-0.352993c0.2287598-0.0337057,0.4257202-0.0514441,0.5924377-0.0514441
				l1.5965881,0.0212803c0.4292603,0,0.9543762-0.0071144,1.5769958-0.0212803l0.0213013,0.7751989l-0.0407715,0.9916286
				l0.0194702,1.239994l-0.0088196,1.777482l-0.0212708,0.7947683l0.0106201,0.537488
				c-0.0284119,0.3583364-0.042572,0.5623407-0.042572,0.6102123c0,0.1721001,0.0319519,0.2998085,0.0939941,0.3814163
				c0.0620728,0.0833788,0.1206665,0.1241674,0.1756592,0.1241674l0.9525757-0.0301332l0.1242065,0.0195093
				c0.0194397,0.243021,0.0301208,0.3796158,0.0301208,0.4150925
				C305.3430481,16.267683,305.3323669,16.3439484,305.3129272,16.4468365L305.3129272,16.4468365z M317.0865784,17.0677338
				L315.05896,16.922287l-0.5996094,0.0212784h-0.4754333l-1.3659058,0.0940037h-0.3529968
				c-0.0071106-0.0869198-0.0106201-0.1543312-0.0106201-0.2004318c0-0.120657,0.0070496-0.2501659,0.0212402-0.3903008
				c0.0975342-0.0212498,0.3388367-0.0549545,0.7238159-0.1046581c0.1046143-0.0141678,0.2181396-0.0372486,0.3423462-0.0727253
				c0.1383667-0.054985,0.2164307-0.1099701,0.2377014-0.1649551c0.0550232-0.1170845,0.0833435-0.3423986,0.0833435-0.6741123
				c0-0.5801086-0.0035095-1.0253649-0.0106201-1.3357677l0.0106201-1.2027769c0-1.4563942-0.0939636-2.3646746-0.2785034-2.7247505
				c-0.2624817-0.5180101-0.6545715-0.77703-1.177887-0.77703c-0.3849487,0-0.7840881,0.0993767-1.1956177,0.2962675
				c-0.4133301,0.1969213-0.8408813,0.4949284-1.2807922,0.895854l-0.0195618,0.175642l0.0195618,0.6528015l-0.0195618,0.6918201
				l0.040863,1.6568565l-0.0213013,0.2590199c0,1.1246805,0.0461121,1.7579737,0.1365662,1.9034204
				c0.0904846,0.1455088,0.4346313,0.3068914,1.0324707,0.4843054c0.0212708,0.1170845,0.0319214,0.2022324,0.0319214,0.2590199
				c0,0.0815773-0.0248413,0.2092857-0.0727539,0.3813553c-0.2146301,0.0071144-0.3937988,0.010685-0.5392456,0.010685
				c-0.1454773,0-0.3743286-0.0230808-0.6848145-0.069212l-1.1086731-0.0230503
				c-0.5534668,0-1.3517761,0.0230503-2.3966064,0.0727234c-0.0265808-0.0691814-0.0408325-0.1401348-0.0408325-0.2146587
				c0-0.054985,0.0035706-0.1631851,0.0106812-0.3263702c0.1791687-0.0816383,0.3441162-0.1383648,0.4967041-0.1649876
				c0.3796387-0.0620995,0.5996094-0.1135426,0.6616821-0.1561012c0.1046753-0.0620995,0.1720886-0.1383648,0.20755-0.2270861
				c0.0408325-0.1383638,0.0621033-0.4416838,0.0621033-0.9118223v-0.9011364l0.0106201-0.7361803l-0.0318909-1.0874329v-0.652833
				c0-0.4346008-0.0336914-0.7911654-0.1028748-1.0679245c-0.0284119-0.1028566-0.1135864-0.2075453-0.2590332-0.3104334
				c-0.1933899-0.1383638-0.5215759-0.2731867-0.9827576-0.4044676l-0.0106812-0.4966993
				c0.0905151-0.0265923,0.1703186-0.0461006,0.243103-0.056756c0.0726929-0.0106554,0.3511963-0.0780363,0.8337097-0.2022333
				c0.3796387-0.1365938,0.6244507-0.234169,0.7344055-0.2891541c0.0336914-0.0212803,0.0887146-0.0514441,0.1650085-0.0922327
				c0.0833435-0.069212,0.1755981-0.1383638,0.2802429-0.2075768c0.20578-0.1454468,0.4541626-0.3973532,0.7450867-0.7556891
				l0.5587463-0.0408192l-0.0212708,1.1690717c-0.0141602,0.117054-0.0212708,0.2110567-0.0212708,0.2802696
				c0,0.054985,0.0071106,0.2128887,0.0212708,0.4753895c0.5711975-0.4967003,1.0909729-0.8426094,1.5592957-1.0341883
				c0.6138-0.2554483,1.1956787-0.3831568,1.745575-0.3831568c0.6474915,0,1.2151794,0.1596432,1.7047424,0.480732
				c0.489624,0.3228598,0.8089294,0.6935902,0.9615173,1.1158266c0.1507568,0.4204044,0.2270508,1.2701273,0.2270508,2.549139
				l-0.0426025,3.379384c0,0.1596441,0.0284424,0.290925,0.0834351,0.3937826
				c0.0691223,0.0479317,0.2589722,0.0958347,0.5694275,0.1472473l0.5072937,0.0975761
				c0.0621033,0.0869503,0.0922546,0.1968899,0.0922546,0.3246288
				C317.0971985,16.8122845,317.0936584,16.925827,317.0865784,17.0677338L317.0865784,17.0677338z M323.0470276,17.0056343
				c-0.1862488,0.0071144-0.322876,0.0106544-0.4133301,0.0106544c-0.1028748,0-0.2607727-0.0071125-0.4754028-0.0213089
				c-0.7007141-0.0337067-1.6408691-0.0514145-2.8188171-0.0514145c-0.3370361,0-0.6634216,0.0124264-0.9809875,0.0354767
				c-0.3157654,0.0248222-0.5339661,0.0372467-0.6510315,0.0372467l-0.0195007-0.6723404l1.1690369-0.1561031
				c0.1720276-0.0479012,0.2909241-0.1188545,0.3565674-0.2110863c0.0656128-0.0940342,0.0975647-0.3015499,0.0975647-0.6262102
				v-0.113512c0-0.0834093,0.0053101-0.2341995,0.0159302-0.4505987c0.0106506-0.2182016,0.0159912-0.4080086,0.0159912-0.5747662
				c0-0.1312809-0.0106201-0.3831568-0.0319214-0.7557201l0.0159302-0.5161781l-0.0159302-0.4860754l0.0319214-1.6870203
				c0-0.2146597-0.0213013-0.4346313-0.0621033-0.6616859c-0.0762634-0.1046896-0.2164001-0.1933804-0.4168701-0.2696457
				c-0.20224-0.0762644-0.5534973-0.1312504-1.0519409-0.1649551V9.0902815
				c0.7095642-0.0407887,1.3340149-0.1898079,1.87146-0.4452553c0.3654785-0.1649866,0.7628479-0.4576826,1.1903687-0.8798876
				h0.693573c0.0266418,0.8568363,0.040863,1.9673204,0.040863,3.3314819l-0.0727234,4.2219934
				c0,0.2909241,0.0141602,0.5516853,0.042511,0.7876234c0.2128906,0.0745258,0.5623474,0.1508217,1.0448914,0.2270565
				c0.1862488,0.0266209,0.3352051,0.0621281,0.4452209,0.1029167L323.0470276,17.0056343L323.0470276,17.0056343z
				 M321.2003174,5.8989654c-0.2305603,0.1401348-0.4682617,0.2110872-0.7095337,0.2110872
				c-0.3299561,0-0.6350403-0.1419358-0.9153748-0.4239759c-0.2785034-0.2820711-0.4186401-0.6208673-0.4186401-1.0147099
				c0-0.3725019,0.1206665-0.677623,0.361908-0.9153636c0.2412415-0.2376795,0.5516968-0.3565345,0.9313049-0.3565345
				c0.40625,0,0.7450562,0.1259379,1.0147095,0.3778446c0.2678223,0.2519069,0.4026489,0.535718,0.4026489,0.8532648
				c0,0.2341685-0.0531616,0.470077-0.1596375,0.7042761C321.5995178,5.5689921,321.4309692,5.7570291,321.2003174,5.8989654
				L321.2003174,5.8989654z M327.6930237,15.7639008c0.1578674,0.0762339,0.3352356,0.113512,0.526825,0.113512
				c0.1862793,0,0.3246155-0.0159674,0.4151306-0.0514441c0.0886841-0.0337057,0.2412415-0.1348228,0.4541016-0.2998085
				c0.042572-0.0337057,0.1082153-0.0816078,0.1969299-0.1436768c0.1667175,0.1312809,0.2997742,0.2607603,0.4044495,0.3920412
				l0.040802,0.124198c-0.2412415,0.3795843-0.5818481,0.6776228-1.0182495,0.8958235
				c-0.4381714,0.2164307-0.9064941,0.3246307-1.4031982,0.3246307c-0.6403809,0-1.1619568-0.2022324-1.5628357-0.6084709
				c-0.3991394-0.406208-0.5995789-1.0377302-0.5995789-1.8910255l0.0407715-1.8182707V9.8566265l-0.3192749-0.0212803
				l-0.7450867,0.0212803l-0.1347961-0.053215c-0.0426025-0.0603275-0.0620728-0.1188545-0.0620728-0.1738701
				c0-0.0407887,0.0070801-0.1933498,0.0194702-0.4611931c0.8142395-0.3441391,1.4031982-0.6811953,1.7650757-1.011138
				c0.3618774-0.3317437,0.7503967-0.8692627,1.1636963-1.6125264h0.5801086
				c0.0620728,0.179153,0.0922546,0.3689604,0.0922546,0.5694232c0,0.358336-0.0035095,0.6386361-0.0106201,0.837328
				l-0.0301819,0.6119833c0,0.0337048,0.00354,0.113512,0.0106201,0.23771l0.2377625,0.0088835
				c0.0336914,0,0.3583374-0.0124254,0.9720764-0.0407887c0.0479126,0,0.3068848-0.0071135,0.7770386-0.0213099
				c0.0407104,0.1844959,0.0620422,0.3494816,0.0620422,0.4931583c0,0.1561327-0.0248413,0.3405972-0.0727234,0.5534554
				c-0.2270813,0.0408192-0.4009094,0.0620995-0.5180359,0.0620995c-0.0549622,0-0.1649475-0.0141964-0.3298645-0.0425596
				h-0.5393677l-0.1862183-0.0106554l-0.4966736,0.0319347l-0.0195618,3.9523802
				c-0.0070801,0.7663441,0.0071106,1.2435045,0.0461121,1.4333124
				C327.4872131,15.4108467,327.5688171,15.5918007,327.6930237,15.7639008L327.6930237,15.7639008z M339.9332581,9.1648064
				c-0.1242065,0.0620689-0.2625732,0.109971-0.4133606,0.1436768c-0.2483521,0.0620985-0.4665222,0.1206255-0.6528015,0.1756105
				c-0.0993652,0.0816383-0.164978,0.1507902-0.1987,0.2057753c-0.1170349,0.2625618-0.3548279,0.835557-0.7148743,1.7207565
				l-0.7468262,1.9974546l-1.7314148,4.1226473l-1.1920471,2.7336349c-0.2608032,0.5251236-0.5677185,0.9774628-0.9207153,1.3553371
				c-0.1312561,0.1454468-0.2820435,0.2554188-0.454071,0.3317146c-0.283905,0.1099701-0.605011,0.1649857-0.9633179,0.1649857
				c-0.0336914,0-0.2234802-0.0230808-0.5693665-0.0709534c-0.2821045-0.069212-0.526886-0.2182007-0.7344666-0.4452858
				c-0.1437073-0.1667576-0.2164612-0.3423691-0.2164612-0.528635c0-0.3796158,0.161499-0.7308674,0.4861145-1.0554981
				c0.2891235-0.1791515,0.5037537-0.2678738,0.6421814-0.2678738c0.3104248,0,0.6723022,0.1614456,1.0856323,0.4860744
				c0.1933899,0.1578732,0.3476868,0.237711,0.4665222,0.237711c0.1170959,0,0.2093201-0.0656414,0.2785034-0.1969223
				c0.5996399-1.1654682,0.9863586-1.9939117,1.1583862-2.4835281l-1.9087524-4.216651
				c-0.7148743-1.6923332-1.2612305-2.8755713-1.6408997-3.5532246c-0.1933289-0.3441391-0.3316956-0.5481739-0.4115295-0.6102428
				c-0.0798645-0.0620985-0.2039795-0.1170845-0.3707886-0.1649866c-0.0904541-0.0212793-0.1950684-0.0638695-0.3139648-0.1259375
				c-0.0336914-0.1543322-0.0656433-0.3033504-0.0922241-0.4452562c0.2412109-0.0407887,0.4417114-0.0603285,0.5995789-0.0603285
				c0.0833435,0,0.1756287,0.0035419,0.2802734,0.0088844c0.6262207,0.0425596,1.1371155,0.0620689,1.5309143,0.0620689h0.5375366
				l1.468811-0.0922327c0.0567932,0.0408192,0.1046448,0.0869198,0.1454773,0.1348219
				c-0.0212708,0.3033199-0.0372925,0.4967003-0.0514526,0.5783081c-0.1029053,0.0212793-0.1827087,0.0354767-0.2377319,0.0425596
				c-0.159668,0.0195084-0.2767334,0.0390482-0.3530273,0.056756c-0.0744934,0.0177383-0.1578369,0.0319653-0.248291,0.0461311
				c-0.1029358,0.0283937-0.161499,0.0762959-0.1756592,0.1454773c0.0426025,0.1649866,0.0833435,0.3033504,0.124176,0.4133215
				l0.4967041,1.0164804c0.3938293,0.9685783,0.7964783,1.8590899,1.2116089,2.675108l0.5783081,1.1920919
				c0.042572-0.0833483,0.3068848-0.7628031,0.7982483-2.0418148c0.5854492-1.5149517,0.9029541-2.3682165,0.9508667-2.5615959
				c0.0283813-0.1028576,0.0407715-0.1933498,0.0407715-0.2696142c0-0.0691824-0.0194702-0.1826944-0.0620728-0.3405981
				c-0.1508179-0.1117411-0.2749634-0.180954-0.3725281-0.2128582c-0.0957642-0.0301638-0.3192749-0.0674114-0.6723022-0.1082306
				l-0.3299866-0.0833778l-0.0319214-0.1419058c-0.0070801-0.0674114-0.0106506-0.1188555-0.0106506-0.1525612
				c0-0.0550156,0.0106506-0.1419048,0.0319214-0.2643013c0.20755-0.0142279,0.3547974-0.0213108,0.445282-0.0213108
				l0.8373108,0.0514441l0.5587769,0.0213099c0.2341614,0,0.6421509-0.0337048,1.220459-0.1029177
				c0.3583679-0.0425596,0.6279907-0.0656099,0.8071899-0.0727234c0.0141602,0.1702986,0.0212708,0.299778,0.0212708,0.3884993
				C339.9438782,9.022871,339.9403381,9.0831985,339.9332581,9.1648064L339.9332581,9.1648064z"/>
		</defs>
		<use xlink:href="#SVGID_1_"  overflow="visible" fill="#FFFFFF"/>
		<clipPath id="SVGID_2_">
			<use xlink:href="#SVGID_1_"  overflow="visible"/>
		</clipPath>
	</g>
	<g opacity="0.9">
		<defs>
			<polygon id="SVGID_3_" opacity="0.9" points="11.9641972,0.4371915 17.9719467,6.4467425 11.9641972,12.4563236 
				5.9546156,6.4467425 11.9641972,0.4371915 			"/>
		</defs>
		<use xlink:href="#SVGID_3_"  overflow="visible" fill-rule="evenodd" clip-rule="evenodd" fill="#FFFFFF"/>
		<clipPath id="SVGID_4_">
			<use xlink:href="#SVGID_3_"  overflow="visible"/>
		</clipPath>
	</g>
	<g opacity="0.7">
		<defs>
			<polygon id="SVGID_5_" opacity="0.7" points="17.9719467,6.4476891 23.9815273,12.4572401 17.9719467,18.4668217 
				11.9641972,12.4572401 17.9719467,6.4476891 			"/>
		</defs>
		<use xlink:href="#SVGID_5_"  overflow="visible" fill-rule="evenodd" clip-rule="evenodd" fill="#FFFFFF"/>
		<clipPath id="SVGID_6_">
			<use xlink:href="#SVGID_5_"  overflow="visible"/>
		</clipPath>
	</g>
	<g opacity="0.9">
		<defs>
			<polygon id="SVGID_7_" opacity="0.9" points="11.9641972,12.4557133 17.9719467,18.4652958 11.9641972,24.4748154 
				5.9546156,18.4652958 11.9641972,12.4557133 			"/>
		</defs>
		<use xlink:href="#SVGID_7_"  overflow="visible" fill-rule="evenodd" clip-rule="evenodd" fill="#FFFFFF"/>
		<clipPath id="SVGID_8_">
			<use xlink:href="#SVGID_7_"  overflow="visible"/>
		</clipPath>
	</g>
	<g opacity="0.6">
		<defs>
			<polygon id="SVGID_9_" opacity="0.6" points="5.9541879,6.4469256 11.9627314,12.4572401 5.9541879,18.4657841 
				-0.0561262,12.4572401 5.9541879,6.4469256 			"/>
		</defs>
		<use xlink:href="#SVGID_9_"  overflow="visible" fill-rule="evenodd" clip-rule="evenodd" fill="#FFFFFF"/>
		<clipPath id="SVGID_10_">
			<use xlink:href="#SVGID_9_"  overflow="visible"/>
		</clipPath>
	</g>
	<g opacity="0.47">
		<defs>
			<polygon id="SVGID_11_" opacity="0.47" points="23.9815273,0.4371915 29.9910793,6.4467425 23.9815273,12.4563236 
				17.9719467,6.4467425 23.9815273,0.4371915 			"/>
		</defs>
		<use xlink:href="#SVGID_11_"  overflow="visible" fill-rule="evenodd" clip-rule="evenodd" fill="#FFFFFF"/>
		<clipPath id="SVGID_12_">
			<use xlink:href="#SVGID_11_"  overflow="visible"/>
		</clipPath>
	</g>
	<g opacity="0.9">
		<defs>
			<polygon id="SVGID_13_" opacity="0.9" points="29.9910793,6.4476891 36.0006294,12.4572401 29.9910793,18.4668217 
				23.9815273,12.4572401 29.9910793,6.4476891 			"/>
		</defs>
		<use xlink:href="#SVGID_13_"  overflow="visible" fill-rule="evenodd" clip-rule="evenodd" fill="#FFFFFF"/>
		<clipPath id="SVGID_14_">
			<use xlink:href="#SVGID_13_"  overflow="visible"/>
		</clipPath>
	</g>
	<g opacity="0.8">
		<defs>
			<polygon id="SVGID_15_" opacity="0.8" points="23.9815273,12.4557133 29.9910793,18.4652958 23.9815273,24.4748154 
				17.9719467,18.4652958 23.9815273,12.4557133 			"/>
		</defs>
		<use xlink:href="#SVGID_15_"  overflow="visible" fill-rule="evenodd" clip-rule="evenodd" fill="#FFFFFF"/>
		<clipPath id="SVGID_16_">
			<use xlink:href="#SVGID_15_"  overflow="visible"/>
		</clipPath>
	</g>
</g>
</svg>
