<svg id="Слой_1" data-name="Слой 1" xmlns="http://www.w3.org/2000/svg" viewBox="0 0 340 24.04"><defs><style>.cls-1{opacity:0.9;}.cls-2,.cls-7{fill:#afb2b2;}.cls-3{fill:#ebecec;}.cls-11,.cls-3,.cls-5,.cls-7,.cls-9{fill-rule:evenodd;}.cls-4{opacity:0.7;}.cls-5{fill:#c4c6c6;}.cls-6{opacity:0.6;}.cls-8{opacity:0.47;}.cls-9{fill:#969999;}.cls-10{opacity:0.8;}.cls-11{fill:#d3d3d3;}</style></defs><title>xiph LOGO</title><g class="cls-1"><path class="cls-2" d="M49.09,15.76a1.43,1.43,0,0,0,.94.06,2.21,2.21,0,0,0,.46-0.3l0.2-.14a2.43,2.43,0,0,1,.4.39l0,0.12a2.49,2.49,0,0,1-1,.9,3.12,3.12,0,0,1-1.4.32,2.1,2.1,0,0,1-1.56-.61,2.61,2.61,0,0,1-.6-1.89l0-1.82V9.86l-0.32,0-0.75,0L45.39,9.8a0.3,0.3,0,0,1-.06-0.17s0-.19,0-0.46a6.39,6.39,0,0,0,1.77-1,6.54,6.54,0,0,0,1.16-1.61h0.58a1.73,1.73,0,0,1,.09.57c0,0.36,0,.64,0,0.84l0,0.61s0,0.11,0,.24h0.24l1,0,0.78,0a2.21,2.21,0,0,1,.06.49,2.57,2.57,0,0,1-.07.55,3.25,3.25,0,0,1-.52.06L50,9.81H49.32l-0.5,0,0,4a9.56,9.56,0,0,0,0,1.43,1.38,1.38,0,0,0,.24.54h0Zm13.71,1a2,2,0,0,0,0,.34l-0.24,0-0.61,0C61.35,17,60.86,17,60.47,17s-0.6,0-1,0l-1.16,0a0.64,0.64,0,0,1-.21,0V16.74l0-.13a0.7,0.7,0,0,1,.05-0.23,1.69,1.69,0,0,1,.55-0.15l0.59-.08,0.05-.25,0.05-1.51V11.85a6.14,6.14,0,0,0-.12-1.53,1.19,1.19,0,0,0-.52-0.65,1.73,1.73,0,0,0-1-.25,2.81,2.81,0,0,0-1.27.31,4.2,4.2,0,0,0-1.05.72v1.81q0,1.49,0,2.24,0,0.44,0,.56a3.47,3.47,0,0,0,.09,1,0.45,0.45,0,0,0,.23.23l0.64,0a1.73,1.73,0,0,1,.41,0q0,0.26,0,.36a1.84,1.84,0,0,1,0,.35l-1.15,0Q55,17,54.43,17L53,17H52a1.92,1.92,0,0,1-.22-0.52V16.36q0.17,0,.92-0.12a0.66,0.66,0,0,0,.41-0.14,1.6,1.6,0,0,0,.1-0.73V14.63l0-.78V12.28l0-.18,0-3.76V8.06a15.65,15.65,0,0,0-.1-2.38,0.68,0.68,0,0,0-.3-0.42A3.29,3.29,0,0,0,51.79,5V4.74q0-.15,0-0.38l0.87-.19,0.5-.12a7.62,7.62,0,0,0,1.46-.52l0.29-.16,0.56,0,0,6.19a7.08,7.08,0,0,1,1.71-1.06,4.28,4.28,0,0,1,1.61-.31,3.11,3.11,0,0,1,1.38.28,2.46,2.46,0,0,1,.9.7,2.58,2.58,0,0,1,.46,1,8.35,8.35,0,0,1,.09,1.55v2.12L61.59,16a0.27,0.27,0,0,0,.09.12,4.34,4.34,0,0,0,.61.14l0.43,0.09a0.57,0.57,0,0,1,.08.25v0.08h0ZM69,11.81c-0.4,0-.68-0.05-0.83-0.05l-1.12,0H66.2a1.78,1.78,0,0,0,0,.25,5.41,5.41,0,0,0,.13,1.16,3.72,3.72,0,0,0,.4,1.07,3,3,0,0,0,.67.79,2.65,2.65,0,0,0,.82.48l0.6,0.2a7.06,7.06,0,0,0,1.07-.05,4.77,4.77,0,0,0,.87-0.26,5.11,5.11,0,0,0,.92-0.54c0.25,0.18.45,0.34,0.62,0.49A6,6,0,0,1,70.4,16.8a5.17,5.17,0,0,1-2.19.45,5,5,0,0,1-1.34-.15,4.07,4.07,0,0,1-1.25-.57,3.86,3.86,0,0,1-1-1,4.36,4.36,0,0,1-.6-1.17,4.25,4.25,0,0,1-.26-1.26,8.25,8.25,0,0,1,.15-1.63,4.6,4.6,0,0,1,.48-1.17A5.35,5.35,0,0,1,65.66,9a4.05,4.05,0,0,1,1.18-.63A4.19,4.19,0,0,1,68,8.2a6.62,6.62,0,0,1,1.57.15,3,3,0,0,1,1,.43,4.82,4.82,0,0,1,.93.82,3.48,3.48,0,0,1,.57,1,4,4,0,0,1,.24,1.35l-1.15,0q-0.48,0-2.09-.09h0ZM69.73,10a1.75,1.75,0,0,0-.67-0.83,1.59,1.59,0,0,0-2.17.31,2.64,2.64,0,0,0-.63,1.66l2.36,0,0.64,0,0.42,0H70A3,3,0,0,0,69.73,10h0Zm18.45,7c-0.9-.05-1.54-0.08-1.94-0.08l-0.45,0H85.46a11.85,11.85,0,0,1-1.23.08H84.09c0-.13,0-0.23,0-0.29s0-.12,0-0.21a4.51,4.51,0,0,1,.55-0.29L85,16a0.86,0.86,0,0,0-.1-0.34,3.74,3.74,0,0,0-.46-0.53,10.52,10.52,0,0,1-.73-0.85q-0.25-.29-0.56-0.6a14.52,14.52,0,0,0-1.55,1.57,0.9,0.9,0,0,0-.2.5,0.49,0.49,0,0,0,.12.32,0.94,0.94,0,0,0,.41.25l0.33,0.12,0.13,0.05a0.85,0.85,0,0,1,0,.15,1.07,1.07,0,0,1-.07.32l-0.45,0a8.83,8.83,0,0,0-1-.05c-0.53,0-1,0-1.57.05l-0.78,0c0-.12,0-0.21,0-0.27V16.54a6.11,6.11,0,0,0,.88-0.37,2.75,2.75,0,0,0,.41-0.28q0.17-.14.79-0.75l1.89-1.88,0.14-.15s-0.46-.44-1.23-1.21l-0.14-.2a8.26,8.26,0,0,1-.7-0.75l-0.21-.18a11.93,11.93,0,0,0-1-1.06,3.44,3.44,0,0,0-.53-0.29l-0.23-.12A1.45,1.45,0,0,1,78.51,9a0.69,0.69,0,0,1,.05-0.33,0.27,0.27,0,0,1,.13-0.05l0.24,0h0.3l0.16,0,0.54,0c0.53,0,1.19,0,2-.07H83a2,2,0,0,1,0,.26,1,1,0,0,1-.08.35,2,2,0,0,0-.63.3l0,0.1a0.33,0.33,0,0,0,.12.21l1.66,1.78,1.45-1.74a0.83,0.83,0,0,0,.18-0.37V9.4a2.56,2.56,0,0,0-.9-0.26,2.2,2.2,0,0,1,0-.39V8.58H85l0.65,0.05,1.19,0a2.57,2.57,0,0,0,.42,0l0.47-.06h0.63V8.74a1.29,1.29,0,0,1-.06.38,2.18,2.18,0,0,1-.46.18,3.92,3.92,0,0,0-1,.36,8.69,8.69,0,0,0-.65.63q-1.09,1.13-1.62,1.77l1.86,2.15q1.09,1.35,1.4,1.66a4.84,4.84,0,0,0,.67.52,0.75,0.75,0,0,1,.06.32V17h-0.4Zm6.37,0H94.14l-0.48,0q-1.05-.05-2.82-0.05c-0.34,0-.67,0-1,0l-0.65,0,0-.67,1.17-.16A0.63,0.63,0,0,0,90.72,16a1.27,1.27,0,0,0,.1-0.63V15.24c0-.08,0-0.23,0-0.45s0-.41,0-0.57,0-.38,0-0.76l0-.52,0-.49,0-1.69a3.74,3.74,0,0,0-.06-0.66,0.91,0.91,0,0,0-.42-0.27,4.14,4.14,0,0,0-1.05-.16V9.09a5,5,0,0,0,1.87-.45,4.28,4.28,0,0,0,1.19-.88h0.69q0,1.29,0,3.33L93,15.32a6.61,6.61,0,0,0,0,.79,6.63,6.63,0,0,0,1,.23,2.25,2.25,0,0,1,.45.1l0,0.57h0ZM92.71,5.9a1.36,1.36,0,0,1-.71.21,1.27,1.27,0,0,1-.92-0.42,1.39,1.39,0,0,1-.42-1A1.23,1.23,0,0,1,91,3.76,1.27,1.27,0,0,1,92,3.4a1.43,1.43,0,0,1,1,.38,1.15,1.15,0,0,1,.4.85,1.69,1.69,0,0,1-.16.7,1.29,1.29,0,0,1-.51.56h0Zm12.77,8.43a4.77,4.77,0,0,1-1,1.5,4.11,4.11,0,0,1-1.46,1.08,4.3,4.3,0,0,1-1.64.32,4.9,4.9,0,0,1-1.21-.1,6.41,6.41,0,0,1-1.38-.58,1.42,1.42,0,0,0,0,.23l0,0.28c0,0.08,0,.17,0,0.28s0,0.32,0,.82l0,1.88s0,0.18,0,.41v0.12a2.13,2.13,0,0,0,.05.56,0.69,0.69,0,0,0,.18.23l0.2,0.09,0.56,0.12,0.51,0.1a0.46,0.46,0,0,1,.09.3c0,0.08,0,.19,0,0.33h-0.19q-0.6,0-.84,0l-1.56-.13H97.09l-0.36,0-0.56,0-0.68.05-0.54,0H94.81V21.81l0.27-.15,0.8-.29a1.33,1.33,0,0,0,.56-0.31,2.38,2.38,0,0,0,.15-1.1l-0.07-4.11-0.1-5.12a1.33,1.33,0,0,0-.24-0.8,2.64,2.64,0,0,0-1.1-.5V8.89a8.82,8.82,0,0,0,1.71-.49,8.52,8.52,0,0,0,1.38-.79l0.53,0V9s0,0.15,0,.31a6.87,6.87,0,0,1,1.48-.72A6.68,6.68,0,0,1,102,8.35a3.33,3.33,0,0,1,1.87.54L104.08,9a3.22,3.22,0,0,1,.76.71,5.39,5.39,0,0,1,.75,1.45,4.38,4.38,0,0,1,.18,1.34,5.21,5.21,0,0,1-.28,1.82h0Zm-3.05-3.69a2.44,2.44,0,0,0-2-.82,4.63,4.63,0,0,0-1.72.39q0,0.4,0,2.27l0,2s0,0.18,0,.4a1.37,1.37,0,0,1,.05.19,1.6,1.6,0,0,0,.29.67,1.56,1.56,0,0,0,.74.5,4.09,4.09,0,0,0,1.09.18,2.56,2.56,0,0,0,1.05-.23,2.16,2.16,0,0,0,.82-0.61l0.12-.14,0.11-.25a3.73,3.73,0,0,0,.41-1.72,4.16,4.16,0,0,0-1-2.82h0ZM118,16.72a2,2,0,0,0,0,.34l-0.24,0-0.61,0C116.54,17,116.05,17,115.66,17s-0.6,0-1,0l-1.16,0a0.64,0.64,0,0,1-.21,0V16.74l0-.13a0.7,0.7,0,0,1,.05-0.23,1.69,1.69,0,0,1,.55-0.15l0.59-.08,0.05-.25,0.05-1.51V11.85a6.14,6.14,0,0,0-.12-1.53,1.19,1.19,0,0,0-.52-0.65,1.73,1.73,0,0,0-1-.25,2.81,2.81,0,0,0-1.27.31,4.23,4.23,0,0,0-1.05.72v1.81q0,1.49,0,2.24,0,0.44,0,.56a3.47,3.47,0,0,0,.09,1,0.46,0.46,0,0,0,.23.23l0.64,0a1.72,1.72,0,0,1,.41,0q0,0.26,0,.36a1.84,1.84,0,0,1,0,.35l-1.15,0q-0.65,0-1.17,0l-1.45.07h-1a1.91,1.91,0,0,1-.22-0.52V16.36q0.16,0,.92-0.12a0.66,0.66,0,0,0,.41-0.14,1.6,1.6,0,0,0,.1-0.73V14.63l0-.78V12.28l0-.18,0-3.76V8.06a15.4,15.4,0,0,0-.1-2.38,0.68,0.68,0,0,0-.3-0.42A3.29,3.29,0,0,0,107,5V4.74q0-.15,0-0.38l0.87-.19,0.5-.12a7.62,7.62,0,0,0,1.46-.52l0.29-.16,0.56,0,0,6.19a7.08,7.08,0,0,1,1.71-1.06A4.28,4.28,0,0,1,114,8.24a3.11,3.11,0,0,1,1.38.28,2.46,2.46,0,0,1,.9.7,2.58,2.58,0,0,1,.46,1,8.35,8.35,0,0,1,.09,1.55v2.12L116.78,16a0.27,0.27,0,0,0,.09.12,4.41,4.41,0,0,0,.61.14l0.43,0.09a0.57,0.57,0,0,1,.08.25v0.08h0Zm15.42-2a4.31,4.31,0,0,1-1.73,1.89,5.09,5.09,0,0,1-2.53.61,5,5,0,0,1-2.74-.72,4.49,4.49,0,0,1-1.61-1.65,4.89,4.89,0,0,1-.48-2.29,4.49,4.49,0,0,1,.23-1.39,4.07,4.07,0,0,1,.63-1.22,4.51,4.51,0,0,1,.88-0.87,4.83,4.83,0,0,1,1.39-.71,5.87,5.87,0,0,1,1.69-.21,4.44,4.44,0,0,1,3.38,1.27,4.11,4.11,0,0,1,1,1.47,4.3,4.3,0,0,1,.33,1.57,5,5,0,0,1-.42,2.23h0ZM130.7,9.68a2,2,0,0,0-1.64-.78,2,2,0,0,0-1.32.45,2.4,2.4,0,0,0-.73,1.32,13.85,13.85,0,0,0-.15,2.39c0.06,0.86.11,1.35,0.13,1.48a3.76,3.76,0,0,0,.42,1.19,1.67,1.67,0,0,0,.65.57,2.22,2.22,0,0,0,1.09.25,1.8,1.8,0,0,0,1.27-.48,2.84,2.84,0,0,0,.75-1.51,11.81,11.81,0,0,0,.15-2.21,4.38,4.38,0,0,0-.62-2.67h0Zm14.53,4.65a4.8,4.8,0,0,1-1,1.5,4.1,4.1,0,0,1-1.47,1.08,4.29,4.29,0,0,1-1.64.32,4.91,4.91,0,0,1-1.21-.1,6.43,6.43,0,0,1-1.37-.58,1.42,1.42,0,0,0,0,.23l0,0.28c0,0.08,0,.17,0,0.28s0,0.32,0,.82l0,1.88s0,0.18,0,.41v0.12a2,2,0,0,0,.06.56,0.69,0.69,0,0,0,.18.23l0.2,0.09,0.56,0.12,0.51,0.1a0.46,0.46,0,0,1,.09.3c0,0.08,0,.19,0,0.33H140c-0.4,0-.68,0-0.84,0l-1.56-.13h-0.75l-0.36,0-0.56,0-0.68.05-0.54,0h-0.13V21.81l0.27-.15,0.8-.29a1.32,1.32,0,0,0,.56-0.31,2.4,2.4,0,0,0,.15-1.1l-0.07-4.11-0.1-5.12a1.35,1.35,0,0,0-.24-0.8,2.64,2.64,0,0,0-1.1-.5V8.89a8.88,8.88,0,0,0,1.71-.49,8.6,8.6,0,0,0,1.38-.79l0.53,0V9s0,0.15,0,.31a6.87,6.87,0,0,1,1.48-.72,6.68,6.68,0,0,1,1.87-.25,3.33,3.33,0,0,1,1.87.54L143.83,9a3.18,3.18,0,0,1,.75.71,5.29,5.29,0,0,1,.75,1.45,4.38,4.38,0,0,1,.18,1.34,5.21,5.21,0,0,1-.28,1.82h0Zm-3.05-3.69a2.44,2.44,0,0,0-2-.82,4.63,4.63,0,0,0-1.72.39q0,0.4,0,2.27l0,2s0,0.18,0,.4a1.31,1.31,0,0,1,.05.19,1.6,1.6,0,0,0,.29.67,1.56,1.56,0,0,0,.74.5,4.08,4.08,0,0,0,1.09.18,2.56,2.56,0,0,0,1.05-.23,2.16,2.16,0,0,0,.82-0.61l0.12-.14,0.11-.25a3.73,3.73,0,0,0,.41-1.72,4.16,4.16,0,0,0-1-2.82h0Zm10.1,1.18c-0.4,0-.68-0.05-0.83-0.05l-1.12,0h-0.89a1.78,1.78,0,0,0,0,.25,5.41,5.41,0,0,0,.13,1.16,3.67,3.67,0,0,0,.4,1.07,3,3,0,0,0,.67.79,2.64,2.64,0,0,0,.82.48l0.6,0.2a7.08,7.08,0,0,0,1.07-.05,4.75,4.75,0,0,0,.87-0.26,5.12,5.12,0,0,0,.92-0.54c0.25,0.18.45,0.34,0.62,0.49a6,6,0,0,1-1.89,1.45,5.18,5.18,0,0,1-2.19.45,5,5,0,0,1-1.33-.15,4.07,4.07,0,0,1-1.25-.57,3.8,3.8,0,0,1-1-1,4.31,4.31,0,0,1-.6-1.17,4.25,4.25,0,0,1-.26-1.26,8.39,8.39,0,0,1,.14-1.63,4.58,4.58,0,0,1,.48-1.17A5.32,5.32,0,0,1,148.89,9a4.05,4.05,0,0,1,1.18-.63,4.19,4.19,0,0,1,1.11-.2,6.62,6.62,0,0,1,1.57.15,3,3,0,0,1,1,.43,4.82,4.82,0,0,1,.93.82,3.48,3.48,0,0,1,.57,1,4,4,0,0,1,.24,1.35l-1.15,0q-0.48,0-2.09-.09h0ZM153,10a1.75,1.75,0,0,0-.67-0.83,1.59,1.59,0,0,0-2.17.31,2.64,2.64,0,0,0-.63,1.66l2.36,0,0.64,0,0.42,0h0.28A3,3,0,0,0,153,10h0Zm14.67,7.09-2-.15-0.6,0h-0.48l-1.37.09h-0.35c0-.09,0-0.15,0-0.2a3.87,3.87,0,0,1,0-.39l0.72-.1,0.34-.07a0.4,0.4,0,0,0,.24-0.16,1.78,1.78,0,0,0,.08-0.67q0-.87,0-1.34v-1.2a7.77,7.77,0,0,0-.28-2.72,1.25,1.25,0,0,0-1.18-.78,2.78,2.78,0,0,0-1.2.3,5.36,5.36,0,0,0-1.28.9l0,0.18,0,0.65,0,0.69,0,1.66,0,0.26a6.55,6.55,0,0,0,.13,1.9,2.14,2.14,0,0,0,1,.48,1.77,1.77,0,0,1,0,.26,1.53,1.53,0,0,1-.07.38h-0.54a5.24,5.24,0,0,1-.68-0.07l-1.11,0q-0.83,0-2.39.07a0.56,0.56,0,0,1,0-.21c0-.05,0-0.16,0-0.33a2.11,2.11,0,0,1,.5-0.16,2.55,2.55,0,0,0,.66-0.16,0.46,0.46,0,0,0,.21-0.23,4,4,0,0,0,.06-0.91V13.4l0-1.09V11.66a4.52,4.52,0,0,0-.1-1.07,0.6,0.6,0,0,0-.26-0.31,3.34,3.34,0,0,0-1-.4V9.38l0.24-.06,0.83-.2c0.38-.14.62-0.23,0.73-0.29l0.17-.09L159,8.53a4,4,0,0,0,.75-0.76l0.56,0,0,1.17c0,0.12,0,.21,0,0.28s0,0.21,0,.48a5.92,5.92,0,0,1,1.56-1,4.53,4.53,0,0,1,1.75-.38,3,3,0,0,1,1.7.48,2.3,2.3,0,0,1,1,1.12,9.11,9.11,0,0,1,.23,2.55l0,3.38a0.81,0.81,0,0,0,.08.39,1.82,1.82,0,0,0,.57.15l0.51,0.1a0.55,0.55,0,0,1,.09.32c0,0.08,0,.2,0,0.34h0Zm9.83-5.61a10.19,10.19,0,0,1,2,.6,3,3,0,0,1,1.31,1,2.48,2.48,0,0,1,.38,1.37,2.57,2.57,0,0,1-.9,2,3.87,3.87,0,0,1-2.64.8c-0.15,0-.55,0-1.19-0.1a7.94,7.94,0,0,1-1-.21c-0.1,0-.35-0.13-0.75-0.3a0.39,0.39,0,0,1-.16-0.15,5.14,5.14,0,0,1-.14-0.86q-0.17-1.26-.18-1.51a2.49,2.49,0,0,1,.46-0.06h0.22l0.09,0.1a11,11,0,0,0,.73,1.19,4.37,4.37,0,0,0,.71.68,3.21,3.21,0,0,0,.74.34,2.1,2.1,0,0,0,.73.12,1.62,1.62,0,0,0,1.12-.42,1.22,1.22,0,0,0,.46-0.91,0.9,0.9,0,0,0-.18-0.56,1.76,1.76,0,0,0-.7-0.46,10.75,10.75,0,0,0-1.3-.37c-0.69-.17-1.11-0.29-1.26-0.34a2.85,2.85,0,0,1-.86-0.52,2.31,2.31,0,0,1-.57-0.75,2.53,2.53,0,0,1-.27-1,3.12,3.12,0,0,1,.23-1.29,2.58,2.58,0,0,1,1.55-1.41,3.53,3.53,0,0,1,1.3-.24,9.75,9.75,0,0,1,1.73.13,4.41,4.41,0,0,1,1.26.4q0.06,0.24.18,1.1t0.12,1a0.45,0.45,0,0,1,0,.16,1.58,1.58,0,0,1-.45.08l-0.3,0c-0.06-.1-0.15-0.24-0.25-0.43a3.83,3.83,0,0,0-1-1.3A2,2,0,0,0,177.39,9a1.79,1.79,0,0,0-1.2.41,1,1,0,0,0-.35.82,1,1,0,0,0,.37.69,2.48,2.48,0,0,0,1.26.55h0Zm14.44,3.29a4.29,4.29,0,0,1-1.73,1.89,5.09,5.09,0,0,1-2.53.61,5,5,0,0,1-2.74-.72,4.47,4.47,0,0,1-1.61-1.65,4.89,4.89,0,0,1-.48-2.29,4.44,4.44,0,0,1,.23-1.39,4,4,0,0,1,.63-1.22,4.5,4.5,0,0,1,.87-0.87,4.84,4.84,0,0,1,1.39-.71,5.87,5.87,0,0,1,1.69-.21A4.44,4.44,0,0,1,191,9.47a4.14,4.14,0,0,1,1,1.47,4.33,4.33,0,0,1,.33,1.57,5,5,0,0,1-.43,2.23h0ZM189.2,9.68a2.13,2.13,0,0,0-3-.34,2.41,2.41,0,0,0-.73,1.32,13.6,13.6,0,0,0-.16,2.39c0.06,0.86.11,1.35,0.13,1.48a3.8,3.8,0,0,0,.42,1.19,1.68,1.68,0,0,0,.65.57,2.22,2.22,0,0,0,1.09.25,1.8,1.8,0,0,0,1.27-.48,2.86,2.86,0,0,0,.75-1.51,11.85,11.85,0,0,0,.14-2.21,4.37,4.37,0,0,0-.62-2.67h0Zm15.23,6.77a5,5,0,0,0-.79.07,18.92,18.92,0,0,0-2.42.73l-0.41,0V15.55l-0.36.32A6.41,6.41,0,0,1,198.87,17a3.38,3.38,0,0,1-1.37.28,2.93,2.93,0,0,1-1.47-.35,2.31,2.31,0,0,1-.91-0.87,3.15,3.15,0,0,1-.29-1.16c0-.13,0-0.81,0-2V12.51c0-.67.05-1.17,0.05-1.5q0-.83,0-1.11a0.82,0.82,0,0,0-.1-0.31,1.43,1.43,0,0,0-.34-0.09,2.92,2.92,0,0,1-.83-0.22,0.14,0.14,0,0,1-.05-0.13,1.12,1.12,0,0,1,0-.16c0-.07,0-0.18,0-0.34l0.19-.06h3.08l0.23,0,0,0.69,0,1v3.15a9.41,9.41,0,0,0,.11,1.64,1.31,1.31,0,0,0,.5.69,1.49,1.49,0,0,0,.84.23,2.46,2.46,0,0,0,.75-0.09,2.58,2.58,0,0,0,.67-0.35,3.36,3.36,0,0,0,.48-0.37,2.15,2.15,0,0,0,.41-0.61L200.91,12c0-.27,0-0.49,0-0.66s0-.4,0-0.68,0-.43,0-0.46V9.84l0-.23a1.58,1.58,0,0,0-.69-0.2l-0.69-.05-0.11-.07a1.7,1.7,0,0,1,0-.31,2.74,2.74,0,0,1,0-.35A4.13,4.13,0,0,1,200,8.58l1.6,0,1.58,0,0,0.78,0,1,0,1.24v1.78l0,0.79V14.7c0,0.36,0,.56,0,0.61a0.63,0.63,0,0,0,.09.38,0.24,0.24,0,0,0,.18.12l1,0,0.12,0c0,0.24,0,.38,0,0.42a1.26,1.26,0,0,1,0,.23h0Zm7.34-6.14a1,1,0,0,1-.81.39,1.55,1.55,0,0,1-.93-0.37,0.87,0.87,0,0,0-.47-0.23h-0.07a0.76,0.76,0,0,0-.39.39,2.17,2.17,0,0,0-.29,1.07l0,0.28q0,0.76.06,3.58a1.24,1.24,0,0,0,.2.52,1.24,1.24,0,0,0,.38.21,3.5,3.5,0,0,0,.67.1,1.25,1.25,0,0,1,.58.13,0.36,0.36,0,0,1,.1.29,1.06,1.06,0,0,1-.06.31h-1l-2-.09q-0.75,0-1.36.06h-0.18l-1.08.05a1.53,1.53,0,0,1,0-.26,1.39,1.39,0,0,1,0-.25,0.81,0.81,0,0,1,.35-0.17,3.1,3.1,0,0,0,1-.41,7.84,7.84,0,0,0,.09-1.67,35,35,0,0,0-.11-3.53,0.45,0.45,0,0,0-.16-0.29,3.14,3.14,0,0,0-.7-0.24,0.3,0.3,0,0,1-.25-0.23l0-.38A3.22,3.22,0,0,0,206.77,9a3.59,3.59,0,0,0,.93-0.85A2.65,2.65,0,0,1,208,7.83l0.72,0a2,2,0,0,1,.05.39c0,0.08,0,.17,0,0.28s0,0.44,0,.6,0,0.36,0,.86a10,10,0,0,1,.62-1,6.22,6.22,0,0,1,.55-0.51,1.31,1.31,0,0,1,.8-0.26,1.36,1.36,0,0,1,1,.37,1.14,1.14,0,0,1,.4.86,1.38,1.38,0,0,1-.31.87h0ZM220.35,11a1.24,1.24,0,0,1-.78-0.28A2,2,0,0,1,219,9.81a1.54,1.54,0,0,0-.48-0.69,1.17,1.17,0,0,0-.69-0.21,2.31,2.31,0,0,0-1.74.83A3.23,3.23,0,0,0,215.3,12a3.9,3.9,0,0,0,.94,2.75,2.83,2.83,0,0,0,2.13,1,2.36,2.36,0,0,0,1.71-.54,3.47,3.47,0,0,0,.43-0.44l0.43-.49,0.25,0.12a1.13,1.13,0,0,1,.38.26,3.22,3.22,0,0,1-1.36,1.79,4.62,4.62,0,0,1-2.72.76,5.14,5.14,0,0,1-2-.43,4.25,4.25,0,0,1-1.61-1.15,3.59,3.59,0,0,1-.7-1.35,4.94,4.94,0,0,1-.23-1.36,4.82,4.82,0,0,1,.29-1.53,4.57,4.57,0,0,1,1-1.61,4.88,4.88,0,0,1,1.72-1.2,5.91,5.91,0,0,1,2.34-.44,4.14,4.14,0,0,1,2.49.56,1.52,1.52,0,0,1,.7,1.12,1.24,1.24,0,0,1-.29.86,1,1,0,0,1-.78.32h0ZM228,11.81c-0.4,0-.68-0.05-0.83-0.05l-1.12,0h-0.89a1.74,1.74,0,0,0,0,.25,5.4,5.4,0,0,0,.13,1.16,3.72,3.72,0,0,0,.4,1.07,3,3,0,0,0,.67.79,2.65,2.65,0,0,0,.82.48l0.6,0.2a7.06,7.06,0,0,0,1.07-.05,4.77,4.77,0,0,0,.87-0.26,5.05,5.05,0,0,0,.92-0.54q0.37,0.27.62,0.49a6,6,0,0,1-1.89,1.45,5.17,5.17,0,0,1-2.19.45,5,5,0,0,1-1.34-.15,4,4,0,0,1-1.25-.57,3.84,3.84,0,0,1-1-1,4.36,4.36,0,0,1-.6-1.17,4.31,4.31,0,0,1-.26-1.26,8.25,8.25,0,0,1,.15-1.63,4.6,4.6,0,0,1,.48-1.17A5.35,5.35,0,0,1,224.61,9a4.08,4.08,0,0,1,1.19-.63,4.19,4.19,0,0,1,1.11-.2,6.65,6.65,0,0,1,1.57.15,3,3,0,0,1,1,.43,4.83,4.83,0,0,1,.93.82,3.48,3.48,0,0,1,.57,1,3.94,3.94,0,0,1,.24,1.35l-1.15,0q-0.48,0-2.09-.09h0ZM228.68,10A1.75,1.75,0,0,0,228,9.15a1.59,1.59,0,0,0-2.17.31,2.65,2.65,0,0,0-.63,1.66l2.36,0,0.64,0,0.42,0h0.28a3,3,0,0,0-.23-1.11h0ZM245.52,11a1.24,1.24,0,0,1-.78-0.28,2.06,2.06,0,0,1-.6-0.94,1.54,1.54,0,0,0-.48-0.69A1.17,1.17,0,0,0,243,8.91a2.31,2.31,0,0,0-1.74.83,3.23,3.23,0,0,0-.76,2.27,3.9,3.9,0,0,0,.94,2.75,2.82,2.82,0,0,0,2.13,1,3.31,3.31,0,0,0,1-.13,3.38,3.38,0,0,0,.7-0.4,3.74,3.74,0,0,0,.43-0.44l0.43-.49,0.25,0.12a1.14,1.14,0,0,1,.38.26,3.21,3.21,0,0,1-1.36,1.79,4.62,4.62,0,0,1-2.72.76,5.14,5.14,0,0,1-2-.43A4.23,4.23,0,0,1,239,15.66a3.6,3.6,0,0,1-.7-1.35,4.93,4.93,0,0,1-.23-1.36,4.81,4.81,0,0,1,.29-1.53,4.62,4.62,0,0,1,1-1.61A4.89,4.89,0,0,1,241,8.62a5.92,5.92,0,0,1,2.35-.44,4.13,4.13,0,0,1,2.49.56,1.51,1.51,0,0,1,.7,1.12,1.24,1.24,0,0,1-.29.86,1,1,0,0,1-.78.32h0ZM257,14.75a4.3,4.3,0,0,1-1.73,1.89,5.08,5.08,0,0,1-2.53.61,5,5,0,0,1-2.74-.72,4.49,4.49,0,0,1-1.61-1.65,4.89,4.89,0,0,1-.48-2.29,4.49,4.49,0,0,1,.23-1.39A4.07,4.07,0,0,1,248.8,10a4.51,4.51,0,0,1,.88-0.87,4.83,4.83,0,0,1,1.39-.71,5.87,5.87,0,0,1,1.69-.21,4.43,4.43,0,0,1,3.38,1.27,4.12,4.12,0,0,1,1,1.47,4.3,4.3,0,0,1,.33,1.57,5,5,0,0,1-.42,2.23h0Zm-2.71-5.07a2,2,0,0,0-1.64-.78,2,2,0,0,0-1.32.45,2.4,2.4,0,0,0-.73,1.32,13.85,13.85,0,0,0-.15,2.39c0.06,0.86.11,1.35,0.13,1.48a3.76,3.76,0,0,0,.42,1.19,1.67,1.67,0,0,0,.65.57,2.22,2.22,0,0,0,1.09.25,1.8,1.8,0,0,0,1.27-.48,2.86,2.86,0,0,0,.75-1.51,11.65,11.65,0,0,0,.15-2.21,4.38,4.38,0,0,0-.62-2.67h0Zm21.54,7.25a2.65,2.65,0,0,1-.42.05l-0.5,0a10.13,10.13,0,0,0-1.06,0q-1.56,0-2.48.09a1.57,1.57,0,0,1-.07-0.41V16.42c0.09,0,.38-0.16.89-0.35a0.51,0.51,0,0,0,.16-0.24,7.31,7.31,0,0,0,.05-1.11l-0.05-2.91a6.51,6.51,0,0,0-.11-1.22A2,2,0,0,0,272,9.84a1.62,1.62,0,0,0-1.26-.62,2.48,2.48,0,0,0-1.18.32,3.15,3.15,0,0,0-1.07,1l0,0.3,0,1.33,0,1.09v2a1.38,1.38,0,0,0,.13.81,2,2,0,0,0,1,.28l0.32,0.1a1.26,1.26,0,0,1,.08.38,1.22,1.22,0,0,1,0,.25H269c-0.49,0-1-.07-1.52-0.08l-1.11,0q-0.4,0-1.39.09l-0.18,0,0-.62a6.48,6.48,0,0,1,1.12-.15l0.13,0a0.59,0.59,0,0,0,.13-0.23,4.34,4.34,0,0,0,.05-0.84V13l0-.56a9.8,9.8,0,0,0-.12-2,1.45,1.45,0,0,0-.61-0.81,1.9,1.9,0,0,0-1.1-.32,2.67,2.67,0,0,0-1.46.4,1.6,1.6,0,0,0-.71.71q0,0.13,0,.19l0,0.1v0.1a1,1,0,0,1-.06.29l0,3V15.6a1.74,1.74,0,0,0,0,.27L262.33,16l0.49,0.13a2.44,2.44,0,0,1,.57.18,1.63,1.63,0,0,1,0,.25,1.33,1.33,0,0,1-.08.38h-0.24l-1-.09h-1.13q-0.81,0-2,.1h-0.3c0-.11,0-0.24,0-0.38a1.07,1.07,0,0,1,.05-0.27,0.6,0.6,0,0,1,.23-0.05,2.7,2.7,0,0,0,1-.22,0.16,0.16,0,0,0,.09-0.13q0-.1.06-1.88V11a1,1,0,0,0-.22-0.72,3,3,0,0,0-1.16-.5V9.38l0.46-.11a5.25,5.25,0,0,0,1.57-.56,3.69,3.69,0,0,0,.94-0.84h0.57V8l0,0.83V9.24l0,0.19a6.69,6.69,0,0,1,1.64-1,4.26,4.26,0,0,1,1.51-.25,3.73,3.73,0,0,1,1.58.35,2.94,2.94,0,0,1,1.27,1.18,7,7,0,0,1,1.23-1,3.84,3.84,0,0,1,.94-0.34,4.64,4.64,0,0,1,1.12-.15,3,3,0,0,1,2.28.87,3.3,3.3,0,0,1,.84,2.38v1.64c0,0.34,0,.92,0,1.75v0.8a0.74,0.74,0,0,0,.12.4,3.32,3.32,0,0,0,.69.22,1.08,1.08,0,0,1,.39.14,2.78,2.78,0,0,0,.05.32v0.21h0Zm17.88,0a2.65,2.65,0,0,1-.42.05l-0.5,0a10.13,10.13,0,0,0-1.06,0q-1.56,0-2.48.09a1.57,1.57,0,0,1-.07-0.41V16.42c0.09,0,.38-0.16.89-0.35a0.51,0.51,0,0,0,.16-0.24,7.31,7.31,0,0,0,.05-1.11l-0.05-2.91a6.36,6.36,0,0,0-.11-1.22,2,2,0,0,0-.31-0.75,1.62,1.62,0,0,0-1.26-.62,2.48,2.48,0,0,0-1.18.32,3.15,3.15,0,0,0-1.07,1l0,0.3,0,1.33,0,1.09v2a1.38,1.38,0,0,0,.13.81,2,2,0,0,0,1,.28l0.32,0.1a1.26,1.26,0,0,1,.08.38,1.22,1.22,0,0,1,0,.25h-0.93c-0.49,0-1-.07-1.52-0.08l-1.11,0q-0.4,0-1.39.09l-0.18,0,0-.62a6.48,6.48,0,0,1,1.12-.15l0.13,0a0.59,0.59,0,0,0,.13-0.23,4.34,4.34,0,0,0,.05-0.84V13l0-.56a9.8,9.8,0,0,0-.12-2,1.45,1.45,0,0,0-.61-0.81,1.9,1.9,0,0,0-1.1-.32,2.67,2.67,0,0,0-1.46.4,1.6,1.6,0,0,0-.71.71q0,0.13,0,.19l0,0.1v0.1a1,1,0,0,1-.06.29l0,3V15.6a1.73,1.73,0,0,0,0,.27L280.21,16l0.49,0.13a2.44,2.44,0,0,1,.57.18,1.63,1.63,0,0,1,0,.25,1.32,1.32,0,0,1-.08.38H281l-1-.09h-1.13q-0.81,0-2,.1h-0.3c0-.11,0-0.24,0-0.38a1.07,1.07,0,0,1,.05-0.27,0.6,0.6,0,0,1,.23-0.05,2.7,2.7,0,0,0,1-.22,0.16,0.16,0,0,0,.09-0.13q0-.1.06-1.88V11a1,1,0,0,0-.22-0.72,3,3,0,0,0-1.16-.5V9.38L277,9.27a5.25,5.25,0,0,0,1.57-.56,3.69,3.69,0,0,0,.94-0.84h0.57V8l0,0.83V9.24l0,0.19a6.69,6.69,0,0,1,1.64-1,4.26,4.26,0,0,1,1.51-.25,3.73,3.73,0,0,1,1.58.35,2.94,2.94,0,0,1,1.27,1.18,7,7,0,0,1,1.23-1,3.84,3.84,0,0,1,.94-0.34,4.64,4.64,0,0,1,1.12-.15,3,3,0,0,1,2.28.87,3.3,3.3,0,0,1,.84,2.38v1.64c0,0.34,0,.92,0,1.75v0.8a0.74,0.74,0,0,0,.12.4,3.32,3.32,0,0,0,.69.22,1.08,1.08,0,0,1,.39.14,2.8,2.8,0,0,0,.05.32v0.21h0Zm11.57-.48a5,5,0,0,0-.79.07,18.81,18.81,0,0,0-2.42.73l-0.42,0V15.55l-0.36.32A6.4,6.4,0,0,1,299.76,17a3.38,3.38,0,0,1-1.37.28,2.94,2.94,0,0,1-1.47-.35A2.32,2.32,0,0,1,296,16a3.12,3.12,0,0,1-.29-1.16c0-.13,0-0.81,0-2V12.51c0-.67.05-1.17,0.05-1.5q0-.83,0-1.11a0.82,0.82,0,0,0-.1-0.31,1.39,1.39,0,0,0-.34-0.09,2.94,2.94,0,0,1-.83-0.22,0.15,0.15,0,0,1-.05-0.13,1.12,1.12,0,0,1,0-.16c0-.07,0-0.18,0-0.34l0.19-.06h3.08l0.23,0,0,0.69,0,1v3.15a9.24,9.24,0,0,0,.11,1.64,1.29,1.29,0,0,0,.5.69,1.48,1.48,0,0,0,.84.23,2.47,2.47,0,0,0,.76-0.09,2.57,2.57,0,0,0,.67-0.35,3.36,3.36,0,0,0,.48-0.37,2.16,2.16,0,0,0,.42-0.61L301.8,12c0-.27,0-0.49,0-0.66s0-.4,0-0.68,0-.43,0-0.46V9.84l0-.23a1.59,1.59,0,0,0-.69-0.2l-0.69-.05-0.11-.07a1.82,1.82,0,0,1,0-.31,3,3,0,0,1,0-.35,4.16,4.16,0,0,1,.59-0.05l1.6,0,1.58,0,0,0.78,0,1,0,1.24v1.78l0,0.79V14.7c0,0.36,0,.56,0,0.61a0.63,0.63,0,0,0,.09.38,0.25,0.25,0,0,0,.18.12l1,0,0.12,0c0,0.24,0,.38,0,0.42a1.4,1.4,0,0,1,0,.23h0Zm11.77,0.62-2-.15-0.6,0H314l-1.37.09h-0.35c0-.09,0-0.15,0-0.2a3.88,3.88,0,0,1,0-.39l0.72-.1,0.34-.07a0.41,0.41,0,0,0,.24-0.16,1.82,1.82,0,0,0,.08-0.67q0-.87,0-1.34v-1.2a7.81,7.81,0,0,0-.28-2.72,1.26,1.26,0,0,0-1.18-.78,2.77,2.77,0,0,0-1.2.3,5.36,5.36,0,0,0-1.28.9l0,0.18,0,0.65,0,0.69,0,1.66,0,0.26a6.51,6.51,0,0,0,.14,1.9,2.14,2.14,0,0,0,1,.48,1.6,1.6,0,0,1,0,.26,1.62,1.62,0,0,1-.07.38h-0.54a5.21,5.21,0,0,1-.68-0.07l-1.11,0q-0.83,0-2.4.07a0.59,0.59,0,0,1,0-.21c0-.05,0-0.16,0-0.33a2.08,2.08,0,0,1,.5-0.16,2.53,2.53,0,0,0,.66-0.16,0.47,0.47,0,0,0,.21-0.23,4.1,4.1,0,0,0,.06-0.91V13.4l0-1.09V11.66a4.53,4.53,0,0,0-.1-1.07,0.61,0.61,0,0,0-.26-0.31,3.39,3.39,0,0,0-1-.4V9.38l0.24-.06,0.83-.2c0.38-.14.62-0.23,0.73-0.29l0.16-.09,0.28-.21a4.15,4.15,0,0,0,.75-0.76l0.56,0,0,1.17a2.47,2.47,0,0,0,0,.28c0,0.05,0,.21,0,0.48a5.89,5.89,0,0,1,1.56-1A4.55,4.55,0,0,1,313,8.24a3,3,0,0,1,1.7.48,2.31,2.31,0,0,1,1,1.12,9.11,9.11,0,0,1,.23,2.55l0,3.38a0.83,0.83,0,0,0,.08.39,1.85,1.85,0,0,0,.57.15l0.51,0.1a0.55,0.55,0,0,1,.09.32c0,0.08,0,.2,0,0.34h0Zm6-.06h-0.41l-0.48,0q-1.05-.05-2.82-0.05c-0.34,0-.66,0-1,0l-0.65,0,0-.67,1.17-.16a0.63,0.63,0,0,0,.36-0.21,1.27,1.27,0,0,0,.1-0.63V15.24c0-.08,0-0.23,0-0.45s0-.41,0-0.57,0-.38,0-0.76l0-.52,0-.49,0-1.69a3.74,3.74,0,0,0-.06-0.66,0.9,0.9,0,0,0-.42-0.27,4.14,4.14,0,0,0-1.05-.16V9.09a5,5,0,0,0,1.87-.45,4.28,4.28,0,0,0,1.19-.88h0.69q0,1.29,0,3.33l-0.07,4.22a6.62,6.62,0,0,0,0,.79,6.63,6.63,0,0,0,1,.23,2.22,2.22,0,0,1,.45.1L323,17h0ZM321.2,5.9a1.35,1.35,0,0,1-.71.21,1.27,1.27,0,0,1-.92-0.42,1.39,1.39,0,0,1-.42-1,1.23,1.23,0,0,1,.36-0.92,1.27,1.27,0,0,1,.93-0.36,1.43,1.43,0,0,1,1,.38,1.15,1.15,0,0,1,.4.85,1.69,1.69,0,0,1-.16.7,1.29,1.29,0,0,1-.51.56h0Zm6.49,9.86a1.2,1.2,0,0,0,.53.11,1.22,1.22,0,0,0,.42-0.05,2.27,2.27,0,0,0,.45-0.3l0.2-.14a2.45,2.45,0,0,1,.4.39l0,0.12a2.5,2.5,0,0,1-1,.9,3.13,3.13,0,0,1-1.4.32,2.1,2.1,0,0,1-1.56-.61,2.61,2.61,0,0,1-.6-1.89l0-1.82V9.86l-0.32,0-0.75,0L324,9.8a0.3,0.3,0,0,1-.06-0.17s0-.19,0-0.46a6.39,6.39,0,0,0,1.77-1,6.53,6.53,0,0,0,1.16-1.61h0.58a1.73,1.73,0,0,1,.09.57c0,0.36,0,.64,0,0.84l0,0.61s0,0.11,0,.24h0.24l1,0,0.78,0a2.33,2.33,0,0,1,.06.49,2.58,2.58,0,0,1-.07.55,3.22,3.22,0,0,1-.52.06l-0.33,0h-0.73l-0.5,0,0,4a9.66,9.66,0,0,0,0,1.43,1.38,1.38,0,0,0,.24.54h0Zm12.24-6.6a1.8,1.8,0,0,1-.41.14l-0.65.18a0.93,0.93,0,0,0-.2.21q-0.18.39-.71,1.72l-0.75,2-1.73,4.12-1.19,2.73a5.65,5.65,0,0,1-.92,1.36,1.33,1.33,0,0,1-.45.33,2.65,2.65,0,0,1-1,.16L331.38,22a1.45,1.45,0,0,1-.73-0.45,0.8,0.8,0,0,1-.22-0.53,1.47,1.47,0,0,1,.49-1.06,1.45,1.45,0,0,1,.64-0.27,1.87,1.87,0,0,1,1.09.49,0.84,0.84,0,0,0,.47.24,0.31,0.31,0,0,0,.28-0.2,23.45,23.45,0,0,0,1.16-2.48l-1.91-4.22Q331.56,11,331,10a2.59,2.59,0,0,0-.41-0.61,1.12,1.12,0,0,0-.37-0.16,1.39,1.39,0,0,1-.31-0.13c0-.15-0.07-0.3-0.09-0.45a3.72,3.72,0,0,1,.6-0.06h0.28c0.63,0,1.14.06,1.53,0.06h0.54l1.47-.09a0.82,0.82,0,0,1,.15.13c0,0.3,0,.5-0.05.58l-0.24,0-0.35.06-0.25,0a0.21,0.21,0,0,0-.18.15c0,0.16.08,0.3,0.12,0.41l0.5,1q0.59,1.45,1.21,2.68l0.58,1.19c0-.08.31-0.76,0.8-2q0.88-2.27,1-2.56a1,1,0,0,0,0-.27,1.48,1.48,0,0,0-.06-0.34,1.41,1.41,0,0,0-.37-0.21,4.69,4.69,0,0,0-.67-0.11l-0.33-.08,0-.14c0-.07,0-0.12,0-0.15a1.74,1.74,0,0,1,0-.26l0.45,0,0.84,0.05,0.56,0a11.92,11.92,0,0,0,1.22-.1c0.36,0,.63-0.07.81-0.07q0,0.26,0,.39s0,0.1,0,.18h0Z" transform="translate(0.06 -0.44)"/></g><g class="cls-1"><polygon class="cls-3" points="12.02 0 18.03 6.01 12.02 12.02 6.01 6.01 12.02 0 12.02 0"/></g><g class="cls-4"><polygon class="cls-5" points="18.03 6.01 24.04 12.02 18.03 18.03 12.02 12.02 18.03 6.01 18.03 6.01"/></g><g class="cls-1"><polygon class="cls-3" points="12.02 12.02 18.03 18.03 12.02 24.04 6.01 18.03 12.02 12.02 12.02 12.02"/></g><g class="cls-6"><polygon class="cls-7" points="6.01 6.01 12.02 12.02 6.01 18.03 0 12.02 6.01 6.01 6.01 6.01"/></g><g class="cls-8"><polygon class="cls-9" points="24.04 0 30.05 6.01 24.04 12.02 18.03 6.01 24.04 0 24.04 0"/></g><g class="cls-1"><polygon class="cls-3" points="30.05 6.01 36.06 12.02 30.05 18.03 24.04 12.02 30.05 6.01 30.05 6.01"/></g><g class="cls-10"><polygon class="cls-11" points="24.04 12.02 30.05 18.03 24.04 24.04 18.03 18.03 24.04 12.02 24.04 12.02"/></g></svg>