<svg xmlns="http://www.w3.org/2000/svg" viewBox="0 0 133.07 26.15"><path fill="#FFFFFF" d="M251.22,383.3a11.64,11.64,0,1,0,11.64,11.64A11.64,11.64,0,0,0,251.22,383.3Zm7.38,6.83-6.15,6v7.53c0,0.37-.4.34-0.78,0.34h-1c-0.37,0-.74,0-0.74-0.34v-7.52l-6.18-6.05c-0.27-.26,0-0.5.28-0.77l0.69-.7c0.26-.27.52-0.58,0.78-0.32l5.67,5.55,5.66-5.55c0.27-.26.52,0.05,0.78,0.32l0.69,0.7C258.59,389.63,258.87,389.87,258.61,390.13Zm34.09,3.37H287.6q0,1.12,0,2.34t-0.13,2.43a16.37,16.37,0,0,1-.39,2.33,8.54,8.54,0,0,1-.77,2h-0.91v3.68h1.35V404h5.69v2.36h1.35v-3.68H292.7V393.5Zm-1.44,9.16h-3.75a6.28,6.28,0,0,0,.77-1.73,13.45,13.45,0,0,0,.4-2q0.13-1,.16-2.09t0-2h2.38v7.84Zm9.33-7.84a2.54,2.54,0,0,0-2.44-1.68c-1.91,0-2.91,2.23-3.2,3.84a11.19,11.19,0,0,0-.18,2,10.11,10.11,0,0,0,.17,1.94c0.34,1.75,1.38,3.43,3.35,3.48s2.27-.3,2.72-0.66l-0.33-1.15c-2.49,1.25-4.27.15-4.43-2.47,0-.49,0-0.64,0-1.07H301c0-.59.08-2,0-2.62A5.6,5.6,0,0,0,300.59,394.82Zm-4.18,3.08c0.1-1.08.26-3.35,1.63-3.35s1.66,2.23,1.66,3.35h-3.29Zm-13.1,0h-2.54v-4.51h-1.69V404.1h1.69V399h2.55v5.08H285V393.39h-1.69v4.51Zm-13.5-4.73c0,1.8.91,4.43,2.64,5l-3.25,5.94h2l3.1-5.91h0.86v5.92h1.69v-16h-2.77C271.16,388.07,269.81,391.36,269.81,393.17Zm5.33-3.73v7.43h-1.51c-1.26,0-2-2.26-2-3.68s0.47-3.75,2.63-3.75h0.9Zm60.7,5.37a3.35,3.35,0,0,0-1-1.14,2.17,2.17,0,0,0-1.49-.43,2,2,0,0,0-1.79,1.26v-1.09h-1.41l0,16.06h1.43v-5.78c0,0.62,1.06,1,1.68,1,1.83,0,2.89-2.8,3.16-4.22a11.45,11.45,0,0,0,.2-2.17,9.52,9.52,0,0,0-.18-1.86A5.55,5.55,0,0,0,335.84,394.8Zm-0.83,5a7.58,7.58,0,0,1-.43,1.51,4.05,4.05,0,0,1-.72,1.19,1.33,1.33,0,0,1-1,.48,1.77,1.77,0,0,1-.95-0.27,1.09,1.09,0,0,1-.34-0.51v-6.54a1.55,1.55,0,0,1,1.39-1.08,1.87,1.87,0,0,1,1.67,1.23A4.81,4.81,0,0,1,335,397a6.75,6.75,0,0,1,.14,1.33A8.14,8.14,0,0,1,335,399.75Zm12.78,2-2.4-8.21h-1.56L347,404.27l-0.3,1.12q-0.09.35-.23,0.73a4,4,0,0,1-.32.68,2,2,0,0,1-.43.51,0.89,0.89,0,0,1-.58.21,3,3,0,0,1-1.61-.45l-0.3.92a6.13,6.13,0,0,0,.93.59,2.15,2.15,0,0,0,1,.26,1.72,1.72,0,0,0,1-.31,3,3,0,0,0,.77-0.82,5.77,5.77,0,0,0,.56-1.13q0.24-.63.42-1.26l3.49-11.82H350.2Zm7.52-3.25a2.06,2.06,0,0,0,1.14-.91,3,3,0,0,0,.44-1.64,2.7,2.7,0,0,0-.26-1.24,2.52,2.52,0,0,0-.67-0.84,2.63,2.63,0,0,0-.91-0.47,3.42,3.42,0,0,0-1-.15,3.3,3.3,0,0,0-1.39.29,4.27,4.27,0,0,0-1.23.9l0.29,0.95a3.71,3.71,0,0,1,1-.65,3.09,3.09,0,0,1,1.14-.2,1.48,1.48,0,0,1,.5.1,1.81,1.81,0,0,1,.5.28,1.46,1.46,0,0,1,.38.45,1.29,1.29,0,0,1,.15.63,2.24,2.24,0,0,1-.14.85,1.71,1.71,0,0,1-.39.59,1.57,1.57,0,0,1-.57.35,2,2,0,0,1-.67.12h-0.85v1.26h0.86a2.17,2.17,0,0,1,.7.12,1.88,1.88,0,0,1,.63.36,1.76,1.76,0,0,1,.46.6,2.2,2.2,0,0,1,0,1.66,1.74,1.74,0,0,1-.4.58,1.68,1.68,0,0,1-1.17.48,3.23,3.23,0,0,1-1.14-.19,3.52,3.52,0,0,1-1-.64l-0.32.94a6.11,6.11,0,0,0,1.26.88,3,3,0,0,0,1.41.32,3,3,0,0,0,2-.81,3,3,0,0,0,.69-1,3.32,3.32,0,0,0,.27-1.37,2.74,2.74,0,0,0-.51-1.73A2.54,2.54,0,0,0,355.32,398.46Zm9.09-3.65a2.54,2.54,0,0,0-2.44-1.68c-1.91,0-2.91,2.23-3.2,3.84a11.2,11.2,0,0,0-.18,2,10.11,10.11,0,0,0,.17,1.94c0.34,1.75,1.38,3.43,3.35,3.48s2.27-.3,2.72-0.66l-0.33-1.15c-2.49,1.25-4.27.15-4.43-2.47,0-.49,0-0.64,0-1.07h4.81c0-.59.08-2,0-2.62A5.61,5.61,0,0,0,364.41,394.82Zm-4.18,3.08c0.1-1.08.26-3.35,1.63-3.35s1.66,2.23,1.66,3.35h-3.29Zm12.24-1.48a5.55,5.55,0,0,0-.58-1.63,3.34,3.34,0,0,0-1-1.14,2.16,2.16,0,0,0-1.49-.43,2,2,0,0,0-1.79,1.26v-1.09h-1.41l0,16.06h1.43v-5.78c0,0.62,1.06,1,1.68,1,1.83,0,2.89-2.8,3.16-4.22a11.43,11.43,0,0,0,.2-2.17A9.53,9.53,0,0,0,372.47,396.43Zm-1.4,3.33a7.55,7.55,0,0,1-.43,1.51,4.06,4.06,0,0,1-.72,1.19,1.33,1.33,0,0,1-1,.48,1.78,1.78,0,0,1-.95-0.27,1.09,1.09,0,0,1-.34-0.51v-6.54a1.55,1.55,0,0,1,1.39-1.08,1.87,1.87,0,0,1,1.67,1.23,4.8,4.8,0,0,1,.41,1.22,6.75,6.75,0,0,1,.14,1.33A8.1,8.1,0,0,1,371.07,399.75Zm-63.93-6.25L304,398.17V393.5h-1.44V404H304V399.8l0.36-.85,2.71,5h1.5l-3.11-5.83,3.15-4.65h-1.46Zm7.45,9.15a3,3,0,0,1-1.14.21,1.63,1.63,0,0,1-1-.34,3,3,0,0,1-.76-0.89,4.66,4.66,0,0,1-.48-1.22A5.66,5.66,0,0,1,311,399a11,11,0,0,1,.11-1.55,5.9,5.9,0,0,1,.39-1.45,3,3,0,0,1,.74-1.08,1.7,1.7,0,0,1,1.18-.42,2.78,2.78,0,0,1,1.14.23,3.66,3.66,0,0,1,1,.7l0.35-1a3.4,3.4,0,0,0-2.59-1.22,2.8,2.8,0,0,0-1.64.49,4,4,0,0,0-1.18,1.31,6.63,6.63,0,0,0-.71,1.87,9.74,9.74,0,0,0-.24,2.16,7,7,0,0,0,.28,2,5.6,5.6,0,0,0,.77,1.65,4,4,0,0,0,1.19,1.13,2.89,2.89,0,0,0,1.54.42,2.8,2.8,0,0,0,1.4-.36A5.78,5.78,0,0,0,316,403l-0.38-1A3.72,3.72,0,0,1,314.58,402.65Zm3.31-.61a1,1,0,0,0-.76.38,1.45,1.45,0,0,0-.32,1,1.41,1.41,0,0,0,.32.95,1,1,0,0,0,.76.37,0.94,0.94,0,0,0,.75-0.37,1.43,1.43,0,0,0,.31-0.95,1.47,1.47,0,0,0-.31-1A0.94,0.94,0,0,0,317.88,402Zm9.08-6.61a3.06,3.06,0,0,0-1.19-.82,4.08,4.08,0,0,0-1.47-.26h-1.48v-4.79h4.46V388h-6v16h3a3.09,3.09,0,0,0,1.46-.36,3.72,3.72,0,0,0,1.2-1,5,5,0,0,0,.82-1.58,7.52,7.52,0,0,0,0-4.18A4,4,0,0,0,327,395.43Zm-0.62,4.76a4.22,4.22,0,0,1-.43,1.11,2.63,2.63,0,0,1-.67.79,1.36,1.36,0,0,1-.86.3h-1.56v-6.46h1.56a1.71,1.71,0,0,1,.84.22,2,2,0,0,1,.67.62,3.26,3.26,0,0,1,.44,1,4.52,4.52,0,0,1,.16,1.23A5.22,5.22,0,0,1,326.34,400.2Zm17.2,3.78v-6.85c0-2-.77-3.9-3-3.9a3.14,3.14,0,0,0-2.17.73l0.57,1c1-.59,2.15-1,2.8.22a5.31,5.31,0,0,1,.37,2.15c-1.73-.48-2.94-0.56-3.82.95s-0.65,4.76.91,5.61a2,2,0,0,0,2.91-1.09V404h1.42Zm-3.15-1.09c-1.19,0-1.54-2.79-.94-3.87s1.62-.95,2.66-0.67v3.37A2.16,2.16,0,0,1,340.4,402.89Z" transform="translate(-239.58 -383.3)"/></svg>