<svg id="Layer_1" data-name="Layer 1" xmlns="http://www.w3.org/2000/svg" viewBox="0 0 133.07 26.24"><defs><style>.cls-1{fill:#b0b2b2;}</style></defs><title>yandex_logo-2106</title><path class="cls-1" d="M11.64,0A11.64,11.64,0,1,0,23.28,11.64,11.64,11.64,0,0,0,11.64,0h0ZM19,6.83l-6.15,6v7.53c0,0.37-.4.34-0.78,0.34h-1c-0.37,0-.74,0-0.74-0.34V12.84l-6.18-6c-0.27-.26,0-0.5.28-0.77l0.69-.7C5.4,5.05,5.66,4.74,5.92,5l5.67,5.55L17.25,5c0.27-.26.52,0,0.78,0.32L18.72,6C19,6.33,19.29,6.57,19,6.83h0ZM53.11,10.2H48v2.34A22.73,22.73,0,0,1,47.89,15a16.37,16.37,0,0,1-.39,2.33,8.54,8.54,0,0,1-.77,2H45.82V23h1.35V20.7h5.69v2.36h1.35V19.38H53.12V10.2h0Zm-1.44,9.16H47.92a6.28,6.28,0,0,0,.77-1.73,13.45,13.45,0,0,0,.4-2,20.62,20.62,0,0,0,.16-2.09q0-1.09,0-2h2.38v7.84ZM61,11.52a2.54,2.54,0,0,0-2.44-1.68c-1.91,0-2.91,2.23-3.2,3.84a11.19,11.19,0,0,0-.18,2,10.11,10.11,0,0,0,.17,1.94c0.34,1.75,1.38,3.43,3.35,3.48s2.27-.3,2.72-0.66l-0.33-1.15c-2.49,1.25-4.27.15-4.43-2.47V15.75h4.76c0-.59.08-2,0-2.62A5.6,5.6,0,0,0,61,11.52h0ZM56.82,14.6c0.1-1.08.26-3.35,1.63-3.35s1.66,2.23,1.66,3.35H56.82Zm-13.1,0H41.18V10.09H39.49V20.8h1.69V15.7h2.55v5.08h1.69V10.09H43.73V14.6h0ZM30.22,9.87c0,1.8.91,4.43,2.64,5l-3.25,5.94h2l3.1-5.91h0.86v5.92h1.69v-16H34.49c-2.91,0-4.26,3.24-4.26,5.05h0Zm5.33-3.73v7.43H34c-1.26,0-2-2.26-2-3.68s0.47-3.75,2.63-3.75h0.88Zm60.7,5.37a3.35,3.35,0,0,0-1-1.14,2.17,2.17,0,0,0-1.49-.43A2,2,0,0,0,92,11.2V10.11H90.56V26.17H92V20.39c0,0.62,1.06,1,1.68,1,1.83,0,2.89-2.8,3.16-4.22A11.45,11.45,0,0,0,97,15a9.52,9.52,0,0,0-.18-1.86,5.55,5.55,0,0,0-.59-1.64h0Zm-0.83,5A7.58,7.58,0,0,1,95,18a4.05,4.05,0,0,1-.72,1.19,1.33,1.33,0,0,1-1,.48,1.77,1.77,0,0,1-1-.27A1.09,1.09,0,0,1,92,18.91V12.37a1.55,1.55,0,0,1,1.39-1.08A1.87,1.87,0,0,1,95,12.52a4.81,4.81,0,0,1,.38,1.18A6.75,6.75,0,0,1,95.56,15a8.14,8.14,0,0,1-.14,1.42v0.06Zm12.78,2-2.4-8.21h-1.56L107.42,21l-0.3,1.12a7.57,7.57,0,0,1-.23.73,4,4,0,0,1-.32.68,2,2,0,0,1-.43.51,0.89,0.89,0,0,1-.58.21,3,3,0,0,1-1.61-.45l-0.3.92a6.13,6.13,0,0,0,.93.59,2.15,2.15,0,0,0,1,.26,1.72,1.72,0,0,0,1-.31,3,3,0,0,0,.77-0.82,5.77,5.77,0,0,0,.56-1.13q0.24-.63.42-1.26l3.49-11.82h-1.2Zm7.52-3.25a2.06,2.06,0,0,0,1.14-.91,3,3,0,0,0,.44-1.64,2.7,2.7,0,0,0-.26-1.24,2.52,2.52,0,0,0-.67-0.84,2.63,2.63,0,0,0-.91-0.47,3.42,3.42,0,0,0-1-.15,3.3,3.3,0,0,0-1.39.29,4.27,4.27,0,0,0-1.23.9l0.29,1a3.71,3.71,0,0,1,1-.65,3.09,3.09,0,0,1,1.14-.2,1.48,1.48,0,0,1,.5.1,1.81,1.81,0,0,1,.5.28,1.46,1.46,0,0,1,.38.45,1.29,1.29,0,0,1,.15.63,2.24,2.24,0,0,1-.14.85,1.71,1.71,0,0,1-.39.59,1.57,1.57,0,0,1-.57.35,2,2,0,0,1-.67.12h-0.85v1.26H114a2.17,2.17,0,0,1,.7.12,1.88,1.88,0,0,1,.63.36,1.76,1.76,0,0,1,.46.6,2.2,2.2,0,0,1,0,1.66,1.74,1.74,0,0,1-.4.58,1.68,1.68,0,0,1-1.17.48,3.23,3.23,0,0,1-1.14-.19,3.52,3.52,0,0,1-1-.64l-0.32.94a6.11,6.11,0,0,0,1.26.88,3,3,0,0,0,4.1-1.49,3.32,3.32,0,0,0,.27-1.37,2.74,2.74,0,0,0-.51-1.73,2.54,2.54,0,0,0-1.18-1Zm9.09-3.65a2.54,2.54,0,0,0-2.44-1.68c-1.91,0-2.91,2.23-3.2,3.84a11.2,11.2,0,0,0-.18,2,10.11,10.11,0,0,0,.17,1.94c0.34,1.75,1.38,3.43,3.35,3.48s2.27-.3,2.72-0.66l-0.33-1.15c-2.49,1.25-4.27.15-4.43-2.47V15.84h4.81c0-.59.08-2,0-2.62a5.61,5.61,0,0,0-.45-1.7Zm-4.18,3.08c0.1-1.08.26-3.35,1.63-3.35s1.66,2.23,1.66,3.35h-3.29Zm12.24-1.48a5.55,5.55,0,0,0-.58-1.63,3.34,3.34,0,0,0-1-1.14A2.16,2.16,0,0,0,129.8,10,2,2,0,0,0,128,11.27V10.18H126.6V26.24H128V20.46c0,0.62,1.06,1,1.68,1,1.83,0,2.89-2.8,3.16-4.22a11.43,11.43,0,0,0,.2-2.17,9.53,9.53,0,0,0-.18-1.94Zm-1.4,3.33A7.55,7.55,0,0,1,131,18a4.06,4.06,0,0,1-.72,1.19,1.33,1.33,0,0,1-1,.48,1.78,1.78,0,0,1-1-.27,1.09,1.09,0,0,1-.34-0.51V12.4a1.55,1.55,0,0,1,1.39-1.08,1.87,1.87,0,0,1,1.67,1.23,4.8,4.8,0,0,1,.41,1.22,6.75,6.75,0,0,1,.14,1.33,8.1,8.1,0,0,1-.15,1.35ZM67.54,10.29l-3.12,4.58V10.2H63V20.7h1.44V16.5l0.36-.85,2.71,5H69l-3.11-5.83L69,10.17H67.57ZM75,19.44a3,3,0,0,1-1.14.21,1.63,1.63,0,0,1-1-.34,3,3,0,0,1-.76-0.89,4.66,4.66,0,0,1-.48-1.22,5.66,5.66,0,0,1-.19-1.5,11,11,0,0,1,.11-1.55,5.9,5.9,0,0,1,.39-1.45,3,3,0,0,1,.74-1.08,1.7,1.7,0,0,1,1.18-.42,2.78,2.78,0,0,1,1.14.23,3.66,3.66,0,0,1,1,.7l0.35-1a3.4,3.4,0,0,0-2.59-1.22,2.8,2.8,0,0,0-1.64.49,4,4,0,0,0-1.18,1.31,6.63,6.63,0,0,0-.71,1.87A9.74,9.74,0,0,0,70,15.74a7,7,0,0,0,.28,2A5.6,5.6,0,0,0,71,19.39a4,4,0,0,0,1.19,1.13,2.89,2.89,0,0,0,1.54.42,2.8,2.8,0,0,0,1.4-.36,5.78,5.78,0,0,0,1.27-.88L76,18.7a3.72,3.72,0,0,1-1,.65v0.09Zm3.31-.61a1,1,0,0,0-.76.38,1.45,1.45,0,0,0-.32,1,1.41,1.41,0,0,0,.32,1,1,1,0,0,0,.76.37,0.94,0.94,0,0,0,.75-0.37,1.43,1.43,0,0,0,.31-1,1.47,1.47,0,0,0-.31-1,0.94,0.94,0,0,0-.75-0.51v0.13Zm9.08-6.61a3.06,3.06,0,0,0-1.19-.82,4.08,4.08,0,0,0-1.47-.26H83.24V6.35H87.7V4.7h-6v16h3a3.09,3.09,0,0,0,1.46-.36,3.72,3.72,0,0,0,1.2-1,5,5,0,0,0,.82-1.58,7.52,7.52,0,0,0,0-4.18,4,4,0,0,0-.76-1.45ZM86.76,17a4.22,4.22,0,0,1-.43,1.11,2.63,2.63,0,0,1-.67.79,1.36,1.36,0,0,1-.86.3H83.24V12.72H84.8a1.71,1.71,0,0,1,.84.22,2,2,0,0,1,.67.62,3.26,3.26,0,0,1,.44,1,4.52,4.52,0,0,1,.16,1.23,5.22,5.22,0,0,1-.15,1.11V17ZM104,20.76V13.91c0-2-.77-3.9-3-3.9a3.14,3.14,0,0,0-2.17.73l0.57,1c1-.59,2.15-1,2.8.22a5.31,5.31,0,0,1,.37,2.15c-1.73-.48-2.94-0.56-3.82,1s-0.65,4.76.91,5.61a2,2,0,0,0,2.91-1.09V20.7h1.42v0.06Zm-3.15-1.09c-1.19,0-1.54-2.79-.94-3.87s1.62-1,2.66-.67V18.5a2.16,2.16,0,0,1-1.71,1.09v0.08Z" transform="translate(0)"/></svg>