<?xml version="1.0" encoding="utf-8"?>
<!-- Generator: Adobe Illustrator 17.0.0, SVG Export Plug-In . SVG Version: 6.00 Build 0)  -->
<!DOCTYPE svg PUBLIC "-//W3C//DTD SVG 1.1 Basic//EN" "http://www.w3.org/Graphics/SVG/1.1/DTD/svg11-basic.dtd">
<svg version="1.1" baseProfile="basic" id="Слой_1"
	 xmlns="http://www.w3.org/2000/svg" xmlns:xlink="http://www.w3.org/1999/xlink" x="0px" y="0px" width="40px" height="490px"
	 viewBox="0 0 40 490" xml:space="preserve">
<g opacity="0.5">
	<path opacity="0.5" fill-rule="evenodd" clip-rule="evenodd" d="M17.3268337,2.3107998L7.8820338,13.3326998H2.931134
		c-0.7925999,0-1.4388999,0.7659998-1.4388999,1.7048006v10.2297001c0,0.9391003,0.6463,1.7046986,1.4388999,1.7046986h4.9609003
		l9.3896999,10.9556026c1.4389,1.7047997,2.8830986,0.825798,2.8830986-1.4984016V3.5558
		C20.1648331,1.3979999,18.5689335,0.8387999,17.3268337,2.3107998L17.3268337,2.3107998z M27.3889332,20.1522999
		L27.3889332,20.1522999c0-3.1016006-1.7687988-5.8157997-4.3006992-6.5999002
		c-0.7656002-0.2312994-1.5536003,0.3081999-1.7560005,1.2189007c-0.2010002,0.9104996,0.259901,1.8427992,1.0284004,2.0808992
		c1.2658997,0.391201,2.1511993,1.7483997,2.1511993,3.3001003s-0.8852997,2.9087009-2.1511993,3.2998009
		C21.5921345,23.6903,21.1312332,24.6229,21.3322334,25.5335999c0.1697998,0.7656994,0.7528,1.2735996,1.3906002,1.2735996
		c0.1210995,0,0.2432003-0.0184002,0.3654003-0.0550003C25.6201344,25.9678993,27.3889332,23.2539997,27.3889332,20.1522999
		L27.3889332,20.1522999z M33.1438332,20.1522999c0,5.0065994-2.3071003,9.6000996-6.0219002,11.9910984
		c-0.219099,0.1395035-0.4538002,0.2064018-0.6854,0.2064018c-0.5101986,0-1.0049-0.323101-1.2658997-0.8906002
		c-0.3792992-0.8274994-0.1210995-1.8631992,0.5774002-2.3125c2.7875996-1.7935009,4.5184002-5.2402,4.5184002-8.9944
		c0-3.7677994-1.7392998-7.2208996-4.5408001-9.0123997c-0.6998997-0.4464998-0.9610004-1.4802999-0.5830994-2.3091002
		c0.3764-0.8295002,1.2531986-1.1424003,1.9487991-0.6914005C30.8243332,10.5253,33.1438332,15.1290998,33.1438332,20.1522999
		L33.1438332,20.1522999L33.1438332,20.1522999z M30.1933327,3.3992999L30.1933327,3.3992999
		c-0.7120991-0.4277999-1.5749989-0.0864999-1.9319,0.7542999C27.9031334,4.9945998,28.188633,6.0198998,28.8978329,6.4431
		c4.3934002,2.6272001,7.1234989,7.8802996,7.1234989,13.7091999s-2.7300987,11.0820999-7.1234989,13.7091999
		c-0.7091999,0.4230003-0.9946995,1.4485016-0.6364002,2.289299c0.2529011,0.5944023,0.7589016,0.9374008,1.2858009,0.9374008
		c0.2176991,0,0.4382992-0.0580978,0.6460991-0.1830978c5.3698997-3.2100029,8.7054024-9.6285019,8.7054024-16.7528019
		S35.5632324,6.6094999,30.1933327,3.3992999z"/>
	<path opacity="0.5" fill-rule="evenodd" clip-rule="evenodd" d="M17.3268337,2.3107998L7.8820338,13.3326998H2.931134
		c-0.7925999,0-1.4388999,0.7659998-1.4388999,1.7048006v1.1338997c0-0.9389,0.6463-1.7048006,1.4388999-1.7048006h4.9509001
		l9.4447994-11.0219994c1.2420998-1.472,2.8379993-0.9126999,2.8379993,1.2450001V3.5558
		C20.1648331,1.3979999,18.5689335,0.8387999,17.3268337,2.3107998L17.3268337,2.3107998z M27.3889332,20.1522999
		L27.3889332,20.1522999c0-3.1016006-1.7687988-5.8157997-4.3006992-6.5999002
		c-0.7656002-0.2312994-1.5536003,0.3081999-1.7560005,1.2189007c-0.0756989,0.3423996-0.0573006,0.6876993,0.0354004,0.9983997
		c0.2472-0.8280001,0.9937992-1.3031006,1.7206001-1.0833998c2.3762989,0.7358999,4.0804996,3.171999,4.280899,6.032999
		C27.3821335,20.5321999,27.3889332,20.3428001,27.3889332,20.1522999L27.3889332,20.1522999z M24.4718342,20.7192993
		c0.0263996,0.1848011,0.039999,0.3744011,0.039999,0.5669003c0,1.5517006-0.8852997,2.9085999-2.1511993,3.2998009
		c-0.4797001,0.1484985-0.8397007,0.5677986-0.9932995,1.0833988c-0.0130005-0.044199-0.0249004-0.0895996-0.0351009-0.1357994
		c-0.2010002-0.9106998,0.259901-1.8432999,1.0284004-2.0814991C23.4695339,23.1093998,24.2864342,22.0256996,24.4718342,20.7192993
		L24.4718342,20.7192993z M33.1438332,20.1522999c0,0.1900005-0.0036011,0.3789997-0.0102005,0.5674992
		c-0.1669006-4.8009987-2.4501991-9.1504993-6.0422993-11.446599C26.3957329,8.8223,25.5189342,9.1351995,25.1425343,9.9645996
		c-0.0360012,0.0794001-0.0663013,0.1605005-0.0910015,0.2427006c-0.1300983-0.4377003-0.1099987-0.9359999,0.0910015-1.3765001
		c0.3764-0.8295002,1.2531986-1.1424003,1.9487991-0.6914005C30.8243332,10.5253,33.1438332,15.1290998,33.1438332,20.1522999
		L33.1438332,20.1522999L33.1438332,20.1522999z M30.2531338,20.718399
		c0.0088005,0.1885014,0.0132999,0.3776016,0.0132999,0.5678005c0,3.7542-1.7308006,7.2007999-4.5184002,8.9943008
		c-0.3260002,0.2097988-0.5564995,0.5473995-0.6704006,0.9317989c-0.2318993-0.7766991,0.0398998-1.6599998,0.6704006-2.0655994
		C28.3950329,27.4435997,30.0887337,24.2504005,30.2531338,20.718399L30.2531338,20.718399z M30.1933327,3.3992999
		L30.1933327,3.3992999c-0.7120991-0.4277999-1.5749989-0.0864999-1.9319,0.7542999
		c-0.1838989,0.4317002-0.1980991,0.9122-0.0724983,1.3345003c0.0203991-0.0676999,0.0444984-0.1346002,0.0724983-0.2007003
		c0.3569012-0.8406997,1.2198009-1.1819997,1.9319-0.7542996l0,0c5.2270012,3.125,8.526001,9.2895002,8.6977997,16.1861992
		c0.0048027-0.1884995,0.0076027-0.3773003,0.0076027-0.5669994C38.898735,13.0279999,35.5632324,6.6094999,30.1933327,3.3992999
		L30.1933327,3.3992999z M36.0125351,20.7192993c-0.1709023,5.6009007-2.8641014,10.6004009-7.1147022,13.1422005
		c-0.6535988,0.389801-0.9473,1.2915001-0.7088985,2.0886002c0.1189995-0.4005013,0.3638992-0.7489014,0.7088985-0.9547005
		c4.3934002-2.6272011,7.1234989-7.8802986,7.1234989-13.7091999
		C36.0213318,21.0965996,36.0182343,20.9078007,36.0125351,20.7192993z"/>
</g>
<g opacity="0.5">
	<g>
		<path opacity="0.5" fill-rule="evenodd" clip-rule="evenodd" d="M29.882534,116.7455368
			c-1.3892994,0-2.5151997,1.1272964-2.5151997,2.5207977c0,1.3937988,1.1259003,2.5212021,2.5151997,2.5212021
			c1.3887005,0,2.5146027-1.1274033,2.5146027-2.5212021C32.3971367,117.8728333,31.2712345,116.7455368,29.882534,116.7455368
			L29.882534,116.7455368z M34.0449333,102.5762329c2.2980003,0,4.1624031,1.8689041,4.1624031,4.1725998v16.6901016
			c0,2.3038025-1.8644028,4.1725998-4.1624031,4.1725998H6.2951355c-2.2979999,0-4.1626997-1.8687973-4.1626997-4.1725998
			v-16.6901016c0-1.915596,1.2966001-3.5134964,3.0520999-4.0032959c-0.0036998-0.0570068-0.0170002-0.1114044-0.0170002-0.1693039
			c0-1.3937988,1.1262002-2.5214005,2.5149002-2.5214005c0.3301997,0,0.6434999,0.0678024,0.9323001,0.183403l24.1293983-6.7014008
			c0-0.0005035,0-0.0014038,0-0.0014038c0-1.1040955,0.8929024-1.9992981,1.9944-1.9992981
			c1.1016006,0,1.994503,0.8952026,1.994503,1.9992981c0,1.1044006-0.8929024,1.9993057-1.994503,1.9993057
			c-0.7255974,0-1.3546982-0.392601-1.703598-0.9737015L9.9561357,101.513237
			c0.1507998,0.3239975,0.2411995,0.6814957,0.2411995,1.0629959H34.0449333L34.0449333,102.5762329L34.0449333,102.5762329z
			 M25.5506344,105.9778366v5.4223938h8.4942989v-5.4223938H25.5506344L25.5506344,105.9778366L25.5506344,105.9778366z
			 M7.6824355,122.7436295v-6.9541931c0-0.3847046-0.3101001-0.6954041-0.6936002-0.6954041
			c-0.3835998,0-0.6936998,0.3106995-0.6936998,0.6954041v6.9541931c0,0.3847046,0.3101001,0.6953049,0.6936998,0.6953049
			C7.3723354,123.4389343,7.6824355,123.128334,7.6824355,122.7436295L7.6824355,122.7436295L7.6824355,122.7436295z
			 M10.4575357,122.7436295v-6.9541931c0-0.3847046-0.3104-0.6954041-0.6939001-0.6954041
			c-0.3832006,0-0.6936007,0.3106995-0.6936007,0.6954041v6.9541931c0,0.3847046,0.3104,0.6953049,0.6936007,0.6953049
			C10.1471357,123.4389343,10.4575357,123.128334,10.4575357,122.7436295L10.4575357,122.7436295L10.4575357,122.7436295z
			 M13.2326355,122.7436295v-6.9541931c0-0.3847046-0.3104-0.6954041-0.6939001-0.6954041
			c-0.3831997,0-0.6935997,0.3106995-0.6935997,0.6954041v6.9541931c0,0.3847046,0.3104,0.6953049,0.6935997,0.6953049
			C12.9222355,123.4389343,13.2326355,123.128334,13.2326355,122.7436295L13.2326355,122.7436295L13.2326355,122.7436295z
			 M16.0075359,122.7436295v-6.9541931c0-0.3847046-0.3101006-0.6954041-0.6937008-0.6954041
			c-0.3835001,0-0.6935997,0.3106995-0.6935997,0.6954041v6.9541931c0,0.3847046,0.3100996,0.6953049,0.6935997,0.6953049
			C15.6974354,123.4389343,16.0075359,123.128334,16.0075359,122.7436295L16.0075359,122.7436295L16.0075359,122.7436295z
			 M18.7823353,122.7436295v-6.9541931c0-0.3847046-0.3101006-0.6954041-0.6933002-0.6954041
			c-0.3838997,0-0.6940002,0.3106995-0.6940002,0.6954041v6.9541931c0,0.3847046,0.3101006,0.6953049,0.6940002,0.6953049
			C18.4722347,123.4389343,18.7823353,123.128334,18.7823353,122.7436295L18.7823353,122.7436295L18.7823353,122.7436295z
			 M21.5571346,122.7436295v-6.9541931c0-0.3847046-0.3100986-0.6954041-0.6935997-0.6954041
			c-0.3831997,0-0.6935997,0.3106995-0.6935997,0.6954041v6.9541931c0,0.3847046,0.3104,0.6953049,0.6935997,0.6953049
			C21.247036,123.4389343,21.5571346,123.128334,21.5571346,122.7436295L21.5571346,122.7436295L21.5571346,122.7436295z
			 M24.670435,111.4002304v-5.4223938H6.2951355v5.4223938H24.670435L24.670435,111.4002304L24.670435,111.4002304z
			 M29.882534,123.6697311L29.882534,123.6697311c-2.4269981,0-4.3930988-1.9706955-4.3930988-4.4033966
			c0-2.4324036,1.9661007-4.4036026,4.3930988-4.4036026c2.4265022,0,4.392601,1.971199,4.392601,4.4036026
			C34.275135,121.6990356,32.3090363,123.6697311,29.882534,123.6697311z"/>
	</g>
	<path opacity="0.5" fill-rule="evenodd" clip-rule="evenodd" d="M29.882534,116.7455368
		c-1.3892994,0-2.5151997,1.1272964-2.5151997,2.5207977c0,0.1950989,0.0221004,0.384697,0.0638008,0.5670013
		c0.2565002-1.1200027,1.2565994-1.9540024,2.4513988-1.9540024c1.1945,0,2.1943016,0.8339996,2.4508018,1.9540024
		c0.0416985-0.1823044,0.0638008-0.3719025,0.0638008-0.5670013
		C32.3971367,117.8728333,31.2712345,116.7455368,29.882534,116.7455368L29.882534,116.7455368z M34.0449333,102.5762329
		L34.0449333,102.5762329h-23.847599v-0.0017014l-0.2411995,0.0726013c0.1507998,0.3239975,0.2411995,0.6814041,0.2411995,1.0630035
		h23.847599l0,0c2.2980003,0,4.1624031,1.8688965,4.1624031,4.1725998v-1.1339035
		C38.2073364,104.445137,36.3429337,102.5762329,34.0449333,102.5762329L34.0449333,102.5762329z M31.8047352,94.9318314
		l-23.1899986,6.4403c-0.2888002-0.1156998-0.6021004-0.1833954-0.9323001-0.1833954
		c-1.3887,0-2.5149002,1.127594-2.5149002,2.5214005c0,0.0578003,0.0133004,0.1121979,0.0170002,0.1691971
		c-1.7554998,0.4897995-3.0520999,2.0876999-3.0520999,4.0034027v-1.1339035c0-1.915596,1.2966001-3.5134964,3.0520999-4.0032959
		c-0.0036998-0.0570068-0.0170002-0.1114044-0.0170002-0.1693039c0-1.3937988,1.1262002-2.5214005,2.5149002-2.5214005
		c0.3301997,0,0.6434999,0.0678024,0.9323001,0.183403l24.1293983-6.7014008c0-0.0005035,0-0.0014038,0-0.0014038
		c0-1.1040955,0.8929024-1.9992981,1.9944-1.9992981c1.1016006,0,1.994503,0.8952026,1.994503,1.9992981
		c0,0.1969986-0.0284004,0.3871994-0.0814018,0.5669022c-0.2438011-0.8280029-1.0079994-1.4322968-1.9131012-1.4322968
		c-1.0946999,0-1.9827995,0.8837967-1.9940987,1.9785995L31.8047352,94.9318314L31.8047352,94.9318314z M34.0449333,111.4002304
		h-8.4942989v1.1339035h8.4942989V111.4002304L34.0449333,111.4002304z M7.6824355,122.7436295
		c0,0.3847046-0.3101001,0.6953049-0.6936002,0.6953049c-0.3835998,0-0.6936998-0.3106003-0.6936998-0.6953049v1.1339035
		c0,0.3845978,0.3101001,0.6952972,0.6936998,0.6952972c0.3835001,0,0.6936002-0.3106995,0.6936002-0.6952972l0,0V122.7436295
		L7.6824355,122.7436295z M10.4575357,122.7436295c0,0.3847046-0.3104,0.6953049-0.6939001,0.6953049
		c-0.3832006,0-0.6936007-0.3106003-0.6936007-0.6953049v1.1339035c0,0.3845978,0.3104,0.6952972,0.6936007,0.6952972
		c0.3835001,0,0.6939001-0.3106995,0.6939001-0.6952972l0,0V122.7436295L10.4575357,122.7436295z M13.2326355,122.7436295
		c0,0.3847046-0.3104,0.6953049-0.6939001,0.6953049c-0.3831997,0-0.6935997-0.3106003-0.6935997-0.6953049v1.1339035
		c0,0.3845978,0.3104,0.6952972,0.6935997,0.6952972c0.3835001,0,0.6939001-0.3106995,0.6939001-0.6952972l0,0V122.7436295
		L13.2326355,122.7436295z M16.0075359,122.7436295c0,0.3847046-0.3101006,0.6953049-0.6937008,0.6953049
		c-0.3835001,0-0.6935997-0.3106003-0.6935997-0.6953049v1.1339035c0,0.3845978,0.3100996,0.6952972,0.6935997,0.6952972
		c0.3836002,0,0.6937008-0.3106995,0.6937008-0.6952972l0,0V122.7436295L16.0075359,122.7436295z M18.7823353,122.7436295
		c0,0.3847046-0.3101006,0.6953049-0.6933002,0.6953049c-0.3838997,0-0.6940002-0.3106003-0.6940002-0.6953049v1.1339035
		c0,0.3845978,0.3101006,0.6952972,0.6940002,0.6952972c0.3831997,0,0.6933002-0.3106995,0.6933002-0.6952972l0,0V122.7436295
		L18.7823353,122.7436295z M21.5571346,122.7436295c0,0.3847046-0.3100986,0.6953049-0.6935997,0.6953049
		c-0.3831997,0-0.6935997-0.3106003-0.6935997-0.6953049v1.1339035c0,0.3845978,0.3104,0.6952972,0.6935997,0.6952972
		c0.3835011,0,0.6935997-0.3106995,0.6935997-0.6952972l0,0V122.7436295L21.5571346,122.7436295z M24.670435,111.4002304H6.2951355
		v1.1339035H24.670435l0,0V111.4002304L24.670435,111.4002304z M29.882534,123.6697311
		c2.2348022,0,4.0790024-1.6716003,4.3566017-3.8363953c0.0237999,0.1856003,0.0359993,0.3746948,0.0359993,0.5668945
		c0,2.4327011-1.9660988,4.4033051-4.392601,4.4033051l0,0c-2.4269981,0-4.3930988-1.9706039-4.3930988-4.4033051
		c0-0.1921997,0.0121002-0.3812943,0.0359993-0.5668945C25.8029346,121.9981308,27.6471348,123.6697311,29.882534,123.6697311
		L29.882534,123.6697311z"/>
</g>
<g opacity="0.5">
	<g>
		<g>
			<path opacity="0.5" fill-rule="evenodd" clip-rule="evenodd" d="M8.9930506,199.1151276v0.2423096
				c-2.7118998,1.7561035-4.5242996,3.3737946-4.5242996,8.2507935c0,4.9396973,1.8123999,6.4949951,4.5242996,8.2510986v0.2424011
				c0,2.0178986,3.9968996,2.0178986,3.9968996,0v-16.9866028C12.9899502,197.0656281,8.9930506,197.0656281,8.9930506,199.1151276
				L8.9930506,199.1151276z M30.9445496,199.3574371L30.9445496,199.3574371v-0.2423096
				c0-2.0182953-3.9655991-2.0182953-3.9655991,0v16.9866028c0,1.9555969,3.9655991,1.9555969,3.9655991,0v-0.2424011
				c2.7117004-1.7561035,4.7743988-4.7791901,4.7743988-8.2510986
				C35.7189484,202.7000275,33.65625,201.1135406,30.9445496,199.3574371L30.9445496,199.3574371z M38.3512497,205.5653381
				c0.9300003,0.2014923,1.6278992,1.027298,1.6278992,2.0179901c0,1.1412048-0.9251976,2.0664063-2.0663986,2.0664063
				c-1.1416016,0-2.0671005-0.9252014-2.0671005-2.0664063c0-1.0300903,0.7556992-1.8768005,1.7414017-2.0338898
				c-0.8479004-0.2367096-1.5942001-1.2129059-1.5942001-2.9372101c0-8.7431946-2.2122002-15.1338959-16.0081005-15.1338959
				c-14.2648001,0-15.9771996,6.2967987-15.9771996,15.1338959c0,1.7909088-0.8053999,2.7728119-1.6935,2.9588013
				c1.1228001,0.0214996,2.0274,0.9347992,2.0274,2.0624084c0,1.1416016-0.9252,2.0667877-2.0664999,2.0667877
				c-1.1414999,0-2.0667-0.9251862-2.0667-2.0667877c0-1.024704,0.748-1.8694,1.7268999-2.0321045
				c-0.9782999-0.0447998-1.9349999-1.0364075-1.9349999-2.9891052c0-8.7743988,4.0762-19.9842987,19.9846001-19.9842987
				c14.7838001,0,20.0151005,11.2411041,20.0151005,19.9842987
				C39.9998512,204.3733368,39.2217484,205.3564301,38.3512497,205.5653381L38.3512497,205.5653381z"/>
		</g>
	</g>
	<path opacity="0.5" fill-rule="evenodd" clip-rule="evenodd" d="M8.9930506,199.1151276v0.2423096
		c-2.7118998,1.7561035-4.5242996,3.3737946-4.5242996,8.2507935c0,0.1956024,0.0030999,0.3852081,0.0086999,0.5702972
		c0.1363997-4.4412994,1.9112-6.0005951,4.5155997-7.6871948v-0.2424011c0-2.0493927,3.9968996-2.0493927,3.9968996,0v-1.1338043
		C12.9899502,197.0656281,8.9930506,197.0656281,8.9930506,199.1151276L8.9930506,199.1151276z M30.9445496,199.3574371
		L30.9445496,199.3574371v-0.2423096c0-2.0182953-3.9655991-2.0182953-3.9655991,0v1.1338043
		c0-2.0182953,3.9655991-2.0182953,3.9655991,0v0.2424011l0,0c2.5868988,1.6752014,4.5830994,3.1963043,4.7614021,7.5937042
		c0.0087967-0.1578979,0.0129967-0.3169098,0.0129967-0.4768066
		C35.7189484,202.7000275,33.65625,201.1135406,30.9445496,199.3574371L30.9445496,199.3574371z M39.9865494,203.0014343
		c-0.2900009-8.6230011-5.6343994-19.2395935-20.0017986-19.2395935c-15.4414997,0-19.7348003,10.5612946-19.9734993,19.2054901
		c-0.0074-0.114502-0.0111-0.2330017-0.0111-0.3551025c0-8.7743988,4.0762-19.9842987,19.9846001-19.9842987
		c14.7838001,0,20.0151005,11.2411041,20.0151005,19.9842987C39.9998512,202.7465363,39.9953499,202.8761292,39.9865494,203.0014343
		L39.9865494,203.0014343z M0.7984508,206.192337c-0.3649,0.3710938-0.5902,0.8787994-0.5902,1.4411011
		c0,0.1967926,0.0278,0.3872986,0.0791,0.5674896c0.2165-0.7574005,0.8568999-1.334198,1.6478-1.4657898
		C1.5303508,206.7167358,1.1294508,206.5359344,0.7984508,206.192337L0.7984508,206.192337z M4.2623506,208.2009277
		c0.0513-0.180191,0.0791001-0.370697,0.0791001-0.5674896c0-0.7129059-0.3617001-1.3399048-0.9113998-1.7104034
		c-0.3050001,0.434906-0.7015002,0.6950989-1.1160002,0.7817993C3.2413507,206.7227325,4.0191507,207.3483276,4.2623506,208.2009277
		L4.2623506,208.2009277z M36.6124496,205.9825287c-0.4673996,0.3768005-0.7667999,0.9524994-0.7667999,1.6007996
		c0,0.196701,0.0278015,0.387207,0.0791016,0.5675049c0.2176971-0.7619934,0.8648987-1.3404999,1.6623001-1.4674988
		C37.2275505,206.5829315,36.8862495,206.3494263,36.6124496,205.9825287L36.6124496,205.9825287z M39.9003487,208.150528
		c0.0513-0.1802979,0.0788002-0.3704987,0.0788002-0.5671997c0-0.5997925-0.2560005-1.1389923-0.6641006-1.5159912
		c-0.2763977,0.3369904-0.9637985,0.6317902-0.9637985,0.6317902
		C39.0967484,206.860733,39.6931496,207.4234314,39.9003487,208.150528z"/>
</g>
<g opacity="0.5">
	<g>
		<g>
			<path opacity="0.5" fill-rule="evenodd" clip-rule="evenodd" d="M30.0284042,288.6307983
				c0.6151009-0.8031006,1.0638008-3.3873901,0.6026001-5.174408c-1.7742004-6.8713989-8.0410004-6.769104-2.4845009-11.6687927
				c-13.6632986,3.774292-3.7646999,11.8525085-11.5282993,12.9891968
				C20.0022049,287.1102905,26.8105049,288.8255005,30.0284042,288.6307983L30.0284042,288.6307983z M37.2185059,297.1296082
				c1.2825966,2.4046936,0.497097,5.4266968-1.7893028,6.7929993c-0.6042976,0.3616943-6.1769981,3.5317078-15.4201984,3.5317078
				c-9.2437,0-14.8163996-3.1700134-15.4207001-3.5317078c-2.3037-1.3764954-3.1040001-4.4456177-1.7878001-6.8533936
				c1.3093002-2.3964233,4.2191-3.2374268,6.5148001-1.8921204c0.0790997,0.0440063,1.0948,0.5944214,2.9019003,1.1376038
				c-2.1133003-1.0618896-3.2111006-1.9462891-3.5774002-2.2756958l6.2693996-7.6127014l-0.1135998-0.0967102
				c0.0388002,0.0295105,3.9857006,3.0819092,15.4484997,4.6642151c2.0061016,0.276886,3.5504017,1.8140869,4.0201015,3.747406
				C35.4768028,295.07901,36.5634041,295.8988037,37.2185059,297.1296082L37.2185059,297.1296082z"/>
		</g>
	</g>
	<path opacity="0.5" fill-rule="evenodd" clip-rule="evenodd" d="M30.8025036,285.7096863
		c0.0479012-0.7715759,0.0048008-1.5706787-0.1714993-2.2532959c-1.1364002-4.4007874-4.1149998-5.9411011-4.6508007-7.7668762
		c-0.7066994,2.4646912,3.2910004,3.6348877,4.6508007,8.9007874
		C30.7212048,284.939209,30.7762051,285.3187866,30.8025036,285.7096863L30.8025036,285.7096863z M26.5919037,273.4050903
		c-10.5232983,3.6600952-3.6758995,10.3719177-8.6243992,12.1799011c-0.4904003-0.2590942-0.9445-0.5292969-1.3493004-0.808197
		c7.7635994-1.1366882-2.1349993-9.2149048,11.5282993-12.9891968
		C27.455904,272.3965149,26.9485035,272.9277039,26.5919037,273.4050903L26.5919037,273.4050903z M37.2185059,297.1296082
		L37.2185059,297.1296082c-0.6551018-1.2308044-1.741703-2.0505981-2.9542999-2.3883972
		c-0.4696999-1.9333191-2.0139999-3.47052-4.0201015-3.747406c-11.4627991-1.5823059-15.4096994-4.6347046-15.4484997-4.6642151
		l0.1135998,0.0967102l-6.2693996,7.6127014c0.1134005,0.1021118,0.2971001,0.2573853,0.5593004,0.4547119l5.7100992-6.9336243
		l-0.1135998-0.0965881c0.0388002,0.0295105,3.9857006,3.0817871,15.4484997,4.664093
		c2.0061016,0.2770081,3.5504017,1.814209,4.0201015,3.747406c1.2125969,0.3378906,2.2991982,1.1577148,2.9542999,2.3884888l0,0
		c0.3216972,0.6035156,0.5129967,1.2455139,0.5835991,1.8907166
		C37.9118042,299.1438904,37.7295036,298.0877075,37.2185059,297.1296082L37.2185059,297.1296082z M8.8377047,294.9324951
		l-0.1978998,0.2404175c0.3662996,0.3293762,1.4640999,1.2137756,3.5774002,2.2755737
		c-1.8071003-0.5430908-2.8228006-1.0935974-2.9019003-1.1374817c-2.2957001-1.3453064-5.2054996-0.504303-6.5148001,1.8920898
		c-0.3336999,0.6102905-0.5309999,1.263092-0.6027,1.9198914c-0.1111-1.0235901,0.0766001-2.0914001,0.6027-3.053772
		C4.020505,294.8363953,6.630105,293.95401,8.8377047,294.9324951z"/>
</g>
<g opacity="0.5">
	<path opacity="0.5" fill-rule="evenodd" clip-rule="evenodd" d="M39.2894936,376.5132141
		c-0.4132996-0.3637085-1.1425972-0.2183228-1.6236992-0.0873108c-1.5257988,0.281189-3.9846001,1.1159973-6.7180996,2.0431824
		l-0.728199,0.2469177c-0.2686996-1.138092-0.7553997-2.0032959-1.4260998-2.6770935
		c-0.6863003-0.6896057-1.5624008-1.1735229-2.593401-1.5411072c-0.8319988-2.9837952-2.2441998-3.1751099-5.2420998-3.5805054
		c-2.4279003-0.3262939-3.4792995-0.5603943-5.9130993,0.5324097c-1.4295006,0.6416931-2.8667002,1.6063843-4.2372007,2.7109985
		c-1.7194996-0.3807068-3.4775996,0.5770874-4.0909996,2.2402039c-1.29,0.9093933-2.8016999,2.6149902-3.3456998,4.0832825
		c-4.9699998,0.2101135-3.6034,3.8637085-0.5555999,3.6068115c1.3555,0.9848022,1.7362001,1.3617859,1.6621997,1.4635925
		c-0.1745996,0.2406006-2.4093997-0.3460999-2.4572997,0.6351929c-0.0287,0.585907,0.1443,1.0355225,0.4387999,1.3601074
		c0.8475001,0.932312,3.9815001,0.9078979,4.8074999,0.3760986c2.3386002,1.4619141,4.9040003,1.6535034,7.5840998,1.3464966
		c1.2185993,0.3591003,2.6702995,0.7752991,3.9297009,0.9150085c1.5094986,0.1691895,2.539299,0.0592957,3.1722984-0.4005127
		c0.6111012-0.4444885,0.8404007-1.1862793,0.7565002-2.2855835c0.1644001,0.0124817,1.6625004,0.0227051,1.6758995,0.0297852
		c2.4891014,1.3861084,4.6746006,2.3694153,6.5233002,2.8377075c1.7873001,0.4526978,4.8850021,0.5406189,5.4155998-1.8240967
		c0.5307007-2.3645935-0.3843994-3.5450134-0.199501-4.2029114c0.6443024-0.8988953,3.4789009-5.0991821,3.6842003-5.9844971
		C40.1033936,377.6317139,39.7804947,377.0040894,39.2894936,376.5132141z"/>
	<path opacity="0.5" fill-rule="evenodd" clip-rule="evenodd" d="M39.2894936,376.5132141
		c-0.4132996-0.3637085-1.1425972-0.2183228-1.6236992-0.0873108c-1.5257988,0.281189-3.9846001,1.1159973-6.7180996,2.0431824
		l-0.728199,0.2469177c-0.2686996-1.138092-0.7553997-2.0032959-1.4260998-2.6770935
		c-0.6863003-0.6896057-1.5624008-1.1735229-2.593401-1.5411072c-0.8319988-2.9837952-2.2441998-3.1751099-5.2420998-3.5805054
		c-2.4279003-0.3262939-3.4792995-0.5603943-5.9130993,0.5324097c-1.4295006,0.6416931-2.8667002,1.6063843-4.2372007,2.7109985
		c-1.7194996-0.3807068-3.4775996,0.5770874-4.0909996,2.2402039c-1.29,0.9093933-2.8016999,2.6149902-3.3456998,4.0832825
		c-2.8947999,0.1224976-3.6394,1.4131165-3.1546998,2.4186096c0.3353-0.6523132,1.3065-1.2065125,3.1546998-1.2846985
		c0.5439999-1.4682922,2.0556998-3.1740112,3.3456998-4.083313c0.6134-1.6630859,2.3715-2.6208801,4.0909996-2.2402039
		c1.3705006-1.1046753,2.8077002-2.0692749,4.2372007-2.7110901c2.4337997-1.0926819,3.485199-0.8585815,5.9130993-0.5322876
		c2.9979,0.405304,4.4101009,0.5966797,5.2420998,3.5803833c1.0310001,0.3677063,1.9071007,0.8515015,2.593401,1.5411987
		c0.6707001,0.6737976,1.1574001,1.5389099,1.4260998,2.677002l0.728199-0.2468872
		c2.7334995-0.9272156,5.1923008-1.7619934,6.7180996-2.0432129c0.481102-0.1308899,1.2103996-0.2763062,1.6236992,0.0873108
		c0.2175026,0.2174988,0.4017029,0.461792,0.5142021,0.7290955l0.0048981-0.0187073
		C40.1033936,377.6317139,39.7804947,377.0040894,39.2894936,376.5132141L39.2894936,376.5132141z M3.3158958,385.5942993
		c-0.6244998-0.0049133-1.2701998,0.0728149-1.2956998,0.5954895c-0.0153,0.3155212,0.0274999,0.5916138,0.1168001,0.8300171
		c0.4684999-0.5408936,2.1882999-0.1213074,2.3404996-0.3314209C4.541296,386.6005859,4.2657957,386.3071899,3.3158958,385.5942993
		L3.3158958,385.5942993z M36.4647942,387.6618042c0.0953026-1.028595-0.0853004-1.7843933-0.2248001-2.3493042
		l-0.1156006,0.1632996C36.0018959,385.911499,36.3615952,386.5762024,36.4647942,387.6618042z"/>
</g>
<g opacity="0.5">
	<path opacity="0.5" fill-rule="evenodd" clip-rule="evenodd" d="M34.3396492,460.1282043
		c-0.5349007-1.7841187-2.3241005-3.1371155-4.0328999-3.1371155h-0.6121998c0-2.1950989-1.7912998-3.9760742-4.0023003-3.9760742
		c-1.0963993,0-2.0879993,0.4393005-2.8104992,1.1485901H17.118351c-0.7229004-0.7092896-1.7141008-1.1485901-2.8106003-1.1485901
		c-2.2110004,0-4.0022001,1.7809753-4.0022001,3.9760742H9.6932507c-1.7087002,0-3.4977002,1.3529968-4.0331001,3.1383057
		c-1.1097999,2.4695129-4.1598997,7.830719-4.1598997,10.6520081v2.1094971c0,3.7150879,3.0080998,6.7213135,6.7184,6.7213135
		h3.3207998c0.1765995,0.0979919,0.3520994,0.1824951,0.5220995,0.2493896c0.802,4.835907,5.2651005,6.9938965,7.6084995,6.9938965
		s6.8227005-2.1029968,7.6096001-6.9576111c0.205801-0.071991,0.4118996-0.1717834,0.6156998-0.285675H31.78195
		c3.7096996,0,6.7177982-3.0062256,6.7177982-6.7213135v-2.1094971
		C38.4997482,467.969696,35.3853493,462.4617004,34.3396492,460.1282043L34.3396492,460.1282043z M19.6700497,484.944397
		c-2.8120003,0-5.5898991-3.6124878-5.7746992-5.9190063c-0.0369005-0.4654846-0.4805002-0.8399048-0.9493999-0.8804016
		c-0.0011005,0-0.0033998-0.0011902-0.0047998-0.0014954c-0.6735001-1.0751038-0.8804007-2.2290955-0.9329004-3.6694031
		c-0.0580997-0.1323853,0.0227003-0.4339905,0.2194004-0.4520874c0.5510998-0.0511169,0.6817999-0.1510925,0.7066994-0.59729
		c0.2333002-4.0470276,2.7318001-6.5265198,6.7356997-6.5265198c4.2259007,0,6.4916,2.1957092,6.7350998,6.5256042
		c0.028101,0.506012,0.4498997,0.9020081,0.9601002,0.9020081c0.1678009,0,0.3716011,0.1414795,0.5496998,0.3815918
		c-0.0338001,1.0584106-0.1420994,2.0434875-0.4946995,2.9024048c-0.3726997,0.3200073-0.7719002,0.5393982-1.0172997,0.5393982
		c-0.5065994,0-0.9264011,0.3902893-0.9596004,0.8929138C25.1729507,483.1141052,22.4820499,484.944397,19.6700497,484.944397z"/>
	<path opacity="0.5" fill-rule="evenodd" clip-rule="evenodd" d="M34.3396492,460.1282043
		c-0.5349007-1.7841187-2.3241005-3.1371155-4.0328999-3.1371155h-0.6121998c0-2.1950989-1.7912998-3.9760742-4.0023003-3.9760742
		c-1.0963993,0-2.0879993,0.4393005-2.8104992,1.1485901H17.118351c-0.7229004-0.7092896-1.7141008-1.1485901-2.8106003-1.1485901
		c-2.2110004,0-4.0022001,1.7809753-4.0022001,3.9760742H9.6932507c-1.7087002,0-3.4977002,1.3529968-4.0331001,3.1383057
		c-1.1097999,2.4695129-4.1598997,7.830719-4.1598997,10.6520081v1.1339111c0-2.8214111,3.0501001-8.1825256,4.1598997-10.6520996
		C6.1955504,459.4779968,7.9845505,458.125,9.6932507,458.125h0.6122999c0-2.1951904,1.7911997-3.9761963,4.0022001-3.9761963
		c1.0964994,0,2.0876999,0.4393921,2.8106003,1.1485901h5.7633991c0.7224998-0.709198,1.7140999-1.1485901,2.8104992-1.1485901
		c2.2110004,0,4.0023003,1.7810059,4.0023003,3.9761963h0.6121998c1.7087994,0,3.4979992,1.3529968,4.0328999,3.137085
		c1.0457001,2.3335266,4.160099,7.8415222,4.160099,10.6532288v-1.1339111
		C38.4997482,467.969696,35.3853493,462.4617004,34.3396492,460.1282043L34.3396492,460.1282043z M19.6700497,484.944397
		c-2.8120003,0-5.5898991-3.6124878-5.7746992-5.9190063c-0.0369005-0.4654846-0.4805002-0.8399048-0.9493999-0.8804016
		c-0.0011005,0-0.0033998-0.0011902-0.0047998-0.0014954c-0.5448008-0.8695984-0.7843008-1.7908936-0.8835001-2.8731995
		c-0.0675001,0.1044006-0.0859003,0.2546082-0.0494003,0.337616c0.0524998,1.4402771,0.2594004,2.5942993,0.9329004,3.6694946
		c0.0014,0.0003052,0.0036993,0.0014038,0.0047998,0.0014038c0.4688997,0.0404968,0.9124994,0.414978,0.9493999,0.8804932
		c0.1848001,2.306488,2.9626989,5.9190063,5.7746992,5.9190063s5.5029011-1.8304138,5.7733002-5.9023132
		c0.0331993-0.502594,0.453001-0.8928833,0.9596004-0.8928833c0.2453995,0,0.6445999-0.2194214,1.0172997-0.5395203
		c0.3526001-0.8588867,0.4608994-1.8439026,0.4946995-2.9024048c-0.0219002-0.0293884-0.0443001-0.0574951-0.0667-0.0838928
		c-0.0685997,0.6625061-0.1949997,1.2850037-0.4279995,1.8525085c-0.3726997,0.3200073-0.7719002,0.5393982-1.0172997,0.5393982
		c-0.5065994,0-0.9264011,0.3902893-0.9596004,0.8929138C25.1729507,483.1141052,22.4820499,484.944397,19.6700497,484.944397z"/>
</g>
</svg>
