<?xml version="1.0" encoding="utf-8"?>
<!-- Generator: Adobe Illustrator 17.0.0, SVG Export Plug-In . SVG Version: 6.00 Build 0)  -->
<!DOCTYPE svg PUBLIC "-//W3C//DTD SVG 1.1 Basic//EN" "http://www.w3.org/Graphics/SVG/1.1/DTD/svg11-basic.dtd">
<svg version="1.1" baseProfile="basic" id="Слой_1"
	 xmlns="http://www.w3.org/2000/svg" xmlns:xlink="http://www.w3.org/1999/xlink" x="0px" y="0px" width="40px" height="490px"
	 viewBox="0 0 40 490" xml:space="preserve">
<g opacity="0.6">
	<path fill="#FFFFFF" d="M38.131,468.743c0.023,0.022,0.047,0.043,0.07,0.066l-0.16-0.357c-0.072-0.189-0.157-0.368-0.245-0.548l-3.456-7.71
		c-0.535-1.784-2.324-3.137-4.033-3.137h-0.612c0-2.195-1.791-3.976-4.002-3.976c-1.096,0-2.088,0.44-2.81,1.149h-5.764
		c-0.723-0.709-1.714-1.149-2.81-1.149c-2.211,0-4.002,1.781-4.002,3.976H9.693c-1.709,0-3.498,1.353-4.033,3.138l-3.507,7.804
		c-0.06,0.128-0.121,0.253-0.173,0.385l-0.191,0.426c0.031-0.038,0.061-0.07,0.092-0.107c-0.229,0.677-0.381,1.39-0.381,2.145v2.109
		c0,3.715,3.008,6.721,6.719,6.721h3.321c0.177,0.098,0.352,0.182,0.522,0.25c0.802,4.836,5.744,6.994,7.609,6.994
		c1.651,0,6.823-2.103,7.61-6.957c0.206-0.072,0.412-0.172,0.616-0.286h3.887c3.71,0,6.718-3.006,6.718-6.721v-2.109
		C38.5,470.106,38.352,469.408,38.131,468.743z M19.67,485.009c-1.034,0-5.017-1.662-5.69-5.332h0.413
		c-0.174-0.111-0.315-0.238-0.465-0.361c-0.009-0.076-0.026-0.148-0.033-0.226c-0.037-0.466-0.481-0.84-0.949-0.88
		c-0.001,0-0.004-0.001-0.005-0.001c-0.673-1.075-0.887-2.383-0.939-3.823c0.497-0.015,0.904-0.399,0.932-0.896
		c0.083-1.44,0.437-3.011,1.37-4.252c0.032,0.051,0.076,0.117,0.099,0.157c0,0,0.789-1.021,2.108-1.863
		c0.85-0.358,1.886-0.569,3.159-0.569c4.226,0,6.492,2.196,6.735,6.526c0.028,0.506,0.45,0.902,0.96,0.902
		c0.168,0,0.372,0.141,0.549,0.381c-0.034,1.059-0.142,2.043-0.494,2.902c-0.373,0.32-0.772,0.539-1.017,0.539
		c-0.507,0-0.926,0.39-0.96,0.893C25.173,483.179,20.774,485.009,19.67,485.009z"/>
</g>
<g opacity="0.6">
	<path fill="#FFFFFF" d="M29.713,117.173c-1.389,0-2.515,1.127-2.515,2.521c0,1.394,1.126,2.521,2.515,2.521c1.389,0,2.515-1.127,2.515-2.521
		C32.227,118.301,31.101,117.173,29.713,117.173z M33.875,103.004H10.027c0-0.381-0.091-0.739-0.241-1.063l23.079-6.952
		c0.349,0.581,0.978,0.974,1.704,0.974c1.102,0,1.995-0.895,1.995-1.999c0-1.104-0.893-1.999-1.995-1.999s-1.995,0.895-1.995,1.999
		c0,0,0,0.001,0,0.001l-24.13,6.702c-0.289-0.116-0.602-0.183-0.932-0.183c-1.389,0-2.515,1.127-2.515,2.521
		c0,0.058,0.013,0.112,0.017,0.169c-1.756,0.49-3.052,2.088-3.052,4.003v16.69c0,2.304,1.864,4.173,4.163,4.173h27.75
		c2.298,0,4.163-1.869,4.163-4.173v-16.69C38.038,104.873,36.173,103.004,33.875,103.004z M25.381,106.406h8.494v5.423h-8.494
		V106.406z M7.513,123.172c0,0.385-0.31,0.695-0.694,0.695s-0.694-0.311-0.694-0.695v-6.954c0-0.385,0.31-0.695,0.694-0.695
		s0.694,0.311,0.694,0.695V123.172z M10.288,123.172c0,0.385-0.31,0.695-0.694,0.695c-0.383,0-0.694-0.311-0.694-0.695v-6.954
		c0-0.385,0.31-0.695,0.694-0.695c0.384,0,0.694,0.311,0.694,0.695V123.172z M13.063,123.172c0,0.385-0.31,0.695-0.694,0.695
		c-0.383,0-0.694-0.311-0.694-0.695v-6.954c0-0.385,0.31-0.695,0.694-0.695c0.384,0,0.694,0.311,0.694,0.695V123.172z
		 M15.838,123.172c0,0.385-0.31,0.695-0.694,0.695s-0.694-0.311-0.694-0.695v-6.954c0-0.385,0.31-0.695,0.694-0.695
		s0.694,0.311,0.694,0.695V123.172z M18.612,123.172c0,0.385-0.31,0.695-0.694,0.695c-0.384,0-0.694-0.311-0.694-0.695v-6.954
		c0-0.385,0.31-0.695,0.694-0.695c0.383,0,0.694,0.311,0.694,0.695V123.172z M21.387,123.172c0,0.385-0.31,0.695-0.694,0.695
		c-0.384,0-0.694-0.311-0.694-0.695v-6.954c0-0.385,0.31-0.695,0.694-0.695c0.383,0,0.694,0.311,0.694,0.695V123.172z
		 M24.501,111.828H6.125v-5.423h18.376V111.828z M29.713,124.098c-2.427,0-4.393-1.971-4.393-4.403c0-2.432,1.966-4.404,4.393-4.404
		c2.427,0,4.393,1.971,4.393,4.404C34.105,122.127,32.139,124.098,29.713,124.098z"/>
</g>
<g opacity="0.6">
	<path fill="#FFFFFF" fill-rule="evenodd" clip-rule="evenodd" d="M8.993,198.993v0.242c-2.712,1.756-4.525,3.374-4.525,8.251
		c0,4.94,1.813,6.495,4.525,8.251v0.242c0,2.018,3.997,2.018,3.997,0v-16.987C12.99,196.944,8.993,196.944,8.993,198.993z
		 M30.945,199.236v-0.242c0-2.018-3.966-2.018-3.966,0v16.987c0,1.956,3.966,1.956,3.966,0v-0.242
		c2.712-1.756,4.774-4.779,4.774-8.251C35.719,202.579,33.656,200.992,30.945,199.236z M38.351,205.444
		c0.87-0.209,1.649-1.192,1.649-2.953c0-8.743-5.231-19.984-20.016-19.984C4.076,182.506,0,193.716,0,202.491
		c0,1.953,0.957,2.944,1.935,2.989c-0.979,0.163-1.727,1.007-1.727,2.032c0,1.141,0.925,2.067,2.067,2.067s2.067-0.925,2.067-2.067
		c0-1.128-0.904-2.041-2.027-2.063c0.888-0.186,1.693-1.168,1.693-2.959c0-8.837,1.713-15.134,15.977-15.134
		c13.796,0,16.008,6.391,16.008,15.134c0,1.724,0.746,2.701,1.594,2.937c-0.986,0.157-1.741,1.004-1.741,2.034
		c0,1.141,0.925,2.067,2.067,2.067c1.141,0,2.067-0.925,2.067-2.067C39.979,206.471,39.281,205.645,38.351,205.444z"/>
</g>
<g opacity="0.6">
	<path fill="#FFFFFF" d="M30.028,289.005c0.615-0.803,1.064-3.387,0.603-5.174c-1.774-6.872-8.041-6.769-2.485-11.669
		c-13.664,3.774-3.765,11.853-11.529,12.989C20.002,287.485,26.811,289.2,30.028,289.005z M37.219,297.504
		c-0.655-1.231-1.742-2.05-2.955-2.389c-0.469-1.933-2.014-3.47-4.02-3.747c-11.463-1.582-15.41-4.635-15.449-4.664l0.114,0.097
		l-6.27,7.613c0.366,0.329,1.464,1.214,3.577,2.275c-1.807-0.543-2.823-1.094-2.902-1.137c-2.296-1.345-5.206-0.504-6.515,1.892
		c-1.316,2.408-0.516,5.477,1.788,6.853c0.604,0.362,6.177,3.532,15.421,3.532c9.244,0,14.816-3.17,15.421-3.532
		C37.716,302.93,38.501,299.909,37.219,297.504z"/>
</g>
<path fill="#FFFFFF" opacity="0.5" fill-rule="evenodd" clip-rule="evenodd" d="M39.809,377.135c0,0.028-0.001,0.055-0.002,0.084L39.809,377.135
	L39.809,377.135z M39.977,377.042l-0.169,0.01v0.041L39.977,377.042L39.977,377.042z M39.979,377.046l-0.171,0.006L39.979,377.046
	l-0.002-0.004L39.979,377.046L39.979,377.046z M39.994,377.087l-0.015-0.041C39.985,377.059,39.991,377.073,39.994,377.087
	l-0.186,0.006L39.994,377.087L39.994,377.087z M39.807,377.305L39.807,377.305L39.807,377.305L39.807,377.305z M39.807,377.261
	L39.807,377.261L39.807,377.261L39.807,377.261z M39.802,377.393L39.802,377.393L39.802,377.393L39.802,377.393z M39.802,377.348
	L39.802,377.348L39.802,377.348L39.802,377.348z M39.802,377.304l0.005,0.001L39.802,377.304L39.802,377.304z M39.792,377.391
	l0.009,0.001L39.792,377.391L39.792,377.391z M39.995,377.091l-0.001-0.004L39.995,377.091L39.995,377.091z M39.798,376.943
	l0.003,0.029v-0.029L39.798,376.943L39.798,376.943z M39.801,376.972l0.003,0.04l0.001,0.014h0.002v-0.015l-0.003,0l0.003,0v-0.04
	L39.801,376.972L39.801,376.972z M39.808,377.093l0.187-0.002c0.003,0.012,0.005,0.025,0.005,0.038l0-0.038v-0.005l-0.002-0.041
	l0-0.005h0l0-0.003l-0.007-0.178h-0.008l-0.007-0.08h-0.011l0-0.001l-0.001-0.004l-0.008-0.038l-0.001-0.006l-0.01-0.038
	l-0.037-0.145H39.9l-0.023-0.074H39.87l-0.027-0.072h-0.008l-0.001-0.002l-0.018-0.035l-0.002-0.004l0-0.001l-0.051-0.099h-0.007
	l-0.007-0.011l-0.003-0.005l-0.022-0.033l-0.002-0.004l-0.023-0.033l-0.004-0.005l-0.024-0.033l-0.003-0.004l-0.025-0.032
	l-0.002-0.004l-0.027-0.032l-0.004-0.004l-0.027-0.031l-0.003-0.004l-0.029-0.031l-0.003-0.003l-0.03-0.031l-0.004-0.004
	l-0.031-0.03l-0.003-0.003l-0.032-0.03l-0.003-0.003l-0.033-0.03l-0.002-0.001c-0.177-0.156-0.42-0.227-0.713-0.23
	c-0.262-0.003-0.57,0.05-0.91,0.142c-1.526,0.281-3.985,1.116-6.718,2.043l-0.728,0.247c-0.269-1.138-0.756-2.003-1.426-2.677
	c-0.686-0.69-1.562-1.174-2.593-1.541c-0.832-2.984-2.244-3.175-5.242-3.58c-0.493-0.066-1.031-0.139-1.602-0.229
	c-1.378-0.217-2.841,0.102-4.311,0.762c-1.429,0.642-2.867,1.606-4.237,2.711c-0.109-0.024-0.219-0.043-0.329-0.056
	c-0.141-0.017-0.284-0.026-0.429-0.026c-0.765,0-1.473,0.242-2.054,0.654c-0.578,0.411-1.029,0.991-1.279,1.668
	c-0.326,0.23-0.635,0.478-0.923,0.742c-0.301,0.276-0.578,0.566-0.828,0.869l0,0c-0.388,0.421-0.733,0.866-1.018,1.321
	c-0.239,0.381-0.434,0.767-0.576,1.151c-0.485-0.129-1.053-0.157-1.575-0.086c-0.569,0.077-1.091,0.273-1.41,0.588
	c-0.112,0.111-0.205,0.228-0.279,0.349c-0.209,0.343-0.269,0.719-0.201,1.086c0.067,0.36,0.258,0.71,0.554,1.009
	c0.147,0.149,0.32,0.286,0.516,0.405c0.164,0.1,0.528,0.117,0.913,0.135h0.001c0.392,0.018,0.81,0.038,0.924,0.121
	c1.355,0.985,1.736,1.362,1.662,1.464c-0.053,0.073-0.436,0.063-0.852,0.053c-0.746-0.019-1.575-0.039-1.605,0.582
	c-0.029,0.586,0.144,1.036,0.439,1.36c0.335,0.368,0.823,0.567,1.348,0.614c0.058,0.005,0.158,0.015,0.263,0.025
	c0.953,0.092,2.426,0.234,3.197-0.262c0.891,0.557,1.961,1.009,3.238,1.261c1.155,0.229,2.48,0.294,3.994,0.126l0.197-0.022h0.001
	l0.153-0.018c0.822,0.242,1.582,0.444,2.237,0.597c0.694,0.162,1.276,0.272,1.692,0.318c1.509,0.169,2.539,0.059,3.172-0.401
	c0.611-0.444,0.841-1.186,0.757-2.286c0.453,0.034,0.912,0.034,1.25,0.033c0.253,0,0.42-0.007,0.425-0.004
	c2.489,1.386,4.675,2.37,6.523,2.838c1.882,0.477,3.425,0.423,4.597-0.278l0.002-0.001l0.036-0.022l0.004-0.003l0.035-0.023
	l0.004-0.002l0.035-0.023l0.004-0.002l0.033-0.024l0.004-0.003l0.032-0.024l0.004-0.004l0.031-0.025l0.004-0.002l0.03-0.025
	l0.005-0.004l0.028-0.025l0.004-0.004h0.004l0.057-0.059l0.025-0.027l0.004-0.004l0.025-0.027l0.004-0.004l0.024-0.027l0.003-0.004
	l0.023-0.028l0.004-0.005l0.022-0.029l0.003-0.004l0.011-0.016l0.002-0.001l0.008-0.011l0,0l0.003-0.005l0.02-0.029l0.003-0.005
	l0.002-0.002h0.007l0.032-0.061l0.009-0.015v-0.003l0.01-0.019l0,0l0.002-0.005l0.013-0.025h0.008l0.049-0.121l0.012-0.03
	l0.002-0.002l0.015-0.042l0.003-0.007h0.008l0.036-0.142h0.008l0.025-0.148h0.007l0.008-0.077h0.005l0.012-0.169l0-0.008l0,0
	l0-0.003l0-0.005l0.001-0.001l0.003-0.071l0-0.002v-0.004l0.002-0.039v-0.002l0.001-0.04l0.001-0.005l0,0h-0.001l0-0.038
	l0.001-0.002v-0.04l-0.001-0.002l-0.001-0.083v-0.004l-0.003-0.082l-0.007-0.185h-0.005l-0.003-0.038l0,0
	c-0.006-0.071-0.014-0.147-0.023-0.226l-0.02-0.17h-0.001l-0.002-0.016l-0.012-0.093v-0.001l-0.013-0.094l0-0.001l0-0.003
	l-0.023-0.162h-0.001l-0.004-0.026l0-0.001l-0.001-0.007l-0.023-0.157h0l-0.019-0.13l-0.01-0.07v0l-0.001-0.006l-0.001-0.006v-0.001
	l-0.024-0.167c-0.009-0.064-0.02-0.149-0.033-0.256l-0.005-0.045l-0.007-0.059l-0.004-0.031l-0.008-0.074h0l-0.01-0.103h0.001
	l-0.009-0.107h0l-0.008-0.106l0,0l-0.007-0.107l0,0l-0.003-0.053l0,0l-0.002-0.044h0l0,0l-0.001-0.005v-0.004h0l-0.004-0.109l0,0
	l-0.003-0.107l-0.001-0.056v-0.052l0.001-0.109l0.001-0.055l0.002-0.055l0,0l0.002-0.055l0,0l0.003-0.055l0,0l0.003-0.056h0
	l0.004-0.055h0l0.005-0.057h-0.001l0.005-0.054h0l0.006-0.055h0l0.006-0.056h0l0.007-0.058h-0.001l0.007-0.054l0,0l0.009-0.059h0
	l0.009-0.055l0,0l0.01-0.059l0,0l0.01-0.054h0.001l0.011-0.059l0,0l0.003-0.015l0.118-0.164v-0.001l0.138-0.193l0,0l0.136-0.19
	l0.134-0.187l0.131-0.184v-0.001l0.13-0.181l0.127-0.178l0.125-0.175l0.123-0.173l0.12-0.17l0.001-0.001l0.118-0.167l0.116-0.164
	v-0.001l0.055-0.079h0.001l0.057-0.082l0.111-0.159v-0.001l0.108-0.156l0.001-0.001l0.048-0.07l0,0l0.007-0.01l0.05-0.074l0,0
	l0-0.001l0.103-0.151h0.001l0.1-0.149v-0.001l0.04-0.06h0l0.043-0.064l0.014-0.021h0l0.001-0.001l0.037-0.056h0.001l0.057-0.088
	l0.035-0.053h0.001l0.057-0.088l0.089-0.139l0.001-0.001l0.086-0.136l0.001-0.002l0.027-0.043h0.001l0.054-0.089l0.001-0.001
	l0.001-0.002l0.08-0.131l0.001-0.001l0.021-0.035h0.001l0.053-0.091l0.002-0.003l0.001-0.001l0.018-0.031h0.002l0.055-0.097
	l0.071-0.124l0.001-0.002l0.035-0.061v-0.001l0.034-0.061l0.001-0.002l0.01-0.019h0.002l0.055-0.103l0.008-0.014h0.001l0.023-0.044
	l0.001-0.001l0.03-0.058l0,0l0.001-0.001l0.005-0.01h0.002l0.052-0.107l0.003-0.006h0.002l0.052-0.11l0,0h0.002l0.051-0.113
	l0.025-0.055l0.001-0.001l0.02-0.046h0.002l0.043-0.104h0.002l0.043-0.114l0.003-0.008l0,0l0.001-0.002l0.02-0.051l0.001-0.002
	l0.01-0.026h0.003l0.032-0.099h0.003l0.028-0.097h0.004l0.025-0.095h0.004l0.035-0.149l0.008-0.035h0.006l0.014-0.089h0.006
	l0.01-0.087h0.006l0.007-0.086h0.007l0.006-0.181v-0.001v-0.004v0.004l-0.191-0.01l0.191,0.006L40,377.182v-0.005v-0.042
	l-0.191-0.001L40,377.132v0.003l-0.191-0.001L39.808,377.093L39.808,377.093z M39.807,377.218l0,0.008v0.001v0.017l0,0h-0.001
	l-0.001,0.017l-0.003,0.043l0.005,0v-0.043l-0.002,0l0.002,0V377.218L39.807,377.218z M39.802,377.304l-0.004,0.043l-0.005,0.044
	l0.009,0.001v-0.045l-0.004,0l0.004,0V377.304L39.802,377.304z M39.792,377.391v0.018l-0.002,0L39.792,377.391L39.792,377.391z
	 M39.807,376.971L39.807,376.971l-0.006,0.001L39.807,376.971L39.807,376.971z M40,377.129v0.003V377.129z"/>
<g opacity="1">
	<path fill="#FFFFFF" fill-rule="evenodd" d="M17.131,2.116L7.686,13.138H2.735c-0.792,0-1.439,0.766-1.439,1.705v10.229c0,0.939,0.646,1.705,1.439,1.705h4.961
		l9.39,10.956c1.439,1.705,2.883,0.826,2.883-1.498V3.361C19.969,1.203,18.373,0.644,17.131,2.116z M27.194,19.957
		c0-3.102-1.769-5.816-4.301-6.6c-0.766-0.231-1.554,0.308-1.756,1.219c-0.201,0.911,0.26,1.843,1.029,2.081
		c1.266,0.391,2.151,1.748,2.151,3.3s-0.885,2.909-2.151,3.3c-0.769,0.238-1.229,1.171-1.029,2.081
		c0.17,0.766,0.753,1.274,1.391,1.274c0.121,0,0.243-0.018,0.365-0.055C25.425,25.773,27.194,23.059,27.194,19.957z M32.949,19.957
		c0-5.023-2.32-9.627-6.053-12.013c-0.696-0.451-1.572-0.138-1.949,0.691c-0.378,0.829-0.117,1.863,0.583,2.309
		c2.802,1.791,4.541,5.244,4.541,9.012c0,3.754-1.731,7.201-4.518,8.994c-0.698,0.45-0.957,1.485-0.577,2.313
		c0.261,0.568,0.756,0.891,1.266,0.891c0.232,0,0.466-0.067,0.686-0.206C30.642,29.557,32.949,24.964,32.949,19.957z M29.998,3.204
		c-0.712-0.428-1.575-0.087-1.932,0.754c-0.358,0.841-0.073,1.866,0.637,2.289c4.393,2.627,7.123,7.88,7.123,13.709
		c0,5.829-2.73,11.082-7.123,13.709c-0.709,0.423-0.995,1.449-0.637,2.289c0.253,0.594,0.759,0.937,1.286,0.937
		c0.218,0,0.438-0.058,0.646-0.183c5.37-3.21,8.705-9.629,8.705-16.753S35.368,6.414,29.998,3.204z"/>
</g>
</svg>
